%TF.GenerationSoftware,KiCad,Pcbnew,(6.0.8-1)-1*%
%TF.CreationDate,2023-03-04T15:31:58-08:00*%
%TF.ProjectId,Urban Battery - BMS_complement,55726261-6e20-4426-9174-74657279202d,rev?*%
%TF.SameCoordinates,Original*%
%TF.FileFunction,Legend,Top*%
%TF.FilePolarity,Positive*%
%FSLAX46Y46*%
G04 Gerber Fmt 4.6, Leading zero omitted, Abs format (unit mm)*
G04 Created by KiCad (PCBNEW (6.0.8-1)-1) date 2023-03-04 15:31:58*
%MOMM*%
%LPD*%
G01*
G04 APERTURE LIST*
G04 Aperture macros list*
%AMRoundRect*
0 Rectangle with rounded corners*
0 $1 Rounding radius*
0 $2 $3 $4 $5 $6 $7 $8 $9 X,Y pos of 4 corners*
0 Add a 4 corners polygon primitive as box body*
4,1,4,$2,$3,$4,$5,$6,$7,$8,$9,$2,$3,0*
0 Add four circle primitives for the rounded corners*
1,1,$1+$1,$2,$3*
1,1,$1+$1,$4,$5*
1,1,$1+$1,$6,$7*
1,1,$1+$1,$8,$9*
0 Add four rect primitives between the rounded corners*
20,1,$1+$1,$2,$3,$4,$5,0*
20,1,$1+$1,$4,$5,$6,$7,0*
20,1,$1+$1,$6,$7,$8,$9,0*
20,1,$1+$1,$8,$9,$2,$3,0*%
G04 Aperture macros list end*
%ADD10C,0.150000*%
%ADD11C,0.200000*%
%ADD12C,0.300000*%
%ADD13C,0.254000*%
%ADD14C,0.120000*%
%ADD15C,0.100000*%
%ADD16C,0.400000*%
%ADD17C,3.000000*%
%ADD18RoundRect,0.250001X0.499999X0.759999X-0.499999X0.759999X-0.499999X-0.759999X0.499999X-0.759999X0*%
%ADD19O,1.500000X2.020000*%
%ADD20R,2.600000X2.600000*%
%ADD21C,2.600000*%
%ADD22RoundRect,0.250001X1.099999X1.599999X-1.099999X1.599999X-1.099999X-1.599999X1.099999X-1.599999X0*%
%ADD23O,2.700000X3.700000*%
%ADD24R,1.600000X1.600000*%
%ADD25O,1.600000X1.600000*%
%ADD26C,3.200000*%
%ADD27R,2.000000X2.000000*%
%ADD28RoundRect,0.250000X0.337500X0.475000X-0.337500X0.475000X-0.337500X-0.475000X0.337500X-0.475000X0*%
%ADD29C,2.780000*%
%ADD30RoundRect,0.150000X-0.875000X-0.150000X0.875000X-0.150000X0.875000X0.150000X-0.875000X0.150000X0*%
%ADD31R,2.400000X2.400000*%
%ADD32C,2.400000*%
%ADD33RoundRect,0.250000X-0.350000X-0.450000X0.350000X-0.450000X0.350000X0.450000X-0.350000X0.450000X0*%
%ADD34O,2.000000X3.000000*%
%ADD35R,3.000000X2.000000*%
%ADD36O,3.000000X2.000000*%
%ADD37RoundRect,0.250000X0.475000X-0.337500X0.475000X0.337500X-0.475000X0.337500X-0.475000X-0.337500X0*%
%ADD38R,2.200000X2.200000*%
%ADD39O,2.200000X2.200000*%
%ADD40R,1.700000X1.700000*%
%ADD41O,1.700000X1.700000*%
%ADD42C,1.500000*%
%ADD43RoundRect,0.250000X-1.000000X1.950000X-1.000000X-1.950000X1.000000X-1.950000X1.000000X1.950000X0*%
%ADD44C,3.400000*%
%ADD45R,1.690000X1.690000*%
%ADD46C,1.690000*%
%ADD47C,2.616200*%
%ADD48RoundRect,0.150000X-0.825000X-0.150000X0.825000X-0.150000X0.825000X0.150000X-0.825000X0.150000X0*%
%ADD49C,1.100000*%
%ADD50C,1.300000*%
%ADD51RoundRect,0.250000X0.450000X-0.350000X0.450000X0.350000X-0.450000X0.350000X-0.450000X-0.350000X0*%
%ADD52C,1.900000*%
%ADD53C,2.100000*%
%ADD54C,1.750000*%
%ADD55C,2.000000*%
%ADD56R,1.100000X4.600000*%
%ADD57R,10.800000X9.400000*%
G04 APERTURE END LIST*
D10*
X111506000Y-119126000D02*
X134874000Y-119126000D01*
X134874000Y-119126000D02*
X134874000Y-115570000D01*
X134874000Y-115570000D02*
X111506000Y-115570000D01*
X111506000Y-115570000D02*
X111506000Y-119126000D01*
D11*
X137160000Y-122936000D02*
X185420000Y-122936000D01*
X185420000Y-122936000D02*
X185420000Y-119380000D01*
X185420000Y-119380000D02*
X137160000Y-119380000D01*
X137160000Y-119380000D02*
X137160000Y-122936000D01*
D10*
X217170000Y-77216000D02*
X213614000Y-77216000D01*
X213614000Y-77216000D02*
X213614000Y-108204000D01*
X213614000Y-108204000D02*
X217170000Y-108204000D01*
X217170000Y-108204000D02*
X217170000Y-77216000D01*
D12*
X157218571Y-121050857D02*
X157718571Y-121050857D01*
X157932857Y-121836571D02*
X157218571Y-121836571D01*
X157218571Y-120336571D01*
X157932857Y-120336571D01*
X158575714Y-121265142D02*
X159718571Y-121265142D01*
X160361428Y-121765142D02*
X160575714Y-121836571D01*
X160932857Y-121836571D01*
X161075714Y-121765142D01*
X161147142Y-121693714D01*
X161218571Y-121550857D01*
X161218571Y-121408000D01*
X161147142Y-121265142D01*
X161075714Y-121193714D01*
X160932857Y-121122285D01*
X160647142Y-121050857D01*
X160504285Y-120979428D01*
X160432857Y-120908000D01*
X160361428Y-120765142D01*
X160361428Y-120622285D01*
X160432857Y-120479428D01*
X160504285Y-120408000D01*
X160647142Y-120336571D01*
X161004285Y-120336571D01*
X161218571Y-120408000D01*
X161647142Y-120336571D02*
X162504285Y-120336571D01*
X162075714Y-121836571D02*
X162075714Y-120336571D01*
X163290000Y-120336571D02*
X163575714Y-120336571D01*
X163718571Y-120408000D01*
X163861428Y-120550857D01*
X163932857Y-120836571D01*
X163932857Y-121336571D01*
X163861428Y-121622285D01*
X163718571Y-121765142D01*
X163575714Y-121836571D01*
X163290000Y-121836571D01*
X163147142Y-121765142D01*
X163004285Y-121622285D01*
X162932857Y-121336571D01*
X162932857Y-120836571D01*
X163004285Y-120550857D01*
X163147142Y-120408000D01*
X163290000Y-120336571D01*
X164575714Y-121836571D02*
X164575714Y-120336571D01*
X165147142Y-120336571D01*
X165290000Y-120408000D01*
X165361428Y-120479428D01*
X165432857Y-120622285D01*
X165432857Y-120836571D01*
X165361428Y-120979428D01*
X165290000Y-121050857D01*
X165147142Y-121122285D01*
X164575714Y-121122285D01*
X206248095Y-115077857D02*
X207771904Y-115077857D01*
X214570571Y-99388571D02*
X214570571Y-98531428D01*
X216070571Y-98960000D02*
X214570571Y-98960000D01*
X216070571Y-98031428D02*
X214570571Y-98031428D01*
X215284857Y-98031428D02*
X215284857Y-97174285D01*
X216070571Y-97174285D02*
X214570571Y-97174285D01*
X215284857Y-96460000D02*
X215284857Y-95960000D01*
X216070571Y-95745714D02*
X216070571Y-96460000D01*
X214570571Y-96460000D01*
X214570571Y-95745714D01*
X216070571Y-94245714D02*
X215356285Y-94745714D01*
X216070571Y-95102857D02*
X214570571Y-95102857D01*
X214570571Y-94531428D01*
X214642000Y-94388571D01*
X214713428Y-94317142D01*
X214856285Y-94245714D01*
X215070571Y-94245714D01*
X215213428Y-94317142D01*
X215284857Y-94388571D01*
X215356285Y-94531428D01*
X215356285Y-95102857D01*
X216070571Y-93602857D02*
X214570571Y-93602857D01*
X215642000Y-93102857D01*
X214570571Y-92602857D01*
X216070571Y-92602857D01*
X216070571Y-91888571D02*
X214570571Y-91888571D01*
X215999142Y-91245714D02*
X216070571Y-91031428D01*
X216070571Y-90674285D01*
X215999142Y-90531428D01*
X215927714Y-90460000D01*
X215784857Y-90388571D01*
X215642000Y-90388571D01*
X215499142Y-90460000D01*
X215427714Y-90531428D01*
X215356285Y-90674285D01*
X215284857Y-90960000D01*
X215213428Y-91102857D01*
X215142000Y-91174285D01*
X214999142Y-91245714D01*
X214856285Y-91245714D01*
X214713428Y-91174285D01*
X214642000Y-91102857D01*
X214570571Y-90960000D01*
X214570571Y-90602857D01*
X214642000Y-90388571D01*
X214570571Y-89960000D02*
X214570571Y-89102857D01*
X216070571Y-89531428D02*
X214570571Y-89531428D01*
X214570571Y-88317142D02*
X214570571Y-88031428D01*
X214642000Y-87888571D01*
X214784857Y-87745714D01*
X215070571Y-87674285D01*
X215570571Y-87674285D01*
X215856285Y-87745714D01*
X215999142Y-87888571D01*
X216070571Y-88031428D01*
X216070571Y-88317142D01*
X215999142Y-88460000D01*
X215856285Y-88602857D01*
X215570571Y-88674285D01*
X215070571Y-88674285D01*
X214784857Y-88602857D01*
X214642000Y-88460000D01*
X214570571Y-88317142D01*
X216070571Y-86174285D02*
X215356285Y-86674285D01*
X216070571Y-87031428D02*
X214570571Y-87031428D01*
X214570571Y-86460000D01*
X214642000Y-86317142D01*
X214713428Y-86245714D01*
X214856285Y-86174285D01*
X215070571Y-86174285D01*
X215213428Y-86245714D01*
X215284857Y-86317142D01*
X215356285Y-86460000D01*
X215356285Y-87031428D01*
D10*
X215277571Y-70826000D02*
X215325190Y-70683142D01*
X215372809Y-70635523D01*
X215468047Y-70587904D01*
X215610904Y-70587904D01*
X215706142Y-70635523D01*
X215753761Y-70683142D01*
X215801380Y-70778380D01*
X215801380Y-71159333D01*
X214801380Y-71159333D01*
X214801380Y-70826000D01*
X214849000Y-70730761D01*
X214896619Y-70683142D01*
X214991857Y-70635523D01*
X215087095Y-70635523D01*
X215182333Y-70683142D01*
X215229952Y-70730761D01*
X215277571Y-70826000D01*
X215277571Y-71159333D01*
X215515666Y-70206952D02*
X215515666Y-69730761D01*
X215801380Y-70302190D02*
X214801380Y-69968857D01*
X215801380Y-69635523D01*
X214801380Y-69445047D02*
X214801380Y-68873619D01*
X215801380Y-69159333D02*
X214801380Y-69159333D01*
X214801380Y-68683142D02*
X214801380Y-68111714D01*
X215801380Y-68397428D02*
X214801380Y-68397428D01*
X215277571Y-67778380D02*
X215277571Y-67445047D01*
X215801380Y-67302190D02*
X215801380Y-67778380D01*
X214801380Y-67778380D01*
X214801380Y-67302190D01*
X215801380Y-66302190D02*
X215325190Y-66635523D01*
X215801380Y-66873619D02*
X214801380Y-66873619D01*
X214801380Y-66492666D01*
X214849000Y-66397428D01*
X214896619Y-66349809D01*
X214991857Y-66302190D01*
X215134714Y-66302190D01*
X215229952Y-66349809D01*
X215277571Y-66397428D01*
X215325190Y-66492666D01*
X215325190Y-66873619D01*
X215325190Y-65683142D02*
X215801380Y-65683142D01*
X214801380Y-66016476D02*
X215325190Y-65683142D01*
X214801380Y-65349809D01*
X217030428Y-71230761D02*
X217030428Y-70468857D01*
X217411380Y-70849809D02*
X216649476Y-70849809D01*
X217030428Y-66183142D02*
X217030428Y-65421238D01*
D12*
X122225714Y-117883714D02*
X122154285Y-117955142D01*
X121940000Y-118026571D01*
X121797142Y-118026571D01*
X121582857Y-117955142D01*
X121440000Y-117812285D01*
X121368571Y-117669428D01*
X121297142Y-117383714D01*
X121297142Y-117169428D01*
X121368571Y-116883714D01*
X121440000Y-116740857D01*
X121582857Y-116598000D01*
X121797142Y-116526571D01*
X121940000Y-116526571D01*
X122154285Y-116598000D01*
X122225714Y-116669428D01*
X122797142Y-117598000D02*
X123511428Y-117598000D01*
X122654285Y-118026571D02*
X123154285Y-116526571D01*
X123654285Y-118026571D01*
X124154285Y-118026571D02*
X124154285Y-116526571D01*
X125011428Y-118026571D01*
X125011428Y-116526571D01*
D10*
X190139642Y-56098285D02*
X190311071Y-56155428D01*
X190368214Y-56212571D01*
X190425357Y-56326857D01*
X190425357Y-56498285D01*
X190368214Y-56612571D01*
X190311071Y-56669714D01*
X190196785Y-56726857D01*
X189739642Y-56726857D01*
X189739642Y-55526857D01*
X190139642Y-55526857D01*
X190253928Y-55584000D01*
X190311071Y-55641142D01*
X190368214Y-55755428D01*
X190368214Y-55869714D01*
X190311071Y-55984000D01*
X190253928Y-56041142D01*
X190139642Y-56098285D01*
X189739642Y-56098285D01*
X190939642Y-56726857D02*
X190939642Y-55526857D01*
X191339642Y-56384000D01*
X191739642Y-55526857D01*
X191739642Y-56726857D01*
X192253928Y-56669714D02*
X192425357Y-56726857D01*
X192711071Y-56726857D01*
X192825357Y-56669714D01*
X192882500Y-56612571D01*
X192939642Y-56498285D01*
X192939642Y-56384000D01*
X192882500Y-56269714D01*
X192825357Y-56212571D01*
X192711071Y-56155428D01*
X192482500Y-56098285D01*
X192368214Y-56041142D01*
X192311071Y-55984000D01*
X192253928Y-55869714D01*
X192253928Y-55755428D01*
X192311071Y-55641142D01*
X192368214Y-55584000D01*
X192482500Y-55526857D01*
X192768214Y-55526857D01*
X192939642Y-55584000D01*
X194768214Y-56098285D02*
X194939642Y-56155428D01*
X194996785Y-56212571D01*
X195053928Y-56326857D01*
X195053928Y-56498285D01*
X194996785Y-56612571D01*
X194939642Y-56669714D01*
X194825357Y-56726857D01*
X194368214Y-56726857D01*
X194368214Y-55526857D01*
X194768214Y-55526857D01*
X194882500Y-55584000D01*
X194939642Y-55641142D01*
X194996785Y-55755428D01*
X194996785Y-55869714D01*
X194939642Y-55984000D01*
X194882500Y-56041142D01*
X194768214Y-56098285D01*
X194368214Y-56098285D01*
X195568214Y-56098285D02*
X195968214Y-56098285D01*
X196139642Y-56726857D02*
X195568214Y-56726857D01*
X195568214Y-55526857D01*
X196139642Y-55526857D01*
X196596785Y-56669714D02*
X196768214Y-56726857D01*
X197053928Y-56726857D01*
X197168214Y-56669714D01*
X197225357Y-56612571D01*
X197282500Y-56498285D01*
X197282500Y-56384000D01*
X197225357Y-56269714D01*
X197168214Y-56212571D01*
X197053928Y-56155428D01*
X196825357Y-56098285D01*
X196711071Y-56041142D01*
X196653928Y-55984000D01*
X196596785Y-55869714D01*
X196596785Y-55755428D01*
X196653928Y-55641142D01*
X196711071Y-55584000D01*
X196825357Y-55526857D01*
X197111071Y-55526857D01*
X197282500Y-55584000D01*
X197625357Y-55526857D02*
X198311071Y-55526857D01*
X197968214Y-56726857D02*
X197968214Y-55526857D01*
X198711071Y-56726857D02*
X198711071Y-55526857D01*
X199282500Y-56098285D02*
X199682500Y-56098285D01*
X199853928Y-56726857D02*
X199282500Y-56726857D01*
X199282500Y-55526857D01*
X199853928Y-55526857D01*
X201111071Y-55526857D02*
X201511071Y-56726857D01*
X201911071Y-55526857D01*
X202253928Y-55641142D02*
X202311071Y-55584000D01*
X202425357Y-55526857D01*
X202711071Y-55526857D01*
X202825357Y-55584000D01*
X202882500Y-55641142D01*
X202939642Y-55755428D01*
X202939642Y-55869714D01*
X202882500Y-56041142D01*
X202196785Y-56726857D01*
X202939642Y-56726857D01*
X203453928Y-56612571D02*
X203511071Y-56669714D01*
X203453928Y-56726857D01*
X203396785Y-56669714D01*
X203453928Y-56612571D01*
X203453928Y-56726857D01*
X204253928Y-55526857D02*
X204368214Y-55526857D01*
X204482500Y-55584000D01*
X204539642Y-55641142D01*
X204596785Y-55755428D01*
X204653928Y-55984000D01*
X204653928Y-56269714D01*
X204596785Y-56498285D01*
X204539642Y-56612571D01*
X204482500Y-56669714D01*
X204368214Y-56726857D01*
X204253928Y-56726857D01*
X204139642Y-56669714D01*
X204082500Y-56612571D01*
X204025357Y-56498285D01*
X203968214Y-56269714D01*
X203968214Y-55984000D01*
X204025357Y-55755428D01*
X204082500Y-55641142D01*
X204139642Y-55584000D01*
X204253928Y-55526857D01*
X185111071Y-58601714D02*
X185282500Y-58658857D01*
X185568214Y-58658857D01*
X185682500Y-58601714D01*
X185739642Y-58544571D01*
X185796785Y-58430285D01*
X185796785Y-58316000D01*
X185739642Y-58201714D01*
X185682500Y-58144571D01*
X185568214Y-58087428D01*
X185339642Y-58030285D01*
X185225357Y-57973142D01*
X185168214Y-57916000D01*
X185111071Y-57801714D01*
X185111071Y-57687428D01*
X185168214Y-57573142D01*
X185225357Y-57516000D01*
X185339642Y-57458857D01*
X185625357Y-57458857D01*
X185796785Y-57516000D01*
X186311071Y-58658857D02*
X186311071Y-57458857D01*
X186311071Y-58030285D02*
X186996785Y-58030285D01*
X186996785Y-58658857D02*
X186996785Y-57458857D01*
X187568214Y-58030285D02*
X187968214Y-58030285D01*
X188139642Y-58658857D02*
X187568214Y-58658857D01*
X187568214Y-57458857D01*
X188139642Y-57458857D01*
X189225357Y-58658857D02*
X188653928Y-58658857D01*
X188653928Y-57458857D01*
X190196785Y-58658857D02*
X189625357Y-58658857D01*
X189625357Y-57458857D01*
X191511071Y-58030285D02*
X191911071Y-58030285D01*
X192082500Y-58658857D02*
X191511071Y-58658857D01*
X191511071Y-57458857D01*
X192082500Y-57458857D01*
X193282500Y-58544571D02*
X193225357Y-58601714D01*
X193053928Y-58658857D01*
X192939642Y-58658857D01*
X192768214Y-58601714D01*
X192653928Y-58487428D01*
X192596785Y-58373142D01*
X192539642Y-58144571D01*
X192539642Y-57973142D01*
X192596785Y-57744571D01*
X192653928Y-57630285D01*
X192768214Y-57516000D01*
X192939642Y-57458857D01*
X193053928Y-57458857D01*
X193225357Y-57516000D01*
X193282500Y-57573142D01*
X194025357Y-57458857D02*
X194253928Y-57458857D01*
X194368214Y-57516000D01*
X194482500Y-57630285D01*
X194539642Y-57858857D01*
X194539642Y-58258857D01*
X194482500Y-58487428D01*
X194368214Y-58601714D01*
X194253928Y-58658857D01*
X194025357Y-58658857D01*
X193911071Y-58601714D01*
X193796785Y-58487428D01*
X193739642Y-58258857D01*
X193739642Y-57858857D01*
X193796785Y-57630285D01*
X193911071Y-57516000D01*
X194025357Y-57458857D01*
X195053928Y-58201714D02*
X195968214Y-58201714D01*
X196539642Y-58658857D02*
X196539642Y-57458857D01*
X196939642Y-58316000D01*
X197339642Y-57458857D01*
X197339642Y-58658857D01*
X197853928Y-58316000D02*
X198425357Y-58316000D01*
X197739642Y-58658857D02*
X198139642Y-57458857D01*
X198539642Y-58658857D01*
X199625357Y-58658857D02*
X199225357Y-58087428D01*
X198939642Y-58658857D02*
X198939642Y-57458857D01*
X199396785Y-57458857D01*
X199511071Y-57516000D01*
X199568214Y-57573142D01*
X199625357Y-57687428D01*
X199625357Y-57858857D01*
X199568214Y-57973142D01*
X199511071Y-58030285D01*
X199396785Y-58087428D01*
X198939642Y-58087428D01*
X200082500Y-58316000D02*
X200653928Y-58316000D01*
X199968214Y-58658857D02*
X200368214Y-57458857D01*
X200768214Y-58658857D01*
X200996785Y-57458857D02*
X201682500Y-57458857D01*
X201339642Y-58658857D02*
X201339642Y-57458857D01*
X202082500Y-58658857D02*
X202082500Y-57458857D01*
X202082500Y-58030285D02*
X202768214Y-58030285D01*
X202768214Y-58658857D02*
X202768214Y-57458857D01*
X203568214Y-57458857D02*
X203796785Y-57458857D01*
X203911071Y-57516000D01*
X204025357Y-57630285D01*
X204082500Y-57858857D01*
X204082500Y-58258857D01*
X204025357Y-58487428D01*
X203911071Y-58601714D01*
X203796785Y-58658857D01*
X203568214Y-58658857D01*
X203453928Y-58601714D01*
X203339642Y-58487428D01*
X203282500Y-58258857D01*
X203282500Y-57858857D01*
X203339642Y-57630285D01*
X203453928Y-57516000D01*
X203568214Y-57458857D01*
X204596785Y-58658857D02*
X204596785Y-57458857D01*
X205282500Y-58658857D01*
X205282500Y-57458857D01*
X206711071Y-57573142D02*
X206768214Y-57516000D01*
X206882500Y-57458857D01*
X207168214Y-57458857D01*
X207282500Y-57516000D01*
X207339642Y-57573142D01*
X207396785Y-57687428D01*
X207396785Y-57801714D01*
X207339642Y-57973142D01*
X206653928Y-58658857D01*
X207396785Y-58658857D01*
X208139642Y-57458857D02*
X208368214Y-57458857D01*
X208482500Y-57516000D01*
X208596785Y-57630285D01*
X208653928Y-57858857D01*
X208653928Y-58258857D01*
X208596785Y-58487428D01*
X208482500Y-58601714D01*
X208368214Y-58658857D01*
X208139642Y-58658857D01*
X208025357Y-58601714D01*
X207911071Y-58487428D01*
X207853928Y-58258857D01*
X207853928Y-57858857D01*
X207911071Y-57630285D01*
X208025357Y-57516000D01*
X208139642Y-57458857D01*
X209111071Y-57573142D02*
X209168214Y-57516000D01*
X209282500Y-57458857D01*
X209568214Y-57458857D01*
X209682500Y-57516000D01*
X209739642Y-57573142D01*
X209796785Y-57687428D01*
X209796785Y-57801714D01*
X209739642Y-57973142D01*
X209053928Y-58658857D01*
X209796785Y-58658857D01*
X210196785Y-57458857D02*
X210939642Y-57458857D01*
X210539642Y-57916000D01*
X210711071Y-57916000D01*
X210825357Y-57973142D01*
X210882500Y-58030285D01*
X210939642Y-58144571D01*
X210939642Y-58430285D01*
X210882500Y-58544571D01*
X210825357Y-58601714D01*
X210711071Y-58658857D01*
X210368214Y-58658857D01*
X210253928Y-58601714D01*
X210196785Y-58544571D01*
X126563809Y-118816380D02*
X126563809Y-117816380D01*
X126563809Y-118292571D02*
X127135238Y-118292571D01*
X127135238Y-118816380D02*
X127135238Y-117816380D01*
X128897142Y-117864000D02*
X128801904Y-117816380D01*
X128659047Y-117816380D01*
X128516190Y-117864000D01*
X128420952Y-117959238D01*
X128373333Y-118054476D01*
X128325714Y-118244952D01*
X128325714Y-118387809D01*
X128373333Y-118578285D01*
X128420952Y-118673523D01*
X128516190Y-118768761D01*
X128659047Y-118816380D01*
X128754285Y-118816380D01*
X128897142Y-118768761D01*
X128944761Y-118721142D01*
X128944761Y-118387809D01*
X128754285Y-118387809D01*
X129373333Y-118816380D02*
X129373333Y-117816380D01*
X129944761Y-118816380D01*
X129944761Y-117816380D01*
X130420952Y-118816380D02*
X130420952Y-117816380D01*
X130659047Y-117816380D01*
X130801904Y-117864000D01*
X130897142Y-117959238D01*
X130944761Y-118054476D01*
X130992380Y-118244952D01*
X130992380Y-118387809D01*
X130944761Y-118578285D01*
X130897142Y-118673523D01*
X130801904Y-118768761D01*
X130659047Y-118816380D01*
X130420952Y-118816380D01*
X132659047Y-118816380D02*
X132182857Y-118816380D01*
X132182857Y-117816380D01*
X172371428Y-56669714D02*
X172542857Y-56726857D01*
X172828571Y-56726857D01*
X172942857Y-56669714D01*
X173000000Y-56612571D01*
X173057142Y-56498285D01*
X173057142Y-56384000D01*
X173000000Y-56269714D01*
X172942857Y-56212571D01*
X172828571Y-56155428D01*
X172600000Y-56098285D01*
X172485714Y-56041142D01*
X172428571Y-55984000D01*
X172371428Y-55869714D01*
X172371428Y-55755428D01*
X172428571Y-55641142D01*
X172485714Y-55584000D01*
X172600000Y-55526857D01*
X172885714Y-55526857D01*
X173057142Y-55584000D01*
X174085714Y-56726857D02*
X174085714Y-56098285D01*
X174028571Y-55984000D01*
X173914285Y-55926857D01*
X173685714Y-55926857D01*
X173571428Y-55984000D01*
X174085714Y-56669714D02*
X173971428Y-56726857D01*
X173685714Y-56726857D01*
X173571428Y-56669714D01*
X173514285Y-56555428D01*
X173514285Y-56441142D01*
X173571428Y-56326857D01*
X173685714Y-56269714D01*
X173971428Y-56269714D01*
X174085714Y-56212571D01*
X174657142Y-56726857D02*
X174657142Y-55926857D01*
X174657142Y-56155428D02*
X174714285Y-56041142D01*
X174771428Y-55984000D01*
X174885714Y-55926857D01*
X175000000Y-55926857D01*
X175914285Y-56726857D02*
X175914285Y-56098285D01*
X175857142Y-55984000D01*
X175742857Y-55926857D01*
X175514285Y-55926857D01*
X175400000Y-55984000D01*
X175914285Y-56669714D02*
X175800000Y-56726857D01*
X175514285Y-56726857D01*
X175400000Y-56669714D01*
X175342857Y-56555428D01*
X175342857Y-56441142D01*
X175400000Y-56326857D01*
X175514285Y-56269714D01*
X175800000Y-56269714D01*
X175914285Y-56212571D01*
X176485714Y-56726857D02*
X176485714Y-55526857D01*
X177000000Y-56726857D02*
X177000000Y-56098285D01*
X176942857Y-55984000D01*
X176828571Y-55926857D01*
X176657142Y-55926857D01*
X176542857Y-55984000D01*
X176485714Y-56041142D01*
X179285714Y-56841142D02*
X179171428Y-56784000D01*
X179057142Y-56669714D01*
X178885714Y-56498285D01*
X178771428Y-56441142D01*
X178657142Y-56441142D01*
X178714285Y-56726857D02*
X178600000Y-56669714D01*
X178485714Y-56555428D01*
X178428571Y-56326857D01*
X178428571Y-55926857D01*
X178485714Y-55698285D01*
X178600000Y-55584000D01*
X178714285Y-55526857D01*
X178942857Y-55526857D01*
X179057142Y-55584000D01*
X179171428Y-55698285D01*
X179228571Y-55926857D01*
X179228571Y-56326857D01*
X179171428Y-56555428D01*
X179057142Y-56669714D01*
X178942857Y-56726857D01*
X178714285Y-56726857D01*
X180257142Y-56726857D02*
X180257142Y-56098285D01*
X180200000Y-55984000D01*
X180085714Y-55926857D01*
X179857142Y-55926857D01*
X179742857Y-55984000D01*
X180257142Y-56669714D02*
X180142857Y-56726857D01*
X179857142Y-56726857D01*
X179742857Y-56669714D01*
X179685714Y-56555428D01*
X179685714Y-56441142D01*
X179742857Y-56326857D01*
X179857142Y-56269714D01*
X180142857Y-56269714D01*
X180257142Y-56212571D01*
X181342857Y-56726857D02*
X181342857Y-55526857D01*
X181342857Y-56669714D02*
X181228571Y-56726857D01*
X181000000Y-56726857D01*
X180885714Y-56669714D01*
X180828571Y-56612571D01*
X180771428Y-56498285D01*
X180771428Y-56155428D01*
X180828571Y-56041142D01*
X180885714Y-55984000D01*
X181000000Y-55926857D01*
X181228571Y-55926857D01*
X181342857Y-55984000D01*
X182428571Y-56726857D02*
X182428571Y-56098285D01*
X182371428Y-55984000D01*
X182257142Y-55926857D01*
X182028571Y-55926857D01*
X181914285Y-55984000D01*
X182428571Y-56669714D02*
X182314285Y-56726857D01*
X182028571Y-56726857D01*
X181914285Y-56669714D01*
X181857142Y-56555428D01*
X181857142Y-56441142D01*
X181914285Y-56326857D01*
X182028571Y-56269714D01*
X182314285Y-56269714D01*
X182428571Y-56212571D01*
X183000000Y-56726857D02*
X183000000Y-55926857D01*
X183000000Y-56155428D02*
X183057142Y-56041142D01*
X183114285Y-55984000D01*
X183228571Y-55926857D01*
X183342857Y-55926857D01*
X173828571Y-57458857D02*
X173828571Y-58316000D01*
X173771428Y-58487428D01*
X173657142Y-58601714D01*
X173485714Y-58658857D01*
X173371428Y-58658857D01*
X174857142Y-58601714D02*
X174742857Y-58658857D01*
X174514285Y-58658857D01*
X174400000Y-58601714D01*
X174342857Y-58487428D01*
X174342857Y-58030285D01*
X174400000Y-57916000D01*
X174514285Y-57858857D01*
X174742857Y-57858857D01*
X174857142Y-57916000D01*
X174914285Y-58030285D01*
X174914285Y-58144571D01*
X174342857Y-58258857D01*
X175257142Y-57858857D02*
X175714285Y-57858857D01*
X175428571Y-58658857D02*
X175428571Y-57630285D01*
X175485714Y-57516000D01*
X175600000Y-57458857D01*
X175714285Y-57458857D01*
X175942857Y-57858857D02*
X176400000Y-57858857D01*
X176114285Y-58658857D02*
X176114285Y-57630285D01*
X176171428Y-57516000D01*
X176285714Y-57458857D01*
X176400000Y-57458857D01*
X176800000Y-58658857D02*
X176800000Y-57858857D01*
X176800000Y-58087428D02*
X176857142Y-57973142D01*
X176914285Y-57916000D01*
X177028571Y-57858857D01*
X177142857Y-57858857D01*
X178000000Y-58601714D02*
X177885714Y-58658857D01*
X177657142Y-58658857D01*
X177542857Y-58601714D01*
X177485714Y-58487428D01*
X177485714Y-58030285D01*
X177542857Y-57916000D01*
X177657142Y-57858857D01*
X177885714Y-57858857D01*
X178000000Y-57916000D01*
X178057142Y-58030285D01*
X178057142Y-58144571D01*
X177485714Y-58258857D01*
X178457142Y-57858857D02*
X178742857Y-58658857D01*
X179028571Y-57858857D02*
X178742857Y-58658857D01*
X178628571Y-58944571D01*
X178571428Y-59001714D01*
X178457142Y-59058857D01*
X180400000Y-58658857D02*
X180400000Y-57458857D01*
X180685714Y-57458857D01*
X180857142Y-57516000D01*
X180971428Y-57630285D01*
X181028571Y-57744571D01*
X181085714Y-57973142D01*
X181085714Y-58144571D01*
X181028571Y-58373142D01*
X180971428Y-58487428D01*
X180857142Y-58601714D01*
X180685714Y-58658857D01*
X180400000Y-58658857D01*
X182114285Y-57858857D02*
X182114285Y-58658857D01*
X181600000Y-57858857D02*
X181600000Y-58487428D01*
X181657142Y-58601714D01*
X181771428Y-58658857D01*
X181942857Y-58658857D01*
X182057142Y-58601714D01*
X182114285Y-58544571D01*
D12*
X187830000Y-111676571D02*
X187330000Y-110962285D01*
X186972857Y-111676571D02*
X186972857Y-110176571D01*
X187544285Y-110176571D01*
X187687142Y-110248000D01*
X187758571Y-110319428D01*
X187830000Y-110462285D01*
X187830000Y-110676571D01*
X187758571Y-110819428D01*
X187687142Y-110890857D01*
X187544285Y-110962285D01*
X186972857Y-110962285D01*
X188472857Y-110176571D02*
X188472857Y-111390857D01*
X188544285Y-111533714D01*
X188615714Y-111605142D01*
X188758571Y-111676571D01*
X189044285Y-111676571D01*
X189187142Y-111605142D01*
X189258571Y-111533714D01*
X189330000Y-111390857D01*
X189330000Y-110176571D01*
X190044285Y-111676571D02*
X190044285Y-110176571D01*
X190901428Y-111676571D01*
X190901428Y-110176571D01*
X194187142Y-110176571D02*
X194472857Y-110176571D01*
X194615714Y-110248000D01*
X194758571Y-110390857D01*
X194830000Y-110676571D01*
X194830000Y-111176571D01*
X194758571Y-111462285D01*
X194615714Y-111605142D01*
X194472857Y-111676571D01*
X194187142Y-111676571D01*
X194044285Y-111605142D01*
X193901428Y-111462285D01*
X193830000Y-111176571D01*
X193830000Y-110676571D01*
X193901428Y-110390857D01*
X194044285Y-110248000D01*
X194187142Y-110176571D01*
X195972857Y-110890857D02*
X195472857Y-110890857D01*
X195472857Y-111676571D02*
X195472857Y-110176571D01*
X196187142Y-110176571D01*
X197258571Y-110890857D02*
X196758571Y-110890857D01*
X196758571Y-111676571D02*
X196758571Y-110176571D01*
X197472857Y-110176571D01*
X201187142Y-111533714D02*
X201115714Y-111605142D01*
X200901428Y-111676571D01*
X200758571Y-111676571D01*
X200544285Y-111605142D01*
X200401428Y-111462285D01*
X200330000Y-111319428D01*
X200258571Y-111033714D01*
X200258571Y-110819428D01*
X200330000Y-110533714D01*
X200401428Y-110390857D01*
X200544285Y-110248000D01*
X200758571Y-110176571D01*
X200901428Y-110176571D01*
X201115714Y-110248000D01*
X201187142Y-110319428D01*
X201830000Y-111676571D02*
X201830000Y-110176571D01*
X201830000Y-110890857D02*
X202687142Y-110890857D01*
X202687142Y-111676571D02*
X202687142Y-110176571D01*
X204187142Y-110248000D02*
X204044285Y-110176571D01*
X203830000Y-110176571D01*
X203615714Y-110248000D01*
X203472857Y-110390857D01*
X203401428Y-110533714D01*
X203330000Y-110819428D01*
X203330000Y-111033714D01*
X203401428Y-111319428D01*
X203472857Y-111462285D01*
X203615714Y-111605142D01*
X203830000Y-111676571D01*
X203972857Y-111676571D01*
X204187142Y-111605142D01*
X204258571Y-111533714D01*
X204258571Y-111033714D01*
X203972857Y-111033714D01*
D10*
X217019142Y-120292380D02*
X217066761Y-120340000D01*
X217114380Y-120482857D01*
X217114380Y-120578095D01*
X217066761Y-120720952D01*
X216971523Y-120816190D01*
X216876285Y-120863809D01*
X216685809Y-120911428D01*
X216542952Y-120911428D01*
X216352476Y-120863809D01*
X216257238Y-120816190D01*
X216162000Y-120720952D01*
X216114380Y-120578095D01*
X216114380Y-120482857D01*
X216162000Y-120340000D01*
X216209619Y-120292380D01*
X216114380Y-119673333D02*
X216114380Y-119482857D01*
X216162000Y-119387619D01*
X216257238Y-119292380D01*
X216447714Y-119244761D01*
X216781047Y-119244761D01*
X216971523Y-119292380D01*
X217066761Y-119387619D01*
X217114380Y-119482857D01*
X217114380Y-119673333D01*
X217066761Y-119768571D01*
X216971523Y-119863809D01*
X216781047Y-119911428D01*
X216447714Y-119911428D01*
X216257238Y-119863809D01*
X216162000Y-119768571D01*
X216114380Y-119673333D01*
X217114380Y-118816190D02*
X216114380Y-118816190D01*
X217114380Y-118244761D01*
X216114380Y-118244761D01*
X216114380Y-117911428D02*
X216114380Y-117340000D01*
X217114380Y-117625714D02*
X216114380Y-117625714D01*
X216828666Y-117054285D02*
X216828666Y-116578095D01*
X217114380Y-117149523D02*
X216114380Y-116816190D01*
X217114380Y-116482857D01*
X217019142Y-115578095D02*
X217066761Y-115625714D01*
X217114380Y-115768571D01*
X217114380Y-115863809D01*
X217066761Y-116006666D01*
X216971523Y-116101904D01*
X216876285Y-116149523D01*
X216685809Y-116197142D01*
X216542952Y-116197142D01*
X216352476Y-116149523D01*
X216257238Y-116101904D01*
X216162000Y-116006666D01*
X216114380Y-115863809D01*
X216114380Y-115768571D01*
X216162000Y-115625714D01*
X216209619Y-115578095D01*
X216114380Y-115292380D02*
X216114380Y-114720952D01*
X217114380Y-115006666D02*
X216114380Y-115006666D01*
X216114380Y-114197142D02*
X216114380Y-114006666D01*
X216162000Y-113911428D01*
X216257238Y-113816190D01*
X216447714Y-113768571D01*
X216781047Y-113768571D01*
X216971523Y-113816190D01*
X217066761Y-113911428D01*
X217114380Y-114006666D01*
X217114380Y-114197142D01*
X217066761Y-114292380D01*
X216971523Y-114387619D01*
X216781047Y-114435238D01*
X216447714Y-114435238D01*
X216257238Y-114387619D01*
X216162000Y-114292380D01*
X216114380Y-114197142D01*
X217114380Y-112768571D02*
X216638190Y-113101904D01*
X217114380Y-113340000D02*
X216114380Y-113340000D01*
X216114380Y-112959047D01*
X216162000Y-112863809D01*
X216209619Y-112816190D01*
X216304857Y-112768571D01*
X216447714Y-112768571D01*
X216542952Y-112816190D01*
X216590571Y-112863809D01*
X216638190Y-112959047D01*
X216638190Y-113340000D01*
D12*
X206248095Y-120157857D02*
X207771904Y-120157857D01*
X207010000Y-120919761D02*
X207010000Y-119395952D01*
D10*
X113863809Y-118816380D02*
X113863809Y-117816380D01*
X113863809Y-118292571D02*
X114435238Y-118292571D01*
X114435238Y-118816380D02*
X114435238Y-117816380D01*
X116197142Y-117864000D02*
X116101904Y-117816380D01*
X115959047Y-117816380D01*
X115816190Y-117864000D01*
X115720952Y-117959238D01*
X115673333Y-118054476D01*
X115625714Y-118244952D01*
X115625714Y-118387809D01*
X115673333Y-118578285D01*
X115720952Y-118673523D01*
X115816190Y-118768761D01*
X115959047Y-118816380D01*
X116054285Y-118816380D01*
X116197142Y-118768761D01*
X116244761Y-118721142D01*
X116244761Y-118387809D01*
X116054285Y-118387809D01*
X116673333Y-118816380D02*
X116673333Y-117816380D01*
X117244761Y-118816380D01*
X117244761Y-117816380D01*
X117720952Y-118816380D02*
X117720952Y-117816380D01*
X117959047Y-117816380D01*
X118101904Y-117864000D01*
X118197142Y-117959238D01*
X118244761Y-118054476D01*
X118292380Y-118244952D01*
X118292380Y-118387809D01*
X118244761Y-118578285D01*
X118197142Y-118673523D01*
X118101904Y-118768761D01*
X117959047Y-118816380D01*
X117720952Y-118816380D01*
X119959047Y-118816380D02*
X119482857Y-118816380D01*
X119482857Y-117816380D01*
D12*
X208312142Y-111660714D02*
X208240714Y-111732142D01*
X208026428Y-111803571D01*
X207883571Y-111803571D01*
X207669285Y-111732142D01*
X207526428Y-111589285D01*
X207455000Y-111446428D01*
X207383571Y-111160714D01*
X207383571Y-110946428D01*
X207455000Y-110660714D01*
X207526428Y-110517857D01*
X207669285Y-110375000D01*
X207883571Y-110303571D01*
X208026428Y-110303571D01*
X208240714Y-110375000D01*
X208312142Y-110446428D01*
X208955000Y-111803571D02*
X208955000Y-110303571D01*
X208955000Y-111017857D02*
X209812142Y-111017857D01*
X209812142Y-111803571D02*
X209812142Y-110303571D01*
X210455000Y-111375000D02*
X211169285Y-111375000D01*
X210312142Y-111803571D02*
X210812142Y-110303571D01*
X211312142Y-111803571D01*
X212669285Y-111803571D02*
X212169285Y-111089285D01*
X211812142Y-111803571D02*
X211812142Y-110303571D01*
X212383571Y-110303571D01*
X212526428Y-110375000D01*
X212597857Y-110446428D01*
X212669285Y-110589285D01*
X212669285Y-110803571D01*
X212597857Y-110946428D01*
X212526428Y-111017857D01*
X212383571Y-111089285D01*
X211812142Y-111089285D01*
X214097857Y-110375000D02*
X213955000Y-110303571D01*
X213740714Y-110303571D01*
X213526428Y-110375000D01*
X213383571Y-110517857D01*
X213312142Y-110660714D01*
X213240714Y-110946428D01*
X213240714Y-111160714D01*
X213312142Y-111446428D01*
X213383571Y-111589285D01*
X213526428Y-111732142D01*
X213740714Y-111803571D01*
X213883571Y-111803571D01*
X214097857Y-111732142D01*
X214169285Y-111660714D01*
X214169285Y-111160714D01*
X213883571Y-111160714D01*
X214812142Y-111017857D02*
X215312142Y-111017857D01*
X215526428Y-111803571D02*
X214812142Y-111803571D01*
X214812142Y-110303571D01*
X215526428Y-110303571D01*
D10*
X180006666Y-132802380D02*
X180006666Y-133516666D01*
X179959047Y-133659523D01*
X179863809Y-133754761D01*
X179720952Y-133802380D01*
X179625714Y-133802380D01*
X180387619Y-132802380D02*
X181054285Y-132802380D01*
X180625714Y-133802380D01*
X219289380Y-68913333D02*
X220003666Y-68913333D01*
X220146523Y-68960952D01*
X220241761Y-69056190D01*
X220289380Y-69199047D01*
X220289380Y-69294285D01*
X219289380Y-68008571D02*
X219289380Y-68199047D01*
X219337000Y-68294285D01*
X219384619Y-68341904D01*
X219527476Y-68437142D01*
X219717952Y-68484761D01*
X220098904Y-68484761D01*
X220194142Y-68437142D01*
X220241761Y-68389523D01*
X220289380Y-68294285D01*
X220289380Y-68103809D01*
X220241761Y-68008571D01*
X220194142Y-67960952D01*
X220098904Y-67913333D01*
X219860809Y-67913333D01*
X219765571Y-67960952D01*
X219717952Y-68008571D01*
X219670333Y-68103809D01*
X219670333Y-68294285D01*
X219717952Y-68389523D01*
X219765571Y-68437142D01*
X219860809Y-68484761D01*
X210486666Y-132802380D02*
X210486666Y-133516666D01*
X210439047Y-133659523D01*
X210343809Y-133754761D01*
X210200952Y-133802380D01*
X210105714Y-133802380D01*
X211439047Y-132802380D02*
X210962857Y-132802380D01*
X210915238Y-133278571D01*
X210962857Y-133230952D01*
X211058095Y-133183333D01*
X211296190Y-133183333D01*
X211391428Y-133230952D01*
X211439047Y-133278571D01*
X211486666Y-133373809D01*
X211486666Y-133611904D01*
X211439047Y-133707142D01*
X211391428Y-133754761D01*
X211296190Y-133802380D01*
X211058095Y-133802380D01*
X210962857Y-133754761D01*
X210915238Y-133707142D01*
X86915714Y-96686666D02*
X87391904Y-96686666D01*
X86820476Y-96972380D02*
X87153809Y-95972380D01*
X87487142Y-96972380D01*
X88344285Y-96972380D02*
X87772857Y-96972380D01*
X88058571Y-96972380D02*
X88058571Y-95972380D01*
X87963333Y-96115238D01*
X87868095Y-96210476D01*
X87772857Y-96258095D01*
X219289380Y-83364523D02*
X220003666Y-83364523D01*
X220146523Y-83412142D01*
X220241761Y-83507380D01*
X220289380Y-83650238D01*
X220289380Y-83745476D01*
X220289380Y-82364523D02*
X220289380Y-82935952D01*
X220289380Y-82650238D02*
X219289380Y-82650238D01*
X219432238Y-82745476D01*
X219527476Y-82840714D01*
X219575095Y-82935952D01*
X219622714Y-81507380D02*
X220289380Y-81507380D01*
X219241761Y-81745476D02*
X219956047Y-81983571D01*
X219956047Y-81364523D01*
X109842323Y-112043180D02*
X109366133Y-112043180D01*
X109318514Y-112519371D01*
X109366133Y-112471752D01*
X109461371Y-112424133D01*
X109699466Y-112424133D01*
X109794704Y-112471752D01*
X109842323Y-112519371D01*
X109889942Y-112614609D01*
X109889942Y-112852704D01*
X109842323Y-112947942D01*
X109794704Y-112995561D01*
X109699466Y-113043180D01*
X109461371Y-113043180D01*
X109366133Y-112995561D01*
X109318514Y-112947942D01*
X110175657Y-112043180D02*
X110508990Y-113043180D01*
X110842323Y-112043180D01*
X211375714Y-72955714D02*
X211375714Y-73622380D01*
X211137619Y-72574761D02*
X210899523Y-73289047D01*
X211518571Y-73289047D01*
X212042380Y-73050952D02*
X211947142Y-73003333D01*
X211899523Y-72955714D01*
X211851904Y-72860476D01*
X211851904Y-72812857D01*
X211899523Y-72717619D01*
X211947142Y-72670000D01*
X212042380Y-72622380D01*
X212232857Y-72622380D01*
X212328095Y-72670000D01*
X212375714Y-72717619D01*
X212423333Y-72812857D01*
X212423333Y-72860476D01*
X212375714Y-72955714D01*
X212328095Y-73003333D01*
X212232857Y-73050952D01*
X212042380Y-73050952D01*
X211947142Y-73098571D01*
X211899523Y-73146190D01*
X211851904Y-73241428D01*
X211851904Y-73431904D01*
X211899523Y-73527142D01*
X211947142Y-73574761D01*
X212042380Y-73622380D01*
X212232857Y-73622380D01*
X212328095Y-73574761D01*
X212375714Y-73527142D01*
X212423333Y-73431904D01*
X212423333Y-73241428D01*
X212375714Y-73146190D01*
X212328095Y-73098571D01*
X212232857Y-73050952D01*
X212709047Y-72622380D02*
X213042380Y-73622380D01*
X213375714Y-72622380D01*
X105608571Y-89694180D02*
X105037142Y-89694180D01*
X105322857Y-89694180D02*
X105322857Y-88694180D01*
X105227619Y-88837038D01*
X105132380Y-88932276D01*
X105037142Y-88979895D01*
X106465714Y-88694180D02*
X106275238Y-88694180D01*
X106180000Y-88741800D01*
X106132380Y-88789419D01*
X106037142Y-88932276D01*
X105989523Y-89122752D01*
X105989523Y-89503704D01*
X106037142Y-89598942D01*
X106084761Y-89646561D01*
X106180000Y-89694180D01*
X106370476Y-89694180D01*
X106465714Y-89646561D01*
X106513333Y-89598942D01*
X106560952Y-89503704D01*
X106560952Y-89265609D01*
X106513333Y-89170371D01*
X106465714Y-89122752D01*
X106370476Y-89075133D01*
X106180000Y-89075133D01*
X106084761Y-89122752D01*
X106037142Y-89170371D01*
X105989523Y-89265609D01*
X106989523Y-89027514D02*
X106989523Y-90027514D01*
X106989523Y-89075133D02*
X107084761Y-89027514D01*
X107275238Y-89027514D01*
X107370476Y-89075133D01*
X107418095Y-89122752D01*
X107465714Y-89217990D01*
X107465714Y-89503704D01*
X107418095Y-89598942D01*
X107370476Y-89646561D01*
X107275238Y-89694180D01*
X107084761Y-89694180D01*
X106989523Y-89646561D01*
X108227619Y-89170371D02*
X107894285Y-89170371D01*
X107894285Y-89694180D02*
X107894285Y-88694180D01*
X108370476Y-88694180D01*
X185420095Y-99274380D02*
X186039142Y-99274380D01*
X185705809Y-99655333D01*
X185848666Y-99655333D01*
X185943904Y-99702952D01*
X185991523Y-99750571D01*
X186039142Y-99845809D01*
X186039142Y-100083904D01*
X185991523Y-100179142D01*
X185943904Y-100226761D01*
X185848666Y-100274380D01*
X185562952Y-100274380D01*
X185467714Y-100226761D01*
X185420095Y-100179142D01*
X186420095Y-99988666D02*
X186896285Y-99988666D01*
X186324857Y-100274380D02*
X186658190Y-99274380D01*
X186991523Y-100274380D01*
X118618095Y-94702380D02*
X118618095Y-95511904D01*
X118665714Y-95607142D01*
X118713333Y-95654761D01*
X118808571Y-95702380D01*
X118999047Y-95702380D01*
X119094285Y-95654761D01*
X119141904Y-95607142D01*
X119189523Y-95511904D01*
X119189523Y-94702380D01*
X120189523Y-95702380D02*
X119618095Y-95702380D01*
X119903809Y-95702380D02*
X119903809Y-94702380D01*
X119808571Y-94845238D01*
X119713333Y-94940476D01*
X119618095Y-94988095D01*
X159322380Y-103279942D02*
X159322380Y-103851370D01*
X159322380Y-103565656D02*
X158322380Y-103565656D01*
X158465238Y-103660894D01*
X158560476Y-103756132D01*
X158608095Y-103851370D01*
X158322380Y-102660894D02*
X158322380Y-102565656D01*
X158370000Y-102470418D01*
X158417619Y-102422799D01*
X158512857Y-102375180D01*
X158703333Y-102327561D01*
X158941428Y-102327561D01*
X159131904Y-102375180D01*
X159227142Y-102422799D01*
X159274761Y-102470418D01*
X159322380Y-102565656D01*
X159322380Y-102660894D01*
X159274761Y-102756132D01*
X159227142Y-102803751D01*
X159131904Y-102851370D01*
X158941428Y-102898989D01*
X158703333Y-102898989D01*
X158512857Y-102851370D01*
X158417619Y-102803751D01*
X158370000Y-102756132D01*
X158322380Y-102660894D01*
X158322380Y-101708513D02*
X158322380Y-101613275D01*
X158370000Y-101518037D01*
X158417619Y-101470418D01*
X158512857Y-101422799D01*
X158703333Y-101375180D01*
X158941428Y-101375180D01*
X159131904Y-101422799D01*
X159227142Y-101470418D01*
X159274761Y-101518037D01*
X159322380Y-101613275D01*
X159322380Y-101708513D01*
X159274761Y-101803751D01*
X159227142Y-101851370D01*
X159131904Y-101898989D01*
X158941428Y-101946608D01*
X158703333Y-101946608D01*
X158512857Y-101898989D01*
X158417619Y-101851370D01*
X158370000Y-101803751D01*
X158322380Y-101708513D01*
X158655714Y-100518037D02*
X159322380Y-100518037D01*
X158655714Y-100946608D02*
X159179523Y-100946608D01*
X159274761Y-100898989D01*
X159322380Y-100803751D01*
X159322380Y-100660894D01*
X159274761Y-100565656D01*
X159227142Y-100518037D01*
X158798571Y-99708513D02*
X158798571Y-100041846D01*
X159322380Y-100041846D02*
X158322380Y-100041846D01*
X158322380Y-99565656D01*
X167536666Y-132642380D02*
X167536666Y-133356666D01*
X167489047Y-133499523D01*
X167393809Y-133594761D01*
X167250952Y-133642380D01*
X167155714Y-133642380D01*
X168155714Y-133070952D02*
X168060476Y-133023333D01*
X168012857Y-132975714D01*
X167965238Y-132880476D01*
X167965238Y-132832857D01*
X168012857Y-132737619D01*
X168060476Y-132690000D01*
X168155714Y-132642380D01*
X168346190Y-132642380D01*
X168441428Y-132690000D01*
X168489047Y-132737619D01*
X168536666Y-132832857D01*
X168536666Y-132880476D01*
X168489047Y-132975714D01*
X168441428Y-133023333D01*
X168346190Y-133070952D01*
X168155714Y-133070952D01*
X168060476Y-133118571D01*
X168012857Y-133166190D01*
X167965238Y-133261428D01*
X167965238Y-133451904D01*
X168012857Y-133547142D01*
X168060476Y-133594761D01*
X168155714Y-133642380D01*
X168346190Y-133642380D01*
X168441428Y-133594761D01*
X168489047Y-133547142D01*
X168536666Y-133451904D01*
X168536666Y-133261428D01*
X168489047Y-133166190D01*
X168441428Y-133118571D01*
X168346190Y-133070952D01*
X123229761Y-103550980D02*
X122658333Y-103550980D01*
X122944047Y-103550980D02*
X122944047Y-102550980D01*
X122848809Y-102693838D01*
X122753571Y-102789076D01*
X122658333Y-102836695D01*
X123848809Y-102550980D02*
X123944047Y-102550980D01*
X124039285Y-102598600D01*
X124086904Y-102646219D01*
X124134523Y-102741457D01*
X124182142Y-102931933D01*
X124182142Y-103170028D01*
X124134523Y-103360504D01*
X124086904Y-103455742D01*
X124039285Y-103503361D01*
X123944047Y-103550980D01*
X123848809Y-103550980D01*
X123753571Y-103503361D01*
X123705952Y-103455742D01*
X123658333Y-103360504D01*
X123610714Y-103170028D01*
X123610714Y-102931933D01*
X123658333Y-102741457D01*
X123705952Y-102646219D01*
X123753571Y-102598600D01*
X123848809Y-102550980D01*
X124610714Y-103550980D02*
X124610714Y-102550980D01*
X124705952Y-103170028D02*
X124991666Y-103550980D01*
X124991666Y-102884314D02*
X124610714Y-103265266D01*
X141430476Y-132802380D02*
X141430476Y-133516666D01*
X141382857Y-133659523D01*
X141287619Y-133754761D01*
X141144761Y-133802380D01*
X141049523Y-133802380D01*
X142430476Y-133802380D02*
X141859047Y-133802380D01*
X142144761Y-133802380D02*
X142144761Y-132802380D01*
X142049523Y-132945238D01*
X141954285Y-133040476D01*
X141859047Y-133088095D01*
X143049523Y-132802380D02*
X143144761Y-132802380D01*
X143240000Y-132850000D01*
X143287619Y-132897619D01*
X143335238Y-132992857D01*
X143382857Y-133183333D01*
X143382857Y-133421428D01*
X143335238Y-133611904D01*
X143287619Y-133707142D01*
X143240000Y-133754761D01*
X143144761Y-133802380D01*
X143049523Y-133802380D01*
X142954285Y-133754761D01*
X142906666Y-133707142D01*
X142859047Y-133611904D01*
X142811428Y-133421428D01*
X142811428Y-133183333D01*
X142859047Y-132992857D01*
X142906666Y-132897619D01*
X142954285Y-132850000D01*
X143049523Y-132802380D01*
X194248904Y-71512380D02*
X194248904Y-70512380D01*
X194820333Y-71512380D02*
X194391761Y-70940952D01*
X194820333Y-70512380D02*
X194248904Y-71083809D01*
X195201285Y-70607619D02*
X195248904Y-70560000D01*
X195344142Y-70512380D01*
X195582238Y-70512380D01*
X195677476Y-70560000D01*
X195725095Y-70607619D01*
X195772714Y-70702857D01*
X195772714Y-70798095D01*
X195725095Y-70940952D01*
X195153666Y-71512380D01*
X195772714Y-71512380D01*
X189857714Y-73001142D02*
X189810095Y-73048761D01*
X189667238Y-73096380D01*
X189572000Y-73096380D01*
X189429142Y-73048761D01*
X189333904Y-72953523D01*
X189286285Y-72858285D01*
X189238666Y-72667809D01*
X189238666Y-72524952D01*
X189286285Y-72334476D01*
X189333904Y-72239238D01*
X189429142Y-72144000D01*
X189572000Y-72096380D01*
X189667238Y-72096380D01*
X189810095Y-72144000D01*
X189857714Y-72191619D01*
X190429142Y-73096380D02*
X190333904Y-73048761D01*
X190286285Y-73001142D01*
X190238666Y-72905904D01*
X190238666Y-72620190D01*
X190286285Y-72524952D01*
X190333904Y-72477333D01*
X190429142Y-72429714D01*
X190572000Y-72429714D01*
X190667238Y-72477333D01*
X190714857Y-72524952D01*
X190762476Y-72620190D01*
X190762476Y-72905904D01*
X190714857Y-73001142D01*
X190667238Y-73048761D01*
X190572000Y-73096380D01*
X190429142Y-73096380D01*
X191191047Y-72429714D02*
X191191047Y-73096380D01*
X191191047Y-72524952D02*
X191238666Y-72477333D01*
X191333904Y-72429714D01*
X191476761Y-72429714D01*
X191572000Y-72477333D01*
X191619619Y-72572571D01*
X191619619Y-73096380D01*
X191952952Y-72429714D02*
X192333904Y-72429714D01*
X192095809Y-72096380D02*
X192095809Y-72953523D01*
X192143428Y-73048761D01*
X192238666Y-73096380D01*
X192333904Y-73096380D01*
X193095809Y-73096380D02*
X193095809Y-72572571D01*
X193048190Y-72477333D01*
X192952952Y-72429714D01*
X192762476Y-72429714D01*
X192667238Y-72477333D01*
X193095809Y-73048761D02*
X193000571Y-73096380D01*
X192762476Y-73096380D01*
X192667238Y-73048761D01*
X192619619Y-72953523D01*
X192619619Y-72858285D01*
X192667238Y-72763047D01*
X192762476Y-72715428D01*
X193000571Y-72715428D01*
X193095809Y-72667809D01*
X194000571Y-73048761D02*
X193905333Y-73096380D01*
X193714857Y-73096380D01*
X193619619Y-73048761D01*
X193572000Y-73001142D01*
X193524380Y-72905904D01*
X193524380Y-72620190D01*
X193572000Y-72524952D01*
X193619619Y-72477333D01*
X193714857Y-72429714D01*
X193905333Y-72429714D01*
X194000571Y-72477333D01*
X194286285Y-72429714D02*
X194667238Y-72429714D01*
X194429142Y-72096380D02*
X194429142Y-72953523D01*
X194476761Y-73048761D01*
X194572000Y-73096380D01*
X194667238Y-73096380D01*
X195143428Y-73096380D02*
X195048190Y-73048761D01*
X195000571Y-73001142D01*
X194952952Y-72905904D01*
X194952952Y-72620190D01*
X195000571Y-72524952D01*
X195048190Y-72477333D01*
X195143428Y-72429714D01*
X195286285Y-72429714D01*
X195381523Y-72477333D01*
X195429142Y-72524952D01*
X195476761Y-72620190D01*
X195476761Y-72905904D01*
X195429142Y-73001142D01*
X195381523Y-73048761D01*
X195286285Y-73096380D01*
X195143428Y-73096380D01*
X195905333Y-73096380D02*
X195905333Y-72429714D01*
X195905333Y-72620190D02*
X195952952Y-72524952D01*
X196000571Y-72477333D01*
X196095809Y-72429714D01*
X196191047Y-72429714D01*
X196286285Y-73191619D02*
X197048190Y-73191619D01*
X197857714Y-73096380D02*
X197524380Y-72620190D01*
X197286285Y-73096380D02*
X197286285Y-72096380D01*
X197667238Y-72096380D01*
X197762476Y-72144000D01*
X197810095Y-72191619D01*
X197857714Y-72286857D01*
X197857714Y-72429714D01*
X197810095Y-72524952D01*
X197762476Y-72572571D01*
X197667238Y-72620190D01*
X197286285Y-72620190D01*
X198667238Y-73048761D02*
X198572000Y-73096380D01*
X198381523Y-73096380D01*
X198286285Y-73048761D01*
X198238666Y-72953523D01*
X198238666Y-72572571D01*
X198286285Y-72477333D01*
X198381523Y-72429714D01*
X198572000Y-72429714D01*
X198667238Y-72477333D01*
X198714857Y-72572571D01*
X198714857Y-72667809D01*
X198238666Y-72763047D01*
X199286285Y-73096380D02*
X199191047Y-73048761D01*
X199143428Y-72953523D01*
X199143428Y-72096380D01*
X200095809Y-73096380D02*
X200095809Y-72572571D01*
X200048190Y-72477333D01*
X199952952Y-72429714D01*
X199762476Y-72429714D01*
X199667238Y-72477333D01*
X200095809Y-73048761D02*
X200000571Y-73096380D01*
X199762476Y-73096380D01*
X199667238Y-73048761D01*
X199619619Y-72953523D01*
X199619619Y-72858285D01*
X199667238Y-72763047D01*
X199762476Y-72715428D01*
X200000571Y-72715428D01*
X200095809Y-72667809D01*
X200476761Y-72429714D02*
X200714857Y-73096380D01*
X200952952Y-72429714D02*
X200714857Y-73096380D01*
X200619619Y-73334476D01*
X200572000Y-73382095D01*
X200476761Y-73429714D01*
X219289380Y-103679523D02*
X220003666Y-103679523D01*
X220146523Y-103727142D01*
X220241761Y-103822380D01*
X220289380Y-103965238D01*
X220289380Y-104060476D01*
X220289380Y-102679523D02*
X220289380Y-103250952D01*
X220289380Y-102965238D02*
X219289380Y-102965238D01*
X219432238Y-103060476D01*
X219527476Y-103155714D01*
X219575095Y-103250952D01*
X219384619Y-102298571D02*
X219337000Y-102250952D01*
X219289380Y-102155714D01*
X219289380Y-101917619D01*
X219337000Y-101822380D01*
X219384619Y-101774761D01*
X219479857Y-101727142D01*
X219575095Y-101727142D01*
X219717952Y-101774761D01*
X220289380Y-102346190D01*
X220289380Y-101727142D01*
X108519980Y-80789257D02*
X108519980Y-80694019D01*
X108567600Y-80598780D01*
X108615219Y-80551161D01*
X108710457Y-80503542D01*
X108900933Y-80455923D01*
X109139028Y-80455923D01*
X109329504Y-80503542D01*
X109424742Y-80551161D01*
X109472361Y-80598780D01*
X109519980Y-80694019D01*
X109519980Y-80789257D01*
X109472361Y-80884495D01*
X109424742Y-80932114D01*
X109329504Y-80979733D01*
X109139028Y-81027352D01*
X108900933Y-81027352D01*
X108710457Y-80979733D01*
X108615219Y-80932114D01*
X108567600Y-80884495D01*
X108519980Y-80789257D01*
X109424742Y-80027352D02*
X109472361Y-79979733D01*
X109519980Y-80027352D01*
X109472361Y-80074971D01*
X109424742Y-80027352D01*
X109519980Y-80027352D01*
X109519980Y-79027352D02*
X109519980Y-79598780D01*
X109519980Y-79313066D02*
X108519980Y-79313066D01*
X108662838Y-79408304D01*
X108758076Y-79503542D01*
X108805695Y-79598780D01*
X108853314Y-78170209D02*
X109519980Y-78170209D01*
X108853314Y-78598780D02*
X109377123Y-78598780D01*
X109472361Y-78551161D01*
X109519980Y-78455923D01*
X109519980Y-78313066D01*
X109472361Y-78217828D01*
X109424742Y-78170209D01*
X108996171Y-77360685D02*
X108996171Y-77694019D01*
X109519980Y-77694019D02*
X108519980Y-77694019D01*
X108519980Y-77217828D01*
X147470904Y-93162380D02*
X147470904Y-92162380D01*
X147709000Y-92162380D01*
X147851857Y-92210000D01*
X147947095Y-92305238D01*
X147994714Y-92400476D01*
X148042333Y-92590952D01*
X148042333Y-92733809D01*
X147994714Y-92924285D01*
X147947095Y-93019523D01*
X147851857Y-93114761D01*
X147709000Y-93162380D01*
X147470904Y-93162380D01*
X148994714Y-93162380D02*
X148423285Y-93162380D01*
X148709000Y-93162380D02*
X148709000Y-92162380D01*
X148613761Y-92305238D01*
X148518523Y-92400476D01*
X148423285Y-92448095D01*
X152138095Y-95262380D02*
X152138095Y-94262380D01*
X152709523Y-95262380D02*
X152280952Y-94690952D01*
X152709523Y-94262380D02*
X152138095Y-94833809D01*
X102481428Y-122404142D02*
X102433809Y-122451761D01*
X102290952Y-122499380D01*
X102195714Y-122499380D01*
X102052857Y-122451761D01*
X101957619Y-122356523D01*
X101910000Y-122261285D01*
X101862380Y-122070809D01*
X101862380Y-121927952D01*
X101910000Y-121737476D01*
X101957619Y-121642238D01*
X102052857Y-121547000D01*
X102195714Y-121499380D01*
X102290952Y-121499380D01*
X102433809Y-121547000D01*
X102481428Y-121594619D01*
X102862380Y-122213666D02*
X103338571Y-122213666D01*
X102767142Y-122499380D02*
X103100476Y-121499380D01*
X103433809Y-122499380D01*
X103767142Y-122499380D02*
X103767142Y-121499380D01*
X104338571Y-122499380D01*
X104338571Y-121499380D01*
X104576666Y-122594619D02*
X105338571Y-122594619D01*
X105433809Y-121499380D02*
X106005238Y-121499380D01*
X105719523Y-122499380D02*
X105719523Y-121499380D01*
X106338571Y-121975571D02*
X106671904Y-121975571D01*
X106814761Y-122499380D02*
X106338571Y-122499380D01*
X106338571Y-121499380D01*
X106814761Y-121499380D01*
X107814761Y-122499380D02*
X107481428Y-122023190D01*
X107243333Y-122499380D02*
X107243333Y-121499380D01*
X107624285Y-121499380D01*
X107719523Y-121547000D01*
X107767142Y-121594619D01*
X107814761Y-121689857D01*
X107814761Y-121832714D01*
X107767142Y-121927952D01*
X107719523Y-121975571D01*
X107624285Y-122023190D01*
X107243333Y-122023190D01*
X108243333Y-122499380D02*
X108243333Y-121499380D01*
X108576666Y-122213666D01*
X108910000Y-121499380D01*
X108910000Y-122499380D01*
X154606666Y-132802380D02*
X154606666Y-133516666D01*
X154559047Y-133659523D01*
X154463809Y-133754761D01*
X154320952Y-133802380D01*
X154225714Y-133802380D01*
X155130476Y-133802380D02*
X155320952Y-133802380D01*
X155416190Y-133754761D01*
X155463809Y-133707142D01*
X155559047Y-133564285D01*
X155606666Y-133373809D01*
X155606666Y-132992857D01*
X155559047Y-132897619D01*
X155511428Y-132850000D01*
X155416190Y-132802380D01*
X155225714Y-132802380D01*
X155130476Y-132850000D01*
X155082857Y-132897619D01*
X155035238Y-132992857D01*
X155035238Y-133230952D01*
X155082857Y-133326190D01*
X155130476Y-133373809D01*
X155225714Y-133421428D01*
X155416190Y-133421428D01*
X155511428Y-133373809D01*
X155559047Y-133326190D01*
X155606666Y-133230952D01*
X106656190Y-98891190D02*
X107132380Y-98891190D01*
X106132380Y-99224523D02*
X106656190Y-98891190D01*
X106132380Y-98557857D01*
X107132380Y-97700714D02*
X107132380Y-98272142D01*
X107132380Y-97986428D02*
X106132380Y-97986428D01*
X106275238Y-98081666D01*
X106370476Y-98176904D01*
X106418095Y-98272142D01*
X103035952Y-100010238D02*
X102988333Y-100105476D01*
X102940714Y-100153095D01*
X102845476Y-100200714D01*
X102797857Y-100200714D01*
X102702619Y-100153095D01*
X102655000Y-100105476D01*
X102607380Y-100010238D01*
X102607380Y-99819761D01*
X102655000Y-99724523D01*
X102702619Y-99676904D01*
X102797857Y-99629285D01*
X102845476Y-99629285D01*
X102940714Y-99676904D01*
X102988333Y-99724523D01*
X103035952Y-99819761D01*
X103035952Y-100010238D01*
X103083571Y-100105476D01*
X103131190Y-100153095D01*
X103226428Y-100200714D01*
X103416904Y-100200714D01*
X103512142Y-100153095D01*
X103559761Y-100105476D01*
X103607380Y-100010238D01*
X103607380Y-99819761D01*
X103559761Y-99724523D01*
X103512142Y-99676904D01*
X103416904Y-99629285D01*
X103226428Y-99629285D01*
X103131190Y-99676904D01*
X103083571Y-99724523D01*
X103035952Y-99819761D01*
X103607380Y-99200714D02*
X102607380Y-99200714D01*
X103321666Y-98867380D01*
X102607380Y-98534047D01*
X103607380Y-98534047D01*
X103607380Y-98057857D02*
X102607380Y-98057857D01*
X103083571Y-98057857D02*
X103083571Y-97486428D01*
X103607380Y-97486428D02*
X102607380Y-97486428D01*
X102940714Y-97105476D02*
X102940714Y-96581666D01*
X103607380Y-97105476D01*
X103607380Y-96581666D01*
X166727142Y-85256666D02*
X166774761Y-85304285D01*
X166822380Y-85447142D01*
X166822380Y-85542380D01*
X166774761Y-85685238D01*
X166679523Y-85780476D01*
X166584285Y-85828095D01*
X166393809Y-85875714D01*
X166250952Y-85875714D01*
X166060476Y-85828095D01*
X165965238Y-85780476D01*
X165870000Y-85685238D01*
X165822380Y-85542380D01*
X165822380Y-85447142D01*
X165870000Y-85304285D01*
X165917619Y-85256666D01*
X165822380Y-84923333D02*
X165822380Y-84256666D01*
X166822380Y-84685238D01*
X172223180Y-87256666D02*
X172223180Y-86637619D01*
X172604133Y-86970952D01*
X172604133Y-86828095D01*
X172651752Y-86732857D01*
X172699371Y-86685238D01*
X172794609Y-86637619D01*
X173032704Y-86637619D01*
X173127942Y-86685238D01*
X173175561Y-86732857D01*
X173223180Y-86828095D01*
X173223180Y-87113809D01*
X173175561Y-87209047D01*
X173127942Y-87256666D01*
X172223180Y-86304285D02*
X172223180Y-85685238D01*
X172604133Y-86018571D01*
X172604133Y-85875714D01*
X172651752Y-85780476D01*
X172699371Y-85732857D01*
X172794609Y-85685238D01*
X173032704Y-85685238D01*
X173127942Y-85732857D01*
X173175561Y-85780476D01*
X173223180Y-85875714D01*
X173223180Y-86161428D01*
X173175561Y-86256666D01*
X173127942Y-86304285D01*
X172223180Y-85066190D02*
X172223180Y-84970952D01*
X172270800Y-84875714D01*
X172318419Y-84828095D01*
X172413657Y-84780476D01*
X172604133Y-84732857D01*
X172842228Y-84732857D01*
X173032704Y-84780476D01*
X173127942Y-84828095D01*
X173175561Y-84875714D01*
X173223180Y-84970952D01*
X173223180Y-85066190D01*
X173175561Y-85161428D01*
X173127942Y-85209047D01*
X173032704Y-85256666D01*
X172842228Y-85304285D01*
X172604133Y-85304285D01*
X172413657Y-85256666D01*
X172318419Y-85209047D01*
X172270800Y-85161428D01*
X172223180Y-85066190D01*
X172556514Y-83875714D02*
X173223180Y-83875714D01*
X172556514Y-84304285D02*
X173080323Y-84304285D01*
X173175561Y-84256666D01*
X173223180Y-84161428D01*
X173223180Y-84018571D01*
X173175561Y-83923333D01*
X173127942Y-83875714D01*
X172699371Y-83066190D02*
X172699371Y-83399523D01*
X173223180Y-83399523D02*
X172223180Y-83399523D01*
X172223180Y-82923333D01*
X116572309Y-126452380D02*
X116572309Y-127166666D01*
X116524690Y-127309523D01*
X116429452Y-127404761D01*
X116286595Y-127452380D01*
X116191357Y-127452380D01*
X117477071Y-126785714D02*
X117477071Y-127452380D01*
X117238976Y-126404761D02*
X117000880Y-127119047D01*
X117619928Y-127119047D01*
X219289380Y-117649523D02*
X220003666Y-117649523D01*
X220146523Y-117697142D01*
X220241761Y-117792380D01*
X220289380Y-117935238D01*
X220289380Y-118030476D01*
X220289380Y-116649523D02*
X220289380Y-117220952D01*
X220289380Y-116935238D02*
X219289380Y-116935238D01*
X219432238Y-117030476D01*
X219527476Y-117125714D01*
X219575095Y-117220952D01*
X220289380Y-115697142D02*
X220289380Y-116268571D01*
X220289380Y-115982857D02*
X219289380Y-115982857D01*
X219432238Y-116078095D01*
X219527476Y-116173333D01*
X219575095Y-116268571D01*
X194246666Y-123848761D02*
X194389523Y-123896380D01*
X194627619Y-123896380D01*
X194722857Y-123848761D01*
X194770476Y-123801142D01*
X194818095Y-123705904D01*
X194818095Y-123610666D01*
X194770476Y-123515428D01*
X194722857Y-123467809D01*
X194627619Y-123420190D01*
X194437142Y-123372571D01*
X194341904Y-123324952D01*
X194294285Y-123277333D01*
X194246666Y-123182095D01*
X194246666Y-123086857D01*
X194294285Y-122991619D01*
X194341904Y-122944000D01*
X194437142Y-122896380D01*
X194675238Y-122896380D01*
X194818095Y-122944000D01*
X195151428Y-122896380D02*
X195389523Y-123896380D01*
X195580000Y-123182095D01*
X195770476Y-123896380D01*
X196008571Y-122896380D01*
X196341904Y-122991619D02*
X196389523Y-122944000D01*
X196484761Y-122896380D01*
X196722857Y-122896380D01*
X196818095Y-122944000D01*
X196865714Y-122991619D01*
X196913333Y-123086857D01*
X196913333Y-123182095D01*
X196865714Y-123324952D01*
X196294285Y-123896380D01*
X196913333Y-123896380D01*
X129272309Y-126452380D02*
X129272309Y-127166666D01*
X129224690Y-127309523D01*
X129129452Y-127404761D01*
X128986595Y-127452380D01*
X128891357Y-127452380D01*
X129653261Y-126452380D02*
X130272309Y-126452380D01*
X129938976Y-126833333D01*
X130081833Y-126833333D01*
X130177071Y-126880952D01*
X130224690Y-126928571D01*
X130272309Y-127023809D01*
X130272309Y-127261904D01*
X130224690Y-127357142D01*
X130177071Y-127404761D01*
X130081833Y-127452380D01*
X129796119Y-127452380D01*
X129700880Y-127404761D01*
X129653261Y-127357142D01*
X135982152Y-94551980D02*
X135410723Y-94551980D01*
X135696438Y-94551980D02*
X135696438Y-93551980D01*
X135601200Y-93694838D01*
X135505961Y-93790076D01*
X135410723Y-93837695D01*
X136363104Y-93647219D02*
X136410723Y-93599600D01*
X136505961Y-93551980D01*
X136744057Y-93551980D01*
X136839295Y-93599600D01*
X136886914Y-93647219D01*
X136934533Y-93742457D01*
X136934533Y-93837695D01*
X136886914Y-93980552D01*
X136315485Y-94551980D01*
X136934533Y-94551980D01*
X137220247Y-93551980D02*
X137553580Y-94551980D01*
X137886914Y-93551980D01*
X219289380Y-93519523D02*
X220003666Y-93519523D01*
X220146523Y-93567142D01*
X220241761Y-93662380D01*
X220289380Y-93805238D01*
X220289380Y-93900476D01*
X220289380Y-92519523D02*
X220289380Y-93090952D01*
X220289380Y-92805238D02*
X219289380Y-92805238D01*
X219432238Y-92900476D01*
X219527476Y-92995714D01*
X219575095Y-93090952D01*
X219289380Y-92186190D02*
X219289380Y-91567142D01*
X219670333Y-91900476D01*
X219670333Y-91757619D01*
X219717952Y-91662380D01*
X219765571Y-91614761D01*
X219860809Y-91567142D01*
X220098904Y-91567142D01*
X220194142Y-91614761D01*
X220241761Y-91662380D01*
X220289380Y-91757619D01*
X220289380Y-92043333D01*
X220241761Y-92138571D01*
X220194142Y-92186190D01*
X118618095Y-109307380D02*
X118618095Y-110116904D01*
X118665714Y-110212142D01*
X118713333Y-110259761D01*
X118808571Y-110307380D01*
X118999047Y-110307380D01*
X119094285Y-110259761D01*
X119141904Y-110212142D01*
X119189523Y-110116904D01*
X119189523Y-109307380D01*
X119618095Y-109402619D02*
X119665714Y-109355000D01*
X119760952Y-109307380D01*
X119999047Y-109307380D01*
X120094285Y-109355000D01*
X120141904Y-109402619D01*
X120189523Y-109497857D01*
X120189523Y-109593095D01*
X120141904Y-109735952D01*
X119570476Y-110307380D01*
X120189523Y-110307380D01*
X98726666Y-55542380D02*
X98726666Y-56256666D01*
X98679047Y-56399523D01*
X98583809Y-56494761D01*
X98440952Y-56542380D01*
X98345714Y-56542380D01*
X99155238Y-55637619D02*
X99202857Y-55590000D01*
X99298095Y-55542380D01*
X99536190Y-55542380D01*
X99631428Y-55590000D01*
X99679047Y-55637619D01*
X99726666Y-55732857D01*
X99726666Y-55828095D01*
X99679047Y-55970952D01*
X99107619Y-56542380D01*
X99726666Y-56542380D01*
X104743333Y-116530380D02*
X104171904Y-116530380D01*
X104457619Y-116530380D02*
X104457619Y-115530380D01*
X104362380Y-115673238D01*
X104267142Y-115768476D01*
X104171904Y-115816095D01*
X105124285Y-115625619D02*
X105171904Y-115578000D01*
X105267142Y-115530380D01*
X105505238Y-115530380D01*
X105600476Y-115578000D01*
X105648095Y-115625619D01*
X105695714Y-115720857D01*
X105695714Y-115816095D01*
X105648095Y-115958952D01*
X105076666Y-116530380D01*
X105695714Y-116530380D01*
X106314761Y-115530380D02*
X106410000Y-115530380D01*
X106505238Y-115578000D01*
X106552857Y-115625619D01*
X106600476Y-115720857D01*
X106648095Y-115911333D01*
X106648095Y-116149428D01*
X106600476Y-116339904D01*
X106552857Y-116435142D01*
X106505238Y-116482761D01*
X106410000Y-116530380D01*
X106314761Y-116530380D01*
X106219523Y-116482761D01*
X106171904Y-116435142D01*
X106124285Y-116339904D01*
X106076666Y-116149428D01*
X106076666Y-115911333D01*
X106124285Y-115720857D01*
X106171904Y-115625619D01*
X106219523Y-115578000D01*
X106314761Y-115530380D01*
D13*
X158326666Y-62169523D02*
X158326666Y-63076666D01*
X158266190Y-63258095D01*
X158145238Y-63379047D01*
X157963809Y-63439523D01*
X157842857Y-63439523D01*
X159596666Y-63439523D02*
X158870952Y-63439523D01*
X159233809Y-63439523D02*
X159233809Y-62169523D01*
X159112857Y-62350952D01*
X158991904Y-62471904D01*
X158870952Y-62532380D01*
D10*
X130118380Y-79843238D02*
X130118380Y-80414666D01*
X130118380Y-80128952D02*
X129118380Y-80128952D01*
X129261238Y-80224190D01*
X129356476Y-80319428D01*
X129404095Y-80414666D01*
X129118380Y-79224190D02*
X129118380Y-79128952D01*
X129166000Y-79033714D01*
X129213619Y-78986095D01*
X129308857Y-78938476D01*
X129499333Y-78890857D01*
X129737428Y-78890857D01*
X129927904Y-78938476D01*
X130023142Y-78986095D01*
X130070761Y-79033714D01*
X130118380Y-79128952D01*
X130118380Y-79224190D01*
X130070761Y-79319428D01*
X130023142Y-79367047D01*
X129927904Y-79414666D01*
X129737428Y-79462285D01*
X129499333Y-79462285D01*
X129308857Y-79414666D01*
X129213619Y-79367047D01*
X129166000Y-79319428D01*
X129118380Y-79224190D01*
X130118380Y-78462285D02*
X129118380Y-78462285D01*
X129737428Y-78367047D02*
X130118380Y-78081333D01*
X129451714Y-78081333D02*
X129832666Y-78462285D01*
X148645619Y-82129333D02*
X148645619Y-81653142D01*
X149645619Y-81653142D01*
X148645619Y-82986476D02*
X148645619Y-82415047D01*
X148645619Y-82700761D02*
X149645619Y-82700761D01*
X149502761Y-82605523D01*
X149407523Y-82510285D01*
X149359904Y-82415047D01*
X139485619Y-80557904D02*
X139485619Y-80367428D01*
X139438000Y-80272190D01*
X139390380Y-80224571D01*
X139247523Y-80129333D01*
X139057047Y-80081714D01*
X138676095Y-80081714D01*
X138580857Y-80129333D01*
X138533238Y-80176952D01*
X138485619Y-80272190D01*
X138485619Y-80462666D01*
X138533238Y-80557904D01*
X138580857Y-80605523D01*
X138676095Y-80653142D01*
X138914190Y-80653142D01*
X139009428Y-80605523D01*
X139057047Y-80557904D01*
X139104666Y-80462666D01*
X139104666Y-80272190D01*
X139057047Y-80176952D01*
X139009428Y-80129333D01*
X138914190Y-80081714D01*
X139057047Y-81224571D02*
X139104666Y-81129333D01*
X139152285Y-81081714D01*
X139247523Y-81034095D01*
X139295142Y-81034095D01*
X139390380Y-81081714D01*
X139438000Y-81129333D01*
X139485619Y-81224571D01*
X139485619Y-81415047D01*
X139438000Y-81510285D01*
X139390380Y-81557904D01*
X139295142Y-81605523D01*
X139247523Y-81605523D01*
X139152285Y-81557904D01*
X139104666Y-81510285D01*
X139057047Y-81415047D01*
X139057047Y-81224571D01*
X139009428Y-81129333D01*
X138961809Y-81081714D01*
X138866571Y-81034095D01*
X138676095Y-81034095D01*
X138580857Y-81081714D01*
X138533238Y-81129333D01*
X138485619Y-81224571D01*
X138485619Y-81415047D01*
X138533238Y-81510285D01*
X138580857Y-81557904D01*
X138676095Y-81605523D01*
X138866571Y-81605523D01*
X138961809Y-81557904D01*
X139009428Y-81510285D01*
X139057047Y-81415047D01*
X139485619Y-82224571D02*
X139485619Y-82319809D01*
X139438000Y-82415047D01*
X139390380Y-82462666D01*
X139295142Y-82510285D01*
X139104666Y-82557904D01*
X138866571Y-82557904D01*
X138676095Y-82510285D01*
X138580857Y-82462666D01*
X138533238Y-82415047D01*
X138485619Y-82319809D01*
X138485619Y-82224571D01*
X138533238Y-82129333D01*
X138580857Y-82081714D01*
X138676095Y-82034095D01*
X138866571Y-81986476D01*
X139104666Y-81986476D01*
X139295142Y-82034095D01*
X139390380Y-82081714D01*
X139438000Y-82129333D01*
X139485619Y-82224571D01*
X139152285Y-83415047D02*
X138485619Y-83415047D01*
X139152285Y-82986476D02*
X138628476Y-82986476D01*
X138533238Y-83034095D01*
X138485619Y-83129333D01*
X138485619Y-83272190D01*
X138533238Y-83367428D01*
X138580857Y-83415047D01*
X138485619Y-83891238D02*
X139485619Y-83891238D01*
X139009428Y-83891238D02*
X139009428Y-84462666D01*
X138485619Y-84462666D02*
X139485619Y-84462666D01*
X92936666Y-130553261D02*
X93079523Y-130600880D01*
X93317619Y-130600880D01*
X93412857Y-130553261D01*
X93460476Y-130505642D01*
X93508095Y-130410404D01*
X93508095Y-130315166D01*
X93460476Y-130219928D01*
X93412857Y-130172309D01*
X93317619Y-130124690D01*
X93127142Y-130077071D01*
X93031904Y-130029452D01*
X92984285Y-129981833D01*
X92936666Y-129886595D01*
X92936666Y-129791357D01*
X92984285Y-129696119D01*
X93031904Y-129648500D01*
X93127142Y-129600880D01*
X93365238Y-129600880D01*
X93508095Y-129648500D01*
X93841428Y-129600880D02*
X94079523Y-130600880D01*
X94270000Y-129886595D01*
X94460476Y-130600880D01*
X94698571Y-129600880D01*
X95603333Y-130600880D02*
X95031904Y-130600880D01*
X95317619Y-130600880D02*
X95317619Y-129600880D01*
X95222380Y-129743738D01*
X95127142Y-129838976D01*
X95031904Y-129886595D01*
X126082380Y-80187105D02*
X126082380Y-80758534D01*
X126082380Y-80472819D02*
X125082380Y-80472819D01*
X125225238Y-80568057D01*
X125320476Y-80663296D01*
X125368095Y-80758534D01*
X125082380Y-79568057D02*
X125082380Y-79472819D01*
X125130000Y-79377581D01*
X125177619Y-79329962D01*
X125272857Y-79282343D01*
X125463333Y-79234724D01*
X125701428Y-79234724D01*
X125891904Y-79282343D01*
X125987142Y-79329962D01*
X126034761Y-79377581D01*
X126082380Y-79472819D01*
X126082380Y-79568057D01*
X126034761Y-79663296D01*
X125987142Y-79710915D01*
X125891904Y-79758534D01*
X125701428Y-79806153D01*
X125463333Y-79806153D01*
X125272857Y-79758534D01*
X125177619Y-79710915D01*
X125130000Y-79663296D01*
X125082380Y-79568057D01*
X125415714Y-78377581D02*
X126082380Y-78377581D01*
X125415714Y-78806153D02*
X125939523Y-78806153D01*
X126034761Y-78758534D01*
X126082380Y-78663296D01*
X126082380Y-78520438D01*
X126034761Y-78425200D01*
X125987142Y-78377581D01*
X125558571Y-77568057D02*
X125558571Y-77901391D01*
X126082380Y-77901391D02*
X125082380Y-77901391D01*
X125082380Y-77425200D01*
X194248904Y-89165380D02*
X194248904Y-88165380D01*
X194820333Y-89165380D02*
X194391761Y-88593952D01*
X194820333Y-88165380D02*
X194248904Y-88736809D01*
X195772714Y-89165380D02*
X195201285Y-89165380D01*
X195487000Y-89165380D02*
X195487000Y-88165380D01*
X195391761Y-88308238D01*
X195296523Y-88403476D01*
X195201285Y-88451095D01*
X190881523Y-90654142D02*
X190833904Y-90701761D01*
X190691047Y-90749380D01*
X190595809Y-90749380D01*
X190452952Y-90701761D01*
X190357714Y-90606523D01*
X190310095Y-90511285D01*
X190262476Y-90320809D01*
X190262476Y-90177952D01*
X190310095Y-89987476D01*
X190357714Y-89892238D01*
X190452952Y-89797000D01*
X190595809Y-89749380D01*
X190691047Y-89749380D01*
X190833904Y-89797000D01*
X190881523Y-89844619D01*
X191310095Y-90749380D02*
X191310095Y-89749380D01*
X191738666Y-90749380D02*
X191738666Y-90225571D01*
X191691047Y-90130333D01*
X191595809Y-90082714D01*
X191452952Y-90082714D01*
X191357714Y-90130333D01*
X191310095Y-90177952D01*
X192643428Y-90749380D02*
X192643428Y-90225571D01*
X192595809Y-90130333D01*
X192500571Y-90082714D01*
X192310095Y-90082714D01*
X192214857Y-90130333D01*
X192643428Y-90701761D02*
X192548190Y-90749380D01*
X192310095Y-90749380D01*
X192214857Y-90701761D01*
X192167238Y-90606523D01*
X192167238Y-90511285D01*
X192214857Y-90416047D01*
X192310095Y-90368428D01*
X192548190Y-90368428D01*
X192643428Y-90320809D01*
X193119619Y-90749380D02*
X193119619Y-90082714D01*
X193119619Y-90273190D02*
X193167238Y-90177952D01*
X193214857Y-90130333D01*
X193310095Y-90082714D01*
X193405333Y-90082714D01*
X194167238Y-90082714D02*
X194167238Y-90892238D01*
X194119619Y-90987476D01*
X194072000Y-91035095D01*
X193976761Y-91082714D01*
X193833904Y-91082714D01*
X193738666Y-91035095D01*
X194167238Y-90701761D02*
X194072000Y-90749380D01*
X193881523Y-90749380D01*
X193786285Y-90701761D01*
X193738666Y-90654142D01*
X193691047Y-90558904D01*
X193691047Y-90273190D01*
X193738666Y-90177952D01*
X193786285Y-90130333D01*
X193881523Y-90082714D01*
X194072000Y-90082714D01*
X194167238Y-90130333D01*
X195024380Y-90701761D02*
X194929142Y-90749380D01*
X194738666Y-90749380D01*
X194643428Y-90701761D01*
X194595809Y-90606523D01*
X194595809Y-90225571D01*
X194643428Y-90130333D01*
X194738666Y-90082714D01*
X194929142Y-90082714D01*
X195024380Y-90130333D01*
X195072000Y-90225571D01*
X195072000Y-90320809D01*
X194595809Y-90416047D01*
X195262476Y-90844619D02*
X196024380Y-90844619D01*
X196833904Y-90749380D02*
X196500571Y-90273190D01*
X196262476Y-90749380D02*
X196262476Y-89749380D01*
X196643428Y-89749380D01*
X196738666Y-89797000D01*
X196786285Y-89844619D01*
X196833904Y-89939857D01*
X196833904Y-90082714D01*
X196786285Y-90177952D01*
X196738666Y-90225571D01*
X196643428Y-90273190D01*
X196262476Y-90273190D01*
X197643428Y-90701761D02*
X197548190Y-90749380D01*
X197357714Y-90749380D01*
X197262476Y-90701761D01*
X197214857Y-90606523D01*
X197214857Y-90225571D01*
X197262476Y-90130333D01*
X197357714Y-90082714D01*
X197548190Y-90082714D01*
X197643428Y-90130333D01*
X197691047Y-90225571D01*
X197691047Y-90320809D01*
X197214857Y-90416047D01*
X198262476Y-90749380D02*
X198167238Y-90701761D01*
X198119619Y-90606523D01*
X198119619Y-89749380D01*
X199072000Y-90749380D02*
X199072000Y-90225571D01*
X199024380Y-90130333D01*
X198929142Y-90082714D01*
X198738666Y-90082714D01*
X198643428Y-90130333D01*
X199072000Y-90701761D02*
X198976761Y-90749380D01*
X198738666Y-90749380D01*
X198643428Y-90701761D01*
X198595809Y-90606523D01*
X198595809Y-90511285D01*
X198643428Y-90416047D01*
X198738666Y-90368428D01*
X198976761Y-90368428D01*
X199072000Y-90320809D01*
X199452952Y-90082714D02*
X199691047Y-90749380D01*
X199929142Y-90082714D02*
X199691047Y-90749380D01*
X199595809Y-90987476D01*
X199548190Y-91035095D01*
X199452952Y-91082714D01*
X113292142Y-102550980D02*
X113387380Y-102550980D01*
X113482619Y-102598600D01*
X113530238Y-102646219D01*
X113577857Y-102741457D01*
X113625476Y-102931933D01*
X113625476Y-103170028D01*
X113577857Y-103360504D01*
X113530238Y-103455742D01*
X113482619Y-103503361D01*
X113387380Y-103550980D01*
X113292142Y-103550980D01*
X113196904Y-103503361D01*
X113149285Y-103455742D01*
X113101666Y-103360504D01*
X113054047Y-103170028D01*
X113054047Y-102931933D01*
X113101666Y-102741457D01*
X113149285Y-102646219D01*
X113196904Y-102598600D01*
X113292142Y-102550980D01*
X114054047Y-103455742D02*
X114101666Y-103503361D01*
X114054047Y-103550980D01*
X114006428Y-103503361D01*
X114054047Y-103455742D01*
X114054047Y-103550980D01*
X115054047Y-103550980D02*
X114482619Y-103550980D01*
X114768333Y-103550980D02*
X114768333Y-102550980D01*
X114673095Y-102693838D01*
X114577857Y-102789076D01*
X114482619Y-102836695D01*
X115911190Y-102884314D02*
X115911190Y-103550980D01*
X115482619Y-102884314D02*
X115482619Y-103408123D01*
X115530238Y-103503361D01*
X115625476Y-103550980D01*
X115768333Y-103550980D01*
X115863571Y-103503361D01*
X115911190Y-103455742D01*
X116720714Y-103027171D02*
X116387380Y-103027171D01*
X116387380Y-103550980D02*
X116387380Y-102550980D01*
X116863571Y-102550980D01*
X204216095Y-99274380D02*
X204882761Y-99274380D01*
X204454190Y-100274380D01*
X205216095Y-99988666D02*
X205692285Y-99988666D01*
X205120857Y-100274380D02*
X205454190Y-99274380D01*
X205787523Y-100274380D01*
X105608571Y-108058380D02*
X105037142Y-108058380D01*
X105322857Y-108058380D02*
X105322857Y-107058380D01*
X105227619Y-107201238D01*
X105132380Y-107296476D01*
X105037142Y-107344095D01*
X106465714Y-107058380D02*
X106275238Y-107058380D01*
X106180000Y-107106000D01*
X106132380Y-107153619D01*
X106037142Y-107296476D01*
X105989523Y-107486952D01*
X105989523Y-107867904D01*
X106037142Y-107963142D01*
X106084761Y-108010761D01*
X106180000Y-108058380D01*
X106370476Y-108058380D01*
X106465714Y-108010761D01*
X106513333Y-107963142D01*
X106560952Y-107867904D01*
X106560952Y-107629809D01*
X106513333Y-107534571D01*
X106465714Y-107486952D01*
X106370476Y-107439333D01*
X106180000Y-107439333D01*
X106084761Y-107486952D01*
X106037142Y-107534571D01*
X105989523Y-107629809D01*
X106989523Y-107391714D02*
X106989523Y-108391714D01*
X106989523Y-107439333D02*
X107084761Y-107391714D01*
X107275238Y-107391714D01*
X107370476Y-107439333D01*
X107418095Y-107486952D01*
X107465714Y-107582190D01*
X107465714Y-107867904D01*
X107418095Y-107963142D01*
X107370476Y-108010761D01*
X107275238Y-108058380D01*
X107084761Y-108058380D01*
X106989523Y-108010761D01*
X108227619Y-107534571D02*
X107894285Y-107534571D01*
X107894285Y-108058380D02*
X107894285Y-107058380D01*
X108370476Y-107058380D01*
D14*
X184275000Y-134250000D02*
X176405000Y-134250000D01*
X185275000Y-124130000D02*
X182850000Y-124130000D01*
X185275000Y-124130000D02*
X185275000Y-133250000D01*
X175405000Y-133250000D02*
X175405000Y-124130000D01*
X180830000Y-124130000D02*
X179491767Y-124130000D01*
X175405000Y-124130000D02*
X178188233Y-124130000D01*
X176405000Y-134250000D02*
X175405000Y-133250000D01*
X185275000Y-133250000D02*
X184275000Y-134250000D01*
X227620000Y-73720000D02*
X227620000Y-63440000D01*
X227680000Y-73960000D02*
X228420000Y-73960000D01*
X218259000Y-73720000D02*
X218259000Y-63440000D01*
X218259000Y-63440000D02*
X228180000Y-63440000D01*
X221219000Y-73720000D02*
X221219000Y-63440000D01*
X222245000Y-64970000D02*
X222281000Y-65005000D01*
X228420000Y-73960000D02*
X228420000Y-73460000D01*
X226120000Y-73720000D02*
X226120000Y-63440000D01*
X224543000Y-67267000D02*
X224589000Y-67314000D01*
X228180000Y-73720000D02*
X228180000Y-63440000D01*
X224759000Y-67074000D02*
X224794000Y-67109000D01*
X222451000Y-64765000D02*
X222497000Y-64812000D01*
X218259000Y-73720000D02*
X228180000Y-73720000D01*
X225055000Y-71804000D02*
G75*
G03*
X225200253Y-71091195I-1535001J683999D01*
G01*
X221985000Y-70436000D02*
G75*
G03*
X221984573Y-71803042I1534993J-684001D01*
G01*
X224204000Y-69584999D02*
G75*
G03*
X222836958Y-69584573I-684000J-1535001D01*
G01*
X225200000Y-71120000D02*
G75*
G03*
X225054756Y-70436682I-1680000J0D01*
G01*
X222836000Y-72655000D02*
G75*
G03*
X224203042Y-72655427I684001J1534993D01*
G01*
X225200000Y-66040000D02*
G75*
G03*
X225200000Y-66040000I-1680000J0D01*
G01*
X211120000Y-118440000D02*
X211120000Y-117160000D01*
X213630000Y-121540000D02*
X213630000Y-134560000D01*
X208820000Y-121540000D02*
X208010000Y-121540000D01*
X212820000Y-120550000D02*
X213420000Y-120250000D01*
X212820000Y-121540000D02*
X213630000Y-121540000D01*
X208010000Y-121540000D02*
X208010000Y-134560000D01*
X210520000Y-118440000D02*
X210520000Y-117160000D01*
X208010000Y-134560000D02*
X210820000Y-134560000D01*
X213420000Y-120250000D02*
X213420000Y-120850000D01*
X213630000Y-134560000D02*
X210820000Y-134560000D01*
X213420000Y-120850000D02*
X212820000Y-120550000D01*
X93970000Y-116840000D02*
X96640000Y-116840000D01*
X83680000Y-83950000D02*
X83680000Y-73530000D01*
X96640000Y-76070000D02*
X91560000Y-76070000D01*
X81270000Y-116840000D02*
X78600000Y-116840000D01*
X91560000Y-73530000D02*
X91560000Y-83950000D01*
X93970000Y-78740000D02*
X96640000Y-78740000D01*
X93970000Y-114300000D02*
X93970000Y-78740000D01*
X93970000Y-114300000D02*
X96640000Y-114300000D01*
X78600000Y-119510000D02*
X96640000Y-119510000D01*
X83680000Y-73530000D02*
X91560000Y-73530000D01*
X91560000Y-83950000D02*
X83680000Y-83950000D01*
X93970000Y-114300000D02*
X93970000Y-116840000D01*
X81270000Y-78740000D02*
X78600000Y-78740000D01*
X78600000Y-76070000D02*
X78600000Y-119510000D01*
X78600000Y-76070000D02*
X83680000Y-76070000D01*
X96640000Y-114300000D02*
X96640000Y-76070000D01*
X81270000Y-116840000D02*
X81270000Y-78740000D01*
X96640000Y-119510000D02*
X96640000Y-116840000D01*
X227680000Y-87935000D02*
X228420000Y-87935000D01*
X227620000Y-87695000D02*
X227620000Y-77415000D01*
X218259000Y-77415000D02*
X228180000Y-77415000D01*
X222245000Y-78945000D02*
X222281000Y-78980000D01*
X228420000Y-87935000D02*
X228420000Y-87435000D01*
X224759000Y-81049000D02*
X224794000Y-81084000D01*
X226120000Y-87695000D02*
X226120000Y-77415000D01*
X218259000Y-87695000D02*
X228180000Y-87695000D01*
X221219000Y-87695000D02*
X221219000Y-77415000D01*
X218259000Y-87695000D02*
X218259000Y-77415000D01*
X222451000Y-78740000D02*
X222497000Y-78787000D01*
X224543000Y-81242000D02*
X224589000Y-81289000D01*
X228180000Y-87695000D02*
X228180000Y-77415000D01*
X222836000Y-86630000D02*
G75*
G03*
X224203042Y-86630427I684001J1534993D01*
G01*
X225055000Y-85779000D02*
G75*
G03*
X225200253Y-85066195I-1535001J683999D01*
G01*
X224204000Y-83559999D02*
G75*
G03*
X222836958Y-83559573I-684000J-1535001D01*
G01*
X221985000Y-84411000D02*
G75*
G03*
X221984573Y-85778042I1534993J-684001D01*
G01*
X225200000Y-85095000D02*
G75*
G03*
X225054756Y-84411682I-1680000J0D01*
G01*
X225200000Y-80015000D02*
G75*
G03*
X225200000Y-80015000I-1680000J0D01*
G01*
X111232800Y-109340800D02*
X111232800Y-111740800D01*
X111232800Y-111740800D02*
X108832800Y-111740800D01*
X108832800Y-109340800D02*
X111232800Y-109340800D01*
X108832800Y-111740800D02*
X108832800Y-109340800D01*
X213290000Y-69920000D02*
X213290000Y-72320000D01*
X210890000Y-72320000D02*
X210890000Y-69920000D01*
X213290000Y-72320000D02*
X210890000Y-72320000D01*
X210890000Y-69920000D02*
X213290000Y-69920000D01*
X106941252Y-90197000D02*
X106418748Y-90197000D01*
X106941252Y-91667000D02*
X106418748Y-91667000D01*
X178082000Y-107610000D02*
X194282000Y-107610000D01*
X194282000Y-107610000D02*
X194282000Y-100670000D01*
X185432000Y-104140000D02*
X186932000Y-104140000D01*
X178082000Y-100670000D02*
X178082000Y-107610000D01*
X187782000Y-106140000D02*
X184582000Y-106140000D01*
X194282000Y-100670000D02*
X178082000Y-100670000D01*
X184582000Y-102140000D02*
X187782000Y-102140000D01*
X115520000Y-89610000D02*
X113705000Y-89610000D01*
X123240000Y-101135000D02*
X123240000Y-100890000D01*
X119380000Y-89365000D02*
X115520000Y-89365000D01*
X119380000Y-89365000D02*
X123240000Y-89365000D01*
X115520000Y-89365000D02*
X115520000Y-89610000D01*
X119380000Y-101135000D02*
X115520000Y-101135000D01*
X123240000Y-89365000D02*
X123240000Y-89610000D01*
X119380000Y-101135000D02*
X123240000Y-101135000D01*
X115520000Y-101135000D02*
X115520000Y-100890000D01*
X164930000Y-104653323D02*
X160748000Y-104653323D01*
X164930000Y-103453323D02*
X160276000Y-103453323D01*
X164930000Y-104973323D02*
X160925000Y-104973323D01*
X164930000Y-105293323D02*
X161127000Y-105293323D01*
X164930000Y-103333323D02*
X160244000Y-103333323D01*
X172694000Y-102012323D02*
X160046000Y-102012323D01*
X172391000Y-103693323D02*
X167810000Y-103693323D01*
X171443000Y-105533323D02*
X167810000Y-105533323D01*
X170010000Y-106933323D02*
X162730000Y-106933323D01*
X170174000Y-106813323D02*
X162566000Y-106813323D01*
X164930000Y-105013323D02*
X160949000Y-105013323D01*
X170226000Y-106773323D02*
X162514000Y-106773323D01*
X172378000Y-103733323D02*
X167810000Y-103733323D01*
X170518000Y-106533323D02*
X162222000Y-106533323D01*
X169709000Y-107133323D02*
X163031000Y-107133323D01*
X170564000Y-106493323D02*
X162176000Y-106493323D01*
X164930000Y-103533323D02*
X160299000Y-103533323D01*
X171666000Y-105213323D02*
X167810000Y-105213323D01*
X169645000Y-107173323D02*
X163095000Y-107173323D01*
X169510000Y-107253323D02*
X163230000Y-107253323D01*
X172571000Y-103013323D02*
X167810000Y-103013323D01*
X164930000Y-105133323D02*
X161023000Y-105133323D01*
X172032000Y-104573323D02*
X167810000Y-104573323D01*
X170975000Y-106093323D02*
X161765000Y-106093323D01*
X172247000Y-104093323D02*
X167810000Y-104093323D01*
X172012000Y-104613323D02*
X167810000Y-104613323D01*
X169051000Y-107493323D02*
X163689000Y-107493323D01*
X164930000Y-104213323D02*
X160542000Y-104213323D01*
X170570000Y-95540241D02*
X169320000Y-95540241D01*
X172586000Y-102933323D02*
X167810000Y-102933323D01*
X172441000Y-103533323D02*
X167810000Y-103533323D01*
X166687000Y-108093323D02*
X166053000Y-108093323D01*
X172091000Y-104453323D02*
X167810000Y-104453323D01*
X171320000Y-105693323D02*
X161420000Y-105693323D01*
X164930000Y-102853323D02*
X160139000Y-102853323D01*
X172337000Y-103853323D02*
X167810000Y-103853323D01*
X164930000Y-104573323D02*
X160708000Y-104573323D01*
X171884000Y-104853323D02*
X167810000Y-104853323D01*
X164930000Y-104813323D02*
X160834000Y-104813323D01*
X164930000Y-105493323D02*
X161268000Y-105493323D01*
X172700000Y-101772323D02*
X160040000Y-101772323D01*
X171717000Y-105133323D02*
X167810000Y-105133323D01*
X164930000Y-104333323D02*
X160594000Y-104333323D01*
X172365000Y-103773323D02*
X167810000Y-103773323D01*
X168964000Y-107533323D02*
X163776000Y-107533323D01*
X172698000Y-101892323D02*
X160042000Y-101892323D01*
X172215000Y-104173323D02*
X167810000Y-104173323D01*
X172634000Y-102653323D02*
X160106000Y-102653323D01*
X171815000Y-104973323D02*
X167810000Y-104973323D01*
X171613000Y-105293323D02*
X167810000Y-105293323D01*
X172685000Y-102172323D02*
X160055000Y-102172323D01*
X170937000Y-106133323D02*
X161803000Y-106133323D01*
X169291000Y-107373323D02*
X163449000Y-107373323D01*
X164930000Y-103653323D02*
X160336000Y-103653323D01*
X172672000Y-102332323D02*
X160068000Y-102332323D01*
X164930000Y-104613323D02*
X160728000Y-104613323D01*
X172404000Y-103653323D02*
X167810000Y-103653323D01*
X164930000Y-103613323D02*
X160323000Y-103613323D01*
X164930000Y-105613323D02*
X161358000Y-105613323D01*
X169439000Y-107293323D02*
X163301000Y-107293323D01*
X164930000Y-105453323D02*
X161239000Y-105453323D01*
X164930000Y-104093323D02*
X160493000Y-104093323D01*
X169214000Y-107413323D02*
X163526000Y-107413323D01*
X172417000Y-103613323D02*
X167810000Y-103613323D01*
X164930000Y-103973323D02*
X160446000Y-103973323D01*
X171288000Y-105733323D02*
X161452000Y-105733323D01*
X170327000Y-106693323D02*
X162413000Y-106693323D01*
X164930000Y-104453323D02*
X160649000Y-104453323D01*
X172526000Y-103213323D02*
X167810000Y-103213323D01*
X169134000Y-107453323D02*
X163606000Y-107453323D01*
X170737000Y-106333323D02*
X162003000Y-106333323D01*
X171971000Y-104693323D02*
X167810000Y-104693323D01*
X171742000Y-105093323D02*
X167810000Y-105093323D01*
X172278000Y-104013323D02*
X167810000Y-104013323D01*
X164930000Y-104293323D02*
X160577000Y-104293323D01*
X164930000Y-104173323D02*
X160525000Y-104173323D01*
X164930000Y-103053323D02*
X160178000Y-103053323D01*
X167611000Y-107973323D02*
X165129000Y-107973323D01*
X170819000Y-106253323D02*
X161921000Y-106253323D01*
X164930000Y-103693323D02*
X160349000Y-103693323D01*
X171413000Y-105573323D02*
X167810000Y-105573323D01*
X167398000Y-108013323D02*
X165342000Y-108013323D01*
X164930000Y-102893323D02*
X160146000Y-102893323D01*
X172072000Y-104493323D02*
X167810000Y-104493323D01*
X171255000Y-105773323D02*
X161485000Y-105773323D01*
X170377000Y-106653323D02*
X162363000Y-106653323D01*
X172696000Y-101972323D02*
X160044000Y-101972323D01*
X169953000Y-106973323D02*
X162787000Y-106973323D01*
X172351000Y-103813323D02*
X167810000Y-103813323D01*
X168874000Y-107573323D02*
X163866000Y-107573323D01*
X164930000Y-103173323D02*
X160204000Y-103173323D01*
X172594000Y-102893323D02*
X167810000Y-102893323D01*
X172682000Y-102212323D02*
X160058000Y-102212323D01*
X171222000Y-105813323D02*
X161518000Y-105813323D01*
X164930000Y-102813323D02*
X160132000Y-102813323D01*
X164930000Y-105653323D02*
X161388000Y-105653323D01*
X172198000Y-104213323D02*
X167810000Y-104213323D01*
X164930000Y-103013323D02*
X160169000Y-103013323D01*
X164930000Y-104533323D02*
X160688000Y-104533323D01*
X164930000Y-104413323D02*
X160631000Y-104413323D01*
X164930000Y-103733323D02*
X160362000Y-103733323D01*
X172700000Y-101812323D02*
X160040000Y-101812323D01*
X172545000Y-103133323D02*
X167810000Y-103133323D01*
X172323000Y-103893323D02*
X167810000Y-103893323D01*
X172052000Y-104533323D02*
X167810000Y-104533323D01*
X169366000Y-107333323D02*
X163374000Y-107333323D01*
X172496000Y-103333323D02*
X167810000Y-103333323D01*
X164930000Y-103373323D02*
X160254000Y-103373323D01*
X172562000Y-103053323D02*
X167810000Y-103053323D01*
X171530000Y-105413323D02*
X167810000Y-105413323D01*
X171120000Y-105933323D02*
X161620000Y-105933323D01*
X172655000Y-102493323D02*
X160085000Y-102493323D01*
X172453000Y-103493323D02*
X167810000Y-103493323D01*
X172660000Y-102453323D02*
X160080000Y-102453323D01*
X170472000Y-106573323D02*
X162268000Y-106573323D01*
X164930000Y-104013323D02*
X160462000Y-104013323D01*
X164930000Y-103413323D02*
X160265000Y-103413323D01*
X164930000Y-105213323D02*
X161074000Y-105213323D01*
X172664000Y-102412323D02*
X160076000Y-102412323D01*
X172163000Y-104293323D02*
X167810000Y-104293323D01*
X171767000Y-105053323D02*
X167810000Y-105053323D01*
X172475000Y-103413323D02*
X167810000Y-103413323D01*
X168470000Y-107733323D02*
X164270000Y-107733323D01*
X164930000Y-103493323D02*
X160287000Y-103493323D01*
X164930000Y-105093323D02*
X160998000Y-105093323D01*
X172700000Y-101732323D02*
X160040000Y-101732323D01*
X164930000Y-103933323D02*
X160431000Y-103933323D01*
X171791000Y-105013323D02*
X167810000Y-105013323D01*
X164930000Y-105573323D02*
X161327000Y-105573323D01*
X172486000Y-103373323D02*
X167810000Y-103373323D01*
X168098000Y-107853323D02*
X164642000Y-107853323D01*
X169772000Y-107093323D02*
X162968000Y-107093323D01*
X172128000Y-104373323D02*
X167810000Y-104373323D01*
X172668000Y-102372323D02*
X160072000Y-102372323D01*
X164930000Y-105053323D02*
X160973000Y-105053323D01*
X164930000Y-103213323D02*
X160214000Y-103213323D01*
X172146000Y-104333323D02*
X167810000Y-104333323D01*
X172650000Y-102533323D02*
X160090000Y-102533323D01*
X164930000Y-104493323D02*
X160668000Y-104493323D01*
X172601000Y-102853323D02*
X167810000Y-102853323D01*
X164930000Y-104693323D02*
X160769000Y-104693323D01*
X164930000Y-104773323D02*
X160812000Y-104773323D01*
X172690000Y-102092323D02*
X160050000Y-102092323D01*
X170066000Y-106893323D02*
X162674000Y-106893323D01*
X172645000Y-102573323D02*
X160095000Y-102573323D01*
X172608000Y-102813323D02*
X167810000Y-102813323D01*
X170695000Y-106373323D02*
X162045000Y-106373323D01*
X164930000Y-103573323D02*
X160311000Y-103573323D01*
X172507000Y-103293323D02*
X167810000Y-103293323D01*
X164930000Y-103093323D02*
X160186000Y-103093323D01*
X170859000Y-106213323D02*
X161881000Y-106213323D01*
X164930000Y-104893323D02*
X160879000Y-104893323D01*
X168682000Y-107653323D02*
X164058000Y-107653323D01*
X164930000Y-105413323D02*
X161210000Y-105413323D01*
X164930000Y-103813323D02*
X160389000Y-103813323D01*
X170608000Y-106453323D02*
X162132000Y-106453323D01*
X171472000Y-105493323D02*
X167810000Y-105493323D01*
X171155000Y-105893323D02*
X161585000Y-105893323D01*
X172464000Y-103453323D02*
X167810000Y-103453323D01*
X169834000Y-107053323D02*
X162906000Y-107053323D01*
X170652000Y-106413323D02*
X162088000Y-106413323D01*
X172699000Y-101852323D02*
X160041000Y-101852323D01*
X164930000Y-105333323D02*
X161154000Y-105333323D01*
X164930000Y-104733323D02*
X160790000Y-104733323D01*
X171558000Y-105373323D02*
X167810000Y-105373323D01*
X169945000Y-94915241D02*
X169945000Y-96165241D01*
X171906000Y-104813323D02*
X167810000Y-104813323D01*
X164930000Y-102933323D02*
X160154000Y-102933323D01*
X169578000Y-107213323D02*
X163162000Y-107213323D01*
X172231000Y-104133323D02*
X167810000Y-104133323D01*
X170778000Y-106293323D02*
X161962000Y-106293323D01*
X172579000Y-102973323D02*
X167810000Y-102973323D01*
X167792000Y-107933323D02*
X164948000Y-107933323D01*
X171992000Y-104653323D02*
X167810000Y-104653323D01*
X172554000Y-103093323D02*
X167810000Y-103093323D01*
X171048000Y-106013323D02*
X161692000Y-106013323D01*
X171501000Y-105453323D02*
X167810000Y-105453323D01*
X171189000Y-105853323D02*
X161551000Y-105853323D01*
X168231000Y-107813323D02*
X164509000Y-107813323D01*
X164930000Y-103773323D02*
X160375000Y-103773323D01*
X171861000Y-104893323D02*
X167810000Y-104893323D01*
X172263000Y-104053323D02*
X167810000Y-104053323D01*
X172697000Y-101932323D02*
X160043000Y-101932323D01*
X172294000Y-103973323D02*
X167810000Y-103973323D01*
X164930000Y-105173323D02*
X161048000Y-105173323D01*
X164930000Y-104133323D02*
X160509000Y-104133323D01*
X172109000Y-104413323D02*
X167810000Y-104413323D01*
X164930000Y-105373323D02*
X161182000Y-105373323D01*
X168579000Y-107693323D02*
X164161000Y-107693323D01*
X172692000Y-102052323D02*
X160048000Y-102052323D01*
X164930000Y-103293323D02*
X160233000Y-103293323D01*
X170898000Y-106173323D02*
X161842000Y-106173323D01*
X172309000Y-103933323D02*
X167810000Y-103933323D01*
X171692000Y-105173323D02*
X167810000Y-105173323D01*
X164930000Y-104253323D02*
X160559000Y-104253323D01*
X167127000Y-108053323D02*
X165613000Y-108053323D01*
X172676000Y-102292323D02*
X160064000Y-102292323D01*
X172516000Y-103253323D02*
X167810000Y-103253323D01*
X171950000Y-104733323D02*
X167810000Y-104733323D01*
X164930000Y-103133323D02*
X160195000Y-103133323D01*
X169894000Y-107013323D02*
X162846000Y-107013323D01*
X164930000Y-102973323D02*
X160161000Y-102973323D01*
X164930000Y-103853323D02*
X160403000Y-103853323D01*
X171586000Y-105333323D02*
X167810000Y-105333323D01*
X172429000Y-103573323D02*
X167810000Y-103573323D01*
X168354000Y-107773323D02*
X164386000Y-107773323D01*
X171928000Y-104773323D02*
X167810000Y-104773323D01*
X171084000Y-105973323D02*
X161656000Y-105973323D01*
X172688000Y-102132323D02*
X160052000Y-102132323D01*
X164930000Y-103893323D02*
X160417000Y-103893323D01*
X172181000Y-104253323D02*
X167810000Y-104253323D01*
X171838000Y-104933323D02*
X167810000Y-104933323D01*
X171012000Y-106053323D02*
X161728000Y-106053323D01*
X172615000Y-102773323D02*
X160125000Y-102773323D01*
X168780000Y-107613323D02*
X163960000Y-107613323D01*
X172628000Y-102693323D02*
X160112000Y-102693323D01*
X164930000Y-105533323D02*
X161297000Y-105533323D01*
X170120000Y-106853323D02*
X162620000Y-106853323D01*
X171382000Y-105613323D02*
X167810000Y-105613323D01*
X164930000Y-104853323D02*
X160856000Y-104853323D01*
X164930000Y-104053323D02*
X160477000Y-104053323D01*
X164930000Y-104933323D02*
X160902000Y-104933323D01*
X172536000Y-103173323D02*
X167810000Y-103173323D01*
X170277000Y-106733323D02*
X162463000Y-106733323D01*
X164930000Y-104373323D02*
X160612000Y-104373323D01*
X172639000Y-102613323D02*
X160101000Y-102613323D01*
X167953000Y-107893323D02*
X164787000Y-107893323D01*
X172622000Y-102733323D02*
X160118000Y-102733323D01*
X170425000Y-106613323D02*
X162315000Y-106613323D01*
X171640000Y-105253323D02*
X167810000Y-105253323D01*
X171352000Y-105653323D02*
X167810000Y-105653323D01*
X172679000Y-102252323D02*
X160061000Y-102252323D01*
X164930000Y-103253323D02*
X160224000Y-103253323D01*
X164930000Y-105253323D02*
X161100000Y-105253323D01*
X172740000Y-101732323D02*
G75*
G03*
X172740000Y-101732323I-6370000J0D01*
G01*
X172575000Y-133250000D02*
X171575000Y-134250000D01*
X172575000Y-124130000D02*
X170150000Y-124130000D01*
X162705000Y-124130000D02*
X165488233Y-124130000D01*
X171575000Y-134250000D02*
X163705000Y-134250000D01*
X172575000Y-124130000D02*
X172575000Y-133250000D01*
X162705000Y-133250000D02*
X162705000Y-124130000D01*
X163705000Y-134250000D02*
X162705000Y-133250000D01*
X168130000Y-124130000D02*
X166791767Y-124130000D01*
X123597936Y-105277500D02*
X124052064Y-105277500D01*
X123597936Y-103807500D02*
X124052064Y-103807500D01*
X147175000Y-133250000D02*
X146175000Y-134250000D01*
X137305000Y-133250000D02*
X137305000Y-124130000D01*
X147175000Y-124130000D02*
X144750000Y-124130000D01*
X142730000Y-124130000D02*
X141391767Y-124130000D01*
X146175000Y-134250000D02*
X138305000Y-134250000D01*
X147175000Y-124130000D02*
X147175000Y-133250000D01*
X137305000Y-124130000D02*
X140088233Y-124130000D01*
X138305000Y-134250000D02*
X137305000Y-133250000D01*
X188002000Y-73600000D02*
X188002000Y-68520000D01*
X185462000Y-74870000D02*
X186732000Y-74870000D01*
X186732000Y-67250000D02*
X185462000Y-67250000D01*
D15*
X185462000Y-72330000D02*
X188002000Y-71060000D01*
D14*
X209772000Y-64570000D02*
X180372000Y-64570000D01*
X180172000Y-76370000D02*
X180172000Y-77870000D01*
X188002000Y-68520000D02*
X185462000Y-68520000D01*
X180172000Y-77870000D02*
X181672000Y-77870000D01*
X186732000Y-73600000D02*
X188002000Y-73600000D01*
X185462000Y-68520000D02*
X185462000Y-73600000D01*
X180372000Y-77670000D02*
X209772000Y-77670000D01*
X185462000Y-73600000D02*
X186732000Y-73600000D01*
X186732000Y-74870000D02*
X186732000Y-73600000D01*
X186732000Y-68520000D02*
X186732000Y-67250000D01*
X180372000Y-64570000D02*
X180372000Y-77670000D01*
X209772000Y-77670000D02*
X209772000Y-64570000D01*
X218259000Y-108010000D02*
X218259000Y-97730000D01*
X228420000Y-108250000D02*
X228420000Y-107750000D01*
X218259000Y-108010000D02*
X228180000Y-108010000D01*
X224759000Y-101364000D02*
X224794000Y-101399000D01*
X227620000Y-108010000D02*
X227620000Y-97730000D01*
X218259000Y-97730000D02*
X228180000Y-97730000D01*
X222451000Y-99055000D02*
X222497000Y-99102000D01*
X228180000Y-108010000D02*
X228180000Y-97730000D01*
X226120000Y-108010000D02*
X226120000Y-97730000D01*
X227680000Y-108250000D02*
X228420000Y-108250000D01*
X224543000Y-101557000D02*
X224589000Y-101604000D01*
X222245000Y-99260000D02*
X222281000Y-99295000D01*
X221219000Y-108010000D02*
X221219000Y-97730000D01*
X224204000Y-103874999D02*
G75*
G03*
X222836958Y-103874573I-684000J-1535001D01*
G01*
X222836000Y-106945000D02*
G75*
G03*
X224203042Y-106945427I684001J1534993D01*
G01*
X221985000Y-104726000D02*
G75*
G03*
X221984573Y-106093042I1534993J-684001D01*
G01*
X225055000Y-106094000D02*
G75*
G03*
X225200253Y-105381195I-1535001J683999D01*
G01*
X225200000Y-105410000D02*
G75*
G03*
X225054756Y-104726682I-1680000J0D01*
G01*
X225200000Y-100330000D02*
G75*
G03*
X225200000Y-100330000I-1680000J0D01*
G01*
X110009000Y-79509252D02*
X110009000Y-78986748D01*
X111479000Y-79509252D02*
X111479000Y-78986748D01*
X150290000Y-94180000D02*
X150290000Y-91240000D01*
X145870000Y-91240000D02*
X145870000Y-91370000D01*
X150410000Y-94180000D02*
X150410000Y-91240000D01*
X151310000Y-94180000D02*
X145870000Y-94180000D01*
X151310000Y-91240000D02*
X145870000Y-91240000D01*
X150530000Y-94180000D02*
X150530000Y-91240000D01*
X151310000Y-91370000D02*
X151310000Y-91240000D01*
X145870000Y-94180000D02*
X145870000Y-94050000D01*
X151310000Y-94050000D02*
X151310000Y-94180000D01*
X103760000Y-125502929D02*
X103760000Y-125900000D01*
X107060000Y-134560000D02*
X106300000Y-134560000D01*
X102810000Y-125900000D02*
X102810000Y-128560000D01*
X107060000Y-128560000D02*
X107060000Y-134560000D01*
X106400000Y-128560000D02*
X106400000Y-134560000D01*
X105410000Y-125900000D02*
X105410000Y-128560000D01*
X107000000Y-128560000D02*
X107000000Y-134560000D01*
X106760000Y-128560000D02*
X106760000Y-134560000D01*
X108010000Y-128560000D02*
X108010000Y-125900000D01*
X107950000Y-123190000D02*
X107950000Y-124460000D01*
X104520000Y-128560000D02*
X104520000Y-134560000D01*
X102810000Y-128560000D02*
X108010000Y-128560000D01*
X104520000Y-125502929D02*
X104520000Y-125900000D01*
X106680000Y-123190000D02*
X107950000Y-123190000D01*
X104520000Y-134560000D02*
X103760000Y-134560000D01*
X106520000Y-128560000D02*
X106520000Y-134560000D01*
X106300000Y-134560000D02*
X106300000Y-128560000D01*
X108010000Y-125900000D02*
X102810000Y-125900000D01*
X106880000Y-128560000D02*
X106880000Y-134560000D01*
X107060000Y-125570000D02*
X107060000Y-125900000D01*
X106640000Y-128560000D02*
X106640000Y-134560000D01*
X103760000Y-134560000D02*
X103760000Y-128560000D01*
X106300000Y-125570000D02*
X106300000Y-125900000D01*
X159875000Y-133250000D02*
X158875000Y-134250000D01*
X155430000Y-124130000D02*
X154091767Y-124130000D01*
X150005000Y-124130000D02*
X152788233Y-124130000D01*
X151005000Y-134250000D02*
X150005000Y-133250000D01*
X159875000Y-124130000D02*
X157450000Y-124130000D01*
X158875000Y-134250000D02*
X151005000Y-134250000D01*
X150005000Y-133250000D02*
X150005000Y-124130000D01*
X159875000Y-124130000D02*
X159875000Y-133250000D01*
X104155000Y-95290000D02*
X104155000Y-101540000D01*
X109205000Y-95290000D02*
X109205000Y-101540000D01*
X109205000Y-95290000D02*
G75*
G03*
X104155000Y-95290000I-2525000J0D01*
G01*
X104155000Y-101540000D02*
G75*
G03*
X109205000Y-101540000I2525000J0D01*
G01*
X171730000Y-90450000D02*
X167880000Y-90450000D01*
X170665563Y-79730000D02*
X171730000Y-80794437D01*
X162074437Y-79730000D02*
X161010000Y-80794437D01*
X170665563Y-79730000D02*
X167880000Y-79730000D01*
X161010000Y-90450000D02*
X164860000Y-90450000D01*
X169130000Y-78240000D02*
X169130000Y-79490000D01*
X162074437Y-79730000D02*
X164860000Y-79730000D01*
X169755000Y-78865000D02*
X168505000Y-78865000D01*
X171730000Y-80794437D02*
X171730000Y-90450000D01*
X161010000Y-80794437D02*
X161010000Y-90450000D01*
D10*
X111560000Y-120205000D02*
X113080000Y-120205000D01*
X120600000Y-120205000D02*
X122120000Y-120205000D01*
X111560000Y-133925000D02*
X122120000Y-133925000D01*
X122120000Y-133925000D02*
X122120000Y-120205000D01*
X111560000Y-133925000D02*
X111560000Y-120205000D01*
D14*
X227620000Y-121980000D02*
X227620000Y-111700000D01*
X226120000Y-121980000D02*
X226120000Y-111700000D01*
X221219000Y-121980000D02*
X221219000Y-111700000D01*
X222245000Y-113230000D02*
X222281000Y-113265000D01*
X218259000Y-121980000D02*
X218259000Y-111700000D01*
X227680000Y-122220000D02*
X228420000Y-122220000D01*
X218259000Y-121980000D02*
X228180000Y-121980000D01*
X224759000Y-115334000D02*
X224794000Y-115369000D01*
X228420000Y-122220000D02*
X228420000Y-121720000D01*
X228180000Y-121980000D02*
X228180000Y-111700000D01*
X222451000Y-113025000D02*
X222497000Y-113072000D01*
X224543000Y-115527000D02*
X224589000Y-115574000D01*
X218259000Y-111700000D02*
X228180000Y-111700000D01*
X224204000Y-117844999D02*
G75*
G03*
X222836958Y-117844573I-684000J-1535001D01*
G01*
X225055000Y-120064000D02*
G75*
G03*
X225200253Y-119351195I-1535001J683999D01*
G01*
X221985000Y-118696000D02*
G75*
G03*
X221984573Y-120063042I1534993J-684001D01*
G01*
X222836000Y-120915000D02*
G75*
G03*
X224203042Y-120915427I684001J1534993D01*
G01*
X225200000Y-119380000D02*
G75*
G03*
X225054756Y-118696682I-1680000J0D01*
G01*
X225200000Y-114300000D02*
G75*
G03*
X225200000Y-114300000I-1680000J0D01*
G01*
X187960000Y-112903000D02*
X203200000Y-112903000D01*
X203200000Y-112903000D02*
X203200000Y-133477000D01*
X203200000Y-133477000D02*
X187960000Y-133477000D01*
X187960000Y-133477000D02*
X187960000Y-112903000D01*
D10*
X124260000Y-133925000D02*
X124260000Y-120205000D01*
X134820000Y-133925000D02*
X134820000Y-120205000D01*
X124260000Y-133925000D02*
X134820000Y-133925000D01*
X133300000Y-120205000D02*
X134820000Y-120205000D01*
X124260000Y-120205000D02*
X125780000Y-120205000D01*
D14*
X137801200Y-90849600D02*
X137801200Y-93249600D01*
X135401200Y-90849600D02*
X137801200Y-90849600D01*
X137801200Y-93249600D02*
X135401200Y-93249600D01*
X135401200Y-93249600D02*
X135401200Y-90849600D01*
X226120000Y-97850000D02*
X226120000Y-87570000D01*
X218259000Y-97850000D02*
X228180000Y-97850000D01*
X224759000Y-91204000D02*
X224794000Y-91239000D01*
X224543000Y-91397000D02*
X224589000Y-91444000D01*
X222245000Y-89100000D02*
X222281000Y-89135000D01*
X227680000Y-98090000D02*
X228420000Y-98090000D01*
X221219000Y-97850000D02*
X221219000Y-87570000D01*
X218259000Y-97850000D02*
X218259000Y-87570000D01*
X227620000Y-97850000D02*
X227620000Y-87570000D01*
X222451000Y-88895000D02*
X222497000Y-88942000D01*
X228180000Y-97850000D02*
X228180000Y-87570000D01*
X228420000Y-98090000D02*
X228420000Y-97590000D01*
X218259000Y-87570000D02*
X228180000Y-87570000D01*
X221985000Y-94566000D02*
G75*
G03*
X221984573Y-95933042I1534993J-684001D01*
G01*
X225055000Y-95934000D02*
G75*
G03*
X225200253Y-95221195I-1535001J683999D01*
G01*
X224204000Y-93714999D02*
G75*
G03*
X222836958Y-93714573I-684000J-1535001D01*
G01*
X225200000Y-95250000D02*
G75*
G03*
X225054756Y-94566682I-1680000J0D01*
G01*
X222836000Y-96785000D02*
G75*
G03*
X224203042Y-96785427I684001J1534993D01*
G01*
X225200000Y-90170000D02*
G75*
G03*
X225200000Y-90170000I-1680000J0D01*
G01*
X119380000Y-107295000D02*
X115930000Y-107295000D01*
X119380000Y-112415000D02*
X121330000Y-112415000D01*
X119380000Y-112415000D02*
X117430000Y-112415000D01*
X119380000Y-107295000D02*
X121330000Y-107295000D01*
X100390000Y-59690000D02*
X100390000Y-67370000D01*
X97730000Y-59690000D02*
X100390000Y-59690000D01*
X97730000Y-67370000D02*
X100390000Y-67370000D01*
X97730000Y-57090000D02*
X99060000Y-57090000D01*
X97730000Y-58420000D02*
X97730000Y-57090000D01*
X97730000Y-59690000D02*
X97730000Y-67370000D01*
X97155000Y-52705000D02*
X140970000Y-52705000D01*
X140970000Y-52705000D02*
X140970000Y-71755000D01*
X140970000Y-71755000D02*
X97155000Y-71755000D01*
X97155000Y-71755000D02*
X97155000Y-52705000D01*
X105182936Y-116994000D02*
X105637064Y-116994000D01*
X105182936Y-118464000D02*
X105637064Y-118464000D01*
D15*
X147300000Y-54940000D02*
X169250000Y-54940000D01*
X147300000Y-64440000D02*
X147300000Y-54940000D01*
X169250000Y-64440000D02*
X147300000Y-64440000D01*
D16*
X170150000Y-60040000D02*
X170150000Y-60040000D01*
D15*
X169250000Y-54940000D02*
X169250000Y-64440000D01*
D16*
X170150000Y-59940000D02*
X170150000Y-59940000D01*
X170150000Y-59940000D02*
G75*
G03*
X170150000Y-60040000I0J-50000D01*
G01*
X170150000Y-60040000D02*
G75*
G03*
X170150000Y-59940000I0J50000D01*
G01*
D14*
X128751000Y-79475064D02*
X128751000Y-79020936D01*
X127281000Y-79475064D02*
X127281000Y-79020936D01*
X158115000Y-75819000D02*
X140081000Y-75819000D01*
X140081000Y-75819000D02*
X140081000Y-88773000D01*
X140081000Y-88773000D02*
X158115000Y-88773000D01*
X158115000Y-88773000D02*
X158115000Y-75819000D01*
X91470000Y-130858500D02*
X90930000Y-130858500D01*
X90930000Y-127518500D02*
X90410000Y-127518500D01*
X90930000Y-128028500D02*
X90930000Y-127518500D01*
X97610000Y-128028500D02*
X97610000Y-127518500D01*
X98130000Y-128028500D02*
X98130000Y-127518500D01*
X95970000Y-130858500D02*
X92570000Y-130858500D01*
X98130000Y-134528500D02*
X98130000Y-130628500D01*
X90410000Y-128028500D02*
X90410000Y-127518500D01*
X98130000Y-127518500D02*
X97610000Y-127518500D01*
X90930000Y-130858500D02*
X90930000Y-130628500D01*
X98130000Y-134528500D02*
X90410000Y-134528500D01*
X97610000Y-130858500D02*
X97070000Y-130858500D01*
X97610000Y-130858500D02*
X97610000Y-130628500D01*
X90410000Y-134528500D02*
X90410000Y-130628500D01*
X114626000Y-77314677D02*
X118139000Y-77314677D01*
X114356000Y-78354677D02*
X124404000Y-78354677D01*
X114940000Y-76634677D02*
X118139000Y-76634677D01*
X115819000Y-75474677D02*
X118139000Y-75474677D01*
X120621000Y-76834677D02*
X123925000Y-76834677D01*
X116224000Y-75114677D02*
X122536000Y-75114677D01*
X114462000Y-77834677D02*
X118139000Y-77834677D01*
X115159000Y-76274677D02*
X118139000Y-76274677D01*
X115488000Y-75834677D02*
X118139000Y-75834677D01*
X120621000Y-76234677D02*
X123574000Y-76234677D01*
X114706000Y-77114677D02*
X118139000Y-77114677D01*
X114312000Y-78755677D02*
X124448000Y-78755677D01*
X116870000Y-74674677D02*
X121890000Y-74674677D01*
X120621000Y-77394677D02*
X124163000Y-77394677D01*
X114741000Y-77034677D02*
X118139000Y-77034677D01*
X115082000Y-76394677D02*
X118139000Y-76394677D01*
X117343000Y-74434677D02*
X121417000Y-74434677D01*
X116610000Y-74834677D02*
X122150000Y-74834677D01*
X120621000Y-77834677D02*
X124298000Y-77834677D01*
X120621000Y-76274677D02*
X123601000Y-76274677D01*
X116274000Y-75074677D02*
X122486000Y-75074677D01*
X120621000Y-75714677D02*
X123169000Y-75714677D01*
X120621000Y-75754677D02*
X123204000Y-75754677D01*
X120621000Y-77154677D02*
X124070000Y-77154677D01*
X115214000Y-76194677D02*
X118139000Y-76194677D01*
X116079000Y-75234677D02*
X122681000Y-75234677D01*
X116941000Y-74634677D02*
X121819000Y-74634677D01*
X114340000Y-78475677D02*
X124420000Y-78475677D01*
X115107000Y-76354677D02*
X118139000Y-76354677D01*
X115701000Y-75594677D02*
X118139000Y-75594677D01*
X116174000Y-75154677D02*
X122586000Y-75154677D01*
X114300000Y-79075677D02*
X124460000Y-79075677D01*
X116380000Y-74994677D02*
X122380000Y-74994677D01*
X114315000Y-78715677D02*
X124445000Y-78715677D01*
X120621000Y-76154677D02*
X123518000Y-76154677D01*
X120621000Y-77234677D02*
X124103000Y-77234677D01*
X116005000Y-84095323D02*
X117005000Y-84095323D01*
X114362000Y-78314677D02*
X124398000Y-78314677D01*
X114835000Y-76834677D02*
X118139000Y-76834677D01*
X115330000Y-76034677D02*
X118139000Y-76034677D01*
X114369000Y-78274677D02*
X124391000Y-78274677D01*
X114690000Y-77154677D02*
X118139000Y-77154677D01*
X118781000Y-74034677D02*
X119979000Y-74034677D01*
X114897000Y-76714677D02*
X118139000Y-76714677D01*
X120621000Y-76594677D02*
X123797000Y-76594677D01*
X117255000Y-74474677D02*
X121505000Y-74474677D01*
X114452000Y-77874677D02*
X124308000Y-77874677D01*
X120621000Y-75794677D02*
X123238000Y-75794677D01*
X114424000Y-77994677D02*
X124336000Y-77994677D01*
X120621000Y-77474677D02*
X124191000Y-77474677D01*
X120621000Y-75914677D02*
X123337000Y-75914677D01*
X120621000Y-77354677D02*
X124148000Y-77354677D01*
X115627000Y-75674677D02*
X118139000Y-75674677D01*
X120621000Y-77434677D02*
X124177000Y-77434677D01*
X120621000Y-76674677D02*
X123842000Y-76674677D01*
X114326000Y-78595677D02*
X124434000Y-78595677D01*
X114495000Y-77714677D02*
X118139000Y-77714677D01*
X115988000Y-75314677D02*
X122772000Y-75314677D01*
X120621000Y-77674677D02*
X124254000Y-77674677D01*
X114855000Y-76794677D02*
X118139000Y-76794677D01*
X116033000Y-75274677D02*
X122727000Y-75274677D01*
X115186000Y-76234677D02*
X118139000Y-76234677D01*
X118150000Y-74154677D02*
X120610000Y-74154677D01*
X114673000Y-77194677D02*
X118139000Y-77194677D01*
X120621000Y-76914677D02*
X123964000Y-76914677D01*
X120621000Y-76634677D02*
X123820000Y-76634677D01*
X115270000Y-76114677D02*
X118139000Y-76114677D01*
X120621000Y-75554677D02*
X123020000Y-75554677D01*
X114330000Y-78555677D02*
X124430000Y-78555677D01*
X120621000Y-77314677D02*
X124134000Y-77314677D01*
X114556000Y-77514677D02*
X118139000Y-77514677D01*
X115740000Y-75554677D02*
X118139000Y-75554677D01*
X116126000Y-75194677D02*
X122634000Y-75194677D01*
X114473000Y-77794677D02*
X118139000Y-77794677D01*
X120621000Y-77274677D02*
X124118000Y-77274677D01*
X115360000Y-75994677D02*
X118139000Y-75994677D01*
X114543000Y-77554677D02*
X118139000Y-77554677D01*
X114723000Y-77074677D02*
X118139000Y-77074677D01*
X120621000Y-77034677D02*
X124019000Y-77034677D01*
X120621000Y-77754677D02*
X124277000Y-77754677D01*
X115391000Y-75954677D02*
X118139000Y-75954677D01*
X120621000Y-76514677D02*
X123751000Y-76514677D01*
X120621000Y-76434677D02*
X123703000Y-76434677D01*
X114777000Y-76954677D02*
X118139000Y-76954677D01*
X120621000Y-76034677D02*
X123430000Y-76034677D01*
X116550000Y-74874677D02*
X122210000Y-74874677D01*
X114318000Y-78675677D02*
X124442000Y-78675677D01*
X120621000Y-75394677D02*
X122858000Y-75394677D01*
X114376000Y-78234677D02*
X124384000Y-78234677D01*
X114506000Y-77674677D02*
X118139000Y-77674677D01*
X120621000Y-77594677D02*
X124230000Y-77594677D01*
X120621000Y-76354677D02*
X123653000Y-76354677D01*
X120621000Y-77794677D02*
X124287000Y-77794677D01*
X120621000Y-76994677D02*
X124001000Y-76994677D01*
X116435000Y-74954677D02*
X122325000Y-74954677D01*
X115522000Y-75794677D02*
X118139000Y-75794677D01*
X117171000Y-74514677D02*
X121589000Y-74514677D01*
X114398000Y-78114677D02*
X124362000Y-78114677D01*
X114406000Y-78074677D02*
X124354000Y-78074677D01*
X114383000Y-78194677D02*
X124377000Y-78194677D01*
X120621000Y-77514677D02*
X124204000Y-77514677D01*
X120621000Y-76474677D02*
X123727000Y-76474677D01*
X114322000Y-78635677D02*
X124438000Y-78635677D01*
X120621000Y-76194677D02*
X123546000Y-76194677D01*
X120621000Y-75874677D02*
X123305000Y-75874677D01*
X116801000Y-74714677D02*
X121959000Y-74714677D01*
X114796000Y-76914677D02*
X118139000Y-76914677D01*
X115591000Y-75714677D02*
X118139000Y-75714677D01*
X114302000Y-78955677D02*
X124458000Y-78955677D01*
X114307000Y-78835677D02*
X124453000Y-78835677D01*
X114918000Y-76674677D02*
X118139000Y-76674677D01*
X120621000Y-76394677D02*
X123678000Y-76394677D01*
X120621000Y-76114677D02*
X123490000Y-76114677D01*
X120621000Y-76794677D02*
X123905000Y-76794677D01*
X117436000Y-74394677D02*
X121324000Y-74394677D01*
X114433000Y-77954677D02*
X124327000Y-77954677D01*
X115902000Y-75394677D02*
X118139000Y-75394677D01*
X120621000Y-75994677D02*
X123400000Y-75994677D01*
X115057000Y-76434677D02*
X118139000Y-76434677D01*
X114350000Y-78394677D02*
X124410000Y-78394677D01*
X115860000Y-75434677D02*
X118139000Y-75434677D01*
X120621000Y-75954677D02*
X123369000Y-75954677D01*
X115300000Y-76074677D02*
X118139000Y-76074677D01*
X114305000Y-78875677D02*
X124455000Y-78875677D01*
X114300000Y-79115677D02*
X124460000Y-79115677D01*
X114657000Y-77234677D02*
X118139000Y-77234677D01*
X120621000Y-75674677D02*
X123133000Y-75674677D01*
X120621000Y-76754677D02*
X123884000Y-76754677D01*
X120621000Y-75834677D02*
X123272000Y-75834677D01*
X114518000Y-77634677D02*
X118139000Y-77634677D01*
X120621000Y-77074677D02*
X124037000Y-77074677D01*
X116505000Y-84595323D02*
X116505000Y-83595323D01*
X115455000Y-75874677D02*
X118139000Y-75874677D01*
X120621000Y-75434677D02*
X122900000Y-75434677D01*
X115242000Y-76154677D02*
X118139000Y-76154677D01*
X116491000Y-74914677D02*
X122269000Y-74914677D01*
X114569000Y-77474677D02*
X118139000Y-77474677D01*
X118002000Y-74194677D02*
X120758000Y-74194677D01*
X114759000Y-76994677D02*
X118139000Y-76994677D01*
X114301000Y-78995677D02*
X124459000Y-78995677D01*
X116671000Y-74794677D02*
X122089000Y-74794677D01*
X120621000Y-77714677D02*
X124265000Y-77714677D01*
X120621000Y-76874677D02*
X123944000Y-76874677D01*
X120621000Y-77194677D02*
X124087000Y-77194677D01*
X114415000Y-78034677D02*
X124345000Y-78034677D01*
X114612000Y-77354677D02*
X118139000Y-77354677D01*
X114390000Y-78154677D02*
X124370000Y-78154677D01*
X120621000Y-76074677D02*
X123460000Y-76074677D01*
X120621000Y-76714677D02*
X123863000Y-76714677D01*
X118518000Y-74074677D02*
X120242000Y-74074677D01*
X114442000Y-77914677D02*
X124318000Y-77914677D01*
X114335000Y-78515677D02*
X124425000Y-78515677D01*
X114310000Y-78795677D02*
X124450000Y-78795677D01*
X120621000Y-75594677D02*
X123059000Y-75594677D01*
X114345000Y-78435677D02*
X124415000Y-78435677D01*
X120621000Y-76954677D02*
X123983000Y-76954677D01*
X114985000Y-76554677D02*
X118139000Y-76554677D01*
X114530000Y-77594677D02*
X118139000Y-77594677D01*
X118318000Y-74114677D02*
X120442000Y-74114677D01*
X116326000Y-75034677D02*
X122434000Y-75034677D01*
X114303000Y-78915677D02*
X124457000Y-78915677D01*
X115423000Y-75914677D02*
X118139000Y-75914677D01*
X120621000Y-77114677D02*
X124054000Y-77114677D01*
X114963000Y-76594677D02*
X118139000Y-76594677D01*
X120621000Y-75474677D02*
X122941000Y-75474677D01*
X114583000Y-77434677D02*
X118139000Y-77434677D01*
X117015000Y-74594677D02*
X121745000Y-74594677D01*
X120621000Y-77554677D02*
X124217000Y-77554677D01*
X120621000Y-76554677D02*
X123775000Y-76554677D01*
X120621000Y-76314677D02*
X123627000Y-76314677D01*
X117870000Y-74234677D02*
X120890000Y-74234677D01*
X114300000Y-79035677D02*
X124460000Y-79035677D01*
X117638000Y-74314677D02*
X121122000Y-74314677D01*
X115664000Y-75634677D02*
X118139000Y-75634677D01*
X117091000Y-74554677D02*
X121669000Y-74554677D01*
X120621000Y-75514677D02*
X122981000Y-75514677D01*
X115944000Y-75354677D02*
X122816000Y-75354677D01*
X115033000Y-76474677D02*
X118139000Y-76474677D01*
X115779000Y-75514677D02*
X118139000Y-75514677D01*
X116735000Y-74754677D02*
X122025000Y-74754677D01*
X114483000Y-77754677D02*
X118139000Y-77754677D01*
X120621000Y-75634677D02*
X123096000Y-75634677D01*
X114642000Y-77274677D02*
X118139000Y-77274677D01*
X114816000Y-76874677D02*
X118139000Y-76874677D01*
X115556000Y-75754677D02*
X118139000Y-75754677D01*
X115133000Y-76314677D02*
X118139000Y-76314677D01*
X114876000Y-76754677D02*
X118139000Y-76754677D01*
X117534000Y-74354677D02*
X121226000Y-74354677D01*
X114597000Y-77394677D02*
X118139000Y-77394677D01*
X117750000Y-74274677D02*
X121010000Y-74274677D01*
X120621000Y-77634677D02*
X124242000Y-77634677D01*
X115009000Y-76514677D02*
X118139000Y-76514677D01*
X124500000Y-79115677D02*
G75*
G03*
X124500000Y-79115677I-5120000J0D01*
G01*
X185462000Y-92523000D02*
X186732000Y-92523000D01*
X209772000Y-95323000D02*
X209772000Y-82223000D01*
X186732000Y-91253000D02*
X188002000Y-91253000D01*
X186732000Y-84903000D02*
X185462000Y-84903000D01*
X180172000Y-94023000D02*
X180172000Y-95523000D01*
X186732000Y-92523000D02*
X186732000Y-91253000D01*
X180172000Y-95523000D02*
X181672000Y-95523000D01*
X188002000Y-91253000D02*
X188002000Y-86173000D01*
X186732000Y-86173000D02*
X186732000Y-84903000D01*
X180372000Y-95323000D02*
X209772000Y-95323000D01*
X185462000Y-91253000D02*
X186732000Y-91253000D01*
D15*
X185462000Y-89983000D02*
X188002000Y-88713000D01*
D14*
X209772000Y-82223000D02*
X180372000Y-82223000D01*
X185462000Y-86173000D02*
X185462000Y-91253000D01*
X188002000Y-86173000D02*
X185462000Y-86173000D01*
X180372000Y-82223000D02*
X180372000Y-95323000D01*
X115196252Y-104040000D02*
X114673748Y-104040000D01*
X115196252Y-105510000D02*
X114673748Y-105510000D01*
X196878000Y-100670000D02*
X196878000Y-107610000D01*
X213078000Y-107610000D02*
X213078000Y-100670000D01*
X213078000Y-100670000D02*
X196878000Y-100670000D01*
X206578000Y-106140000D02*
X203378000Y-106140000D01*
X204228000Y-104140000D02*
X205728000Y-104140000D01*
X196878000Y-107610000D02*
X213078000Y-107610000D01*
X203378000Y-102140000D02*
X206578000Y-102140000D01*
X106941252Y-106653000D02*
X106418748Y-106653000D01*
X106941252Y-105183000D02*
X106418748Y-105183000D01*
X153790000Y-103645000D02*
X153790000Y-102145000D01*
X152840000Y-102145000D02*
X152840000Y-97020000D01*
X153790000Y-102145000D02*
X152840000Y-102145000D01*
X143390000Y-102145000D02*
X144340000Y-102145000D01*
X144340000Y-102145000D02*
X144340000Y-101045000D01*
X143390000Y-103645000D02*
X143390000Y-102145000D01*
%LPC*%
G36*
X160964841Y-71147114D02*
G01*
X161003592Y-71161122D01*
X161007709Y-71170710D01*
X161003928Y-71197272D01*
X160993230Y-71262714D01*
X160976576Y-71361536D01*
X160954929Y-71488236D01*
X160929251Y-71637315D01*
X160900503Y-71803270D01*
X160869648Y-71980601D01*
X160837648Y-72163807D01*
X160805465Y-72347388D01*
X160774062Y-72525842D01*
X160744400Y-72693668D01*
X160717441Y-72845366D01*
X160694147Y-72975434D01*
X160675482Y-73078372D01*
X160662406Y-73148679D01*
X160656949Y-73176207D01*
X160643688Y-73237826D01*
X161875858Y-73249814D01*
X161838172Y-73486460D01*
X161096147Y-73486460D01*
X160918387Y-73485966D01*
X160755903Y-73484566D01*
X160613952Y-73482378D01*
X160497794Y-73479523D01*
X160412687Y-73476120D01*
X160363890Y-73472290D01*
X160354127Y-73469556D01*
X160357934Y-73444724D01*
X160368868Y-73379717D01*
X160386196Y-73278744D01*
X160409185Y-73146016D01*
X160437103Y-72985741D01*
X160469219Y-72802131D01*
X160504800Y-72599394D01*
X160543114Y-72381740D01*
X160556961Y-72303230D01*
X160596014Y-72081810D01*
X160632596Y-71874204D01*
X160665975Y-71684566D01*
X160695423Y-71517053D01*
X160720209Y-71375821D01*
X160739604Y-71265025D01*
X160752878Y-71188822D01*
X160759301Y-71151367D01*
X160759795Y-71148172D01*
X160780190Y-71145085D01*
X160832793Y-71143039D01*
X160883758Y-71142538D01*
X160964841Y-71147114D01*
G37*
G36*
X168287817Y-71126606D02*
G01*
X168483655Y-71180856D01*
X168663023Y-71270134D01*
X168776050Y-71354283D01*
X168824804Y-71405864D01*
X168876317Y-71474736D01*
X168924858Y-71550938D01*
X168964696Y-71624508D01*
X168990102Y-71685484D01*
X168995344Y-71723906D01*
X168992002Y-71729659D01*
X168964007Y-71741738D01*
X168909020Y-71759134D01*
X168843992Y-71777135D01*
X168785876Y-71791027D01*
X168752849Y-71796131D01*
X168736569Y-71778437D01*
X168706250Y-71733143D01*
X168684106Y-71696604D01*
X168580345Y-71562320D01*
X168447131Y-71459268D01*
X168288944Y-71389006D01*
X168110264Y-71353092D01*
X167915567Y-71353084D01*
X167765089Y-71376828D01*
X167561226Y-71444251D01*
X167378204Y-71548554D01*
X167219423Y-71685052D01*
X167088286Y-71849061D01*
X166988193Y-72035895D01*
X166922546Y-72240870D01*
X166894744Y-72459300D01*
X166896193Y-72573682D01*
X166926021Y-72763337D01*
X166990735Y-72924566D01*
X167089725Y-73056726D01*
X167222379Y-73159171D01*
X167388088Y-73231258D01*
X167554137Y-73268132D01*
X167749986Y-73275518D01*
X167952882Y-73245814D01*
X168151471Y-73182713D01*
X168334402Y-73089908D01*
X168490323Y-72971091D01*
X168502144Y-72959738D01*
X168564839Y-72895436D01*
X168602162Y-72845265D01*
X168622558Y-72793552D01*
X168634471Y-72724622D01*
X168636146Y-72711010D01*
X168646672Y-72634003D01*
X168657300Y-72573085D01*
X168663742Y-72547611D01*
X168660499Y-72535869D01*
X168636659Y-72527474D01*
X168586690Y-72521934D01*
X168505059Y-72518756D01*
X168386234Y-72517448D01*
X168323613Y-72517338D01*
X168203455Y-72516724D01*
X168100951Y-72515028D01*
X168023739Y-72512472D01*
X167979456Y-72509276D01*
X167971868Y-72507178D01*
X167976207Y-72481177D01*
X167987316Y-72425696D01*
X167996273Y-72383221D01*
X168020678Y-72269423D01*
X168480834Y-72269423D01*
X168644110Y-72270069D01*
X168766775Y-72272187D01*
X168853273Y-72276049D01*
X168908054Y-72281929D01*
X168935562Y-72290098D01*
X168940979Y-72297595D01*
X168937193Y-72326649D01*
X168926538Y-72393854D01*
X168910063Y-72492986D01*
X168888812Y-72617821D01*
X168863834Y-72762134D01*
X168839570Y-72900479D01*
X168812286Y-73055325D01*
X168787779Y-73194807D01*
X168767083Y-73313008D01*
X168751231Y-73404014D01*
X168741257Y-73461908D01*
X168738160Y-73480825D01*
X168717866Y-73484041D01*
X168665994Y-73486080D01*
X168625461Y-73486460D01*
X168561170Y-73483149D01*
X168520369Y-73474685D01*
X168512773Y-73468061D01*
X168516603Y-73437418D01*
X168526514Y-73377123D01*
X168536860Y-73319360D01*
X168548099Y-73247922D01*
X168552536Y-73196331D01*
X168550337Y-73178446D01*
X168527968Y-73184737D01*
X168480652Y-73211836D01*
X168430464Y-73245620D01*
X168212749Y-73375998D01*
X167984931Y-73465718D01*
X167751606Y-73513588D01*
X167517369Y-73518415D01*
X167421498Y-73507578D01*
X167261202Y-73466296D01*
X167099556Y-73395448D01*
X166955357Y-73304003D01*
X166902911Y-73260137D01*
X166784862Y-73121690D01*
X166699614Y-72957945D01*
X166647040Y-72774385D01*
X166627010Y-72576492D01*
X166639396Y-72369749D01*
X166684070Y-72159638D01*
X166760903Y-71951641D01*
X166869766Y-71751242D01*
X166940671Y-71649636D01*
X167090173Y-71484693D01*
X167263611Y-71348277D01*
X167455214Y-71241317D01*
X167659208Y-71164740D01*
X167869821Y-71119477D01*
X168081281Y-71106456D01*
X168287817Y-71126606D01*
G37*
G36*
X147606282Y-66462863D02*
G01*
X147721335Y-66469557D01*
X147879334Y-66480631D01*
X148080789Y-66496099D01*
X148326208Y-66515974D01*
X148540955Y-66533909D01*
X150152867Y-66676640D01*
X151795536Y-66835280D01*
X153457967Y-67008752D01*
X154054831Y-67074144D01*
X155245990Y-67209689D01*
X156401618Y-67348076D01*
X157521288Y-67489218D01*
X158604572Y-67633023D01*
X159651044Y-67779402D01*
X160660276Y-67928264D01*
X161631842Y-68079521D01*
X162565313Y-68233081D01*
X163460263Y-68388856D01*
X164316265Y-68546754D01*
X165132891Y-68706687D01*
X165909714Y-68868564D01*
X166646307Y-69032295D01*
X167342244Y-69197790D01*
X167997096Y-69364960D01*
X168610436Y-69533714D01*
X169181838Y-69703963D01*
X169710874Y-69875616D01*
X170197117Y-70048584D01*
X170640141Y-70222777D01*
X171039516Y-70398104D01*
X171394818Y-70574476D01*
X171705617Y-70751803D01*
X171796978Y-70809627D01*
X172035100Y-70984044D01*
X172229487Y-71169248D01*
X172380224Y-71365472D01*
X172487398Y-71572947D01*
X172551095Y-71791906D01*
X172571402Y-72022581D01*
X172548405Y-72265204D01*
X172482191Y-72520008D01*
X172458301Y-72587226D01*
X172368804Y-72780490D01*
X172242335Y-72985318D01*
X172083593Y-73196086D01*
X171897278Y-73407172D01*
X171688088Y-73612954D01*
X171460722Y-73807810D01*
X171395594Y-73858763D01*
X171300166Y-73930049D01*
X171199708Y-74001897D01*
X171098587Y-74071608D01*
X171001170Y-74136485D01*
X170911822Y-74193827D01*
X170834909Y-74240937D01*
X170774799Y-74275116D01*
X170735857Y-74293664D01*
X170722450Y-74293883D01*
X170738944Y-74273074D01*
X170768464Y-74246395D01*
X170810912Y-74211368D01*
X170878294Y-74157311D01*
X170959893Y-74092778D01*
X171014662Y-74049902D01*
X171161217Y-73927963D01*
X171319836Y-73782821D01*
X171479999Y-73625070D01*
X171631190Y-73465304D01*
X171762891Y-73314117D01*
X171832711Y-73225932D01*
X171963217Y-73036498D01*
X172079879Y-72836186D01*
X172175073Y-72639026D01*
X172230057Y-72494800D01*
X172283942Y-72262710D01*
X172293445Y-72034257D01*
X172259225Y-71811319D01*
X172181940Y-71595771D01*
X172062249Y-71389491D01*
X171900812Y-71194354D01*
X171713832Y-71024559D01*
X171520087Y-70881463D01*
X171306796Y-70747384D01*
X171071090Y-70621268D01*
X170810100Y-70502065D01*
X170520958Y-70388720D01*
X170200793Y-70280181D01*
X169846737Y-70175396D01*
X169455921Y-70073313D01*
X169025476Y-69972877D01*
X168602924Y-69883250D01*
X167983026Y-69763499D01*
X167395767Y-69663818D01*
X166833767Y-69583538D01*
X166289643Y-69521991D01*
X165756015Y-69478506D01*
X165225500Y-69452415D01*
X164690716Y-69443050D01*
X164144284Y-69449741D01*
X163903811Y-69457391D01*
X163652231Y-69465738D01*
X163387304Y-69472609D01*
X163114185Y-69478005D01*
X162838028Y-69481926D01*
X162563986Y-69484372D01*
X162297213Y-69485343D01*
X162042864Y-69484840D01*
X161806091Y-69482863D01*
X161592050Y-69479411D01*
X161405895Y-69474486D01*
X161252778Y-69468087D01*
X161137854Y-69460214D01*
X161109135Y-69457287D01*
X160957413Y-69439542D01*
X160823354Y-69422609D01*
X160701194Y-69405163D01*
X160585163Y-69385880D01*
X160469496Y-69363436D01*
X160348426Y-69336505D01*
X160216185Y-69303764D01*
X160067008Y-69263888D01*
X159895126Y-69215553D01*
X159694774Y-69157434D01*
X159460184Y-69088206D01*
X159317387Y-69045782D01*
X158740190Y-68874175D01*
X158204675Y-68715183D01*
X157709375Y-68568380D01*
X157252825Y-68433338D01*
X156833557Y-68309633D01*
X156450107Y-68196838D01*
X156101008Y-68094526D01*
X155784793Y-68002271D01*
X155499997Y-67919648D01*
X155245153Y-67846229D01*
X155018795Y-67781589D01*
X154819458Y-67725301D01*
X154645674Y-67676939D01*
X154495979Y-67636077D01*
X154368905Y-67602288D01*
X154262987Y-67575147D01*
X154235575Y-67568350D01*
X153981178Y-67509090D01*
X153683421Y-67445641D01*
X153343799Y-67378255D01*
X152963806Y-67307185D01*
X152544940Y-67232686D01*
X152088695Y-67155009D01*
X151596566Y-67074409D01*
X151070049Y-66991138D01*
X150510639Y-66905449D01*
X149919832Y-66817597D01*
X149299123Y-66727834D01*
X149130341Y-66703834D01*
X148909702Y-66672570D01*
X148687696Y-66641119D01*
X148471662Y-66610520D01*
X148268941Y-66581811D01*
X148086875Y-66556033D01*
X147932802Y-66534225D01*
X147814065Y-66517426D01*
X147789348Y-66513931D01*
X147657407Y-66494627D01*
X147565359Y-66479622D01*
X147513714Y-66468929D01*
X147502981Y-66462563D01*
X147533667Y-66460536D01*
X147606282Y-66462863D01*
G37*
G36*
X147920763Y-71119188D02*
G01*
X148103916Y-71161792D01*
X148250143Y-71228806D01*
X148361205Y-71321513D01*
X148438866Y-71441196D01*
X148467379Y-71516976D01*
X148489755Y-71597011D01*
X148494087Y-71645351D01*
X148476124Y-71673216D01*
X148431616Y-71691824D01*
X148397542Y-71701306D01*
X148311864Y-71721761D01*
X148260556Y-71726014D01*
X148235565Y-71713091D01*
X148228837Y-71682016D01*
X148228833Y-71680877D01*
X148208247Y-71594168D01*
X148151993Y-71507970D01*
X148068328Y-71432911D01*
X148009050Y-71397958D01*
X147879750Y-71354438D01*
X147733380Y-71337172D01*
X147582287Y-71344890D01*
X147438819Y-71376320D01*
X147315322Y-71430193D01*
X147252502Y-71475830D01*
X147188034Y-71557516D01*
X147144983Y-71659251D01*
X147125504Y-71768050D01*
X147131752Y-71870927D01*
X147165882Y-71954897D01*
X147171691Y-71962753D01*
X147220894Y-72012303D01*
X147288604Y-72055732D01*
X147381315Y-72095824D01*
X147505517Y-72135365D01*
X147667702Y-72177138D01*
X147676373Y-72179204D01*
X147861057Y-72227853D01*
X148006126Y-72277377D01*
X148117013Y-72330181D01*
X148199153Y-72388669D01*
X148236573Y-72427104D01*
X148302111Y-72538157D01*
X148333341Y-72667830D01*
X148332591Y-72808487D01*
X148302191Y-72952489D01*
X148244468Y-73092199D01*
X148161753Y-73219978D01*
X148056373Y-73328189D01*
X147938268Y-73405472D01*
X147777087Y-73466620D01*
X147589786Y-73505907D01*
X147390684Y-73521386D01*
X147194097Y-73511111D01*
X147177501Y-73508924D01*
X146992973Y-73467449D01*
X146843978Y-73398669D01*
X146729520Y-73301693D01*
X146648608Y-73175632D01*
X146600249Y-73019596D01*
X146594659Y-72986493D01*
X146578911Y-72880936D01*
X146677031Y-72855560D01*
X146746514Y-72837318D01*
X146802369Y-72822195D01*
X146814592Y-72818737D01*
X146841088Y-72818950D01*
X146852296Y-72847073D01*
X146854033Y-72888589D01*
X146875298Y-73003636D01*
X146934166Y-73108957D01*
X147023247Y-73192115D01*
X147040953Y-73203204D01*
X147165648Y-73254998D01*
X147315006Y-73284130D01*
X147474545Y-73290285D01*
X147629782Y-73273150D01*
X147766235Y-73232410D01*
X147793717Y-73219527D01*
X147901582Y-73145031D01*
X147986151Y-73048130D01*
X148043505Y-72937795D01*
X148069722Y-72822993D01*
X148060883Y-72712694D01*
X148039570Y-72657026D01*
X148001410Y-72597448D01*
X147950840Y-72548806D01*
X147881079Y-72507757D01*
X147785348Y-72470954D01*
X147656870Y-72435053D01*
X147530164Y-72405657D01*
X147320562Y-72351290D01*
X147153169Y-72288934D01*
X147025615Y-72217285D01*
X146935532Y-72135042D01*
X146884482Y-72050756D01*
X146860606Y-71952820D01*
X146855999Y-71831145D01*
X146870364Y-71702597D01*
X146892227Y-71615433D01*
X146961078Y-71472923D01*
X147066097Y-71349737D01*
X147201522Y-71248655D01*
X147361591Y-71172457D01*
X147540543Y-71123922D01*
X147732615Y-71105832D01*
X147920763Y-71119188D01*
G37*
G36*
X147828844Y-68033649D02*
G01*
X147903497Y-68037193D01*
X147948985Y-68042366D01*
X147958381Y-68046389D01*
X147954588Y-68071210D01*
X147943833Y-68135030D01*
X147927051Y-68232468D01*
X147905176Y-68358144D01*
X147879144Y-68506678D01*
X147849888Y-68672690D01*
X147832101Y-68773230D01*
X147792511Y-69000378D01*
X147761599Y-69188161D01*
X147739108Y-69341394D01*
X147724781Y-69464892D01*
X147718361Y-69563471D01*
X147719593Y-69641946D01*
X147728218Y-69705132D01*
X147743981Y-69757846D01*
X147766625Y-69804902D01*
X147776245Y-69821115D01*
X147851212Y-69901481D01*
X147956673Y-69957027D01*
X148084228Y-69985713D01*
X148225479Y-69985501D01*
X148351325Y-69960703D01*
X148488735Y-69897948D01*
X148604412Y-69798009D01*
X148693732Y-69665402D01*
X148723971Y-69596605D01*
X148740322Y-69541453D01*
X148762755Y-69448474D01*
X148789891Y-69324295D01*
X148820353Y-69175543D01*
X148852760Y-69008846D01*
X148885735Y-68830829D01*
X148900549Y-68747906D01*
X149026858Y-68032334D01*
X149247633Y-68032334D01*
X149341183Y-68033997D01*
X149415079Y-68038478D01*
X149459684Y-68045009D01*
X149468407Y-68049885D01*
X149464476Y-68081307D01*
X149453477Y-68150398D01*
X149436608Y-68250514D01*
X149415063Y-68375012D01*
X149390036Y-68517250D01*
X149362724Y-68670582D01*
X149334322Y-68828368D01*
X149306024Y-68983962D01*
X149279026Y-69130723D01*
X149254523Y-69262006D01*
X149233711Y-69371169D01*
X149217784Y-69451568D01*
X149208650Y-69493694D01*
X149135207Y-69713208D01*
X149029062Y-69909795D01*
X148893965Y-70079172D01*
X148733670Y-70217057D01*
X148551928Y-70319164D01*
X148453740Y-70355603D01*
X148328792Y-70384878D01*
X148184086Y-70403961D01*
X148037989Y-70411463D01*
X147908869Y-70405993D01*
X147866920Y-70400014D01*
X147691947Y-70349094D01*
X147540333Y-70266769D01*
X147417220Y-70157241D01*
X147327747Y-70024713D01*
X147290172Y-69928595D01*
X147270681Y-69845577D01*
X147259363Y-69754278D01*
X147256574Y-69649246D01*
X147262666Y-69525029D01*
X147277996Y-69376174D01*
X147302919Y-69197229D01*
X147337788Y-68982742D01*
X147360039Y-68854960D01*
X147389186Y-68690956D01*
X147417021Y-68535343D01*
X147442198Y-68395567D01*
X147463371Y-68279075D01*
X147479194Y-68193314D01*
X147487330Y-68150657D01*
X147510822Y-68032334D01*
X147734601Y-68032334D01*
X147828844Y-68033649D01*
G37*
G36*
X159424915Y-71148103D02*
G01*
X159439290Y-71161410D01*
X159437834Y-71187870D01*
X159437028Y-71192248D01*
X159431292Y-71224113D01*
X159418519Y-71295914D01*
X159399498Y-71403198D01*
X159375017Y-71541511D01*
X159345865Y-71706397D01*
X159312827Y-71893403D01*
X159276693Y-72098073D01*
X159238251Y-72315955D01*
X159230557Y-72359574D01*
X159033803Y-73475191D01*
X158905142Y-73481950D01*
X158835868Y-73483584D01*
X158789159Y-73480847D01*
X158776482Y-73476049D01*
X158780300Y-73450106D01*
X158791020Y-73386032D01*
X158807533Y-73290058D01*
X158828737Y-73168413D01*
X158853523Y-73027325D01*
X158880787Y-72873024D01*
X158909424Y-72711739D01*
X158938327Y-72549699D01*
X158966391Y-72393132D01*
X158992510Y-72248269D01*
X159015579Y-72121338D01*
X159034492Y-72018568D01*
X159046651Y-71953940D01*
X159065341Y-71853929D01*
X159080288Y-71769142D01*
X159089688Y-71710126D01*
X159092010Y-71689122D01*
X159081019Y-71661798D01*
X159051431Y-71669699D01*
X159008316Y-71709692D01*
X158963486Y-71768540D01*
X158930955Y-71814928D01*
X158875935Y-71891584D01*
X158802755Y-71992551D01*
X158715749Y-72111872D01*
X158619249Y-72243590D01*
X158517586Y-72381746D01*
X158517316Y-72382112D01*
X158407500Y-72530820D01*
X158320820Y-72647183D01*
X158253704Y-72735168D01*
X158202580Y-72798740D01*
X158163875Y-72841865D01*
X158134017Y-72868508D01*
X158109434Y-72882636D01*
X158086553Y-72888215D01*
X158061802Y-72889210D01*
X157977732Y-72889210D01*
X157835329Y-72528607D01*
X157778329Y-72382920D01*
X157717958Y-72226337D01*
X157660131Y-72074347D01*
X157610767Y-71942436D01*
X157594535Y-71898270D01*
X157556008Y-71796067D01*
X157521434Y-71710619D01*
X157494320Y-71650169D01*
X157478175Y-71622961D01*
X157477085Y-71622302D01*
X157469291Y-71642378D01*
X157454973Y-71702298D01*
X157435028Y-71797444D01*
X157410352Y-71923201D01*
X157381842Y-72074952D01*
X157350394Y-72248079D01*
X157316905Y-72437966D01*
X157302191Y-72523092D01*
X157268187Y-72720296D01*
X157236259Y-72904097D01*
X157207268Y-73069645D01*
X157182072Y-73212091D01*
X157161532Y-73326584D01*
X157146508Y-73408274D01*
X157137859Y-73452312D01*
X157136381Y-73458287D01*
X157112022Y-73472346D01*
X157060392Y-73482120D01*
X156996689Y-73486933D01*
X156936112Y-73486108D01*
X156893860Y-73478969D01*
X156883319Y-73469556D01*
X156887127Y-73444724D01*
X156898061Y-73379717D01*
X156915388Y-73278744D01*
X156938377Y-73146016D01*
X156966296Y-72985741D01*
X156998411Y-72802131D01*
X157033992Y-72599394D01*
X157072306Y-72381740D01*
X157086153Y-72303230D01*
X157125211Y-72081768D01*
X157161795Y-71874085D01*
X157195177Y-71684342D01*
X157224627Y-71516699D01*
X157249413Y-71375317D01*
X157268807Y-71264359D01*
X157282077Y-71187983D01*
X157288495Y-71150353D01*
X157288988Y-71147097D01*
X157309475Y-71144594D01*
X157362877Y-71144731D01*
X157428788Y-71147097D01*
X157568583Y-71153806D01*
X157831456Y-71841207D01*
X157909330Y-72042424D01*
X157976833Y-72211844D01*
X158033049Y-72347318D01*
X158077060Y-72446702D01*
X158107952Y-72507847D01*
X158124775Y-72528607D01*
X158144584Y-72511067D01*
X158187869Y-72461092D01*
X158251518Y-72382646D01*
X158332422Y-72279694D01*
X158427470Y-72156201D01*
X158533550Y-72016132D01*
X158647554Y-71863452D01*
X158664036Y-71841207D01*
X159172851Y-71153806D01*
X159309798Y-71147173D01*
X159384990Y-71144505D01*
X159424915Y-71148103D01*
G37*
G36*
X171159463Y-71249592D02*
G01*
X171148418Y-71316035D01*
X171138059Y-71362795D01*
X171134214Y-71373549D01*
X171110052Y-71377880D01*
X171046559Y-71381801D01*
X170949480Y-71385163D01*
X170824557Y-71387820D01*
X170677535Y-71389623D01*
X170514157Y-71390425D01*
X170477267Y-71390452D01*
X169830048Y-71390452D01*
X169768375Y-71745421D01*
X169747462Y-71866874D01*
X169729622Y-71972542D01*
X169716160Y-72054527D01*
X169708382Y-72104931D01*
X169706987Y-72116870D01*
X169728543Y-72121891D01*
X169788775Y-72126839D01*
X169881280Y-72131428D01*
X169999661Y-72135370D01*
X170137516Y-72138378D01*
X170208960Y-72139408D01*
X170710648Y-72145466D01*
X170673088Y-72381274D01*
X170163458Y-72387327D01*
X169653827Y-72393381D01*
X169579700Y-72810328D01*
X169556434Y-72941318D01*
X169536099Y-73056041D01*
X169519928Y-73147520D01*
X169509154Y-73208778D01*
X169505011Y-73232838D01*
X169505003Y-73232910D01*
X169526459Y-73234342D01*
X169587405Y-73235640D01*
X169682255Y-73236756D01*
X169805422Y-73237641D01*
X169951321Y-73238249D01*
X170114365Y-73238531D01*
X170160534Y-73238545D01*
X170816636Y-73238545D01*
X170801657Y-73323061D01*
X170795128Y-73366614D01*
X170789584Y-73401721D01*
X170780530Y-73429284D01*
X170763468Y-73450204D01*
X170733903Y-73465386D01*
X170687337Y-73475730D01*
X170619275Y-73482140D01*
X170525219Y-73485517D01*
X170400673Y-73486765D01*
X170241141Y-73486785D01*
X170042127Y-73486481D01*
X169987474Y-73486460D01*
X169805534Y-73485987D01*
X169638752Y-73484645D01*
X169492272Y-73482545D01*
X169371234Y-73479800D01*
X169280782Y-73476520D01*
X169226056Y-73472819D01*
X169211447Y-73469556D01*
X169215255Y-73444724D01*
X169226189Y-73379717D01*
X169243516Y-73278744D01*
X169266505Y-73146016D01*
X169294423Y-72985741D01*
X169326539Y-72802131D01*
X169362120Y-72599394D01*
X169400434Y-72381740D01*
X169414281Y-72303230D01*
X169453335Y-72081810D01*
X169489916Y-71874204D01*
X169523296Y-71684566D01*
X169552743Y-71517053D01*
X169577529Y-71375821D01*
X169596924Y-71265025D01*
X169610198Y-71188822D01*
X169616621Y-71151367D01*
X169617115Y-71148172D01*
X169638799Y-71146853D01*
X169700425Y-71145644D01*
X169796862Y-71144582D01*
X169922976Y-71143704D01*
X170073635Y-71143046D01*
X170243706Y-71142647D01*
X170396052Y-71142538D01*
X171174984Y-71142538D01*
X171159463Y-71249592D01*
G37*
G36*
X149600003Y-69717506D02*
G01*
X149632009Y-69534124D01*
X149665558Y-69342406D01*
X149699746Y-69147503D01*
X149733672Y-68954564D01*
X149733832Y-68953655D01*
X150194927Y-68953655D01*
X150211891Y-68986787D01*
X150251419Y-69001135D01*
X150317950Y-69003209D01*
X150415922Y-68999518D01*
X150454432Y-68998188D01*
X150577946Y-68993006D01*
X150666412Y-68985159D01*
X150729846Y-68973089D01*
X150778263Y-68955240D01*
X150798132Y-68944727D01*
X150873533Y-68881158D01*
X150931495Y-68794375D01*
X150964941Y-68698943D01*
X150966791Y-68609429D01*
X150964973Y-68601390D01*
X150941210Y-68535593D01*
X150903879Y-68487823D01*
X150846209Y-68455117D01*
X150761432Y-68434515D01*
X150642778Y-68423053D01*
X150548653Y-68419222D01*
X150444598Y-68417042D01*
X150359281Y-68416649D01*
X150301429Y-68417982D01*
X150279769Y-68420982D01*
X150279765Y-68421038D01*
X150275974Y-68445642D01*
X150265696Y-68505220D01*
X150250570Y-68590406D01*
X150235032Y-68676475D01*
X150210936Y-68805008D01*
X150196088Y-68895232D01*
X150194927Y-68953655D01*
X149733832Y-68953655D01*
X149766430Y-68768739D01*
X149797119Y-68595177D01*
X149824835Y-68439029D01*
X149848675Y-68305444D01*
X149867735Y-68199572D01*
X149881113Y-68126563D01*
X149887316Y-68094312D01*
X149900205Y-68032334D01*
X150399878Y-68032686D01*
X150604883Y-68034188D01*
X150770909Y-68038953D01*
X150903991Y-68047843D01*
X151010162Y-68061722D01*
X151095456Y-68081455D01*
X151165906Y-68107904D01*
X151227545Y-68141934D01*
X151245141Y-68153696D01*
X151346047Y-68249174D01*
X151411334Y-68367322D01*
X151439766Y-68501664D01*
X151430110Y-68645722D01*
X151381129Y-68793022D01*
X151370980Y-68813696D01*
X151285680Y-68939595D01*
X151165502Y-69048060D01*
X151077749Y-69105158D01*
X151054309Y-69122997D01*
X151060893Y-69139561D01*
X151102594Y-69163938D01*
X151113934Y-69169710D01*
X151237716Y-69248306D01*
X151321268Y-69341641D01*
X151368691Y-69456296D01*
X151384085Y-69598850D01*
X151384095Y-69603220D01*
X151363114Y-69777004D01*
X151302091Y-69934004D01*
X151203843Y-70071399D01*
X151071184Y-70186370D01*
X150906930Y-70276095D01*
X150713899Y-70337756D01*
X150635559Y-70352922D01*
X150569807Y-70360159D01*
X150474822Y-70366045D01*
X150357809Y-70370571D01*
X150225971Y-70373728D01*
X150086511Y-70375508D01*
X149946634Y-70375900D01*
X149813542Y-70374897D01*
X149694439Y-70372489D01*
X149596529Y-70368667D01*
X149527016Y-70363421D01*
X149493103Y-70356744D01*
X149490945Y-70354364D01*
X149494727Y-70329141D01*
X149505471Y-70264683D01*
X149522274Y-70166141D01*
X149544232Y-70038664D01*
X149558959Y-69953673D01*
X150010601Y-69953673D01*
X150013924Y-69969702D01*
X150029764Y-69980719D01*
X150065083Y-69987644D01*
X150126842Y-69991400D01*
X150222003Y-69992906D01*
X150308796Y-69993114D01*
X150434855Y-69992330D01*
X150525783Y-69989136D01*
X150591512Y-69982269D01*
X150641972Y-69970466D01*
X150687093Y-69952465D01*
X150707521Y-69942405D01*
X150810444Y-69872868D01*
X150877250Y-69783832D01*
X150912533Y-69681134D01*
X150917492Y-69569437D01*
X150882042Y-69471614D01*
X150809049Y-69394822D01*
X150793854Y-69384828D01*
X150758939Y-69366096D01*
X150720273Y-69353567D01*
X150668797Y-69346283D01*
X150595454Y-69343285D01*
X150491185Y-69343616D01*
X150416213Y-69344893D01*
X150113176Y-69350790D01*
X150062533Y-69632511D01*
X150043118Y-69742974D01*
X150026929Y-69839726D01*
X150015575Y-69912819D01*
X150010666Y-69952304D01*
X150010601Y-69953673D01*
X149558959Y-69953673D01*
X149570443Y-69887402D01*
X149600003Y-69717506D01*
G37*
G36*
X164761008Y-72297595D02*
G01*
X165455657Y-71142538D01*
X165735006Y-71142538D01*
X166321060Y-73486460D01*
X166041765Y-73486460D01*
X165968392Y-73170932D01*
X165895020Y-72855404D01*
X164691873Y-72855404D01*
X164319801Y-73486460D01*
X164183724Y-73486460D01*
X164114007Y-73483951D01*
X164068376Y-73477421D01*
X164057002Y-73469556D01*
X164070000Y-73447703D01*
X164104184Y-73390633D01*
X164157509Y-73301755D01*
X164227925Y-73184479D01*
X164313386Y-73042213D01*
X164411843Y-72878366D01*
X164521249Y-72696347D01*
X164574671Y-72607489D01*
X164840326Y-72607489D01*
X165335556Y-72607489D01*
X165479502Y-72606986D01*
X165606996Y-72605580D01*
X165711599Y-72603419D01*
X165786875Y-72600656D01*
X165826387Y-72597440D01*
X165830785Y-72595897D01*
X165825196Y-72558991D01*
X165809698Y-72488407D01*
X165786200Y-72391196D01*
X165756607Y-72274408D01*
X165722826Y-72145092D01*
X165686763Y-72010299D01*
X165650326Y-71877079D01*
X165615420Y-71752481D01*
X165583952Y-71643555D01*
X165557830Y-71557352D01*
X165538958Y-71500921D01*
X165529353Y-71481297D01*
X165510471Y-71500070D01*
X165473181Y-71551876D01*
X165421478Y-71630632D01*
X165359352Y-71730255D01*
X165290795Y-71844663D01*
X165289880Y-71846219D01*
X165211809Y-71978928D01*
X165131867Y-72114644D01*
X165056700Y-72242095D01*
X164992955Y-72350010D01*
X164958049Y-72408968D01*
X164840326Y-72607489D01*
X164574671Y-72607489D01*
X164639557Y-72499564D01*
X164761008Y-72297595D01*
G37*
G36*
X150788195Y-71144417D02*
G01*
X150832666Y-71149259D01*
X150843207Y-71153830D01*
X150839059Y-71190170D01*
X150827423Y-71264259D01*
X150809510Y-71369618D01*
X150786532Y-71499768D01*
X150759702Y-71648230D01*
X150730231Y-71808524D01*
X150699332Y-71974173D01*
X150668215Y-72138697D01*
X150638093Y-72295616D01*
X150610178Y-72438453D01*
X150585681Y-72560728D01*
X150565816Y-72655962D01*
X150551792Y-72717676D01*
X150548114Y-72731446D01*
X150465384Y-72944995D01*
X150353438Y-73127877D01*
X150214462Y-73277688D01*
X150050639Y-73392025D01*
X149883384Y-73462729D01*
X149743721Y-73495271D01*
X149586218Y-73514662D01*
X149430488Y-73519411D01*
X149296143Y-73508030D01*
X149293312Y-73507541D01*
X149156337Y-73474936D01*
X149046794Y-73426767D01*
X148947710Y-73355211D01*
X148931308Y-73340722D01*
X148846909Y-73250588D01*
X148788753Y-73151875D01*
X148752689Y-73034060D01*
X148734570Y-72886622D01*
X148732021Y-72835246D01*
X148730684Y-72768839D01*
X148732214Y-72701497D01*
X148737388Y-72627245D01*
X148746981Y-72540110D01*
X148761768Y-72434118D01*
X148782526Y-72303297D01*
X148810030Y-72141673D01*
X148845056Y-71943273D01*
X148855247Y-71886282D01*
X148986481Y-71153806D01*
X149114755Y-71147047D01*
X149197474Y-71146833D01*
X149238034Y-71157359D01*
X149243030Y-71166737D01*
X149239225Y-71194660D01*
X149228435Y-71261454D01*
X149211601Y-71361616D01*
X149189662Y-71489642D01*
X149163558Y-71640030D01*
X149134229Y-71807277D01*
X149116794Y-71905972D01*
X149074605Y-72149481D01*
X149041700Y-72353461D01*
X149017891Y-72522453D01*
X149002991Y-72660995D01*
X148996811Y-72773627D01*
X148999165Y-72864890D01*
X149009864Y-72939324D01*
X149028720Y-73001467D01*
X149055547Y-73055861D01*
X149068380Y-73076335D01*
X149153065Y-73165208D01*
X149269205Y-73229981D01*
X149408979Y-73268668D01*
X149564566Y-73279287D01*
X149728144Y-73259854D01*
X149761437Y-73252109D01*
X149932294Y-73187823D01*
X150074866Y-73088455D01*
X150189028Y-72954121D01*
X150274654Y-72784934D01*
X150277223Y-72778142D01*
X150292541Y-72725424D01*
X150313975Y-72634770D01*
X150340191Y-72512699D01*
X150369853Y-72365730D01*
X150401627Y-72200382D01*
X150434176Y-72023174D01*
X150449320Y-71937884D01*
X150480276Y-71762360D01*
X150509184Y-71599976D01*
X150535023Y-71456356D01*
X150556770Y-71337124D01*
X150573403Y-71247904D01*
X150583900Y-71194320D01*
X150586715Y-71181979D01*
X150603520Y-71158141D01*
X150642993Y-71146053D01*
X150715907Y-71142545D01*
X150720769Y-71142538D01*
X150788195Y-71144417D01*
G37*
G36*
X164172773Y-71249592D02*
G01*
X164161728Y-71316035D01*
X164151369Y-71362795D01*
X164147524Y-71373549D01*
X164123362Y-71377880D01*
X164059869Y-71381801D01*
X163962789Y-71385163D01*
X163837866Y-71387820D01*
X163690844Y-71389623D01*
X163527467Y-71390425D01*
X163490577Y-71390452D01*
X162843357Y-71390452D01*
X162781685Y-71745421D01*
X162760772Y-71866874D01*
X162742931Y-71972542D01*
X162729470Y-72054527D01*
X162721692Y-72104931D01*
X162720297Y-72116870D01*
X162741853Y-72121891D01*
X162802084Y-72126839D01*
X162894590Y-72131428D01*
X163012971Y-72135370D01*
X163150825Y-72138378D01*
X163222269Y-72139408D01*
X163723958Y-72145466D01*
X163686398Y-72381274D01*
X163176767Y-72387327D01*
X162667137Y-72393381D01*
X162593010Y-72810328D01*
X162569744Y-72941318D01*
X162549408Y-73056041D01*
X162533237Y-73147520D01*
X162522464Y-73208778D01*
X162518321Y-73232838D01*
X162518312Y-73232910D01*
X162539769Y-73234342D01*
X162600715Y-73235640D01*
X162695564Y-73236756D01*
X162818731Y-73237641D01*
X162964630Y-73238249D01*
X163127675Y-73238531D01*
X163173843Y-73238545D01*
X163829945Y-73238545D01*
X163814967Y-73323061D01*
X163808438Y-73366614D01*
X163802894Y-73401721D01*
X163793840Y-73429284D01*
X163776778Y-73450204D01*
X163747213Y-73465386D01*
X163700647Y-73475730D01*
X163632584Y-73482140D01*
X163538528Y-73485517D01*
X163413983Y-73486765D01*
X163254451Y-73486785D01*
X163055436Y-73486481D01*
X163000784Y-73486460D01*
X162818843Y-73485987D01*
X162652062Y-73484645D01*
X162505581Y-73482545D01*
X162384544Y-73479800D01*
X162294091Y-73476520D01*
X162239366Y-73472819D01*
X162224756Y-73469556D01*
X162228564Y-73444724D01*
X162239498Y-73379717D01*
X162256826Y-73278744D01*
X162279815Y-73146016D01*
X162307733Y-72985741D01*
X162339849Y-72802131D01*
X162375430Y-72599394D01*
X162413744Y-72381740D01*
X162427591Y-72303230D01*
X162466644Y-72081810D01*
X162503226Y-71874204D01*
X162536605Y-71684566D01*
X162566053Y-71517053D01*
X162590839Y-71375821D01*
X162610234Y-71265025D01*
X162623508Y-71188822D01*
X162629931Y-71151367D01*
X162630425Y-71148172D01*
X162652109Y-71146853D01*
X162713735Y-71145644D01*
X162810171Y-71144582D01*
X162936285Y-71143704D01*
X163086944Y-71143046D01*
X163257016Y-71142647D01*
X163409362Y-71142538D01*
X164188294Y-71142538D01*
X164172773Y-71249592D01*
G37*
G36*
X155119360Y-72081703D02*
G01*
X155155950Y-71873900D01*
X155189336Y-71683990D01*
X155218788Y-71516143D01*
X155243574Y-71374528D01*
X155262966Y-71263313D01*
X155276232Y-71186668D01*
X155282643Y-71148761D01*
X155283131Y-71145409D01*
X155304573Y-71143407D01*
X155364531Y-71142553D01*
X155456466Y-71142816D01*
X155573833Y-71144165D01*
X155710091Y-71146569D01*
X155762063Y-71147677D01*
X155925732Y-71151747D01*
X156051728Y-71156213D01*
X156147453Y-71161815D01*
X156220308Y-71169292D01*
X156277694Y-71179384D01*
X156327012Y-71192831D01*
X156370933Y-71208535D01*
X156518192Y-71281217D01*
X156625309Y-71371776D01*
X156694924Y-71483905D01*
X156729683Y-71621298D01*
X156734906Y-71717249D01*
X156724786Y-71874571D01*
X156692726Y-72006175D01*
X156634257Y-72127892D01*
X156606921Y-72170800D01*
X156489846Y-72306366D01*
X156345480Y-72409591D01*
X156218039Y-72464088D01*
X156151374Y-72488020D01*
X156106517Y-72509708D01*
X156094494Y-72521363D01*
X156102805Y-72546661D01*
X156126075Y-72607289D01*
X156161811Y-72697018D01*
X156207519Y-72809619D01*
X156260706Y-72938862D01*
X156286065Y-72999949D01*
X156341716Y-73134221D01*
X156391011Y-73254247D01*
X156431466Y-73353885D01*
X156460594Y-73426993D01*
X156475911Y-73467431D01*
X156477635Y-73473332D01*
X156457036Y-73479906D01*
X156402977Y-73484615D01*
X156327066Y-73486459D01*
X156325420Y-73486460D01*
X156173206Y-73486460D01*
X155992989Y-73024824D01*
X155812773Y-72563189D01*
X155551520Y-72562801D01*
X155290268Y-72562413D01*
X155217227Y-72984995D01*
X155193711Y-73119836D01*
X155172164Y-73241134D01*
X155153983Y-73341195D01*
X155140566Y-73412323D01*
X155133313Y-73446825D01*
X155133260Y-73447019D01*
X155117044Y-73470810D01*
X155078242Y-73482894D01*
X155006113Y-73486448D01*
X154999896Y-73486460D01*
X154932478Y-73483647D01*
X154888010Y-73476401D01*
X154877463Y-73469556D01*
X154881271Y-73444724D01*
X154892204Y-73379717D01*
X154909532Y-73278744D01*
X154932521Y-73146016D01*
X154960439Y-72985741D01*
X154992555Y-72802131D01*
X155028136Y-72599394D01*
X155066450Y-72381740D01*
X155078289Y-72314613D01*
X155333729Y-72314613D01*
X155341988Y-72325297D01*
X155366488Y-72332138D01*
X155413321Y-72335692D01*
X155488584Y-72336516D01*
X155598371Y-72335166D01*
X155703586Y-72333132D01*
X155846645Y-72329662D01*
X155952706Y-72325327D01*
X156029849Y-72319153D01*
X156086150Y-72310163D01*
X156129688Y-72297384D01*
X156168542Y-72279840D01*
X156175510Y-72276182D01*
X156299138Y-72185815D01*
X156392949Y-72065646D01*
X156442861Y-71950122D01*
X156470666Y-71831457D01*
X156473419Y-71735056D01*
X156450422Y-71645250D01*
X156426925Y-71593739D01*
X156388717Y-71529394D01*
X156344182Y-71480841D01*
X156286541Y-71445755D01*
X156209015Y-71421812D01*
X156104827Y-71406686D01*
X155967196Y-71398055D01*
X155846265Y-71394609D01*
X155496616Y-71387497D01*
X155421949Y-71822826D01*
X155398221Y-71959846D01*
X155376384Y-72083491D01*
X155357813Y-72186161D01*
X155343885Y-72260257D01*
X155335976Y-72298177D01*
X155335614Y-72299529D01*
X155333729Y-72314613D01*
X155078289Y-72314613D01*
X155080297Y-72303230D01*
X155119360Y-72081703D01*
G37*
G36*
X153268912Y-68008247D02*
G01*
X153272098Y-68008676D01*
X153446748Y-68047744D01*
X153612069Y-68113428D01*
X153756222Y-68199989D01*
X153860734Y-68293996D01*
X153922397Y-68372438D01*
X153976135Y-68455885D01*
X154016326Y-68533789D01*
X154037346Y-68595603D01*
X154037182Y-68624970D01*
X154012048Y-68642067D01*
X153952748Y-68665898D01*
X153868999Y-68692901D01*
X153799070Y-68712292D01*
X153697423Y-68738280D01*
X153631065Y-68753192D01*
X153591739Y-68757583D01*
X153571183Y-68752010D01*
X153561140Y-68737029D01*
X153558212Y-68728514D01*
X153515684Y-68652508D01*
X153440682Y-68574531D01*
X153344012Y-68505200D01*
X153313785Y-68488392D01*
X153249612Y-68458238D01*
X153189413Y-68440059D01*
X153117883Y-68430945D01*
X153019719Y-68427985D01*
X152995559Y-68427876D01*
X152887801Y-68429759D01*
X152808519Y-68437914D01*
X152741239Y-68455303D01*
X152669482Y-68484888D01*
X152663847Y-68487500D01*
X152492804Y-68590942D01*
X152351944Y-68726037D01*
X152243467Y-68889099D01*
X152169572Y-69076442D01*
X152132460Y-69284383D01*
X152128345Y-69384596D01*
X152147152Y-69558283D01*
X152201737Y-69706249D01*
X152289188Y-69825899D01*
X152406593Y-69914641D01*
X152551040Y-69969881D01*
X152719618Y-69989027D01*
X152802675Y-69985167D01*
X152970316Y-69950107D01*
X153136351Y-69880151D01*
X153285722Y-69782826D01*
X153375753Y-69698642D01*
X153477759Y-69585186D01*
X153664875Y-69635084D01*
X153751916Y-69659446D01*
X153821979Y-69681198D01*
X153863768Y-69696750D01*
X153869755Y-69700175D01*
X153865997Y-69724164D01*
X153839806Y-69773668D01*
X153796585Y-69838748D01*
X153788156Y-69850341D01*
X153632115Y-70025376D01*
X153446314Y-70171302D01*
X153237603Y-70285306D01*
X153012835Y-70364572D01*
X152778860Y-70406286D01*
X152542531Y-70407633D01*
X152456458Y-70397428D01*
X152269419Y-70348802D01*
X152096871Y-70265423D01*
X151946470Y-70152630D01*
X151825869Y-70015759D01*
X151767371Y-69916995D01*
X151696928Y-69738215D01*
X151661784Y-69556892D01*
X151660923Y-69363163D01*
X151689862Y-69163903D01*
X151759749Y-68925063D01*
X151865813Y-68706686D01*
X152003861Y-68511834D01*
X152169698Y-68343570D01*
X152359130Y-68204955D01*
X152567961Y-68099053D01*
X152791999Y-68028926D01*
X153027047Y-67997637D01*
X153268912Y-68008247D01*
G37*
G36*
X151175261Y-72081703D02*
G01*
X151211851Y-71873900D01*
X151245237Y-71683990D01*
X151274688Y-71516143D01*
X151299475Y-71374528D01*
X151318867Y-71263313D01*
X151332133Y-71186668D01*
X151338543Y-71148761D01*
X151339032Y-71145409D01*
X151360473Y-71143407D01*
X151420432Y-71142553D01*
X151512366Y-71142816D01*
X151629733Y-71144165D01*
X151765991Y-71146569D01*
X151817963Y-71147677D01*
X152014229Y-71153684D01*
X152172043Y-71162967D01*
X152297993Y-71176960D01*
X152398666Y-71197097D01*
X152480647Y-71224812D01*
X152550525Y-71261538D01*
X152614885Y-71308711D01*
X152634470Y-71325437D01*
X152715633Y-71425180D01*
X152765960Y-71549067D01*
X152786679Y-71689563D01*
X152779019Y-71839133D01*
X152744209Y-71990240D01*
X152683478Y-72135350D01*
X152598054Y-72266926D01*
X152489167Y-72377434D01*
X152459192Y-72400334D01*
X152369964Y-72459234D01*
X152282482Y-72503627D01*
X152187922Y-72535651D01*
X152077457Y-72557447D01*
X151942262Y-72571153D01*
X151773511Y-72578909D01*
X151716544Y-72580362D01*
X151591800Y-72583734D01*
X151484442Y-72587783D01*
X151401842Y-72592136D01*
X151351372Y-72596422D01*
X151339037Y-72599389D01*
X151335299Y-72624773D01*
X151325092Y-72685948D01*
X151309926Y-72774339D01*
X151291313Y-72881373D01*
X151270763Y-72998478D01*
X151249786Y-73117079D01*
X151229894Y-73228603D01*
X151212597Y-73324477D01*
X151199406Y-73396128D01*
X151191831Y-73434982D01*
X151191662Y-73435750D01*
X151180030Y-73465175D01*
X151154014Y-73480395D01*
X151101628Y-73485920D01*
X151056886Y-73486460D01*
X150989128Y-73483671D01*
X150944262Y-73476479D01*
X150933363Y-73469556D01*
X150937171Y-73444724D01*
X150948105Y-73379717D01*
X150965433Y-73278744D01*
X150988422Y-73146016D01*
X151016340Y-72985741D01*
X151048456Y-72802131D01*
X151084037Y-72599394D01*
X151122350Y-72381740D01*
X151126260Y-72359574D01*
X151379226Y-72359574D01*
X151693107Y-72359574D01*
X151863445Y-72356757D01*
X151994746Y-72347998D01*
X152092713Y-72332832D01*
X152125109Y-72324496D01*
X152255179Y-72265238D01*
X152364570Y-72175370D01*
X152449201Y-72062875D01*
X152504989Y-71935732D01*
X152527854Y-71801922D01*
X152513714Y-71669427D01*
X152491954Y-71607211D01*
X152456367Y-71540146D01*
X152412383Y-71494545D01*
X152344127Y-71455021D01*
X152326079Y-71446451D01*
X152275220Y-71424397D01*
X152227086Y-71409061D01*
X152171972Y-71399232D01*
X152100170Y-71393698D01*
X152001974Y-71391247D01*
X151879370Y-71390673D01*
X151552001Y-71390452D01*
X151477264Y-71824303D01*
X151453422Y-71961863D01*
X151431496Y-72086798D01*
X151412879Y-72191287D01*
X151398966Y-72267512D01*
X151391150Y-72307650D01*
X151390877Y-72308864D01*
X151379226Y-72359574D01*
X151126260Y-72359574D01*
X151136198Y-72303230D01*
X151175261Y-72081703D01*
G37*
G36*
X154819623Y-71249592D02*
G01*
X154808578Y-71316035D01*
X154798219Y-71362795D01*
X154794374Y-71373549D01*
X154770212Y-71377880D01*
X154706719Y-71381801D01*
X154609639Y-71385163D01*
X154484716Y-71387820D01*
X154337694Y-71389623D01*
X154174317Y-71390425D01*
X154137427Y-71390452D01*
X153490207Y-71390452D01*
X153428535Y-71745421D01*
X153407622Y-71866874D01*
X153389781Y-71972542D01*
X153376320Y-72054527D01*
X153368542Y-72104931D01*
X153367147Y-72116870D01*
X153388703Y-72121891D01*
X153448934Y-72126839D01*
X153541440Y-72131428D01*
X153659821Y-72135370D01*
X153797676Y-72138378D01*
X153869119Y-72139408D01*
X154370808Y-72145466D01*
X154333248Y-72381274D01*
X153823618Y-72387327D01*
X153313987Y-72393381D01*
X153239860Y-72810328D01*
X153216594Y-72941318D01*
X153196258Y-73056041D01*
X153180087Y-73147520D01*
X153169314Y-73208778D01*
X153165171Y-73232838D01*
X153165162Y-73232910D01*
X153186619Y-73234342D01*
X153247565Y-73235640D01*
X153342414Y-73236756D01*
X153465581Y-73237641D01*
X153611480Y-73238249D01*
X153774525Y-73238531D01*
X153820694Y-73238545D01*
X154476795Y-73238545D01*
X154461817Y-73323061D01*
X154455288Y-73366614D01*
X154449744Y-73401721D01*
X154440690Y-73429284D01*
X154423628Y-73450204D01*
X154394063Y-73465386D01*
X154347497Y-73475730D01*
X154279434Y-73482140D01*
X154185378Y-73485517D01*
X154060833Y-73486765D01*
X153901301Y-73486785D01*
X153702286Y-73486481D01*
X153647634Y-73486460D01*
X153465693Y-73485987D01*
X153298912Y-73484645D01*
X153152431Y-73482545D01*
X153031394Y-73479800D01*
X152940941Y-73476520D01*
X152886216Y-73472819D01*
X152871607Y-73469556D01*
X152875414Y-73444724D01*
X152886348Y-73379717D01*
X152903676Y-73278744D01*
X152926665Y-73146016D01*
X152954583Y-72985741D01*
X152986699Y-72802131D01*
X153022280Y-72599394D01*
X153060594Y-72381740D01*
X153074441Y-72303230D01*
X153113494Y-72081810D01*
X153150076Y-71874204D01*
X153183455Y-71684566D01*
X153212903Y-71517053D01*
X153237689Y-71375821D01*
X153257084Y-71265025D01*
X153270358Y-71188822D01*
X153276781Y-71151367D01*
X153277275Y-71148172D01*
X153298959Y-71146853D01*
X153360585Y-71145644D01*
X153457021Y-71144582D01*
X153583135Y-71143704D01*
X153733794Y-71143046D01*
X153903866Y-71142647D01*
X154056212Y-71142538D01*
X154835144Y-71142538D01*
X154819623Y-71249592D01*
G37*
G36*
X160176034Y-71147117D02*
G01*
X160214791Y-71161131D01*
X160218905Y-71170710D01*
X160215134Y-71197059D01*
X160204419Y-71262627D01*
X160187661Y-71362243D01*
X160165763Y-71490739D01*
X160139625Y-71642945D01*
X160110149Y-71813692D01*
X160078237Y-71997811D01*
X160044791Y-72190132D01*
X160010712Y-72385486D01*
X159976902Y-72578704D01*
X159944262Y-72764617D01*
X159913695Y-72938055D01*
X159886101Y-73093849D01*
X159862383Y-73226830D01*
X159843441Y-73331829D01*
X159830178Y-73403675D01*
X159823835Y-73435750D01*
X159812046Y-73465182D01*
X159785894Y-73480403D01*
X159733368Y-73485924D01*
X159688830Y-73486460D01*
X159621071Y-73483671D01*
X159576205Y-73476479D01*
X159565307Y-73469556D01*
X159569115Y-73444724D01*
X159580048Y-73379717D01*
X159597376Y-73278744D01*
X159620365Y-73146016D01*
X159648283Y-72985741D01*
X159680399Y-72802131D01*
X159715980Y-72599394D01*
X159754294Y-72381740D01*
X159768141Y-72303230D01*
X159807194Y-72081810D01*
X159843776Y-71874204D01*
X159877155Y-71684566D01*
X159906603Y-71517053D01*
X159931389Y-71375821D01*
X159950784Y-71265025D01*
X159964058Y-71188822D01*
X159970481Y-71151367D01*
X159970975Y-71148172D01*
X159991371Y-71145085D01*
X160043973Y-71143039D01*
X160094938Y-71142538D01*
X160176034Y-71147117D01*
G37*
D17*
X180340000Y-129540000D03*
D18*
X181840000Y-125220000D03*
D19*
X178840000Y-125220000D03*
D20*
X223520000Y-71120000D03*
D21*
X223520000Y-66040000D03*
D17*
X210820000Y-127850000D03*
D22*
X210820000Y-120550000D03*
D23*
X210820000Y-115050000D03*
D24*
X95240000Y-115570000D03*
D25*
X95240000Y-113030000D03*
X95240000Y-110490000D03*
X95240000Y-107950000D03*
X95240000Y-105410000D03*
X95240000Y-102870000D03*
X95240000Y-100330000D03*
X95240000Y-97790000D03*
X95240000Y-95250000D03*
X95240000Y-92710000D03*
X95240000Y-90170000D03*
X95240000Y-87630000D03*
X95240000Y-85090000D03*
X95240000Y-82550000D03*
X95240000Y-80010000D03*
X80000000Y-80010000D03*
X80000000Y-82550000D03*
X80000000Y-85090000D03*
X80000000Y-87630000D03*
X80000000Y-90170000D03*
X80000000Y-92710000D03*
X80000000Y-95250000D03*
X80000000Y-97790000D03*
X80000000Y-100330000D03*
X80000000Y-102870000D03*
X80000000Y-105410000D03*
X80000000Y-107950000D03*
X80000000Y-110490000D03*
X80000000Y-113030000D03*
X80000000Y-115570000D03*
D20*
X223520000Y-85095000D03*
D21*
X223520000Y-80015000D03*
D26*
X222250000Y-128268106D03*
D27*
X110032800Y-110540800D03*
X212090000Y-71120000D03*
D28*
X107717500Y-90932000D03*
X105642500Y-90932000D03*
D29*
X181222000Y-102440000D03*
X181222000Y-105840000D03*
X191142000Y-105840000D03*
X191142000Y-102440000D03*
D30*
X114730000Y-90170000D03*
X114730000Y-91440000D03*
X114730000Y-92710000D03*
X114730000Y-93980000D03*
X114730000Y-95250000D03*
X114730000Y-96520000D03*
X114730000Y-97790000D03*
X114730000Y-99060000D03*
X114730000Y-100330000D03*
X124030000Y-100330000D03*
X124030000Y-99060000D03*
X124030000Y-97790000D03*
X124030000Y-96520000D03*
X124030000Y-95250000D03*
X124030000Y-93980000D03*
X124030000Y-92710000D03*
X124030000Y-91440000D03*
X124030000Y-90170000D03*
D31*
X166370000Y-99232323D03*
D32*
X166370000Y-104232323D03*
D17*
X167640000Y-129540000D03*
D18*
X169140000Y-125220000D03*
D19*
X166140000Y-125220000D03*
D33*
X122825000Y-104542500D03*
X124825000Y-104542500D03*
D17*
X142240000Y-129540000D03*
D18*
X143740000Y-125220000D03*
D19*
X140740000Y-125220000D03*
D34*
X208262000Y-74870000D03*
X208262000Y-67370000D03*
X198182000Y-67370000D03*
X198182000Y-74870000D03*
D35*
X182922000Y-74870000D03*
D36*
X182922000Y-67370000D03*
D34*
X203222000Y-74870000D03*
X203222000Y-67370000D03*
D20*
X223520000Y-105410000D03*
D21*
X223520000Y-100330000D03*
D37*
X110744000Y-80285500D03*
X110744000Y-78210500D03*
D38*
X152400000Y-92710000D03*
D39*
X144780000Y-92710000D03*
D40*
X106680000Y-124460000D03*
D41*
X104140000Y-124460000D03*
D17*
X154940000Y-129540000D03*
D18*
X156440000Y-125220000D03*
D19*
X153440000Y-125220000D03*
D42*
X106680000Y-95975000D03*
X106680000Y-100855000D03*
D43*
X166370000Y-80890000D03*
X166370000Y-89290000D03*
D44*
X120650000Y-129545000D03*
X113030000Y-129545000D03*
D45*
X119380000Y-120905000D03*
D46*
X116840000Y-120905000D03*
X114300000Y-120905000D03*
D20*
X223520000Y-119380000D03*
D21*
X223520000Y-114300000D03*
D47*
X193040000Y-131953000D03*
X198120000Y-131953000D03*
X200279000Y-119253000D03*
X195580000Y-119253000D03*
X190881000Y-119253000D03*
X200279000Y-115443000D03*
X195580000Y-115443000D03*
X190881000Y-115443000D03*
D44*
X125730000Y-129545000D03*
X133350000Y-129545000D03*
D45*
X132080000Y-120905000D03*
D46*
X129540000Y-120905000D03*
X127000000Y-120905000D03*
D27*
X136601200Y-92049600D03*
D20*
X223520000Y-95250000D03*
D21*
X223520000Y-90170000D03*
D48*
X116905000Y-107950000D03*
X116905000Y-109220000D03*
X116905000Y-110490000D03*
X116905000Y-111760000D03*
X121855000Y-111760000D03*
X121855000Y-110490000D03*
X121855000Y-109220000D03*
X121855000Y-107950000D03*
D40*
X99060000Y-58420000D03*
D41*
X99060000Y-60960000D03*
X99060000Y-63500000D03*
X99060000Y-66040000D03*
D33*
X104410000Y-117729000D03*
X106410000Y-117729000D03*
D49*
X167950000Y-62540000D03*
D50*
X166650000Y-60040000D03*
X166650000Y-58040000D03*
X164650000Y-60040000D03*
X164650000Y-58040000D03*
X162650000Y-60040000D03*
X162650000Y-58040000D03*
X160650000Y-60040000D03*
X160650000Y-58040000D03*
X158650000Y-60040000D03*
X158650000Y-58040000D03*
X156650000Y-60040000D03*
X156650000Y-58040000D03*
X154650000Y-60040000D03*
X154650000Y-58040000D03*
X152650000Y-60040000D03*
X152650000Y-58040000D03*
X150650000Y-60040000D03*
X150650000Y-58040000D03*
X148650000Y-60040000D03*
X148650000Y-58040000D03*
D51*
X128016000Y-80248000D03*
X128016000Y-78248000D03*
D52*
X156718000Y-87376000D03*
X141478000Y-77216000D03*
D53*
X90760000Y-129338500D03*
X97770000Y-129338500D03*
D54*
X96520000Y-131828500D03*
X92020000Y-131828500D03*
D26*
X222250000Y-57118674D03*
X82533637Y-57118674D03*
D27*
X119380000Y-81615677D03*
D55*
X119380000Y-76615677D03*
D34*
X208262000Y-85023000D03*
X208262000Y-92523000D03*
X198182000Y-92523000D03*
X198182000Y-85023000D03*
D35*
X182922000Y-92523000D03*
D36*
X182922000Y-85023000D03*
D34*
X203222000Y-85023000D03*
X203222000Y-92523000D03*
D28*
X115972500Y-104775000D03*
X113897500Y-104775000D03*
D26*
X82550000Y-128270000D03*
D29*
X200018000Y-105840000D03*
X200018000Y-102440000D03*
X209938000Y-102440000D03*
X209938000Y-105840000D03*
D28*
X107717500Y-105918000D03*
X105642500Y-105918000D03*
D56*
X151990000Y-99320000D03*
X150290000Y-99320000D03*
D57*
X148590000Y-108470000D03*
D56*
X148590000Y-99320000D03*
X146890000Y-99320000D03*
X145190000Y-99320000D03*
M02*
