%TF.GenerationSoftware,KiCad,Pcbnew,(6.0.8-1)-1*%
%TF.CreationDate,2023-03-04T15:31:58-08:00*%
%TF.ProjectId,Urban Battery - BMS_complement,55726261-6e20-4426-9174-74657279202d,rev?*%
%TF.SameCoordinates,Original*%
%TF.FileFunction,Paste,Top*%
%TF.FilePolarity,Positive*%
%FSLAX46Y46*%
G04 Gerber Fmt 4.6, Leading zero omitted, Abs format (unit mm)*
G04 Created by KiCad (PCBNEW (6.0.8-1)-1) date 2023-03-04 15:31:58*
%MOMM*%
%LPD*%
G01*
G04 APERTURE LIST*
G04 Aperture macros list*
%AMRoundRect*
0 Rectangle with rounded corners*
0 $1 Rounding radius*
0 $2 $3 $4 $5 $6 $7 $8 $9 X,Y pos of 4 corners*
0 Add a 4 corners polygon primitive as box body*
4,1,4,$2,$3,$4,$5,$6,$7,$8,$9,$2,$3,0*
0 Add four circle primitives for the rounded corners*
1,1,$1+$1,$2,$3*
1,1,$1+$1,$4,$5*
1,1,$1+$1,$6,$7*
1,1,$1+$1,$8,$9*
0 Add four rect primitives between the rounded corners*
20,1,$1+$1,$2,$3,$4,$5,0*
20,1,$1+$1,$4,$5,$6,$7,0*
20,1,$1+$1,$6,$7,$8,$9,0*
20,1,$1+$1,$8,$9,$2,$3,0*%
G04 Aperture macros list end*
%ADD10RoundRect,0.250000X0.337500X0.475000X-0.337500X0.475000X-0.337500X-0.475000X0.337500X-0.475000X0*%
%ADD11RoundRect,0.150000X-0.875000X-0.150000X0.875000X-0.150000X0.875000X0.150000X-0.875000X0.150000X0*%
%ADD12RoundRect,0.250000X-0.350000X-0.450000X0.350000X-0.450000X0.350000X0.450000X-0.350000X0.450000X0*%
%ADD13RoundRect,0.250000X0.475000X-0.337500X0.475000X0.337500X-0.475000X0.337500X-0.475000X-0.337500X0*%
%ADD14RoundRect,0.250000X-1.000000X1.950000X-1.000000X-1.950000X1.000000X-1.950000X1.000000X1.950000X0*%
%ADD15RoundRect,0.150000X-0.825000X-0.150000X0.825000X-0.150000X0.825000X0.150000X-0.825000X0.150000X0*%
%ADD16RoundRect,0.250000X0.450000X-0.350000X0.450000X0.350000X-0.450000X0.350000X-0.450000X-0.350000X0*%
%ADD17R,5.250000X4.550000*%
%ADD18R,1.100000X4.600000*%
G04 APERTURE END LIST*
D10*
X107717500Y-90932000D03*
X105642500Y-90932000D03*
D11*
X114730000Y-90170000D03*
X114730000Y-91440000D03*
X114730000Y-92710000D03*
X114730000Y-93980000D03*
X114730000Y-95250000D03*
X114730000Y-96520000D03*
X114730000Y-97790000D03*
X114730000Y-99060000D03*
X114730000Y-100330000D03*
X124030000Y-100330000D03*
X124030000Y-99060000D03*
X124030000Y-97790000D03*
X124030000Y-96520000D03*
X124030000Y-95250000D03*
X124030000Y-93980000D03*
X124030000Y-92710000D03*
X124030000Y-91440000D03*
X124030000Y-90170000D03*
D12*
X122825000Y-104542500D03*
X124825000Y-104542500D03*
D13*
X110744000Y-80285500D03*
X110744000Y-78210500D03*
D14*
X166370000Y-80890000D03*
X166370000Y-89290000D03*
D15*
X116905000Y-107950000D03*
X116905000Y-109220000D03*
X116905000Y-110490000D03*
X116905000Y-111760000D03*
X121855000Y-111760000D03*
X121855000Y-110490000D03*
X121855000Y-109220000D03*
X121855000Y-107950000D03*
D12*
X104410000Y-117729000D03*
X106410000Y-117729000D03*
D16*
X128016000Y-80248000D03*
X128016000Y-78248000D03*
D10*
X115972500Y-104775000D03*
X113897500Y-104775000D03*
X107717500Y-105918000D03*
X105642500Y-105918000D03*
D17*
X145815000Y-110895000D03*
X151365000Y-106045000D03*
X145815000Y-106045000D03*
X151365000Y-110895000D03*
D18*
X151990000Y-99320000D03*
X150290000Y-99320000D03*
X148590000Y-99320000D03*
X146890000Y-99320000D03*
X145190000Y-99320000D03*
M02*
