%TF.GenerationSoftware,KiCad,Pcbnew,(6.0.8-1)-1*%
%TF.CreationDate,2023-03-04T15:31:58-08:00*%
%TF.ProjectId,Urban Battery - BMS_complement,55726261-6e20-4426-9174-74657279202d,rev?*%
%TF.SameCoordinates,Original*%
%TF.FileFunction,Soldermask,Top*%
%TF.FilePolarity,Negative*%
%FSLAX46Y46*%
G04 Gerber Fmt 4.6, Leading zero omitted, Abs format (unit mm)*
G04 Created by KiCad (PCBNEW (6.0.8-1)-1) date 2023-03-04 15:31:58*
%MOMM*%
%LPD*%
G01*
G04 APERTURE LIST*
G04 Aperture macros list*
%AMRoundRect*
0 Rectangle with rounded corners*
0 $1 Rounding radius*
0 $2 $3 $4 $5 $6 $7 $8 $9 X,Y pos of 4 corners*
0 Add a 4 corners polygon primitive as box body*
4,1,4,$2,$3,$4,$5,$6,$7,$8,$9,$2,$3,0*
0 Add four circle primitives for the rounded corners*
1,1,$1+$1,$2,$3*
1,1,$1+$1,$4,$5*
1,1,$1+$1,$6,$7*
1,1,$1+$1,$8,$9*
0 Add four rect primitives between the rounded corners*
20,1,$1+$1,$2,$3,$4,$5,0*
20,1,$1+$1,$4,$5,$6,$7,0*
20,1,$1+$1,$6,$7,$8,$9,0*
20,1,$1+$1,$8,$9,$2,$3,0*%
G04 Aperture macros list end*
%ADD10C,3.000000*%
%ADD11RoundRect,0.250001X0.499999X0.759999X-0.499999X0.759999X-0.499999X-0.759999X0.499999X-0.759999X0*%
%ADD12O,1.500000X2.020000*%
%ADD13R,2.600000X2.600000*%
%ADD14C,2.600000*%
%ADD15RoundRect,0.250001X1.099999X1.599999X-1.099999X1.599999X-1.099999X-1.599999X1.099999X-1.599999X0*%
%ADD16O,2.700000X3.700000*%
%ADD17R,1.600000X1.600000*%
%ADD18O,1.600000X1.600000*%
%ADD19C,3.200000*%
%ADD20R,2.000000X2.000000*%
%ADD21RoundRect,0.250000X0.337500X0.475000X-0.337500X0.475000X-0.337500X-0.475000X0.337500X-0.475000X0*%
%ADD22C,2.780000*%
%ADD23RoundRect,0.150000X-0.875000X-0.150000X0.875000X-0.150000X0.875000X0.150000X-0.875000X0.150000X0*%
%ADD24R,2.400000X2.400000*%
%ADD25C,2.400000*%
%ADD26RoundRect,0.250000X-0.350000X-0.450000X0.350000X-0.450000X0.350000X0.450000X-0.350000X0.450000X0*%
%ADD27O,2.000000X3.000000*%
%ADD28R,3.000000X2.000000*%
%ADD29O,3.000000X2.000000*%
%ADD30RoundRect,0.250000X0.475000X-0.337500X0.475000X0.337500X-0.475000X0.337500X-0.475000X-0.337500X0*%
%ADD31R,2.200000X2.200000*%
%ADD32O,2.200000X2.200000*%
%ADD33R,1.700000X1.700000*%
%ADD34O,1.700000X1.700000*%
%ADD35C,1.500000*%
%ADD36RoundRect,0.250000X-1.000000X1.950000X-1.000000X-1.950000X1.000000X-1.950000X1.000000X1.950000X0*%
%ADD37C,3.400000*%
%ADD38R,1.690000X1.690000*%
%ADD39C,1.690000*%
%ADD40C,2.616200*%
%ADD41RoundRect,0.150000X-0.825000X-0.150000X0.825000X-0.150000X0.825000X0.150000X-0.825000X0.150000X0*%
%ADD42C,1.100000*%
%ADD43C,1.300000*%
%ADD44RoundRect,0.250000X0.450000X-0.350000X0.450000X0.350000X-0.450000X0.350000X-0.450000X-0.350000X0*%
%ADD45C,1.900000*%
%ADD46C,2.100000*%
%ADD47C,1.750000*%
%ADD48C,2.000000*%
%ADD49R,1.100000X4.600000*%
%ADD50R,10.800000X9.400000*%
G04 APERTURE END LIST*
G36*
X160964841Y-71147114D02*
G01*
X161003592Y-71161122D01*
X161007709Y-71170710D01*
X161003928Y-71197272D01*
X160993230Y-71262714D01*
X160976576Y-71361536D01*
X160954929Y-71488236D01*
X160929251Y-71637315D01*
X160900503Y-71803270D01*
X160869648Y-71980601D01*
X160837648Y-72163807D01*
X160805465Y-72347388D01*
X160774062Y-72525842D01*
X160744400Y-72693668D01*
X160717441Y-72845366D01*
X160694147Y-72975434D01*
X160675482Y-73078372D01*
X160662406Y-73148679D01*
X160656949Y-73176207D01*
X160643688Y-73237826D01*
X161875858Y-73249814D01*
X161838172Y-73486460D01*
X161096147Y-73486460D01*
X160918387Y-73485966D01*
X160755903Y-73484566D01*
X160613952Y-73482378D01*
X160497794Y-73479523D01*
X160412687Y-73476120D01*
X160363890Y-73472290D01*
X160354127Y-73469556D01*
X160357934Y-73444724D01*
X160368868Y-73379717D01*
X160386196Y-73278744D01*
X160409185Y-73146016D01*
X160437103Y-72985741D01*
X160469219Y-72802131D01*
X160504800Y-72599394D01*
X160543114Y-72381740D01*
X160556961Y-72303230D01*
X160596014Y-72081810D01*
X160632596Y-71874204D01*
X160665975Y-71684566D01*
X160695423Y-71517053D01*
X160720209Y-71375821D01*
X160739604Y-71265025D01*
X160752878Y-71188822D01*
X160759301Y-71151367D01*
X160759795Y-71148172D01*
X160780190Y-71145085D01*
X160832793Y-71143039D01*
X160883758Y-71142538D01*
X160964841Y-71147114D01*
G37*
G36*
X168287817Y-71126606D02*
G01*
X168483655Y-71180856D01*
X168663023Y-71270134D01*
X168776050Y-71354283D01*
X168824804Y-71405864D01*
X168876317Y-71474736D01*
X168924858Y-71550938D01*
X168964696Y-71624508D01*
X168990102Y-71685484D01*
X168995344Y-71723906D01*
X168992002Y-71729659D01*
X168964007Y-71741738D01*
X168909020Y-71759134D01*
X168843992Y-71777135D01*
X168785876Y-71791027D01*
X168752849Y-71796131D01*
X168736569Y-71778437D01*
X168706250Y-71733143D01*
X168684106Y-71696604D01*
X168580345Y-71562320D01*
X168447131Y-71459268D01*
X168288944Y-71389006D01*
X168110264Y-71353092D01*
X167915567Y-71353084D01*
X167765089Y-71376828D01*
X167561226Y-71444251D01*
X167378204Y-71548554D01*
X167219423Y-71685052D01*
X167088286Y-71849061D01*
X166988193Y-72035895D01*
X166922546Y-72240870D01*
X166894744Y-72459300D01*
X166896193Y-72573682D01*
X166926021Y-72763337D01*
X166990735Y-72924566D01*
X167089725Y-73056726D01*
X167222379Y-73159171D01*
X167388088Y-73231258D01*
X167554137Y-73268132D01*
X167749986Y-73275518D01*
X167952882Y-73245814D01*
X168151471Y-73182713D01*
X168334402Y-73089908D01*
X168490323Y-72971091D01*
X168502144Y-72959738D01*
X168564839Y-72895436D01*
X168602162Y-72845265D01*
X168622558Y-72793552D01*
X168634471Y-72724622D01*
X168636146Y-72711010D01*
X168646672Y-72634003D01*
X168657300Y-72573085D01*
X168663742Y-72547611D01*
X168660499Y-72535869D01*
X168636659Y-72527474D01*
X168586690Y-72521934D01*
X168505059Y-72518756D01*
X168386234Y-72517448D01*
X168323613Y-72517338D01*
X168203455Y-72516724D01*
X168100951Y-72515028D01*
X168023739Y-72512472D01*
X167979456Y-72509276D01*
X167971868Y-72507178D01*
X167976207Y-72481177D01*
X167987316Y-72425696D01*
X167996273Y-72383221D01*
X168020678Y-72269423D01*
X168480834Y-72269423D01*
X168644110Y-72270069D01*
X168766775Y-72272187D01*
X168853273Y-72276049D01*
X168908054Y-72281929D01*
X168935562Y-72290098D01*
X168940979Y-72297595D01*
X168937193Y-72326649D01*
X168926538Y-72393854D01*
X168910063Y-72492986D01*
X168888812Y-72617821D01*
X168863834Y-72762134D01*
X168839570Y-72900479D01*
X168812286Y-73055325D01*
X168787779Y-73194807D01*
X168767083Y-73313008D01*
X168751231Y-73404014D01*
X168741257Y-73461908D01*
X168738160Y-73480825D01*
X168717866Y-73484041D01*
X168665994Y-73486080D01*
X168625461Y-73486460D01*
X168561170Y-73483149D01*
X168520369Y-73474685D01*
X168512773Y-73468061D01*
X168516603Y-73437418D01*
X168526514Y-73377123D01*
X168536860Y-73319360D01*
X168548099Y-73247922D01*
X168552536Y-73196331D01*
X168550337Y-73178446D01*
X168527968Y-73184737D01*
X168480652Y-73211836D01*
X168430464Y-73245620D01*
X168212749Y-73375998D01*
X167984931Y-73465718D01*
X167751606Y-73513588D01*
X167517369Y-73518415D01*
X167421498Y-73507578D01*
X167261202Y-73466296D01*
X167099556Y-73395448D01*
X166955357Y-73304003D01*
X166902911Y-73260137D01*
X166784862Y-73121690D01*
X166699614Y-72957945D01*
X166647040Y-72774385D01*
X166627010Y-72576492D01*
X166639396Y-72369749D01*
X166684070Y-72159638D01*
X166760903Y-71951641D01*
X166869766Y-71751242D01*
X166940671Y-71649636D01*
X167090173Y-71484693D01*
X167263611Y-71348277D01*
X167455214Y-71241317D01*
X167659208Y-71164740D01*
X167869821Y-71119477D01*
X168081281Y-71106456D01*
X168287817Y-71126606D01*
G37*
G36*
X147606282Y-66462863D02*
G01*
X147721335Y-66469557D01*
X147879334Y-66480631D01*
X148080789Y-66496099D01*
X148326208Y-66515974D01*
X148540955Y-66533909D01*
X150152867Y-66676640D01*
X151795536Y-66835280D01*
X153457967Y-67008752D01*
X154054831Y-67074144D01*
X155245990Y-67209689D01*
X156401618Y-67348076D01*
X157521288Y-67489218D01*
X158604572Y-67633023D01*
X159651044Y-67779402D01*
X160660276Y-67928264D01*
X161631842Y-68079521D01*
X162565313Y-68233081D01*
X163460263Y-68388856D01*
X164316265Y-68546754D01*
X165132891Y-68706687D01*
X165909714Y-68868564D01*
X166646307Y-69032295D01*
X167342244Y-69197790D01*
X167997096Y-69364960D01*
X168610436Y-69533714D01*
X169181838Y-69703963D01*
X169710874Y-69875616D01*
X170197117Y-70048584D01*
X170640141Y-70222777D01*
X171039516Y-70398104D01*
X171394818Y-70574476D01*
X171705617Y-70751803D01*
X171796978Y-70809627D01*
X172035100Y-70984044D01*
X172229487Y-71169248D01*
X172380224Y-71365472D01*
X172487398Y-71572947D01*
X172551095Y-71791906D01*
X172571402Y-72022581D01*
X172548405Y-72265204D01*
X172482191Y-72520008D01*
X172458301Y-72587226D01*
X172368804Y-72780490D01*
X172242335Y-72985318D01*
X172083593Y-73196086D01*
X171897278Y-73407172D01*
X171688088Y-73612954D01*
X171460722Y-73807810D01*
X171395594Y-73858763D01*
X171300166Y-73930049D01*
X171199708Y-74001897D01*
X171098587Y-74071608D01*
X171001170Y-74136485D01*
X170911822Y-74193827D01*
X170834909Y-74240937D01*
X170774799Y-74275116D01*
X170735857Y-74293664D01*
X170722450Y-74293883D01*
X170738944Y-74273074D01*
X170768464Y-74246395D01*
X170810912Y-74211368D01*
X170878294Y-74157311D01*
X170959893Y-74092778D01*
X171014662Y-74049902D01*
X171161217Y-73927963D01*
X171319836Y-73782821D01*
X171479999Y-73625070D01*
X171631190Y-73465304D01*
X171762891Y-73314117D01*
X171832711Y-73225932D01*
X171963217Y-73036498D01*
X172079879Y-72836186D01*
X172175073Y-72639026D01*
X172230057Y-72494800D01*
X172283942Y-72262710D01*
X172293445Y-72034257D01*
X172259225Y-71811319D01*
X172181940Y-71595771D01*
X172062249Y-71389491D01*
X171900812Y-71194354D01*
X171713832Y-71024559D01*
X171520087Y-70881463D01*
X171306796Y-70747384D01*
X171071090Y-70621268D01*
X170810100Y-70502065D01*
X170520958Y-70388720D01*
X170200793Y-70280181D01*
X169846737Y-70175396D01*
X169455921Y-70073313D01*
X169025476Y-69972877D01*
X168602924Y-69883250D01*
X167983026Y-69763499D01*
X167395767Y-69663818D01*
X166833767Y-69583538D01*
X166289643Y-69521991D01*
X165756015Y-69478506D01*
X165225500Y-69452415D01*
X164690716Y-69443050D01*
X164144284Y-69449741D01*
X163903811Y-69457391D01*
X163652231Y-69465738D01*
X163387304Y-69472609D01*
X163114185Y-69478005D01*
X162838028Y-69481926D01*
X162563986Y-69484372D01*
X162297213Y-69485343D01*
X162042864Y-69484840D01*
X161806091Y-69482863D01*
X161592050Y-69479411D01*
X161405895Y-69474486D01*
X161252778Y-69468087D01*
X161137854Y-69460214D01*
X161109135Y-69457287D01*
X160957413Y-69439542D01*
X160823354Y-69422609D01*
X160701194Y-69405163D01*
X160585163Y-69385880D01*
X160469496Y-69363436D01*
X160348426Y-69336505D01*
X160216185Y-69303764D01*
X160067008Y-69263888D01*
X159895126Y-69215553D01*
X159694774Y-69157434D01*
X159460184Y-69088206D01*
X159317387Y-69045782D01*
X158740190Y-68874175D01*
X158204675Y-68715183D01*
X157709375Y-68568380D01*
X157252825Y-68433338D01*
X156833557Y-68309633D01*
X156450107Y-68196838D01*
X156101008Y-68094526D01*
X155784793Y-68002271D01*
X155499997Y-67919648D01*
X155245153Y-67846229D01*
X155018795Y-67781589D01*
X154819458Y-67725301D01*
X154645674Y-67676939D01*
X154495979Y-67636077D01*
X154368905Y-67602288D01*
X154262987Y-67575147D01*
X154235575Y-67568350D01*
X153981178Y-67509090D01*
X153683421Y-67445641D01*
X153343799Y-67378255D01*
X152963806Y-67307185D01*
X152544940Y-67232686D01*
X152088695Y-67155009D01*
X151596566Y-67074409D01*
X151070049Y-66991138D01*
X150510639Y-66905449D01*
X149919832Y-66817597D01*
X149299123Y-66727834D01*
X149130341Y-66703834D01*
X148909702Y-66672570D01*
X148687696Y-66641119D01*
X148471662Y-66610520D01*
X148268941Y-66581811D01*
X148086875Y-66556033D01*
X147932802Y-66534225D01*
X147814065Y-66517426D01*
X147789348Y-66513931D01*
X147657407Y-66494627D01*
X147565359Y-66479622D01*
X147513714Y-66468929D01*
X147502981Y-66462563D01*
X147533667Y-66460536D01*
X147606282Y-66462863D01*
G37*
G36*
X147920763Y-71119188D02*
G01*
X148103916Y-71161792D01*
X148250143Y-71228806D01*
X148361205Y-71321513D01*
X148438866Y-71441196D01*
X148467379Y-71516976D01*
X148489755Y-71597011D01*
X148494087Y-71645351D01*
X148476124Y-71673216D01*
X148431616Y-71691824D01*
X148397542Y-71701306D01*
X148311864Y-71721761D01*
X148260556Y-71726014D01*
X148235565Y-71713091D01*
X148228837Y-71682016D01*
X148228833Y-71680877D01*
X148208247Y-71594168D01*
X148151993Y-71507970D01*
X148068328Y-71432911D01*
X148009050Y-71397958D01*
X147879750Y-71354438D01*
X147733380Y-71337172D01*
X147582287Y-71344890D01*
X147438819Y-71376320D01*
X147315322Y-71430193D01*
X147252502Y-71475830D01*
X147188034Y-71557516D01*
X147144983Y-71659251D01*
X147125504Y-71768050D01*
X147131752Y-71870927D01*
X147165882Y-71954897D01*
X147171691Y-71962753D01*
X147220894Y-72012303D01*
X147288604Y-72055732D01*
X147381315Y-72095824D01*
X147505517Y-72135365D01*
X147667702Y-72177138D01*
X147676373Y-72179204D01*
X147861057Y-72227853D01*
X148006126Y-72277377D01*
X148117013Y-72330181D01*
X148199153Y-72388669D01*
X148236573Y-72427104D01*
X148302111Y-72538157D01*
X148333341Y-72667830D01*
X148332591Y-72808487D01*
X148302191Y-72952489D01*
X148244468Y-73092199D01*
X148161753Y-73219978D01*
X148056373Y-73328189D01*
X147938268Y-73405472D01*
X147777087Y-73466620D01*
X147589786Y-73505907D01*
X147390684Y-73521386D01*
X147194097Y-73511111D01*
X147177501Y-73508924D01*
X146992973Y-73467449D01*
X146843978Y-73398669D01*
X146729520Y-73301693D01*
X146648608Y-73175632D01*
X146600249Y-73019596D01*
X146594659Y-72986493D01*
X146578911Y-72880936D01*
X146677031Y-72855560D01*
X146746514Y-72837318D01*
X146802369Y-72822195D01*
X146814592Y-72818737D01*
X146841088Y-72818950D01*
X146852296Y-72847073D01*
X146854033Y-72888589D01*
X146875298Y-73003636D01*
X146934166Y-73108957D01*
X147023247Y-73192115D01*
X147040953Y-73203204D01*
X147165648Y-73254998D01*
X147315006Y-73284130D01*
X147474545Y-73290285D01*
X147629782Y-73273150D01*
X147766235Y-73232410D01*
X147793717Y-73219527D01*
X147901582Y-73145031D01*
X147986151Y-73048130D01*
X148043505Y-72937795D01*
X148069722Y-72822993D01*
X148060883Y-72712694D01*
X148039570Y-72657026D01*
X148001410Y-72597448D01*
X147950840Y-72548806D01*
X147881079Y-72507757D01*
X147785348Y-72470954D01*
X147656870Y-72435053D01*
X147530164Y-72405657D01*
X147320562Y-72351290D01*
X147153169Y-72288934D01*
X147025615Y-72217285D01*
X146935532Y-72135042D01*
X146884482Y-72050756D01*
X146860606Y-71952820D01*
X146855999Y-71831145D01*
X146870364Y-71702597D01*
X146892227Y-71615433D01*
X146961078Y-71472923D01*
X147066097Y-71349737D01*
X147201522Y-71248655D01*
X147361591Y-71172457D01*
X147540543Y-71123922D01*
X147732615Y-71105832D01*
X147920763Y-71119188D01*
G37*
G36*
X147828844Y-68033649D02*
G01*
X147903497Y-68037193D01*
X147948985Y-68042366D01*
X147958381Y-68046389D01*
X147954588Y-68071210D01*
X147943833Y-68135030D01*
X147927051Y-68232468D01*
X147905176Y-68358144D01*
X147879144Y-68506678D01*
X147849888Y-68672690D01*
X147832101Y-68773230D01*
X147792511Y-69000378D01*
X147761599Y-69188161D01*
X147739108Y-69341394D01*
X147724781Y-69464892D01*
X147718361Y-69563471D01*
X147719593Y-69641946D01*
X147728218Y-69705132D01*
X147743981Y-69757846D01*
X147766625Y-69804902D01*
X147776245Y-69821115D01*
X147851212Y-69901481D01*
X147956673Y-69957027D01*
X148084228Y-69985713D01*
X148225479Y-69985501D01*
X148351325Y-69960703D01*
X148488735Y-69897948D01*
X148604412Y-69798009D01*
X148693732Y-69665402D01*
X148723971Y-69596605D01*
X148740322Y-69541453D01*
X148762755Y-69448474D01*
X148789891Y-69324295D01*
X148820353Y-69175543D01*
X148852760Y-69008846D01*
X148885735Y-68830829D01*
X148900549Y-68747906D01*
X149026858Y-68032334D01*
X149247633Y-68032334D01*
X149341183Y-68033997D01*
X149415079Y-68038478D01*
X149459684Y-68045009D01*
X149468407Y-68049885D01*
X149464476Y-68081307D01*
X149453477Y-68150398D01*
X149436608Y-68250514D01*
X149415063Y-68375012D01*
X149390036Y-68517250D01*
X149362724Y-68670582D01*
X149334322Y-68828368D01*
X149306024Y-68983962D01*
X149279026Y-69130723D01*
X149254523Y-69262006D01*
X149233711Y-69371169D01*
X149217784Y-69451568D01*
X149208650Y-69493694D01*
X149135207Y-69713208D01*
X149029062Y-69909795D01*
X148893965Y-70079172D01*
X148733670Y-70217057D01*
X148551928Y-70319164D01*
X148453740Y-70355603D01*
X148328792Y-70384878D01*
X148184086Y-70403961D01*
X148037989Y-70411463D01*
X147908869Y-70405993D01*
X147866920Y-70400014D01*
X147691947Y-70349094D01*
X147540333Y-70266769D01*
X147417220Y-70157241D01*
X147327747Y-70024713D01*
X147290172Y-69928595D01*
X147270681Y-69845577D01*
X147259363Y-69754278D01*
X147256574Y-69649246D01*
X147262666Y-69525029D01*
X147277996Y-69376174D01*
X147302919Y-69197229D01*
X147337788Y-68982742D01*
X147360039Y-68854960D01*
X147389186Y-68690956D01*
X147417021Y-68535343D01*
X147442198Y-68395567D01*
X147463371Y-68279075D01*
X147479194Y-68193314D01*
X147487330Y-68150657D01*
X147510822Y-68032334D01*
X147734601Y-68032334D01*
X147828844Y-68033649D01*
G37*
G36*
X159424915Y-71148103D02*
G01*
X159439290Y-71161410D01*
X159437834Y-71187870D01*
X159437028Y-71192248D01*
X159431292Y-71224113D01*
X159418519Y-71295914D01*
X159399498Y-71403198D01*
X159375017Y-71541511D01*
X159345865Y-71706397D01*
X159312827Y-71893403D01*
X159276693Y-72098073D01*
X159238251Y-72315955D01*
X159230557Y-72359574D01*
X159033803Y-73475191D01*
X158905142Y-73481950D01*
X158835868Y-73483584D01*
X158789159Y-73480847D01*
X158776482Y-73476049D01*
X158780300Y-73450106D01*
X158791020Y-73386032D01*
X158807533Y-73290058D01*
X158828737Y-73168413D01*
X158853523Y-73027325D01*
X158880787Y-72873024D01*
X158909424Y-72711739D01*
X158938327Y-72549699D01*
X158966391Y-72393132D01*
X158992510Y-72248269D01*
X159015579Y-72121338D01*
X159034492Y-72018568D01*
X159046651Y-71953940D01*
X159065341Y-71853929D01*
X159080288Y-71769142D01*
X159089688Y-71710126D01*
X159092010Y-71689122D01*
X159081019Y-71661798D01*
X159051431Y-71669699D01*
X159008316Y-71709692D01*
X158963486Y-71768540D01*
X158930955Y-71814928D01*
X158875935Y-71891584D01*
X158802755Y-71992551D01*
X158715749Y-72111872D01*
X158619249Y-72243590D01*
X158517586Y-72381746D01*
X158517316Y-72382112D01*
X158407500Y-72530820D01*
X158320820Y-72647183D01*
X158253704Y-72735168D01*
X158202580Y-72798740D01*
X158163875Y-72841865D01*
X158134017Y-72868508D01*
X158109434Y-72882636D01*
X158086553Y-72888215D01*
X158061802Y-72889210D01*
X157977732Y-72889210D01*
X157835329Y-72528607D01*
X157778329Y-72382920D01*
X157717958Y-72226337D01*
X157660131Y-72074347D01*
X157610767Y-71942436D01*
X157594535Y-71898270D01*
X157556008Y-71796067D01*
X157521434Y-71710619D01*
X157494320Y-71650169D01*
X157478175Y-71622961D01*
X157477085Y-71622302D01*
X157469291Y-71642378D01*
X157454973Y-71702298D01*
X157435028Y-71797444D01*
X157410352Y-71923201D01*
X157381842Y-72074952D01*
X157350394Y-72248079D01*
X157316905Y-72437966D01*
X157302191Y-72523092D01*
X157268187Y-72720296D01*
X157236259Y-72904097D01*
X157207268Y-73069645D01*
X157182072Y-73212091D01*
X157161532Y-73326584D01*
X157146508Y-73408274D01*
X157137859Y-73452312D01*
X157136381Y-73458287D01*
X157112022Y-73472346D01*
X157060392Y-73482120D01*
X156996689Y-73486933D01*
X156936112Y-73486108D01*
X156893860Y-73478969D01*
X156883319Y-73469556D01*
X156887127Y-73444724D01*
X156898061Y-73379717D01*
X156915388Y-73278744D01*
X156938377Y-73146016D01*
X156966296Y-72985741D01*
X156998411Y-72802131D01*
X157033992Y-72599394D01*
X157072306Y-72381740D01*
X157086153Y-72303230D01*
X157125211Y-72081768D01*
X157161795Y-71874085D01*
X157195177Y-71684342D01*
X157224627Y-71516699D01*
X157249413Y-71375317D01*
X157268807Y-71264359D01*
X157282077Y-71187983D01*
X157288495Y-71150353D01*
X157288988Y-71147097D01*
X157309475Y-71144594D01*
X157362877Y-71144731D01*
X157428788Y-71147097D01*
X157568583Y-71153806D01*
X157831456Y-71841207D01*
X157909330Y-72042424D01*
X157976833Y-72211844D01*
X158033049Y-72347318D01*
X158077060Y-72446702D01*
X158107952Y-72507847D01*
X158124775Y-72528607D01*
X158144584Y-72511067D01*
X158187869Y-72461092D01*
X158251518Y-72382646D01*
X158332422Y-72279694D01*
X158427470Y-72156201D01*
X158533550Y-72016132D01*
X158647554Y-71863452D01*
X158664036Y-71841207D01*
X159172851Y-71153806D01*
X159309798Y-71147173D01*
X159384990Y-71144505D01*
X159424915Y-71148103D01*
G37*
G36*
X171159463Y-71249592D02*
G01*
X171148418Y-71316035D01*
X171138059Y-71362795D01*
X171134214Y-71373549D01*
X171110052Y-71377880D01*
X171046559Y-71381801D01*
X170949480Y-71385163D01*
X170824557Y-71387820D01*
X170677535Y-71389623D01*
X170514157Y-71390425D01*
X170477267Y-71390452D01*
X169830048Y-71390452D01*
X169768375Y-71745421D01*
X169747462Y-71866874D01*
X169729622Y-71972542D01*
X169716160Y-72054527D01*
X169708382Y-72104931D01*
X169706987Y-72116870D01*
X169728543Y-72121891D01*
X169788775Y-72126839D01*
X169881280Y-72131428D01*
X169999661Y-72135370D01*
X170137516Y-72138378D01*
X170208960Y-72139408D01*
X170710648Y-72145466D01*
X170673088Y-72381274D01*
X170163458Y-72387327D01*
X169653827Y-72393381D01*
X169579700Y-72810328D01*
X169556434Y-72941318D01*
X169536099Y-73056041D01*
X169519928Y-73147520D01*
X169509154Y-73208778D01*
X169505011Y-73232838D01*
X169505003Y-73232910D01*
X169526459Y-73234342D01*
X169587405Y-73235640D01*
X169682255Y-73236756D01*
X169805422Y-73237641D01*
X169951321Y-73238249D01*
X170114365Y-73238531D01*
X170160534Y-73238545D01*
X170816636Y-73238545D01*
X170801657Y-73323061D01*
X170795128Y-73366614D01*
X170789584Y-73401721D01*
X170780530Y-73429284D01*
X170763468Y-73450204D01*
X170733903Y-73465386D01*
X170687337Y-73475730D01*
X170619275Y-73482140D01*
X170525219Y-73485517D01*
X170400673Y-73486765D01*
X170241141Y-73486785D01*
X170042127Y-73486481D01*
X169987474Y-73486460D01*
X169805534Y-73485987D01*
X169638752Y-73484645D01*
X169492272Y-73482545D01*
X169371234Y-73479800D01*
X169280782Y-73476520D01*
X169226056Y-73472819D01*
X169211447Y-73469556D01*
X169215255Y-73444724D01*
X169226189Y-73379717D01*
X169243516Y-73278744D01*
X169266505Y-73146016D01*
X169294423Y-72985741D01*
X169326539Y-72802131D01*
X169362120Y-72599394D01*
X169400434Y-72381740D01*
X169414281Y-72303230D01*
X169453335Y-72081810D01*
X169489916Y-71874204D01*
X169523296Y-71684566D01*
X169552743Y-71517053D01*
X169577529Y-71375821D01*
X169596924Y-71265025D01*
X169610198Y-71188822D01*
X169616621Y-71151367D01*
X169617115Y-71148172D01*
X169638799Y-71146853D01*
X169700425Y-71145644D01*
X169796862Y-71144582D01*
X169922976Y-71143704D01*
X170073635Y-71143046D01*
X170243706Y-71142647D01*
X170396052Y-71142538D01*
X171174984Y-71142538D01*
X171159463Y-71249592D01*
G37*
G36*
X149600003Y-69717506D02*
G01*
X149632009Y-69534124D01*
X149665558Y-69342406D01*
X149699746Y-69147503D01*
X149733672Y-68954564D01*
X149733832Y-68953655D01*
X150194927Y-68953655D01*
X150211891Y-68986787D01*
X150251419Y-69001135D01*
X150317950Y-69003209D01*
X150415922Y-68999518D01*
X150454432Y-68998188D01*
X150577946Y-68993006D01*
X150666412Y-68985159D01*
X150729846Y-68973089D01*
X150778263Y-68955240D01*
X150798132Y-68944727D01*
X150873533Y-68881158D01*
X150931495Y-68794375D01*
X150964941Y-68698943D01*
X150966791Y-68609429D01*
X150964973Y-68601390D01*
X150941210Y-68535593D01*
X150903879Y-68487823D01*
X150846209Y-68455117D01*
X150761432Y-68434515D01*
X150642778Y-68423053D01*
X150548653Y-68419222D01*
X150444598Y-68417042D01*
X150359281Y-68416649D01*
X150301429Y-68417982D01*
X150279769Y-68420982D01*
X150279765Y-68421038D01*
X150275974Y-68445642D01*
X150265696Y-68505220D01*
X150250570Y-68590406D01*
X150235032Y-68676475D01*
X150210936Y-68805008D01*
X150196088Y-68895232D01*
X150194927Y-68953655D01*
X149733832Y-68953655D01*
X149766430Y-68768739D01*
X149797119Y-68595177D01*
X149824835Y-68439029D01*
X149848675Y-68305444D01*
X149867735Y-68199572D01*
X149881113Y-68126563D01*
X149887316Y-68094312D01*
X149900205Y-68032334D01*
X150399878Y-68032686D01*
X150604883Y-68034188D01*
X150770909Y-68038953D01*
X150903991Y-68047843D01*
X151010162Y-68061722D01*
X151095456Y-68081455D01*
X151165906Y-68107904D01*
X151227545Y-68141934D01*
X151245141Y-68153696D01*
X151346047Y-68249174D01*
X151411334Y-68367322D01*
X151439766Y-68501664D01*
X151430110Y-68645722D01*
X151381129Y-68793022D01*
X151370980Y-68813696D01*
X151285680Y-68939595D01*
X151165502Y-69048060D01*
X151077749Y-69105158D01*
X151054309Y-69122997D01*
X151060893Y-69139561D01*
X151102594Y-69163938D01*
X151113934Y-69169710D01*
X151237716Y-69248306D01*
X151321268Y-69341641D01*
X151368691Y-69456296D01*
X151384085Y-69598850D01*
X151384095Y-69603220D01*
X151363114Y-69777004D01*
X151302091Y-69934004D01*
X151203843Y-70071399D01*
X151071184Y-70186370D01*
X150906930Y-70276095D01*
X150713899Y-70337756D01*
X150635559Y-70352922D01*
X150569807Y-70360159D01*
X150474822Y-70366045D01*
X150357809Y-70370571D01*
X150225971Y-70373728D01*
X150086511Y-70375508D01*
X149946634Y-70375900D01*
X149813542Y-70374897D01*
X149694439Y-70372489D01*
X149596529Y-70368667D01*
X149527016Y-70363421D01*
X149493103Y-70356744D01*
X149490945Y-70354364D01*
X149494727Y-70329141D01*
X149505471Y-70264683D01*
X149522274Y-70166141D01*
X149544232Y-70038664D01*
X149558959Y-69953673D01*
X150010601Y-69953673D01*
X150013924Y-69969702D01*
X150029764Y-69980719D01*
X150065083Y-69987644D01*
X150126842Y-69991400D01*
X150222003Y-69992906D01*
X150308796Y-69993114D01*
X150434855Y-69992330D01*
X150525783Y-69989136D01*
X150591512Y-69982269D01*
X150641972Y-69970466D01*
X150687093Y-69952465D01*
X150707521Y-69942405D01*
X150810444Y-69872868D01*
X150877250Y-69783832D01*
X150912533Y-69681134D01*
X150917492Y-69569437D01*
X150882042Y-69471614D01*
X150809049Y-69394822D01*
X150793854Y-69384828D01*
X150758939Y-69366096D01*
X150720273Y-69353567D01*
X150668797Y-69346283D01*
X150595454Y-69343285D01*
X150491185Y-69343616D01*
X150416213Y-69344893D01*
X150113176Y-69350790D01*
X150062533Y-69632511D01*
X150043118Y-69742974D01*
X150026929Y-69839726D01*
X150015575Y-69912819D01*
X150010666Y-69952304D01*
X150010601Y-69953673D01*
X149558959Y-69953673D01*
X149570443Y-69887402D01*
X149600003Y-69717506D01*
G37*
G36*
X164761008Y-72297595D02*
G01*
X165455657Y-71142538D01*
X165735006Y-71142538D01*
X166321060Y-73486460D01*
X166041765Y-73486460D01*
X165968392Y-73170932D01*
X165895020Y-72855404D01*
X164691873Y-72855404D01*
X164319801Y-73486460D01*
X164183724Y-73486460D01*
X164114007Y-73483951D01*
X164068376Y-73477421D01*
X164057002Y-73469556D01*
X164070000Y-73447703D01*
X164104184Y-73390633D01*
X164157509Y-73301755D01*
X164227925Y-73184479D01*
X164313386Y-73042213D01*
X164411843Y-72878366D01*
X164521249Y-72696347D01*
X164574671Y-72607489D01*
X164840326Y-72607489D01*
X165335556Y-72607489D01*
X165479502Y-72606986D01*
X165606996Y-72605580D01*
X165711599Y-72603419D01*
X165786875Y-72600656D01*
X165826387Y-72597440D01*
X165830785Y-72595897D01*
X165825196Y-72558991D01*
X165809698Y-72488407D01*
X165786200Y-72391196D01*
X165756607Y-72274408D01*
X165722826Y-72145092D01*
X165686763Y-72010299D01*
X165650326Y-71877079D01*
X165615420Y-71752481D01*
X165583952Y-71643555D01*
X165557830Y-71557352D01*
X165538958Y-71500921D01*
X165529353Y-71481297D01*
X165510471Y-71500070D01*
X165473181Y-71551876D01*
X165421478Y-71630632D01*
X165359352Y-71730255D01*
X165290795Y-71844663D01*
X165289880Y-71846219D01*
X165211809Y-71978928D01*
X165131867Y-72114644D01*
X165056700Y-72242095D01*
X164992955Y-72350010D01*
X164958049Y-72408968D01*
X164840326Y-72607489D01*
X164574671Y-72607489D01*
X164639557Y-72499564D01*
X164761008Y-72297595D01*
G37*
G36*
X150788195Y-71144417D02*
G01*
X150832666Y-71149259D01*
X150843207Y-71153830D01*
X150839059Y-71190170D01*
X150827423Y-71264259D01*
X150809510Y-71369618D01*
X150786532Y-71499768D01*
X150759702Y-71648230D01*
X150730231Y-71808524D01*
X150699332Y-71974173D01*
X150668215Y-72138697D01*
X150638093Y-72295616D01*
X150610178Y-72438453D01*
X150585681Y-72560728D01*
X150565816Y-72655962D01*
X150551792Y-72717676D01*
X150548114Y-72731446D01*
X150465384Y-72944995D01*
X150353438Y-73127877D01*
X150214462Y-73277688D01*
X150050639Y-73392025D01*
X149883384Y-73462729D01*
X149743721Y-73495271D01*
X149586218Y-73514662D01*
X149430488Y-73519411D01*
X149296143Y-73508030D01*
X149293312Y-73507541D01*
X149156337Y-73474936D01*
X149046794Y-73426767D01*
X148947710Y-73355211D01*
X148931308Y-73340722D01*
X148846909Y-73250588D01*
X148788753Y-73151875D01*
X148752689Y-73034060D01*
X148734570Y-72886622D01*
X148732021Y-72835246D01*
X148730684Y-72768839D01*
X148732214Y-72701497D01*
X148737388Y-72627245D01*
X148746981Y-72540110D01*
X148761768Y-72434118D01*
X148782526Y-72303297D01*
X148810030Y-72141673D01*
X148845056Y-71943273D01*
X148855247Y-71886282D01*
X148986481Y-71153806D01*
X149114755Y-71147047D01*
X149197474Y-71146833D01*
X149238034Y-71157359D01*
X149243030Y-71166737D01*
X149239225Y-71194660D01*
X149228435Y-71261454D01*
X149211601Y-71361616D01*
X149189662Y-71489642D01*
X149163558Y-71640030D01*
X149134229Y-71807277D01*
X149116794Y-71905972D01*
X149074605Y-72149481D01*
X149041700Y-72353461D01*
X149017891Y-72522453D01*
X149002991Y-72660995D01*
X148996811Y-72773627D01*
X148999165Y-72864890D01*
X149009864Y-72939324D01*
X149028720Y-73001467D01*
X149055547Y-73055861D01*
X149068380Y-73076335D01*
X149153065Y-73165208D01*
X149269205Y-73229981D01*
X149408979Y-73268668D01*
X149564566Y-73279287D01*
X149728144Y-73259854D01*
X149761437Y-73252109D01*
X149932294Y-73187823D01*
X150074866Y-73088455D01*
X150189028Y-72954121D01*
X150274654Y-72784934D01*
X150277223Y-72778142D01*
X150292541Y-72725424D01*
X150313975Y-72634770D01*
X150340191Y-72512699D01*
X150369853Y-72365730D01*
X150401627Y-72200382D01*
X150434176Y-72023174D01*
X150449320Y-71937884D01*
X150480276Y-71762360D01*
X150509184Y-71599976D01*
X150535023Y-71456356D01*
X150556770Y-71337124D01*
X150573403Y-71247904D01*
X150583900Y-71194320D01*
X150586715Y-71181979D01*
X150603520Y-71158141D01*
X150642993Y-71146053D01*
X150715907Y-71142545D01*
X150720769Y-71142538D01*
X150788195Y-71144417D01*
G37*
G36*
X164172773Y-71249592D02*
G01*
X164161728Y-71316035D01*
X164151369Y-71362795D01*
X164147524Y-71373549D01*
X164123362Y-71377880D01*
X164059869Y-71381801D01*
X163962789Y-71385163D01*
X163837866Y-71387820D01*
X163690844Y-71389623D01*
X163527467Y-71390425D01*
X163490577Y-71390452D01*
X162843357Y-71390452D01*
X162781685Y-71745421D01*
X162760772Y-71866874D01*
X162742931Y-71972542D01*
X162729470Y-72054527D01*
X162721692Y-72104931D01*
X162720297Y-72116870D01*
X162741853Y-72121891D01*
X162802084Y-72126839D01*
X162894590Y-72131428D01*
X163012971Y-72135370D01*
X163150825Y-72138378D01*
X163222269Y-72139408D01*
X163723958Y-72145466D01*
X163686398Y-72381274D01*
X163176767Y-72387327D01*
X162667137Y-72393381D01*
X162593010Y-72810328D01*
X162569744Y-72941318D01*
X162549408Y-73056041D01*
X162533237Y-73147520D01*
X162522464Y-73208778D01*
X162518321Y-73232838D01*
X162518312Y-73232910D01*
X162539769Y-73234342D01*
X162600715Y-73235640D01*
X162695564Y-73236756D01*
X162818731Y-73237641D01*
X162964630Y-73238249D01*
X163127675Y-73238531D01*
X163173843Y-73238545D01*
X163829945Y-73238545D01*
X163814967Y-73323061D01*
X163808438Y-73366614D01*
X163802894Y-73401721D01*
X163793840Y-73429284D01*
X163776778Y-73450204D01*
X163747213Y-73465386D01*
X163700647Y-73475730D01*
X163632584Y-73482140D01*
X163538528Y-73485517D01*
X163413983Y-73486765D01*
X163254451Y-73486785D01*
X163055436Y-73486481D01*
X163000784Y-73486460D01*
X162818843Y-73485987D01*
X162652062Y-73484645D01*
X162505581Y-73482545D01*
X162384544Y-73479800D01*
X162294091Y-73476520D01*
X162239366Y-73472819D01*
X162224756Y-73469556D01*
X162228564Y-73444724D01*
X162239498Y-73379717D01*
X162256826Y-73278744D01*
X162279815Y-73146016D01*
X162307733Y-72985741D01*
X162339849Y-72802131D01*
X162375430Y-72599394D01*
X162413744Y-72381740D01*
X162427591Y-72303230D01*
X162466644Y-72081810D01*
X162503226Y-71874204D01*
X162536605Y-71684566D01*
X162566053Y-71517053D01*
X162590839Y-71375821D01*
X162610234Y-71265025D01*
X162623508Y-71188822D01*
X162629931Y-71151367D01*
X162630425Y-71148172D01*
X162652109Y-71146853D01*
X162713735Y-71145644D01*
X162810171Y-71144582D01*
X162936285Y-71143704D01*
X163086944Y-71143046D01*
X163257016Y-71142647D01*
X163409362Y-71142538D01*
X164188294Y-71142538D01*
X164172773Y-71249592D01*
G37*
G36*
X155119360Y-72081703D02*
G01*
X155155950Y-71873900D01*
X155189336Y-71683990D01*
X155218788Y-71516143D01*
X155243574Y-71374528D01*
X155262966Y-71263313D01*
X155276232Y-71186668D01*
X155282643Y-71148761D01*
X155283131Y-71145409D01*
X155304573Y-71143407D01*
X155364531Y-71142553D01*
X155456466Y-71142816D01*
X155573833Y-71144165D01*
X155710091Y-71146569D01*
X155762063Y-71147677D01*
X155925732Y-71151747D01*
X156051728Y-71156213D01*
X156147453Y-71161815D01*
X156220308Y-71169292D01*
X156277694Y-71179384D01*
X156327012Y-71192831D01*
X156370933Y-71208535D01*
X156518192Y-71281217D01*
X156625309Y-71371776D01*
X156694924Y-71483905D01*
X156729683Y-71621298D01*
X156734906Y-71717249D01*
X156724786Y-71874571D01*
X156692726Y-72006175D01*
X156634257Y-72127892D01*
X156606921Y-72170800D01*
X156489846Y-72306366D01*
X156345480Y-72409591D01*
X156218039Y-72464088D01*
X156151374Y-72488020D01*
X156106517Y-72509708D01*
X156094494Y-72521363D01*
X156102805Y-72546661D01*
X156126075Y-72607289D01*
X156161811Y-72697018D01*
X156207519Y-72809619D01*
X156260706Y-72938862D01*
X156286065Y-72999949D01*
X156341716Y-73134221D01*
X156391011Y-73254247D01*
X156431466Y-73353885D01*
X156460594Y-73426993D01*
X156475911Y-73467431D01*
X156477635Y-73473332D01*
X156457036Y-73479906D01*
X156402977Y-73484615D01*
X156327066Y-73486459D01*
X156325420Y-73486460D01*
X156173206Y-73486460D01*
X155992989Y-73024824D01*
X155812773Y-72563189D01*
X155551520Y-72562801D01*
X155290268Y-72562413D01*
X155217227Y-72984995D01*
X155193711Y-73119836D01*
X155172164Y-73241134D01*
X155153983Y-73341195D01*
X155140566Y-73412323D01*
X155133313Y-73446825D01*
X155133260Y-73447019D01*
X155117044Y-73470810D01*
X155078242Y-73482894D01*
X155006113Y-73486448D01*
X154999896Y-73486460D01*
X154932478Y-73483647D01*
X154888010Y-73476401D01*
X154877463Y-73469556D01*
X154881271Y-73444724D01*
X154892204Y-73379717D01*
X154909532Y-73278744D01*
X154932521Y-73146016D01*
X154960439Y-72985741D01*
X154992555Y-72802131D01*
X155028136Y-72599394D01*
X155066450Y-72381740D01*
X155078289Y-72314613D01*
X155333729Y-72314613D01*
X155341988Y-72325297D01*
X155366488Y-72332138D01*
X155413321Y-72335692D01*
X155488584Y-72336516D01*
X155598371Y-72335166D01*
X155703586Y-72333132D01*
X155846645Y-72329662D01*
X155952706Y-72325327D01*
X156029849Y-72319153D01*
X156086150Y-72310163D01*
X156129688Y-72297384D01*
X156168542Y-72279840D01*
X156175510Y-72276182D01*
X156299138Y-72185815D01*
X156392949Y-72065646D01*
X156442861Y-71950122D01*
X156470666Y-71831457D01*
X156473419Y-71735056D01*
X156450422Y-71645250D01*
X156426925Y-71593739D01*
X156388717Y-71529394D01*
X156344182Y-71480841D01*
X156286541Y-71445755D01*
X156209015Y-71421812D01*
X156104827Y-71406686D01*
X155967196Y-71398055D01*
X155846265Y-71394609D01*
X155496616Y-71387497D01*
X155421949Y-71822826D01*
X155398221Y-71959846D01*
X155376384Y-72083491D01*
X155357813Y-72186161D01*
X155343885Y-72260257D01*
X155335976Y-72298177D01*
X155335614Y-72299529D01*
X155333729Y-72314613D01*
X155078289Y-72314613D01*
X155080297Y-72303230D01*
X155119360Y-72081703D01*
G37*
G36*
X153268912Y-68008247D02*
G01*
X153272098Y-68008676D01*
X153446748Y-68047744D01*
X153612069Y-68113428D01*
X153756222Y-68199989D01*
X153860734Y-68293996D01*
X153922397Y-68372438D01*
X153976135Y-68455885D01*
X154016326Y-68533789D01*
X154037346Y-68595603D01*
X154037182Y-68624970D01*
X154012048Y-68642067D01*
X153952748Y-68665898D01*
X153868999Y-68692901D01*
X153799070Y-68712292D01*
X153697423Y-68738280D01*
X153631065Y-68753192D01*
X153591739Y-68757583D01*
X153571183Y-68752010D01*
X153561140Y-68737029D01*
X153558212Y-68728514D01*
X153515684Y-68652508D01*
X153440682Y-68574531D01*
X153344012Y-68505200D01*
X153313785Y-68488392D01*
X153249612Y-68458238D01*
X153189413Y-68440059D01*
X153117883Y-68430945D01*
X153019719Y-68427985D01*
X152995559Y-68427876D01*
X152887801Y-68429759D01*
X152808519Y-68437914D01*
X152741239Y-68455303D01*
X152669482Y-68484888D01*
X152663847Y-68487500D01*
X152492804Y-68590942D01*
X152351944Y-68726037D01*
X152243467Y-68889099D01*
X152169572Y-69076442D01*
X152132460Y-69284383D01*
X152128345Y-69384596D01*
X152147152Y-69558283D01*
X152201737Y-69706249D01*
X152289188Y-69825899D01*
X152406593Y-69914641D01*
X152551040Y-69969881D01*
X152719618Y-69989027D01*
X152802675Y-69985167D01*
X152970316Y-69950107D01*
X153136351Y-69880151D01*
X153285722Y-69782826D01*
X153375753Y-69698642D01*
X153477759Y-69585186D01*
X153664875Y-69635084D01*
X153751916Y-69659446D01*
X153821979Y-69681198D01*
X153863768Y-69696750D01*
X153869755Y-69700175D01*
X153865997Y-69724164D01*
X153839806Y-69773668D01*
X153796585Y-69838748D01*
X153788156Y-69850341D01*
X153632115Y-70025376D01*
X153446314Y-70171302D01*
X153237603Y-70285306D01*
X153012835Y-70364572D01*
X152778860Y-70406286D01*
X152542531Y-70407633D01*
X152456458Y-70397428D01*
X152269419Y-70348802D01*
X152096871Y-70265423D01*
X151946470Y-70152630D01*
X151825869Y-70015759D01*
X151767371Y-69916995D01*
X151696928Y-69738215D01*
X151661784Y-69556892D01*
X151660923Y-69363163D01*
X151689862Y-69163903D01*
X151759749Y-68925063D01*
X151865813Y-68706686D01*
X152003861Y-68511834D01*
X152169698Y-68343570D01*
X152359130Y-68204955D01*
X152567961Y-68099053D01*
X152791999Y-68028926D01*
X153027047Y-67997637D01*
X153268912Y-68008247D01*
G37*
G36*
X151175261Y-72081703D02*
G01*
X151211851Y-71873900D01*
X151245237Y-71683990D01*
X151274688Y-71516143D01*
X151299475Y-71374528D01*
X151318867Y-71263313D01*
X151332133Y-71186668D01*
X151338543Y-71148761D01*
X151339032Y-71145409D01*
X151360473Y-71143407D01*
X151420432Y-71142553D01*
X151512366Y-71142816D01*
X151629733Y-71144165D01*
X151765991Y-71146569D01*
X151817963Y-71147677D01*
X152014229Y-71153684D01*
X152172043Y-71162967D01*
X152297993Y-71176960D01*
X152398666Y-71197097D01*
X152480647Y-71224812D01*
X152550525Y-71261538D01*
X152614885Y-71308711D01*
X152634470Y-71325437D01*
X152715633Y-71425180D01*
X152765960Y-71549067D01*
X152786679Y-71689563D01*
X152779019Y-71839133D01*
X152744209Y-71990240D01*
X152683478Y-72135350D01*
X152598054Y-72266926D01*
X152489167Y-72377434D01*
X152459192Y-72400334D01*
X152369964Y-72459234D01*
X152282482Y-72503627D01*
X152187922Y-72535651D01*
X152077457Y-72557447D01*
X151942262Y-72571153D01*
X151773511Y-72578909D01*
X151716544Y-72580362D01*
X151591800Y-72583734D01*
X151484442Y-72587783D01*
X151401842Y-72592136D01*
X151351372Y-72596422D01*
X151339037Y-72599389D01*
X151335299Y-72624773D01*
X151325092Y-72685948D01*
X151309926Y-72774339D01*
X151291313Y-72881373D01*
X151270763Y-72998478D01*
X151249786Y-73117079D01*
X151229894Y-73228603D01*
X151212597Y-73324477D01*
X151199406Y-73396128D01*
X151191831Y-73434982D01*
X151191662Y-73435750D01*
X151180030Y-73465175D01*
X151154014Y-73480395D01*
X151101628Y-73485920D01*
X151056886Y-73486460D01*
X150989128Y-73483671D01*
X150944262Y-73476479D01*
X150933363Y-73469556D01*
X150937171Y-73444724D01*
X150948105Y-73379717D01*
X150965433Y-73278744D01*
X150988422Y-73146016D01*
X151016340Y-72985741D01*
X151048456Y-72802131D01*
X151084037Y-72599394D01*
X151122350Y-72381740D01*
X151126260Y-72359574D01*
X151379226Y-72359574D01*
X151693107Y-72359574D01*
X151863445Y-72356757D01*
X151994746Y-72347998D01*
X152092713Y-72332832D01*
X152125109Y-72324496D01*
X152255179Y-72265238D01*
X152364570Y-72175370D01*
X152449201Y-72062875D01*
X152504989Y-71935732D01*
X152527854Y-71801922D01*
X152513714Y-71669427D01*
X152491954Y-71607211D01*
X152456367Y-71540146D01*
X152412383Y-71494545D01*
X152344127Y-71455021D01*
X152326079Y-71446451D01*
X152275220Y-71424397D01*
X152227086Y-71409061D01*
X152171972Y-71399232D01*
X152100170Y-71393698D01*
X152001974Y-71391247D01*
X151879370Y-71390673D01*
X151552001Y-71390452D01*
X151477264Y-71824303D01*
X151453422Y-71961863D01*
X151431496Y-72086798D01*
X151412879Y-72191287D01*
X151398966Y-72267512D01*
X151391150Y-72307650D01*
X151390877Y-72308864D01*
X151379226Y-72359574D01*
X151126260Y-72359574D01*
X151136198Y-72303230D01*
X151175261Y-72081703D01*
G37*
G36*
X154819623Y-71249592D02*
G01*
X154808578Y-71316035D01*
X154798219Y-71362795D01*
X154794374Y-71373549D01*
X154770212Y-71377880D01*
X154706719Y-71381801D01*
X154609639Y-71385163D01*
X154484716Y-71387820D01*
X154337694Y-71389623D01*
X154174317Y-71390425D01*
X154137427Y-71390452D01*
X153490207Y-71390452D01*
X153428535Y-71745421D01*
X153407622Y-71866874D01*
X153389781Y-71972542D01*
X153376320Y-72054527D01*
X153368542Y-72104931D01*
X153367147Y-72116870D01*
X153388703Y-72121891D01*
X153448934Y-72126839D01*
X153541440Y-72131428D01*
X153659821Y-72135370D01*
X153797676Y-72138378D01*
X153869119Y-72139408D01*
X154370808Y-72145466D01*
X154333248Y-72381274D01*
X153823618Y-72387327D01*
X153313987Y-72393381D01*
X153239860Y-72810328D01*
X153216594Y-72941318D01*
X153196258Y-73056041D01*
X153180087Y-73147520D01*
X153169314Y-73208778D01*
X153165171Y-73232838D01*
X153165162Y-73232910D01*
X153186619Y-73234342D01*
X153247565Y-73235640D01*
X153342414Y-73236756D01*
X153465581Y-73237641D01*
X153611480Y-73238249D01*
X153774525Y-73238531D01*
X153820694Y-73238545D01*
X154476795Y-73238545D01*
X154461817Y-73323061D01*
X154455288Y-73366614D01*
X154449744Y-73401721D01*
X154440690Y-73429284D01*
X154423628Y-73450204D01*
X154394063Y-73465386D01*
X154347497Y-73475730D01*
X154279434Y-73482140D01*
X154185378Y-73485517D01*
X154060833Y-73486765D01*
X153901301Y-73486785D01*
X153702286Y-73486481D01*
X153647634Y-73486460D01*
X153465693Y-73485987D01*
X153298912Y-73484645D01*
X153152431Y-73482545D01*
X153031394Y-73479800D01*
X152940941Y-73476520D01*
X152886216Y-73472819D01*
X152871607Y-73469556D01*
X152875414Y-73444724D01*
X152886348Y-73379717D01*
X152903676Y-73278744D01*
X152926665Y-73146016D01*
X152954583Y-72985741D01*
X152986699Y-72802131D01*
X153022280Y-72599394D01*
X153060594Y-72381740D01*
X153074441Y-72303230D01*
X153113494Y-72081810D01*
X153150076Y-71874204D01*
X153183455Y-71684566D01*
X153212903Y-71517053D01*
X153237689Y-71375821D01*
X153257084Y-71265025D01*
X153270358Y-71188822D01*
X153276781Y-71151367D01*
X153277275Y-71148172D01*
X153298959Y-71146853D01*
X153360585Y-71145644D01*
X153457021Y-71144582D01*
X153583135Y-71143704D01*
X153733794Y-71143046D01*
X153903866Y-71142647D01*
X154056212Y-71142538D01*
X154835144Y-71142538D01*
X154819623Y-71249592D01*
G37*
G36*
X160176034Y-71147117D02*
G01*
X160214791Y-71161131D01*
X160218905Y-71170710D01*
X160215134Y-71197059D01*
X160204419Y-71262627D01*
X160187661Y-71362243D01*
X160165763Y-71490739D01*
X160139625Y-71642945D01*
X160110149Y-71813692D01*
X160078237Y-71997811D01*
X160044791Y-72190132D01*
X160010712Y-72385486D01*
X159976902Y-72578704D01*
X159944262Y-72764617D01*
X159913695Y-72938055D01*
X159886101Y-73093849D01*
X159862383Y-73226830D01*
X159843441Y-73331829D01*
X159830178Y-73403675D01*
X159823835Y-73435750D01*
X159812046Y-73465182D01*
X159785894Y-73480403D01*
X159733368Y-73485924D01*
X159688830Y-73486460D01*
X159621071Y-73483671D01*
X159576205Y-73476479D01*
X159565307Y-73469556D01*
X159569115Y-73444724D01*
X159580048Y-73379717D01*
X159597376Y-73278744D01*
X159620365Y-73146016D01*
X159648283Y-72985741D01*
X159680399Y-72802131D01*
X159715980Y-72599394D01*
X159754294Y-72381740D01*
X159768141Y-72303230D01*
X159807194Y-72081810D01*
X159843776Y-71874204D01*
X159877155Y-71684566D01*
X159906603Y-71517053D01*
X159931389Y-71375821D01*
X159950784Y-71265025D01*
X159964058Y-71188822D01*
X159970481Y-71151367D01*
X159970975Y-71148172D01*
X159991371Y-71145085D01*
X160043973Y-71143039D01*
X160094938Y-71142538D01*
X160176034Y-71147117D01*
G37*
D10*
X180340000Y-129540000D03*
D11*
X181840000Y-125220000D03*
D12*
X178840000Y-125220000D03*
D13*
X223520000Y-71120000D03*
D14*
X223520000Y-66040000D03*
D10*
X210820000Y-127850000D03*
D15*
X210820000Y-120550000D03*
D16*
X210820000Y-115050000D03*
D17*
X95240000Y-115570000D03*
D18*
X95240000Y-113030000D03*
X95240000Y-110490000D03*
X95240000Y-107950000D03*
X95240000Y-105410000D03*
X95240000Y-102870000D03*
X95240000Y-100330000D03*
X95240000Y-97790000D03*
X95240000Y-95250000D03*
X95240000Y-92710000D03*
X95240000Y-90170000D03*
X95240000Y-87630000D03*
X95240000Y-85090000D03*
X95240000Y-82550000D03*
X95240000Y-80010000D03*
X80000000Y-80010000D03*
X80000000Y-82550000D03*
X80000000Y-85090000D03*
X80000000Y-87630000D03*
X80000000Y-90170000D03*
X80000000Y-92710000D03*
X80000000Y-95250000D03*
X80000000Y-97790000D03*
X80000000Y-100330000D03*
X80000000Y-102870000D03*
X80000000Y-105410000D03*
X80000000Y-107950000D03*
X80000000Y-110490000D03*
X80000000Y-113030000D03*
X80000000Y-115570000D03*
D13*
X223520000Y-85095000D03*
D14*
X223520000Y-80015000D03*
D19*
X222250000Y-128268106D03*
D20*
X110032800Y-110540800D03*
X212090000Y-71120000D03*
D21*
X107717500Y-90932000D03*
X105642500Y-90932000D03*
D22*
X181222000Y-102440000D03*
X181222000Y-105840000D03*
X191142000Y-105840000D03*
X191142000Y-102440000D03*
D23*
X114730000Y-90170000D03*
X114730000Y-91440000D03*
X114730000Y-92710000D03*
X114730000Y-93980000D03*
X114730000Y-95250000D03*
X114730000Y-96520000D03*
X114730000Y-97790000D03*
X114730000Y-99060000D03*
X114730000Y-100330000D03*
X124030000Y-100330000D03*
X124030000Y-99060000D03*
X124030000Y-97790000D03*
X124030000Y-96520000D03*
X124030000Y-95250000D03*
X124030000Y-93980000D03*
X124030000Y-92710000D03*
X124030000Y-91440000D03*
X124030000Y-90170000D03*
D24*
X166370000Y-99232323D03*
D25*
X166370000Y-104232323D03*
D10*
X167640000Y-129540000D03*
D11*
X169140000Y-125220000D03*
D12*
X166140000Y-125220000D03*
D26*
X122825000Y-104542500D03*
X124825000Y-104542500D03*
D10*
X142240000Y-129540000D03*
D11*
X143740000Y-125220000D03*
D12*
X140740000Y-125220000D03*
D27*
X208262000Y-74870000D03*
X208262000Y-67370000D03*
X198182000Y-67370000D03*
X198182000Y-74870000D03*
D28*
X182922000Y-74870000D03*
D29*
X182922000Y-67370000D03*
D27*
X203222000Y-74870000D03*
X203222000Y-67370000D03*
D13*
X223520000Y-105410000D03*
D14*
X223520000Y-100330000D03*
D30*
X110744000Y-80285500D03*
X110744000Y-78210500D03*
D31*
X152400000Y-92710000D03*
D32*
X144780000Y-92710000D03*
D33*
X106680000Y-124460000D03*
D34*
X104140000Y-124460000D03*
D10*
X154940000Y-129540000D03*
D11*
X156440000Y-125220000D03*
D12*
X153440000Y-125220000D03*
D35*
X106680000Y-95975000D03*
X106680000Y-100855000D03*
D36*
X166370000Y-80890000D03*
X166370000Y-89290000D03*
D37*
X120650000Y-129545000D03*
X113030000Y-129545000D03*
D38*
X119380000Y-120905000D03*
D39*
X116840000Y-120905000D03*
X114300000Y-120905000D03*
D13*
X223520000Y-119380000D03*
D14*
X223520000Y-114300000D03*
D40*
X193040000Y-131953000D03*
X198120000Y-131953000D03*
X200279000Y-119253000D03*
X195580000Y-119253000D03*
X190881000Y-119253000D03*
X200279000Y-115443000D03*
X195580000Y-115443000D03*
X190881000Y-115443000D03*
D37*
X125730000Y-129545000D03*
X133350000Y-129545000D03*
D38*
X132080000Y-120905000D03*
D39*
X129540000Y-120905000D03*
X127000000Y-120905000D03*
D20*
X136601200Y-92049600D03*
D13*
X223520000Y-95250000D03*
D14*
X223520000Y-90170000D03*
D41*
X116905000Y-107950000D03*
X116905000Y-109220000D03*
X116905000Y-110490000D03*
X116905000Y-111760000D03*
X121855000Y-111760000D03*
X121855000Y-110490000D03*
X121855000Y-109220000D03*
X121855000Y-107950000D03*
D33*
X99060000Y-58420000D03*
D34*
X99060000Y-60960000D03*
X99060000Y-63500000D03*
X99060000Y-66040000D03*
D26*
X104410000Y-117729000D03*
X106410000Y-117729000D03*
D42*
X167950000Y-62540000D03*
D43*
X166650000Y-60040000D03*
X166650000Y-58040000D03*
X164650000Y-60040000D03*
X164650000Y-58040000D03*
X162650000Y-60040000D03*
X162650000Y-58040000D03*
X160650000Y-60040000D03*
X160650000Y-58040000D03*
X158650000Y-60040000D03*
X158650000Y-58040000D03*
X156650000Y-60040000D03*
X156650000Y-58040000D03*
X154650000Y-60040000D03*
X154650000Y-58040000D03*
X152650000Y-60040000D03*
X152650000Y-58040000D03*
X150650000Y-60040000D03*
X150650000Y-58040000D03*
X148650000Y-60040000D03*
X148650000Y-58040000D03*
D44*
X128016000Y-80248000D03*
X128016000Y-78248000D03*
D45*
X156718000Y-87376000D03*
X141478000Y-77216000D03*
D46*
X90760000Y-129338500D03*
X97770000Y-129338500D03*
D47*
X96520000Y-131828500D03*
X92020000Y-131828500D03*
D19*
X222250000Y-57118674D03*
X82533637Y-57118674D03*
D20*
X119380000Y-81615677D03*
D48*
X119380000Y-76615677D03*
D27*
X208262000Y-85023000D03*
X208262000Y-92523000D03*
X198182000Y-92523000D03*
X198182000Y-85023000D03*
D28*
X182922000Y-92523000D03*
D29*
X182922000Y-85023000D03*
D27*
X203222000Y-85023000D03*
X203222000Y-92523000D03*
D21*
X115972500Y-104775000D03*
X113897500Y-104775000D03*
D19*
X82550000Y-128270000D03*
D22*
X200018000Y-105840000D03*
X200018000Y-102440000D03*
X209938000Y-102440000D03*
X209938000Y-105840000D03*
D21*
X107717500Y-105918000D03*
X105642500Y-105918000D03*
D49*
X151990000Y-99320000D03*
X150290000Y-99320000D03*
D50*
X148590000Y-108470000D03*
D49*
X148590000Y-99320000D03*
X146890000Y-99320000D03*
X145190000Y-99320000D03*
M02*
