G04 #@! TF.GenerationSoftware,KiCad,Pcbnew,(6.0.8-1)-1*
G04 #@! TF.CreationDate,2022-12-30T12:25:55-08:00*
G04 #@! TF.ProjectId,Urban Battery - BMS_complement,55726261-6e20-4426-9174-74657279202d,rev?*
G04 #@! TF.SameCoordinates,Original*
G04 #@! TF.FileFunction,Soldermask,Bot*
G04 #@! TF.FilePolarity,Negative*
%FSLAX46Y46*%
G04 Gerber Fmt 4.6, Leading zero omitted, Abs format (unit mm)*
G04 Created by KiCad (PCBNEW (6.0.8-1)-1) date 2022-12-30 12:25:55*
%MOMM*%
%LPD*%
G01*
G04 APERTURE LIST*
G04 Aperture macros list*
%AMRoundRect*
0 Rectangle with rounded corners*
0 $1 Rounding radius*
0 $2 $3 $4 $5 $6 $7 $8 $9 X,Y pos of 4 corners*
0 Add a 4 corners polygon primitive as box body*
4,1,4,$2,$3,$4,$5,$6,$7,$8,$9,$2,$3,0*
0 Add four circle primitives for the rounded corners*
1,1,$1+$1,$2,$3*
1,1,$1+$1,$4,$5*
1,1,$1+$1,$6,$7*
1,1,$1+$1,$8,$9*
0 Add four rect primitives between the rounded corners*
20,1,$1+$1,$2,$3,$4,$5,0*
20,1,$1+$1,$4,$5,$6,$7,0*
20,1,$1+$1,$6,$7,$8,$9,0*
20,1,$1+$1,$8,$9,$2,$3,0*%
G04 Aperture macros list end*
%ADD10C,3.000000*%
%ADD11RoundRect,0.250001X0.499999X0.759999X-0.499999X0.759999X-0.499999X-0.759999X0.499999X-0.759999X0*%
%ADD12O,1.500000X2.020000*%
%ADD13R,2.600000X2.600000*%
%ADD14C,2.600000*%
%ADD15R,1.600000X1.600000*%
%ADD16O,1.600000X1.600000*%
%ADD17C,3.200000*%
%ADD18C,2.780000*%
%ADD19R,2.400000X2.400000*%
%ADD20C,2.400000*%
%ADD21O,2.000000X3.000000*%
%ADD22R,3.000000X2.000000*%
%ADD23O,3.000000X2.000000*%
%ADD24R,2.200000X2.200000*%
%ADD25O,2.200000X2.200000*%
%ADD26R,1.700000X1.700000*%
%ADD27O,1.700000X1.700000*%
%ADD28C,1.500000*%
%ADD29C,3.400000*%
%ADD30R,1.690000X1.690000*%
%ADD31C,1.690000*%
%ADD32C,2.616200*%
%ADD33RoundRect,0.250000X0.350000X0.350000X-0.350000X0.350000X-0.350000X-0.350000X0.350000X-0.350000X0*%
%ADD34C,1.200000*%
%ADD35C,1.900000*%
%ADD36C,2.100000*%
%ADD37C,1.750000*%
%ADD38R,2.000000X2.000000*%
%ADD39C,2.000000*%
G04 APERTURE END LIST*
D10*
X180340000Y-129540000D03*
D11*
X181840000Y-125220000D03*
D12*
X178840000Y-125220000D03*
D13*
X223520000Y-71120000D03*
D14*
X223520000Y-66040000D03*
D10*
X210820000Y-129540000D03*
D11*
X212320000Y-125220000D03*
D12*
X209320000Y-125220000D03*
D15*
X95240000Y-115570000D03*
D16*
X95240000Y-113030000D03*
X95240000Y-110490000D03*
X95240000Y-107950000D03*
X95240000Y-105410000D03*
X95240000Y-102870000D03*
X95240000Y-100330000D03*
X95240000Y-97790000D03*
X95240000Y-95250000D03*
X95240000Y-92710000D03*
X95240000Y-90170000D03*
X95240000Y-87630000D03*
X95240000Y-85090000D03*
X95240000Y-82550000D03*
X95240000Y-80010000D03*
X80000000Y-80010000D03*
X80000000Y-82550000D03*
X80000000Y-85090000D03*
X80000000Y-87630000D03*
X80000000Y-90170000D03*
X80000000Y-92710000D03*
X80000000Y-95250000D03*
X80000000Y-97790000D03*
X80000000Y-100330000D03*
X80000000Y-102870000D03*
X80000000Y-105410000D03*
X80000000Y-107950000D03*
X80000000Y-110490000D03*
X80000000Y-113030000D03*
X80000000Y-115570000D03*
D13*
X223520000Y-85095000D03*
D14*
X223520000Y-80015000D03*
D17*
X222250000Y-128268106D03*
D18*
X181222000Y-102440000D03*
X181222000Y-105840000D03*
X191142000Y-105840000D03*
X191142000Y-102440000D03*
D19*
X166370000Y-99232323D03*
D20*
X166370000Y-104232323D03*
D10*
X167640000Y-129540000D03*
D11*
X169140000Y-125220000D03*
D12*
X166140000Y-125220000D03*
D10*
X142240000Y-129540000D03*
D11*
X143740000Y-125220000D03*
D12*
X140740000Y-125220000D03*
D21*
X208262000Y-74870000D03*
X208262000Y-67370000D03*
X198182000Y-67370000D03*
X198182000Y-74870000D03*
D22*
X182922000Y-74870000D03*
D23*
X182922000Y-67370000D03*
D21*
X203222000Y-74870000D03*
X203222000Y-67370000D03*
D13*
X223520000Y-105410000D03*
D14*
X223520000Y-100330000D03*
D24*
X152400000Y-92710000D03*
D25*
X144780000Y-92710000D03*
D26*
X106680000Y-124460000D03*
D27*
X104140000Y-124460000D03*
D10*
X154940000Y-129540000D03*
D11*
X156440000Y-125220000D03*
D12*
X153440000Y-125220000D03*
D28*
X106680000Y-95975000D03*
X106680000Y-100855000D03*
D29*
X120650000Y-129545000D03*
X113030000Y-129545000D03*
D30*
X119380000Y-120905000D03*
D31*
X116840000Y-120905000D03*
X114300000Y-120905000D03*
D13*
X223520000Y-119380000D03*
D14*
X223520000Y-114300000D03*
D32*
X193040000Y-131953000D03*
X198120000Y-131953000D03*
X200279000Y-119253000D03*
X195580000Y-119253000D03*
X190881000Y-119253000D03*
X200279000Y-115443000D03*
X195580000Y-115443000D03*
X190881000Y-115443000D03*
D29*
X125730000Y-129545000D03*
X133350000Y-129545000D03*
D30*
X132080000Y-120905000D03*
D31*
X129540000Y-120905000D03*
X127000000Y-120905000D03*
D13*
X223520000Y-95250000D03*
D14*
X223520000Y-90170000D03*
D26*
X99060000Y-58420000D03*
D27*
X99060000Y-60960000D03*
X99060000Y-63500000D03*
X99060000Y-66040000D03*
D33*
X166480000Y-60080000D03*
D34*
X166480000Y-58080000D03*
X164480000Y-60080000D03*
X164480000Y-58080000D03*
X162480000Y-60080000D03*
X162480000Y-58080000D03*
X160480000Y-60080000D03*
X160480000Y-58080000D03*
X158480000Y-60080000D03*
X158480000Y-58080000D03*
X156480000Y-60080000D03*
X156480000Y-58080000D03*
X154480000Y-60080000D03*
X154480000Y-58080000D03*
X152480000Y-60080000D03*
X152480000Y-58080000D03*
X150480000Y-60080000D03*
X150480000Y-58080000D03*
X148480000Y-60080000D03*
X148480000Y-58080000D03*
D35*
X156718000Y-87376000D03*
X141478000Y-77216000D03*
D36*
X90760000Y-129338500D03*
X97770000Y-129338500D03*
D37*
X96520000Y-131828500D03*
X92020000Y-131828500D03*
D17*
X222250000Y-57118674D03*
X82533637Y-57118674D03*
D38*
X119380000Y-81615677D03*
D39*
X119380000Y-76615677D03*
D21*
X208262000Y-85023000D03*
X208262000Y-92523000D03*
X198182000Y-92523000D03*
X198182000Y-85023000D03*
D22*
X182922000Y-92523000D03*
D23*
X182922000Y-85023000D03*
D21*
X203222000Y-85023000D03*
X203222000Y-92523000D03*
D17*
X82550000Y-128270000D03*
D18*
X200018000Y-105840000D03*
X200018000Y-102440000D03*
X209938000Y-102440000D03*
X209938000Y-105840000D03*
M02*
