G04 #@! TF.GenerationSoftware,KiCad,Pcbnew,(6.0.8-1)-1*
G04 #@! TF.CreationDate,2022-12-30T12:25:55-08:00*
G04 #@! TF.ProjectId,Urban Battery - BMS_complement,55726261-6e20-4426-9174-74657279202d,rev?*
G04 #@! TF.SameCoordinates,Original*
G04 #@! TF.FileFunction,Legend,Top*
G04 #@! TF.FilePolarity,Positive*
%FSLAX46Y46*%
G04 Gerber Fmt 4.6, Leading zero omitted, Abs format (unit mm)*
G04 Created by KiCad (PCBNEW (6.0.8-1)-1) date 2022-12-30 12:25:55*
%MOMM*%
%LPD*%
G01*
G04 APERTURE LIST*
G04 Aperture macros list*
%AMRoundRect*
0 Rectangle with rounded corners*
0 $1 Rounding radius*
0 $2 $3 $4 $5 $6 $7 $8 $9 X,Y pos of 4 corners*
0 Add a 4 corners polygon primitive as box body*
4,1,4,$2,$3,$4,$5,$6,$7,$8,$9,$2,$3,0*
0 Add four circle primitives for the rounded corners*
1,1,$1+$1,$2,$3*
1,1,$1+$1,$4,$5*
1,1,$1+$1,$6,$7*
1,1,$1+$1,$8,$9*
0 Add four rect primitives between the rounded corners*
20,1,$1+$1,$2,$3,$4,$5,0*
20,1,$1+$1,$4,$5,$6,$7,0*
20,1,$1+$1,$6,$7,$8,$9,0*
20,1,$1+$1,$8,$9,$2,$3,0*%
G04 Aperture macros list end*
%ADD10C,0.150000*%
%ADD11C,0.200000*%
%ADD12C,0.300000*%
%ADD13C,0.120000*%
%ADD14C,0.100000*%
%ADD15C,3.000000*%
%ADD16RoundRect,0.250001X0.499999X0.759999X-0.499999X0.759999X-0.499999X-0.759999X0.499999X-0.759999X0*%
%ADD17O,1.500000X2.020000*%
%ADD18R,2.600000X2.600000*%
%ADD19C,2.600000*%
%ADD20R,1.600000X1.600000*%
%ADD21O,1.600000X1.600000*%
%ADD22C,3.200000*%
%ADD23R,2.000000X2.000000*%
%ADD24RoundRect,0.250000X0.337500X0.475000X-0.337500X0.475000X-0.337500X-0.475000X0.337500X-0.475000X0*%
%ADD25C,2.780000*%
%ADD26RoundRect,0.150000X-0.875000X-0.150000X0.875000X-0.150000X0.875000X0.150000X-0.875000X0.150000X0*%
%ADD27R,2.400000X2.400000*%
%ADD28C,2.400000*%
%ADD29RoundRect,0.250000X-0.350000X-0.450000X0.350000X-0.450000X0.350000X0.450000X-0.350000X0.450000X0*%
%ADD30O,2.000000X3.000000*%
%ADD31R,3.000000X2.000000*%
%ADD32O,3.000000X2.000000*%
%ADD33RoundRect,0.250000X0.475000X-0.337500X0.475000X0.337500X-0.475000X0.337500X-0.475000X-0.337500X0*%
%ADD34R,2.200000X2.200000*%
%ADD35O,2.200000X2.200000*%
%ADD36R,1.700000X1.700000*%
%ADD37O,1.700000X1.700000*%
%ADD38C,1.500000*%
%ADD39RoundRect,0.250000X-1.000000X1.950000X-1.000000X-1.950000X1.000000X-1.950000X1.000000X1.950000X0*%
%ADD40C,3.400000*%
%ADD41R,1.690000X1.690000*%
%ADD42C,1.690000*%
%ADD43C,2.616200*%
%ADD44RoundRect,0.150000X-0.825000X-0.150000X0.825000X-0.150000X0.825000X0.150000X-0.825000X0.150000X0*%
%ADD45RoundRect,0.250000X0.350000X0.350000X-0.350000X0.350000X-0.350000X-0.350000X0.350000X-0.350000X0*%
%ADD46C,1.200000*%
%ADD47RoundRect,0.250000X0.450000X-0.350000X0.450000X0.350000X-0.450000X0.350000X-0.450000X-0.350000X0*%
%ADD48C,1.900000*%
%ADD49C,2.100000*%
%ADD50C,1.750000*%
%ADD51C,2.000000*%
%ADD52R,1.100000X4.600000*%
%ADD53R,10.800000X9.400000*%
G04 APERTURE END LIST*
D10*
X111506000Y-119126000D02*
X134874000Y-119126000D01*
X134874000Y-119126000D02*
X134874000Y-115570000D01*
X134874000Y-115570000D02*
X111506000Y-115570000D01*
X111506000Y-115570000D02*
X111506000Y-119126000D01*
D11*
X137160000Y-122936000D02*
X185420000Y-122936000D01*
X185420000Y-122936000D02*
X185420000Y-119380000D01*
X185420000Y-119380000D02*
X137160000Y-119380000D01*
X137160000Y-119380000D02*
X137160000Y-122936000D01*
D10*
X217170000Y-77216000D02*
X213614000Y-77216000D01*
X213614000Y-77216000D02*
X213614000Y-108204000D01*
X213614000Y-108204000D02*
X217170000Y-108204000D01*
X217170000Y-108204000D02*
X217170000Y-77216000D01*
D12*
X157218571Y-121050857D02*
X157718571Y-121050857D01*
X157932857Y-121836571D02*
X157218571Y-121836571D01*
X157218571Y-120336571D01*
X157932857Y-120336571D01*
X158575714Y-121265142D02*
X159718571Y-121265142D01*
X160361428Y-121765142D02*
X160575714Y-121836571D01*
X160932857Y-121836571D01*
X161075714Y-121765142D01*
X161147142Y-121693714D01*
X161218571Y-121550857D01*
X161218571Y-121408000D01*
X161147142Y-121265142D01*
X161075714Y-121193714D01*
X160932857Y-121122285D01*
X160647142Y-121050857D01*
X160504285Y-120979428D01*
X160432857Y-120908000D01*
X160361428Y-120765142D01*
X160361428Y-120622285D01*
X160432857Y-120479428D01*
X160504285Y-120408000D01*
X160647142Y-120336571D01*
X161004285Y-120336571D01*
X161218571Y-120408000D01*
X161647142Y-120336571D02*
X162504285Y-120336571D01*
X162075714Y-121836571D02*
X162075714Y-120336571D01*
X163290000Y-120336571D02*
X163575714Y-120336571D01*
X163718571Y-120408000D01*
X163861428Y-120550857D01*
X163932857Y-120836571D01*
X163932857Y-121336571D01*
X163861428Y-121622285D01*
X163718571Y-121765142D01*
X163575714Y-121836571D01*
X163290000Y-121836571D01*
X163147142Y-121765142D01*
X163004285Y-121622285D01*
X162932857Y-121336571D01*
X162932857Y-120836571D01*
X163004285Y-120550857D01*
X163147142Y-120408000D01*
X163290000Y-120336571D01*
X164575714Y-121836571D02*
X164575714Y-120336571D01*
X165147142Y-120336571D01*
X165290000Y-120408000D01*
X165361428Y-120479428D01*
X165432857Y-120622285D01*
X165432857Y-120836571D01*
X165361428Y-120979428D01*
X165290000Y-121050857D01*
X165147142Y-121122285D01*
X164575714Y-121122285D01*
X214570571Y-99388571D02*
X214570571Y-98531428D01*
X216070571Y-98960000D02*
X214570571Y-98960000D01*
X216070571Y-98031428D02*
X214570571Y-98031428D01*
X215284857Y-98031428D02*
X215284857Y-97174285D01*
X216070571Y-97174285D02*
X214570571Y-97174285D01*
X215284857Y-96460000D02*
X215284857Y-95960000D01*
X216070571Y-95745714D02*
X216070571Y-96460000D01*
X214570571Y-96460000D01*
X214570571Y-95745714D01*
X216070571Y-94245714D02*
X215356285Y-94745714D01*
X216070571Y-95102857D02*
X214570571Y-95102857D01*
X214570571Y-94531428D01*
X214642000Y-94388571D01*
X214713428Y-94317142D01*
X214856285Y-94245714D01*
X215070571Y-94245714D01*
X215213428Y-94317142D01*
X215284857Y-94388571D01*
X215356285Y-94531428D01*
X215356285Y-95102857D01*
X216070571Y-93602857D02*
X214570571Y-93602857D01*
X215642000Y-93102857D01*
X214570571Y-92602857D01*
X216070571Y-92602857D01*
X216070571Y-91888571D02*
X214570571Y-91888571D01*
X215999142Y-91245714D02*
X216070571Y-91031428D01*
X216070571Y-90674285D01*
X215999142Y-90531428D01*
X215927714Y-90460000D01*
X215784857Y-90388571D01*
X215642000Y-90388571D01*
X215499142Y-90460000D01*
X215427714Y-90531428D01*
X215356285Y-90674285D01*
X215284857Y-90960000D01*
X215213428Y-91102857D01*
X215142000Y-91174285D01*
X214999142Y-91245714D01*
X214856285Y-91245714D01*
X214713428Y-91174285D01*
X214642000Y-91102857D01*
X214570571Y-90960000D01*
X214570571Y-90602857D01*
X214642000Y-90388571D01*
X214570571Y-89960000D02*
X214570571Y-89102857D01*
X216070571Y-89531428D02*
X214570571Y-89531428D01*
X214570571Y-88317142D02*
X214570571Y-88031428D01*
X214642000Y-87888571D01*
X214784857Y-87745714D01*
X215070571Y-87674285D01*
X215570571Y-87674285D01*
X215856285Y-87745714D01*
X215999142Y-87888571D01*
X216070571Y-88031428D01*
X216070571Y-88317142D01*
X215999142Y-88460000D01*
X215856285Y-88602857D01*
X215570571Y-88674285D01*
X215070571Y-88674285D01*
X214784857Y-88602857D01*
X214642000Y-88460000D01*
X214570571Y-88317142D01*
X216070571Y-86174285D02*
X215356285Y-86674285D01*
X216070571Y-87031428D02*
X214570571Y-87031428D01*
X214570571Y-86460000D01*
X214642000Y-86317142D01*
X214713428Y-86245714D01*
X214856285Y-86174285D01*
X215070571Y-86174285D01*
X215213428Y-86245714D01*
X215284857Y-86317142D01*
X215356285Y-86460000D01*
X215356285Y-87031428D01*
D10*
X215277571Y-70826000D02*
X215325190Y-70683142D01*
X215372809Y-70635523D01*
X215468047Y-70587904D01*
X215610904Y-70587904D01*
X215706142Y-70635523D01*
X215753761Y-70683142D01*
X215801380Y-70778380D01*
X215801380Y-71159333D01*
X214801380Y-71159333D01*
X214801380Y-70826000D01*
X214849000Y-70730761D01*
X214896619Y-70683142D01*
X214991857Y-70635523D01*
X215087095Y-70635523D01*
X215182333Y-70683142D01*
X215229952Y-70730761D01*
X215277571Y-70826000D01*
X215277571Y-71159333D01*
X215515666Y-70206952D02*
X215515666Y-69730761D01*
X215801380Y-70302190D02*
X214801380Y-69968857D01*
X215801380Y-69635523D01*
X214801380Y-69445047D02*
X214801380Y-68873619D01*
X215801380Y-69159333D02*
X214801380Y-69159333D01*
X214801380Y-68683142D02*
X214801380Y-68111714D01*
X215801380Y-68397428D02*
X214801380Y-68397428D01*
X215277571Y-67778380D02*
X215277571Y-67445047D01*
X215801380Y-67302190D02*
X215801380Y-67778380D01*
X214801380Y-67778380D01*
X214801380Y-67302190D01*
X215801380Y-66302190D02*
X215325190Y-66635523D01*
X215801380Y-66873619D02*
X214801380Y-66873619D01*
X214801380Y-66492666D01*
X214849000Y-66397428D01*
X214896619Y-66349809D01*
X214991857Y-66302190D01*
X215134714Y-66302190D01*
X215229952Y-66349809D01*
X215277571Y-66397428D01*
X215325190Y-66492666D01*
X215325190Y-66873619D01*
X215325190Y-65683142D02*
X215801380Y-65683142D01*
X214801380Y-66016476D02*
X215325190Y-65683142D01*
X214801380Y-65349809D01*
X217030428Y-71230761D02*
X217030428Y-70468857D01*
X217411380Y-70849809D02*
X216649476Y-70849809D01*
X217030428Y-66183142D02*
X217030428Y-65421238D01*
D12*
X122225714Y-117883714D02*
X122154285Y-117955142D01*
X121940000Y-118026571D01*
X121797142Y-118026571D01*
X121582857Y-117955142D01*
X121440000Y-117812285D01*
X121368571Y-117669428D01*
X121297142Y-117383714D01*
X121297142Y-117169428D01*
X121368571Y-116883714D01*
X121440000Y-116740857D01*
X121582857Y-116598000D01*
X121797142Y-116526571D01*
X121940000Y-116526571D01*
X122154285Y-116598000D01*
X122225714Y-116669428D01*
X122797142Y-117598000D02*
X123511428Y-117598000D01*
X122654285Y-118026571D02*
X123154285Y-116526571D01*
X123654285Y-118026571D01*
X124154285Y-118026571D02*
X124154285Y-116526571D01*
X125011428Y-118026571D01*
X125011428Y-116526571D01*
D10*
X190013214Y-56098285D02*
X190184642Y-56155428D01*
X190241785Y-56212571D01*
X190298928Y-56326857D01*
X190298928Y-56498285D01*
X190241785Y-56612571D01*
X190184642Y-56669714D01*
X190070357Y-56726857D01*
X189613214Y-56726857D01*
X189613214Y-55526857D01*
X190013214Y-55526857D01*
X190127500Y-55584000D01*
X190184642Y-55641142D01*
X190241785Y-55755428D01*
X190241785Y-55869714D01*
X190184642Y-55984000D01*
X190127500Y-56041142D01*
X190013214Y-56098285D01*
X189613214Y-56098285D01*
X190813214Y-56726857D02*
X190813214Y-55526857D01*
X191213214Y-56384000D01*
X191613214Y-55526857D01*
X191613214Y-56726857D01*
X192127500Y-56669714D02*
X192298928Y-56726857D01*
X192584642Y-56726857D01*
X192698928Y-56669714D01*
X192756071Y-56612571D01*
X192813214Y-56498285D01*
X192813214Y-56384000D01*
X192756071Y-56269714D01*
X192698928Y-56212571D01*
X192584642Y-56155428D01*
X192356071Y-56098285D01*
X192241785Y-56041142D01*
X192184642Y-55984000D01*
X192127500Y-55869714D01*
X192127500Y-55755428D01*
X192184642Y-55641142D01*
X192241785Y-55584000D01*
X192356071Y-55526857D01*
X192641785Y-55526857D01*
X192813214Y-55584000D01*
X194927500Y-56612571D02*
X194870357Y-56669714D01*
X194698928Y-56726857D01*
X194584642Y-56726857D01*
X194413214Y-56669714D01*
X194298928Y-56555428D01*
X194241785Y-56441142D01*
X194184642Y-56212571D01*
X194184642Y-56041142D01*
X194241785Y-55812571D01*
X194298928Y-55698285D01*
X194413214Y-55584000D01*
X194584642Y-55526857D01*
X194698928Y-55526857D01*
X194870357Y-55584000D01*
X194927500Y-55641142D01*
X195613214Y-56726857D02*
X195498928Y-56669714D01*
X195441785Y-56612571D01*
X195384642Y-56498285D01*
X195384642Y-56155428D01*
X195441785Y-56041142D01*
X195498928Y-55984000D01*
X195613214Y-55926857D01*
X195784642Y-55926857D01*
X195898928Y-55984000D01*
X195956071Y-56041142D01*
X196013214Y-56155428D01*
X196013214Y-56498285D01*
X195956071Y-56612571D01*
X195898928Y-56669714D01*
X195784642Y-56726857D01*
X195613214Y-56726857D01*
X196527500Y-56726857D02*
X196527500Y-55926857D01*
X196527500Y-56041142D02*
X196584642Y-55984000D01*
X196698928Y-55926857D01*
X196870357Y-55926857D01*
X196984642Y-55984000D01*
X197041785Y-56098285D01*
X197041785Y-56726857D01*
X197041785Y-56098285D02*
X197098928Y-55984000D01*
X197213214Y-55926857D01*
X197384642Y-55926857D01*
X197498928Y-55984000D01*
X197556071Y-56098285D01*
X197556071Y-56726857D01*
X198127500Y-55926857D02*
X198127500Y-57126857D01*
X198127500Y-55984000D02*
X198241785Y-55926857D01*
X198470357Y-55926857D01*
X198584642Y-55984000D01*
X198641785Y-56041142D01*
X198698928Y-56155428D01*
X198698928Y-56498285D01*
X198641785Y-56612571D01*
X198584642Y-56669714D01*
X198470357Y-56726857D01*
X198241785Y-56726857D01*
X198127500Y-56669714D01*
X199384642Y-56726857D02*
X199270357Y-56669714D01*
X199213214Y-56555428D01*
X199213214Y-55526857D01*
X200298928Y-56669714D02*
X200184642Y-56726857D01*
X199956071Y-56726857D01*
X199841785Y-56669714D01*
X199784642Y-56555428D01*
X199784642Y-56098285D01*
X199841785Y-55984000D01*
X199956071Y-55926857D01*
X200184642Y-55926857D01*
X200298928Y-55984000D01*
X200356071Y-56098285D01*
X200356071Y-56212571D01*
X199784642Y-56326857D01*
X200870357Y-56726857D02*
X200870357Y-55926857D01*
X200870357Y-56041142D02*
X200927500Y-55984000D01*
X201041785Y-55926857D01*
X201213214Y-55926857D01*
X201327500Y-55984000D01*
X201384642Y-56098285D01*
X201384642Y-56726857D01*
X201384642Y-56098285D02*
X201441785Y-55984000D01*
X201556071Y-55926857D01*
X201727500Y-55926857D01*
X201841785Y-55984000D01*
X201898928Y-56098285D01*
X201898928Y-56726857D01*
X202927500Y-56669714D02*
X202813214Y-56726857D01*
X202584642Y-56726857D01*
X202470357Y-56669714D01*
X202413214Y-56555428D01*
X202413214Y-56098285D01*
X202470357Y-55984000D01*
X202584642Y-55926857D01*
X202813214Y-55926857D01*
X202927500Y-55984000D01*
X202984642Y-56098285D01*
X202984642Y-56212571D01*
X202413214Y-56326857D01*
X203498928Y-55926857D02*
X203498928Y-56726857D01*
X203498928Y-56041142D02*
X203556071Y-55984000D01*
X203670357Y-55926857D01*
X203841785Y-55926857D01*
X203956071Y-55984000D01*
X204013214Y-56098285D01*
X204013214Y-56726857D01*
X204413214Y-55926857D02*
X204870357Y-55926857D01*
X204584642Y-55526857D02*
X204584642Y-56555428D01*
X204641785Y-56669714D01*
X204756071Y-56726857D01*
X204870357Y-56726857D01*
X206013214Y-55526857D02*
X206413214Y-56726857D01*
X206813214Y-55526857D01*
X207841785Y-56726857D02*
X207156071Y-56726857D01*
X207498928Y-56726857D02*
X207498928Y-55526857D01*
X207384642Y-55698285D01*
X207270357Y-55812571D01*
X207156071Y-55869714D01*
X208356071Y-56612571D02*
X208413214Y-56669714D01*
X208356071Y-56726857D01*
X208298928Y-56669714D01*
X208356071Y-56612571D01*
X208356071Y-56726857D01*
X209156071Y-55526857D02*
X209270357Y-55526857D01*
X209384642Y-55584000D01*
X209441785Y-55641142D01*
X209498928Y-55755428D01*
X209556071Y-55984000D01*
X209556071Y-56269714D01*
X209498928Y-56498285D01*
X209441785Y-56612571D01*
X209384642Y-56669714D01*
X209270357Y-56726857D01*
X209156071Y-56726857D01*
X209041785Y-56669714D01*
X208984642Y-56612571D01*
X208927500Y-56498285D01*
X208870357Y-56269714D01*
X208870357Y-55984000D01*
X208927500Y-55755428D01*
X208984642Y-55641142D01*
X209041785Y-55584000D01*
X209156071Y-55526857D01*
X189613214Y-58658857D02*
X189613214Y-57458857D01*
X189898928Y-57458857D01*
X190070357Y-57516000D01*
X190184642Y-57630285D01*
X190241785Y-57744571D01*
X190298928Y-57973142D01*
X190298928Y-58144571D01*
X190241785Y-58373142D01*
X190184642Y-58487428D01*
X190070357Y-58601714D01*
X189898928Y-58658857D01*
X189613214Y-58658857D01*
X191270357Y-58601714D02*
X191156071Y-58658857D01*
X190927500Y-58658857D01*
X190813214Y-58601714D01*
X190756071Y-58487428D01*
X190756071Y-58030285D01*
X190813214Y-57916000D01*
X190927500Y-57858857D01*
X191156071Y-57858857D01*
X191270357Y-57916000D01*
X191327500Y-58030285D01*
X191327500Y-58144571D01*
X190756071Y-58258857D01*
X192356071Y-58601714D02*
X192241785Y-58658857D01*
X192013214Y-58658857D01*
X191898928Y-58601714D01*
X191841785Y-58544571D01*
X191784642Y-58430285D01*
X191784642Y-58087428D01*
X191841785Y-57973142D01*
X191898928Y-57916000D01*
X192013214Y-57858857D01*
X192241785Y-57858857D01*
X192356071Y-57916000D01*
X194413214Y-58658857D02*
X193727500Y-58658857D01*
X194070357Y-58658857D02*
X194070357Y-57458857D01*
X193956071Y-57630285D01*
X193841785Y-57744571D01*
X193727500Y-57801714D01*
X195441785Y-57858857D02*
X195441785Y-58658857D01*
X195156071Y-57401714D02*
X194870357Y-58258857D01*
X195613214Y-58258857D01*
X196127500Y-58601714D02*
X196127500Y-58658857D01*
X196070357Y-58773142D01*
X196013214Y-58830285D01*
X197498928Y-57573142D02*
X197556071Y-57516000D01*
X197670357Y-57458857D01*
X197956071Y-57458857D01*
X198070357Y-57516000D01*
X198127500Y-57573142D01*
X198184642Y-57687428D01*
X198184642Y-57801714D01*
X198127500Y-57973142D01*
X197441785Y-58658857D01*
X198184642Y-58658857D01*
X198927500Y-57458857D02*
X199041785Y-57458857D01*
X199156071Y-57516000D01*
X199213214Y-57573142D01*
X199270357Y-57687428D01*
X199327500Y-57916000D01*
X199327500Y-58201714D01*
X199270357Y-58430285D01*
X199213214Y-58544571D01*
X199156071Y-58601714D01*
X199041785Y-58658857D01*
X198927500Y-58658857D01*
X198813214Y-58601714D01*
X198756071Y-58544571D01*
X198698928Y-58430285D01*
X198641785Y-58201714D01*
X198641785Y-57916000D01*
X198698928Y-57687428D01*
X198756071Y-57573142D01*
X198813214Y-57516000D01*
X198927500Y-57458857D01*
X199784642Y-57573142D02*
X199841785Y-57516000D01*
X199956071Y-57458857D01*
X200241785Y-57458857D01*
X200356071Y-57516000D01*
X200413214Y-57573142D01*
X200470357Y-57687428D01*
X200470357Y-57801714D01*
X200413214Y-57973142D01*
X199727500Y-58658857D01*
X200470357Y-58658857D01*
X200927500Y-57573142D02*
X200984642Y-57516000D01*
X201098928Y-57458857D01*
X201384642Y-57458857D01*
X201498928Y-57516000D01*
X201556071Y-57573142D01*
X201613214Y-57687428D01*
X201613214Y-57801714D01*
X201556071Y-57973142D01*
X200870357Y-58658857D01*
X201613214Y-58658857D01*
X126563809Y-118816380D02*
X126563809Y-117816380D01*
X126563809Y-118292571D02*
X127135238Y-118292571D01*
X127135238Y-118816380D02*
X127135238Y-117816380D01*
X128897142Y-117864000D02*
X128801904Y-117816380D01*
X128659047Y-117816380D01*
X128516190Y-117864000D01*
X128420952Y-117959238D01*
X128373333Y-118054476D01*
X128325714Y-118244952D01*
X128325714Y-118387809D01*
X128373333Y-118578285D01*
X128420952Y-118673523D01*
X128516190Y-118768761D01*
X128659047Y-118816380D01*
X128754285Y-118816380D01*
X128897142Y-118768761D01*
X128944761Y-118721142D01*
X128944761Y-118387809D01*
X128754285Y-118387809D01*
X129373333Y-118816380D02*
X129373333Y-117816380D01*
X129944761Y-118816380D01*
X129944761Y-117816380D01*
X130420952Y-118816380D02*
X130420952Y-117816380D01*
X130659047Y-117816380D01*
X130801904Y-117864000D01*
X130897142Y-117959238D01*
X130944761Y-118054476D01*
X130992380Y-118244952D01*
X130992380Y-118387809D01*
X130944761Y-118578285D01*
X130897142Y-118673523D01*
X130801904Y-118768761D01*
X130659047Y-118816380D01*
X130420952Y-118816380D01*
X132659047Y-118816380D02*
X132182857Y-118816380D01*
X132182857Y-117816380D01*
X176368571Y-55526857D02*
X176368571Y-56384000D01*
X176311428Y-56555428D01*
X176197142Y-56669714D01*
X176025714Y-56726857D01*
X175911428Y-56726857D01*
X177397142Y-56669714D02*
X177282857Y-56726857D01*
X177054285Y-56726857D01*
X176940000Y-56669714D01*
X176882857Y-56555428D01*
X176882857Y-56098285D01*
X176940000Y-55984000D01*
X177054285Y-55926857D01*
X177282857Y-55926857D01*
X177397142Y-55984000D01*
X177454285Y-56098285D01*
X177454285Y-56212571D01*
X176882857Y-56326857D01*
X177797142Y-55926857D02*
X178254285Y-55926857D01*
X177968571Y-56726857D02*
X177968571Y-55698285D01*
X178025714Y-55584000D01*
X178140000Y-55526857D01*
X178254285Y-55526857D01*
X178482857Y-55926857D02*
X178940000Y-55926857D01*
X178654285Y-56726857D02*
X178654285Y-55698285D01*
X178711428Y-55584000D01*
X178825714Y-55526857D01*
X178940000Y-55526857D01*
X179340000Y-56726857D02*
X179340000Y-55926857D01*
X179340000Y-56155428D02*
X179397142Y-56041142D01*
X179454285Y-55984000D01*
X179568571Y-55926857D01*
X179682857Y-55926857D01*
X180540000Y-56669714D02*
X180425714Y-56726857D01*
X180197142Y-56726857D01*
X180082857Y-56669714D01*
X180025714Y-56555428D01*
X180025714Y-56098285D01*
X180082857Y-55984000D01*
X180197142Y-55926857D01*
X180425714Y-55926857D01*
X180540000Y-55984000D01*
X180597142Y-56098285D01*
X180597142Y-56212571D01*
X180025714Y-56326857D01*
X180997142Y-55926857D02*
X181282857Y-56726857D01*
X181568571Y-55926857D02*
X181282857Y-56726857D01*
X181168571Y-57012571D01*
X181111428Y-57069714D01*
X180997142Y-57126857D01*
X182940000Y-56726857D02*
X182940000Y-55526857D01*
X183225714Y-55526857D01*
X183397142Y-55584000D01*
X183511428Y-55698285D01*
X183568571Y-55812571D01*
X183625714Y-56041142D01*
X183625714Y-56212571D01*
X183568571Y-56441142D01*
X183511428Y-56555428D01*
X183397142Y-56669714D01*
X183225714Y-56726857D01*
X182940000Y-56726857D01*
X184654285Y-55926857D02*
X184654285Y-56726857D01*
X184140000Y-55926857D02*
X184140000Y-56555428D01*
X184197142Y-56669714D01*
X184311428Y-56726857D01*
X184482857Y-56726857D01*
X184597142Y-56669714D01*
X184654285Y-56612571D01*
X174911428Y-58601714D02*
X175082857Y-58658857D01*
X175368571Y-58658857D01*
X175482857Y-58601714D01*
X175540000Y-58544571D01*
X175597142Y-58430285D01*
X175597142Y-58316000D01*
X175540000Y-58201714D01*
X175482857Y-58144571D01*
X175368571Y-58087428D01*
X175140000Y-58030285D01*
X175025714Y-57973142D01*
X174968571Y-57916000D01*
X174911428Y-57801714D01*
X174911428Y-57687428D01*
X174968571Y-57573142D01*
X175025714Y-57516000D01*
X175140000Y-57458857D01*
X175425714Y-57458857D01*
X175597142Y-57516000D01*
X176625714Y-58658857D02*
X176625714Y-58030285D01*
X176568571Y-57916000D01*
X176454285Y-57858857D01*
X176225714Y-57858857D01*
X176111428Y-57916000D01*
X176625714Y-58601714D02*
X176511428Y-58658857D01*
X176225714Y-58658857D01*
X176111428Y-58601714D01*
X176054285Y-58487428D01*
X176054285Y-58373142D01*
X176111428Y-58258857D01*
X176225714Y-58201714D01*
X176511428Y-58201714D01*
X176625714Y-58144571D01*
X177197142Y-58658857D02*
X177197142Y-57858857D01*
X177197142Y-58087428D02*
X177254285Y-57973142D01*
X177311428Y-57916000D01*
X177425714Y-57858857D01*
X177540000Y-57858857D01*
X178454285Y-58658857D02*
X178454285Y-58030285D01*
X178397142Y-57916000D01*
X178282857Y-57858857D01*
X178054285Y-57858857D01*
X177940000Y-57916000D01*
X178454285Y-58601714D02*
X178340000Y-58658857D01*
X178054285Y-58658857D01*
X177940000Y-58601714D01*
X177882857Y-58487428D01*
X177882857Y-58373142D01*
X177940000Y-58258857D01*
X178054285Y-58201714D01*
X178340000Y-58201714D01*
X178454285Y-58144571D01*
X179025714Y-58658857D02*
X179025714Y-57458857D01*
X179540000Y-58658857D02*
X179540000Y-58030285D01*
X179482857Y-57916000D01*
X179368571Y-57858857D01*
X179197142Y-57858857D01*
X179082857Y-57916000D01*
X179025714Y-57973142D01*
X181825714Y-58773142D02*
X181711428Y-58716000D01*
X181597142Y-58601714D01*
X181425714Y-58430285D01*
X181311428Y-58373142D01*
X181197142Y-58373142D01*
X181254285Y-58658857D02*
X181140000Y-58601714D01*
X181025714Y-58487428D01*
X180968571Y-58258857D01*
X180968571Y-57858857D01*
X181025714Y-57630285D01*
X181140000Y-57516000D01*
X181254285Y-57458857D01*
X181482857Y-57458857D01*
X181597142Y-57516000D01*
X181711428Y-57630285D01*
X181768571Y-57858857D01*
X181768571Y-58258857D01*
X181711428Y-58487428D01*
X181597142Y-58601714D01*
X181482857Y-58658857D01*
X181254285Y-58658857D01*
X182797142Y-58658857D02*
X182797142Y-58030285D01*
X182740000Y-57916000D01*
X182625714Y-57858857D01*
X182397142Y-57858857D01*
X182282857Y-57916000D01*
X182797142Y-58601714D02*
X182682857Y-58658857D01*
X182397142Y-58658857D01*
X182282857Y-58601714D01*
X182225714Y-58487428D01*
X182225714Y-58373142D01*
X182282857Y-58258857D01*
X182397142Y-58201714D01*
X182682857Y-58201714D01*
X182797142Y-58144571D01*
X183882857Y-58658857D02*
X183882857Y-57458857D01*
X183882857Y-58601714D02*
X183768571Y-58658857D01*
X183540000Y-58658857D01*
X183425714Y-58601714D01*
X183368571Y-58544571D01*
X183311428Y-58430285D01*
X183311428Y-58087428D01*
X183368571Y-57973142D01*
X183425714Y-57916000D01*
X183540000Y-57858857D01*
X183768571Y-57858857D01*
X183882857Y-57916000D01*
X184968571Y-58658857D02*
X184968571Y-58030285D01*
X184911428Y-57916000D01*
X184797142Y-57858857D01*
X184568571Y-57858857D01*
X184454285Y-57916000D01*
X184968571Y-58601714D02*
X184854285Y-58658857D01*
X184568571Y-58658857D01*
X184454285Y-58601714D01*
X184397142Y-58487428D01*
X184397142Y-58373142D01*
X184454285Y-58258857D01*
X184568571Y-58201714D01*
X184854285Y-58201714D01*
X184968571Y-58144571D01*
X185540000Y-58658857D02*
X185540000Y-57858857D01*
X185540000Y-58087428D02*
X185597142Y-57973142D01*
X185654285Y-57916000D01*
X185768571Y-57858857D01*
X185882857Y-57858857D01*
D12*
X186687142Y-111533714D02*
X186615714Y-111605142D01*
X186401428Y-111676571D01*
X186258571Y-111676571D01*
X186044285Y-111605142D01*
X185901428Y-111462285D01*
X185830000Y-111319428D01*
X185758571Y-111033714D01*
X185758571Y-110819428D01*
X185830000Y-110533714D01*
X185901428Y-110390857D01*
X186044285Y-110248000D01*
X186258571Y-110176571D01*
X186401428Y-110176571D01*
X186615714Y-110248000D01*
X186687142Y-110319428D01*
X187330000Y-111676571D02*
X187330000Y-110176571D01*
X187330000Y-110890857D02*
X188187142Y-110890857D01*
X188187142Y-111676571D02*
X188187142Y-110176571D01*
X189687142Y-110248000D02*
X189544285Y-110176571D01*
X189330000Y-110176571D01*
X189115714Y-110248000D01*
X188972857Y-110390857D01*
X188901428Y-110533714D01*
X188830000Y-110819428D01*
X188830000Y-111033714D01*
X188901428Y-111319428D01*
X188972857Y-111462285D01*
X189115714Y-111605142D01*
X189330000Y-111676571D01*
X189472857Y-111676571D01*
X189687142Y-111605142D01*
X189758571Y-111533714D01*
X189758571Y-111033714D01*
X189472857Y-111033714D01*
X194115714Y-110176571D02*
X194401428Y-110176571D01*
X194544285Y-110248000D01*
X194687142Y-110390857D01*
X194758571Y-110676571D01*
X194758571Y-111176571D01*
X194687142Y-111462285D01*
X194544285Y-111605142D01*
X194401428Y-111676571D01*
X194115714Y-111676571D01*
X193972857Y-111605142D01*
X193830000Y-111462285D01*
X193758571Y-111176571D01*
X193758571Y-110676571D01*
X193830000Y-110390857D01*
X193972857Y-110248000D01*
X194115714Y-110176571D01*
X195901428Y-110890857D02*
X195401428Y-110890857D01*
X195401428Y-111676571D02*
X195401428Y-110176571D01*
X196115714Y-110176571D01*
X197187142Y-110890857D02*
X196687142Y-110890857D01*
X196687142Y-111676571D02*
X196687142Y-110176571D01*
X197401428Y-110176571D01*
X202258571Y-111676571D02*
X201758571Y-110962285D01*
X201401428Y-111676571D02*
X201401428Y-110176571D01*
X201972857Y-110176571D01*
X202115714Y-110248000D01*
X202187142Y-110319428D01*
X202258571Y-110462285D01*
X202258571Y-110676571D01*
X202187142Y-110819428D01*
X202115714Y-110890857D01*
X201972857Y-110962285D01*
X201401428Y-110962285D01*
X202901428Y-110176571D02*
X202901428Y-111390857D01*
X202972857Y-111533714D01*
X203044285Y-111605142D01*
X203187142Y-111676571D01*
X203472857Y-111676571D01*
X203615714Y-111605142D01*
X203687142Y-111533714D01*
X203758571Y-111390857D01*
X203758571Y-110176571D01*
X204472857Y-111676571D02*
X204472857Y-110176571D01*
X205330000Y-111676571D01*
X205330000Y-110176571D01*
D10*
X217019142Y-120292380D02*
X217066761Y-120340000D01*
X217114380Y-120482857D01*
X217114380Y-120578095D01*
X217066761Y-120720952D01*
X216971523Y-120816190D01*
X216876285Y-120863809D01*
X216685809Y-120911428D01*
X216542952Y-120911428D01*
X216352476Y-120863809D01*
X216257238Y-120816190D01*
X216162000Y-120720952D01*
X216114380Y-120578095D01*
X216114380Y-120482857D01*
X216162000Y-120340000D01*
X216209619Y-120292380D01*
X216114380Y-119673333D02*
X216114380Y-119482857D01*
X216162000Y-119387619D01*
X216257238Y-119292380D01*
X216447714Y-119244761D01*
X216781047Y-119244761D01*
X216971523Y-119292380D01*
X217066761Y-119387619D01*
X217114380Y-119482857D01*
X217114380Y-119673333D01*
X217066761Y-119768571D01*
X216971523Y-119863809D01*
X216781047Y-119911428D01*
X216447714Y-119911428D01*
X216257238Y-119863809D01*
X216162000Y-119768571D01*
X216114380Y-119673333D01*
X217114380Y-118816190D02*
X216114380Y-118816190D01*
X217114380Y-118244761D01*
X216114380Y-118244761D01*
X216114380Y-117911428D02*
X216114380Y-117340000D01*
X217114380Y-117625714D02*
X216114380Y-117625714D01*
X216828666Y-117054285D02*
X216828666Y-116578095D01*
X217114380Y-117149523D02*
X216114380Y-116816190D01*
X217114380Y-116482857D01*
X217019142Y-115578095D02*
X217066761Y-115625714D01*
X217114380Y-115768571D01*
X217114380Y-115863809D01*
X217066761Y-116006666D01*
X216971523Y-116101904D01*
X216876285Y-116149523D01*
X216685809Y-116197142D01*
X216542952Y-116197142D01*
X216352476Y-116149523D01*
X216257238Y-116101904D01*
X216162000Y-116006666D01*
X216114380Y-115863809D01*
X216114380Y-115768571D01*
X216162000Y-115625714D01*
X216209619Y-115578095D01*
X216114380Y-115292380D02*
X216114380Y-114720952D01*
X217114380Y-115006666D02*
X216114380Y-115006666D01*
X216114380Y-114197142D02*
X216114380Y-114006666D01*
X216162000Y-113911428D01*
X216257238Y-113816190D01*
X216447714Y-113768571D01*
X216781047Y-113768571D01*
X216971523Y-113816190D01*
X217066761Y-113911428D01*
X217114380Y-114006666D01*
X217114380Y-114197142D01*
X217066761Y-114292380D01*
X216971523Y-114387619D01*
X216781047Y-114435238D01*
X216447714Y-114435238D01*
X216257238Y-114387619D01*
X216162000Y-114292380D01*
X216114380Y-114197142D01*
X217114380Y-112768571D02*
X216638190Y-113101904D01*
X217114380Y-113340000D02*
X216114380Y-113340000D01*
X216114380Y-112959047D01*
X216162000Y-112863809D01*
X216209619Y-112816190D01*
X216304857Y-112768571D01*
X216447714Y-112768571D01*
X216542952Y-112816190D01*
X216590571Y-112863809D01*
X216638190Y-112959047D01*
X216638190Y-113340000D01*
X113863809Y-118816380D02*
X113863809Y-117816380D01*
X113863809Y-118292571D02*
X114435238Y-118292571D01*
X114435238Y-118816380D02*
X114435238Y-117816380D01*
X116197142Y-117864000D02*
X116101904Y-117816380D01*
X115959047Y-117816380D01*
X115816190Y-117864000D01*
X115720952Y-117959238D01*
X115673333Y-118054476D01*
X115625714Y-118244952D01*
X115625714Y-118387809D01*
X115673333Y-118578285D01*
X115720952Y-118673523D01*
X115816190Y-118768761D01*
X115959047Y-118816380D01*
X116054285Y-118816380D01*
X116197142Y-118768761D01*
X116244761Y-118721142D01*
X116244761Y-118387809D01*
X116054285Y-118387809D01*
X116673333Y-118816380D02*
X116673333Y-117816380D01*
X117244761Y-118816380D01*
X117244761Y-117816380D01*
X117720952Y-118816380D02*
X117720952Y-117816380D01*
X117959047Y-117816380D01*
X118101904Y-117864000D01*
X118197142Y-117959238D01*
X118244761Y-118054476D01*
X118292380Y-118244952D01*
X118292380Y-118387809D01*
X118244761Y-118578285D01*
X118197142Y-118673523D01*
X118101904Y-118768761D01*
X117959047Y-118816380D01*
X117720952Y-118816380D01*
X119959047Y-118816380D02*
X119482857Y-118816380D01*
X119482857Y-117816380D01*
X208724761Y-121472142D02*
X208677142Y-121519761D01*
X208534285Y-121567380D01*
X208439047Y-121567380D01*
X208296190Y-121519761D01*
X208200952Y-121424523D01*
X208153333Y-121329285D01*
X208105714Y-121138809D01*
X208105714Y-120995952D01*
X208153333Y-120805476D01*
X208200952Y-120710238D01*
X208296190Y-120615000D01*
X208439047Y-120567380D01*
X208534285Y-120567380D01*
X208677142Y-120615000D01*
X208724761Y-120662619D01*
X209153333Y-121567380D02*
X209153333Y-120567380D01*
X209153333Y-121043571D02*
X209724761Y-121043571D01*
X209724761Y-121567380D02*
X209724761Y-120567380D01*
X210153333Y-121281666D02*
X210629523Y-121281666D01*
X210058095Y-121567380D02*
X210391428Y-120567380D01*
X210724761Y-121567380D01*
X211629523Y-121567380D02*
X211296190Y-121091190D01*
X211058095Y-121567380D02*
X211058095Y-120567380D01*
X211439047Y-120567380D01*
X211534285Y-120615000D01*
X211581904Y-120662619D01*
X211629523Y-120757857D01*
X211629523Y-120900714D01*
X211581904Y-120995952D01*
X211534285Y-121043571D01*
X211439047Y-121091190D01*
X211058095Y-121091190D01*
X212581904Y-120615000D02*
X212486666Y-120567380D01*
X212343809Y-120567380D01*
X212200952Y-120615000D01*
X212105714Y-120710238D01*
X212058095Y-120805476D01*
X212010476Y-120995952D01*
X212010476Y-121138809D01*
X212058095Y-121329285D01*
X212105714Y-121424523D01*
X212200952Y-121519761D01*
X212343809Y-121567380D01*
X212439047Y-121567380D01*
X212581904Y-121519761D01*
X212629523Y-121472142D01*
X212629523Y-121138809D01*
X212439047Y-121138809D01*
X213058095Y-121043571D02*
X213391428Y-121043571D01*
X213534285Y-121567380D02*
X213058095Y-121567380D01*
X213058095Y-120567380D01*
X213534285Y-120567380D01*
X208296190Y-122796428D02*
X209058095Y-122796428D01*
X212581904Y-122796428D02*
X213343809Y-122796428D01*
X212962857Y-123177380D02*
X212962857Y-122415476D01*
X180006666Y-132802380D02*
X180006666Y-133516666D01*
X179959047Y-133659523D01*
X179863809Y-133754761D01*
X179720952Y-133802380D01*
X179625714Y-133802380D01*
X180387619Y-132802380D02*
X181054285Y-132802380D01*
X180625714Y-133802380D01*
X219289380Y-68913333D02*
X220003666Y-68913333D01*
X220146523Y-68960952D01*
X220241761Y-69056190D01*
X220289380Y-69199047D01*
X220289380Y-69294285D01*
X219289380Y-68008571D02*
X219289380Y-68199047D01*
X219337000Y-68294285D01*
X219384619Y-68341904D01*
X219527476Y-68437142D01*
X219717952Y-68484761D01*
X220098904Y-68484761D01*
X220194142Y-68437142D01*
X220241761Y-68389523D01*
X220289380Y-68294285D01*
X220289380Y-68103809D01*
X220241761Y-68008571D01*
X220194142Y-67960952D01*
X220098904Y-67913333D01*
X219860809Y-67913333D01*
X219765571Y-67960952D01*
X219717952Y-68008571D01*
X219670333Y-68103809D01*
X219670333Y-68294285D01*
X219717952Y-68389523D01*
X219765571Y-68437142D01*
X219860809Y-68484761D01*
X210486666Y-132802380D02*
X210486666Y-133516666D01*
X210439047Y-133659523D01*
X210343809Y-133754761D01*
X210200952Y-133802380D01*
X210105714Y-133802380D01*
X211439047Y-132802380D02*
X210962857Y-132802380D01*
X210915238Y-133278571D01*
X210962857Y-133230952D01*
X211058095Y-133183333D01*
X211296190Y-133183333D01*
X211391428Y-133230952D01*
X211439047Y-133278571D01*
X211486666Y-133373809D01*
X211486666Y-133611904D01*
X211439047Y-133707142D01*
X211391428Y-133754761D01*
X211296190Y-133802380D01*
X211058095Y-133802380D01*
X210962857Y-133754761D01*
X210915238Y-133707142D01*
X86915714Y-96686666D02*
X87391904Y-96686666D01*
X86820476Y-96972380D02*
X87153809Y-95972380D01*
X87487142Y-96972380D01*
X88344285Y-96972380D02*
X87772857Y-96972380D01*
X88058571Y-96972380D02*
X88058571Y-95972380D01*
X87963333Y-96115238D01*
X87868095Y-96210476D01*
X87772857Y-96258095D01*
X219289380Y-83364523D02*
X220003666Y-83364523D01*
X220146523Y-83412142D01*
X220241761Y-83507380D01*
X220289380Y-83650238D01*
X220289380Y-83745476D01*
X220289380Y-82364523D02*
X220289380Y-82935952D01*
X220289380Y-82650238D02*
X219289380Y-82650238D01*
X219432238Y-82745476D01*
X219527476Y-82840714D01*
X219575095Y-82935952D01*
X219622714Y-81507380D02*
X220289380Y-81507380D01*
X219241761Y-81745476D02*
X219956047Y-81983571D01*
X219956047Y-81364523D01*
X109842323Y-112043180D02*
X109366133Y-112043180D01*
X109318514Y-112519371D01*
X109366133Y-112471752D01*
X109461371Y-112424133D01*
X109699466Y-112424133D01*
X109794704Y-112471752D01*
X109842323Y-112519371D01*
X109889942Y-112614609D01*
X109889942Y-112852704D01*
X109842323Y-112947942D01*
X109794704Y-112995561D01*
X109699466Y-113043180D01*
X109461371Y-113043180D01*
X109366133Y-112995561D01*
X109318514Y-112947942D01*
X110175657Y-112043180D02*
X110508990Y-113043180D01*
X110842323Y-112043180D01*
X211375714Y-72955714D02*
X211375714Y-73622380D01*
X211137619Y-72574761D02*
X210899523Y-73289047D01*
X211518571Y-73289047D01*
X212042380Y-73050952D02*
X211947142Y-73003333D01*
X211899523Y-72955714D01*
X211851904Y-72860476D01*
X211851904Y-72812857D01*
X211899523Y-72717619D01*
X211947142Y-72670000D01*
X212042380Y-72622380D01*
X212232857Y-72622380D01*
X212328095Y-72670000D01*
X212375714Y-72717619D01*
X212423333Y-72812857D01*
X212423333Y-72860476D01*
X212375714Y-72955714D01*
X212328095Y-73003333D01*
X212232857Y-73050952D01*
X212042380Y-73050952D01*
X211947142Y-73098571D01*
X211899523Y-73146190D01*
X211851904Y-73241428D01*
X211851904Y-73431904D01*
X211899523Y-73527142D01*
X211947142Y-73574761D01*
X212042380Y-73622380D01*
X212232857Y-73622380D01*
X212328095Y-73574761D01*
X212375714Y-73527142D01*
X212423333Y-73431904D01*
X212423333Y-73241428D01*
X212375714Y-73146190D01*
X212328095Y-73098571D01*
X212232857Y-73050952D01*
X212709047Y-72622380D02*
X213042380Y-73622380D01*
X213375714Y-72622380D01*
X105608571Y-89694180D02*
X105037142Y-89694180D01*
X105322857Y-89694180D02*
X105322857Y-88694180D01*
X105227619Y-88837038D01*
X105132380Y-88932276D01*
X105037142Y-88979895D01*
X106465714Y-88694180D02*
X106275238Y-88694180D01*
X106180000Y-88741800D01*
X106132380Y-88789419D01*
X106037142Y-88932276D01*
X105989523Y-89122752D01*
X105989523Y-89503704D01*
X106037142Y-89598942D01*
X106084761Y-89646561D01*
X106180000Y-89694180D01*
X106370476Y-89694180D01*
X106465714Y-89646561D01*
X106513333Y-89598942D01*
X106560952Y-89503704D01*
X106560952Y-89265609D01*
X106513333Y-89170371D01*
X106465714Y-89122752D01*
X106370476Y-89075133D01*
X106180000Y-89075133D01*
X106084761Y-89122752D01*
X106037142Y-89170371D01*
X105989523Y-89265609D01*
X106989523Y-89027514D02*
X106989523Y-90027514D01*
X106989523Y-89075133D02*
X107084761Y-89027514D01*
X107275238Y-89027514D01*
X107370476Y-89075133D01*
X107418095Y-89122752D01*
X107465714Y-89217990D01*
X107465714Y-89503704D01*
X107418095Y-89598942D01*
X107370476Y-89646561D01*
X107275238Y-89694180D01*
X107084761Y-89694180D01*
X106989523Y-89646561D01*
X108227619Y-89170371D02*
X107894285Y-89170371D01*
X107894285Y-89694180D02*
X107894285Y-88694180D01*
X108370476Y-88694180D01*
X185420095Y-99274380D02*
X186039142Y-99274380D01*
X185705809Y-99655333D01*
X185848666Y-99655333D01*
X185943904Y-99702952D01*
X185991523Y-99750571D01*
X186039142Y-99845809D01*
X186039142Y-100083904D01*
X185991523Y-100179142D01*
X185943904Y-100226761D01*
X185848666Y-100274380D01*
X185562952Y-100274380D01*
X185467714Y-100226761D01*
X185420095Y-100179142D01*
X186420095Y-99988666D02*
X186896285Y-99988666D01*
X186324857Y-100274380D02*
X186658190Y-99274380D01*
X186991523Y-100274380D01*
X118618095Y-94702380D02*
X118618095Y-95511904D01*
X118665714Y-95607142D01*
X118713333Y-95654761D01*
X118808571Y-95702380D01*
X118999047Y-95702380D01*
X119094285Y-95654761D01*
X119141904Y-95607142D01*
X119189523Y-95511904D01*
X119189523Y-94702380D01*
X120189523Y-95702380D02*
X119618095Y-95702380D01*
X119903809Y-95702380D02*
X119903809Y-94702380D01*
X119808571Y-94845238D01*
X119713333Y-94940476D01*
X119618095Y-94988095D01*
X159322380Y-103279942D02*
X159322380Y-103851370D01*
X159322380Y-103565656D02*
X158322380Y-103565656D01*
X158465238Y-103660894D01*
X158560476Y-103756132D01*
X158608095Y-103851370D01*
X158322380Y-102660894D02*
X158322380Y-102565656D01*
X158370000Y-102470418D01*
X158417619Y-102422799D01*
X158512857Y-102375180D01*
X158703333Y-102327561D01*
X158941428Y-102327561D01*
X159131904Y-102375180D01*
X159227142Y-102422799D01*
X159274761Y-102470418D01*
X159322380Y-102565656D01*
X159322380Y-102660894D01*
X159274761Y-102756132D01*
X159227142Y-102803751D01*
X159131904Y-102851370D01*
X158941428Y-102898989D01*
X158703333Y-102898989D01*
X158512857Y-102851370D01*
X158417619Y-102803751D01*
X158370000Y-102756132D01*
X158322380Y-102660894D01*
X158322380Y-101708513D02*
X158322380Y-101613275D01*
X158370000Y-101518037D01*
X158417619Y-101470418D01*
X158512857Y-101422799D01*
X158703333Y-101375180D01*
X158941428Y-101375180D01*
X159131904Y-101422799D01*
X159227142Y-101470418D01*
X159274761Y-101518037D01*
X159322380Y-101613275D01*
X159322380Y-101708513D01*
X159274761Y-101803751D01*
X159227142Y-101851370D01*
X159131904Y-101898989D01*
X158941428Y-101946608D01*
X158703333Y-101946608D01*
X158512857Y-101898989D01*
X158417619Y-101851370D01*
X158370000Y-101803751D01*
X158322380Y-101708513D01*
X158655714Y-100518037D02*
X159322380Y-100518037D01*
X158655714Y-100946608D02*
X159179523Y-100946608D01*
X159274761Y-100898989D01*
X159322380Y-100803751D01*
X159322380Y-100660894D01*
X159274761Y-100565656D01*
X159227142Y-100518037D01*
X158798571Y-99708513D02*
X158798571Y-100041846D01*
X159322380Y-100041846D02*
X158322380Y-100041846D01*
X158322380Y-99565656D01*
X167536666Y-132642380D02*
X167536666Y-133356666D01*
X167489047Y-133499523D01*
X167393809Y-133594761D01*
X167250952Y-133642380D01*
X167155714Y-133642380D01*
X168155714Y-133070952D02*
X168060476Y-133023333D01*
X168012857Y-132975714D01*
X167965238Y-132880476D01*
X167965238Y-132832857D01*
X168012857Y-132737619D01*
X168060476Y-132690000D01*
X168155714Y-132642380D01*
X168346190Y-132642380D01*
X168441428Y-132690000D01*
X168489047Y-132737619D01*
X168536666Y-132832857D01*
X168536666Y-132880476D01*
X168489047Y-132975714D01*
X168441428Y-133023333D01*
X168346190Y-133070952D01*
X168155714Y-133070952D01*
X168060476Y-133118571D01*
X168012857Y-133166190D01*
X167965238Y-133261428D01*
X167965238Y-133451904D01*
X168012857Y-133547142D01*
X168060476Y-133594761D01*
X168155714Y-133642380D01*
X168346190Y-133642380D01*
X168441428Y-133594761D01*
X168489047Y-133547142D01*
X168536666Y-133451904D01*
X168536666Y-133261428D01*
X168489047Y-133166190D01*
X168441428Y-133118571D01*
X168346190Y-133070952D01*
X123229761Y-103550980D02*
X122658333Y-103550980D01*
X122944047Y-103550980D02*
X122944047Y-102550980D01*
X122848809Y-102693838D01*
X122753571Y-102789076D01*
X122658333Y-102836695D01*
X123848809Y-102550980D02*
X123944047Y-102550980D01*
X124039285Y-102598600D01*
X124086904Y-102646219D01*
X124134523Y-102741457D01*
X124182142Y-102931933D01*
X124182142Y-103170028D01*
X124134523Y-103360504D01*
X124086904Y-103455742D01*
X124039285Y-103503361D01*
X123944047Y-103550980D01*
X123848809Y-103550980D01*
X123753571Y-103503361D01*
X123705952Y-103455742D01*
X123658333Y-103360504D01*
X123610714Y-103170028D01*
X123610714Y-102931933D01*
X123658333Y-102741457D01*
X123705952Y-102646219D01*
X123753571Y-102598600D01*
X123848809Y-102550980D01*
X124610714Y-103550980D02*
X124610714Y-102550980D01*
X124705952Y-103170028D02*
X124991666Y-103550980D01*
X124991666Y-102884314D02*
X124610714Y-103265266D01*
X141430476Y-132802380D02*
X141430476Y-133516666D01*
X141382857Y-133659523D01*
X141287619Y-133754761D01*
X141144761Y-133802380D01*
X141049523Y-133802380D01*
X142430476Y-133802380D02*
X141859047Y-133802380D01*
X142144761Y-133802380D02*
X142144761Y-132802380D01*
X142049523Y-132945238D01*
X141954285Y-133040476D01*
X141859047Y-133088095D01*
X143049523Y-132802380D02*
X143144761Y-132802380D01*
X143240000Y-132850000D01*
X143287619Y-132897619D01*
X143335238Y-132992857D01*
X143382857Y-133183333D01*
X143382857Y-133421428D01*
X143335238Y-133611904D01*
X143287619Y-133707142D01*
X143240000Y-133754761D01*
X143144761Y-133802380D01*
X143049523Y-133802380D01*
X142954285Y-133754761D01*
X142906666Y-133707142D01*
X142859047Y-133611904D01*
X142811428Y-133421428D01*
X142811428Y-133183333D01*
X142859047Y-132992857D01*
X142906666Y-132897619D01*
X142954285Y-132850000D01*
X143049523Y-132802380D01*
X194248904Y-71512380D02*
X194248904Y-70512380D01*
X194820333Y-71512380D02*
X194391761Y-70940952D01*
X194820333Y-70512380D02*
X194248904Y-71083809D01*
X195201285Y-70607619D02*
X195248904Y-70560000D01*
X195344142Y-70512380D01*
X195582238Y-70512380D01*
X195677476Y-70560000D01*
X195725095Y-70607619D01*
X195772714Y-70702857D01*
X195772714Y-70798095D01*
X195725095Y-70940952D01*
X195153666Y-71512380D01*
X195772714Y-71512380D01*
X189857714Y-73001142D02*
X189810095Y-73048761D01*
X189667238Y-73096380D01*
X189572000Y-73096380D01*
X189429142Y-73048761D01*
X189333904Y-72953523D01*
X189286285Y-72858285D01*
X189238666Y-72667809D01*
X189238666Y-72524952D01*
X189286285Y-72334476D01*
X189333904Y-72239238D01*
X189429142Y-72144000D01*
X189572000Y-72096380D01*
X189667238Y-72096380D01*
X189810095Y-72144000D01*
X189857714Y-72191619D01*
X190429142Y-73096380D02*
X190333904Y-73048761D01*
X190286285Y-73001142D01*
X190238666Y-72905904D01*
X190238666Y-72620190D01*
X190286285Y-72524952D01*
X190333904Y-72477333D01*
X190429142Y-72429714D01*
X190572000Y-72429714D01*
X190667238Y-72477333D01*
X190714857Y-72524952D01*
X190762476Y-72620190D01*
X190762476Y-72905904D01*
X190714857Y-73001142D01*
X190667238Y-73048761D01*
X190572000Y-73096380D01*
X190429142Y-73096380D01*
X191191047Y-72429714D02*
X191191047Y-73096380D01*
X191191047Y-72524952D02*
X191238666Y-72477333D01*
X191333904Y-72429714D01*
X191476761Y-72429714D01*
X191572000Y-72477333D01*
X191619619Y-72572571D01*
X191619619Y-73096380D01*
X191952952Y-72429714D02*
X192333904Y-72429714D01*
X192095809Y-72096380D02*
X192095809Y-72953523D01*
X192143428Y-73048761D01*
X192238666Y-73096380D01*
X192333904Y-73096380D01*
X193095809Y-73096380D02*
X193095809Y-72572571D01*
X193048190Y-72477333D01*
X192952952Y-72429714D01*
X192762476Y-72429714D01*
X192667238Y-72477333D01*
X193095809Y-73048761D02*
X193000571Y-73096380D01*
X192762476Y-73096380D01*
X192667238Y-73048761D01*
X192619619Y-72953523D01*
X192619619Y-72858285D01*
X192667238Y-72763047D01*
X192762476Y-72715428D01*
X193000571Y-72715428D01*
X193095809Y-72667809D01*
X194000571Y-73048761D02*
X193905333Y-73096380D01*
X193714857Y-73096380D01*
X193619619Y-73048761D01*
X193572000Y-73001142D01*
X193524380Y-72905904D01*
X193524380Y-72620190D01*
X193572000Y-72524952D01*
X193619619Y-72477333D01*
X193714857Y-72429714D01*
X193905333Y-72429714D01*
X194000571Y-72477333D01*
X194286285Y-72429714D02*
X194667238Y-72429714D01*
X194429142Y-72096380D02*
X194429142Y-72953523D01*
X194476761Y-73048761D01*
X194572000Y-73096380D01*
X194667238Y-73096380D01*
X195143428Y-73096380D02*
X195048190Y-73048761D01*
X195000571Y-73001142D01*
X194952952Y-72905904D01*
X194952952Y-72620190D01*
X195000571Y-72524952D01*
X195048190Y-72477333D01*
X195143428Y-72429714D01*
X195286285Y-72429714D01*
X195381523Y-72477333D01*
X195429142Y-72524952D01*
X195476761Y-72620190D01*
X195476761Y-72905904D01*
X195429142Y-73001142D01*
X195381523Y-73048761D01*
X195286285Y-73096380D01*
X195143428Y-73096380D01*
X195905333Y-73096380D02*
X195905333Y-72429714D01*
X195905333Y-72620190D02*
X195952952Y-72524952D01*
X196000571Y-72477333D01*
X196095809Y-72429714D01*
X196191047Y-72429714D01*
X196286285Y-73191619D02*
X197048190Y-73191619D01*
X197857714Y-73096380D02*
X197524380Y-72620190D01*
X197286285Y-73096380D02*
X197286285Y-72096380D01*
X197667238Y-72096380D01*
X197762476Y-72144000D01*
X197810095Y-72191619D01*
X197857714Y-72286857D01*
X197857714Y-72429714D01*
X197810095Y-72524952D01*
X197762476Y-72572571D01*
X197667238Y-72620190D01*
X197286285Y-72620190D01*
X198667238Y-73048761D02*
X198572000Y-73096380D01*
X198381523Y-73096380D01*
X198286285Y-73048761D01*
X198238666Y-72953523D01*
X198238666Y-72572571D01*
X198286285Y-72477333D01*
X198381523Y-72429714D01*
X198572000Y-72429714D01*
X198667238Y-72477333D01*
X198714857Y-72572571D01*
X198714857Y-72667809D01*
X198238666Y-72763047D01*
X199286285Y-73096380D02*
X199191047Y-73048761D01*
X199143428Y-72953523D01*
X199143428Y-72096380D01*
X200095809Y-73096380D02*
X200095809Y-72572571D01*
X200048190Y-72477333D01*
X199952952Y-72429714D01*
X199762476Y-72429714D01*
X199667238Y-72477333D01*
X200095809Y-73048761D02*
X200000571Y-73096380D01*
X199762476Y-73096380D01*
X199667238Y-73048761D01*
X199619619Y-72953523D01*
X199619619Y-72858285D01*
X199667238Y-72763047D01*
X199762476Y-72715428D01*
X200000571Y-72715428D01*
X200095809Y-72667809D01*
X200476761Y-72429714D02*
X200714857Y-73096380D01*
X200952952Y-72429714D02*
X200714857Y-73096380D01*
X200619619Y-73334476D01*
X200572000Y-73382095D01*
X200476761Y-73429714D01*
X219289380Y-103679523D02*
X220003666Y-103679523D01*
X220146523Y-103727142D01*
X220241761Y-103822380D01*
X220289380Y-103965238D01*
X220289380Y-104060476D01*
X220289380Y-102679523D02*
X220289380Y-103250952D01*
X220289380Y-102965238D02*
X219289380Y-102965238D01*
X219432238Y-103060476D01*
X219527476Y-103155714D01*
X219575095Y-103250952D01*
X219384619Y-102298571D02*
X219337000Y-102250952D01*
X219289380Y-102155714D01*
X219289380Y-101917619D01*
X219337000Y-101822380D01*
X219384619Y-101774761D01*
X219479857Y-101727142D01*
X219575095Y-101727142D01*
X219717952Y-101774761D01*
X220289380Y-102346190D01*
X220289380Y-101727142D01*
X108519980Y-80789257D02*
X108519980Y-80694019D01*
X108567600Y-80598780D01*
X108615219Y-80551161D01*
X108710457Y-80503542D01*
X108900933Y-80455923D01*
X109139028Y-80455923D01*
X109329504Y-80503542D01*
X109424742Y-80551161D01*
X109472361Y-80598780D01*
X109519980Y-80694019D01*
X109519980Y-80789257D01*
X109472361Y-80884495D01*
X109424742Y-80932114D01*
X109329504Y-80979733D01*
X109139028Y-81027352D01*
X108900933Y-81027352D01*
X108710457Y-80979733D01*
X108615219Y-80932114D01*
X108567600Y-80884495D01*
X108519980Y-80789257D01*
X109424742Y-80027352D02*
X109472361Y-79979733D01*
X109519980Y-80027352D01*
X109472361Y-80074971D01*
X109424742Y-80027352D01*
X109519980Y-80027352D01*
X109519980Y-79027352D02*
X109519980Y-79598780D01*
X109519980Y-79313066D02*
X108519980Y-79313066D01*
X108662838Y-79408304D01*
X108758076Y-79503542D01*
X108805695Y-79598780D01*
X108853314Y-78170209D02*
X109519980Y-78170209D01*
X108853314Y-78598780D02*
X109377123Y-78598780D01*
X109472361Y-78551161D01*
X109519980Y-78455923D01*
X109519980Y-78313066D01*
X109472361Y-78217828D01*
X109424742Y-78170209D01*
X108996171Y-77360685D02*
X108996171Y-77694019D01*
X109519980Y-77694019D02*
X108519980Y-77694019D01*
X108519980Y-77217828D01*
X147470904Y-93162380D02*
X147470904Y-92162380D01*
X147709000Y-92162380D01*
X147851857Y-92210000D01*
X147947095Y-92305238D01*
X147994714Y-92400476D01*
X148042333Y-92590952D01*
X148042333Y-92733809D01*
X147994714Y-92924285D01*
X147947095Y-93019523D01*
X147851857Y-93114761D01*
X147709000Y-93162380D01*
X147470904Y-93162380D01*
X148994714Y-93162380D02*
X148423285Y-93162380D01*
X148709000Y-93162380D02*
X148709000Y-92162380D01*
X148613761Y-92305238D01*
X148518523Y-92400476D01*
X148423285Y-92448095D01*
X152138095Y-95262380D02*
X152138095Y-94262380D01*
X152709523Y-95262380D02*
X152280952Y-94690952D01*
X152709523Y-94262380D02*
X152138095Y-94833809D01*
X102481428Y-122404142D02*
X102433809Y-122451761D01*
X102290952Y-122499380D01*
X102195714Y-122499380D01*
X102052857Y-122451761D01*
X101957619Y-122356523D01*
X101910000Y-122261285D01*
X101862380Y-122070809D01*
X101862380Y-121927952D01*
X101910000Y-121737476D01*
X101957619Y-121642238D01*
X102052857Y-121547000D01*
X102195714Y-121499380D01*
X102290952Y-121499380D01*
X102433809Y-121547000D01*
X102481428Y-121594619D01*
X102862380Y-122213666D02*
X103338571Y-122213666D01*
X102767142Y-122499380D02*
X103100476Y-121499380D01*
X103433809Y-122499380D01*
X103767142Y-122499380D02*
X103767142Y-121499380D01*
X104338571Y-122499380D01*
X104338571Y-121499380D01*
X104576666Y-122594619D02*
X105338571Y-122594619D01*
X105433809Y-121499380D02*
X106005238Y-121499380D01*
X105719523Y-122499380D02*
X105719523Y-121499380D01*
X106338571Y-121975571D02*
X106671904Y-121975571D01*
X106814761Y-122499380D02*
X106338571Y-122499380D01*
X106338571Y-121499380D01*
X106814761Y-121499380D01*
X107814761Y-122499380D02*
X107481428Y-122023190D01*
X107243333Y-122499380D02*
X107243333Y-121499380D01*
X107624285Y-121499380D01*
X107719523Y-121547000D01*
X107767142Y-121594619D01*
X107814761Y-121689857D01*
X107814761Y-121832714D01*
X107767142Y-121927952D01*
X107719523Y-121975571D01*
X107624285Y-122023190D01*
X107243333Y-122023190D01*
X108243333Y-122499380D02*
X108243333Y-121499380D01*
X108576666Y-122213666D01*
X108910000Y-121499380D01*
X108910000Y-122499380D01*
X154606666Y-132802380D02*
X154606666Y-133516666D01*
X154559047Y-133659523D01*
X154463809Y-133754761D01*
X154320952Y-133802380D01*
X154225714Y-133802380D01*
X155130476Y-133802380D02*
X155320952Y-133802380D01*
X155416190Y-133754761D01*
X155463809Y-133707142D01*
X155559047Y-133564285D01*
X155606666Y-133373809D01*
X155606666Y-132992857D01*
X155559047Y-132897619D01*
X155511428Y-132850000D01*
X155416190Y-132802380D01*
X155225714Y-132802380D01*
X155130476Y-132850000D01*
X155082857Y-132897619D01*
X155035238Y-132992857D01*
X155035238Y-133230952D01*
X155082857Y-133326190D01*
X155130476Y-133373809D01*
X155225714Y-133421428D01*
X155416190Y-133421428D01*
X155511428Y-133373809D01*
X155559047Y-133326190D01*
X155606666Y-133230952D01*
X106656190Y-98891190D02*
X107132380Y-98891190D01*
X106132380Y-99224523D02*
X106656190Y-98891190D01*
X106132380Y-98557857D01*
X107132380Y-97700714D02*
X107132380Y-98272142D01*
X107132380Y-97986428D02*
X106132380Y-97986428D01*
X106275238Y-98081666D01*
X106370476Y-98176904D01*
X106418095Y-98272142D01*
X103035952Y-100010238D02*
X102988333Y-100105476D01*
X102940714Y-100153095D01*
X102845476Y-100200714D01*
X102797857Y-100200714D01*
X102702619Y-100153095D01*
X102655000Y-100105476D01*
X102607380Y-100010238D01*
X102607380Y-99819761D01*
X102655000Y-99724523D01*
X102702619Y-99676904D01*
X102797857Y-99629285D01*
X102845476Y-99629285D01*
X102940714Y-99676904D01*
X102988333Y-99724523D01*
X103035952Y-99819761D01*
X103035952Y-100010238D01*
X103083571Y-100105476D01*
X103131190Y-100153095D01*
X103226428Y-100200714D01*
X103416904Y-100200714D01*
X103512142Y-100153095D01*
X103559761Y-100105476D01*
X103607380Y-100010238D01*
X103607380Y-99819761D01*
X103559761Y-99724523D01*
X103512142Y-99676904D01*
X103416904Y-99629285D01*
X103226428Y-99629285D01*
X103131190Y-99676904D01*
X103083571Y-99724523D01*
X103035952Y-99819761D01*
X103607380Y-99200714D02*
X102607380Y-99200714D01*
X103321666Y-98867380D01*
X102607380Y-98534047D01*
X103607380Y-98534047D01*
X103607380Y-98057857D02*
X102607380Y-98057857D01*
X103083571Y-98057857D02*
X103083571Y-97486428D01*
X103607380Y-97486428D02*
X102607380Y-97486428D01*
X102940714Y-97105476D02*
X102940714Y-96581666D01*
X103607380Y-97105476D01*
X103607380Y-96581666D01*
X166727142Y-85256666D02*
X166774761Y-85304285D01*
X166822380Y-85447142D01*
X166822380Y-85542380D01*
X166774761Y-85685238D01*
X166679523Y-85780476D01*
X166584285Y-85828095D01*
X166393809Y-85875714D01*
X166250952Y-85875714D01*
X166060476Y-85828095D01*
X165965238Y-85780476D01*
X165870000Y-85685238D01*
X165822380Y-85542380D01*
X165822380Y-85447142D01*
X165870000Y-85304285D01*
X165917619Y-85256666D01*
X165822380Y-84923333D02*
X165822380Y-84256666D01*
X166822380Y-84685238D01*
X172223180Y-87256666D02*
X172223180Y-86637619D01*
X172604133Y-86970952D01*
X172604133Y-86828095D01*
X172651752Y-86732857D01*
X172699371Y-86685238D01*
X172794609Y-86637619D01*
X173032704Y-86637619D01*
X173127942Y-86685238D01*
X173175561Y-86732857D01*
X173223180Y-86828095D01*
X173223180Y-87113809D01*
X173175561Y-87209047D01*
X173127942Y-87256666D01*
X172223180Y-86304285D02*
X172223180Y-85685238D01*
X172604133Y-86018571D01*
X172604133Y-85875714D01*
X172651752Y-85780476D01*
X172699371Y-85732857D01*
X172794609Y-85685238D01*
X173032704Y-85685238D01*
X173127942Y-85732857D01*
X173175561Y-85780476D01*
X173223180Y-85875714D01*
X173223180Y-86161428D01*
X173175561Y-86256666D01*
X173127942Y-86304285D01*
X172223180Y-85066190D02*
X172223180Y-84970952D01*
X172270800Y-84875714D01*
X172318419Y-84828095D01*
X172413657Y-84780476D01*
X172604133Y-84732857D01*
X172842228Y-84732857D01*
X173032704Y-84780476D01*
X173127942Y-84828095D01*
X173175561Y-84875714D01*
X173223180Y-84970952D01*
X173223180Y-85066190D01*
X173175561Y-85161428D01*
X173127942Y-85209047D01*
X173032704Y-85256666D01*
X172842228Y-85304285D01*
X172604133Y-85304285D01*
X172413657Y-85256666D01*
X172318419Y-85209047D01*
X172270800Y-85161428D01*
X172223180Y-85066190D01*
X172556514Y-83875714D02*
X173223180Y-83875714D01*
X172556514Y-84304285D02*
X173080323Y-84304285D01*
X173175561Y-84256666D01*
X173223180Y-84161428D01*
X173223180Y-84018571D01*
X173175561Y-83923333D01*
X173127942Y-83875714D01*
X172699371Y-83066190D02*
X172699371Y-83399523D01*
X173223180Y-83399523D02*
X172223180Y-83399523D01*
X172223180Y-82923333D01*
X116572309Y-126452380D02*
X116572309Y-127166666D01*
X116524690Y-127309523D01*
X116429452Y-127404761D01*
X116286595Y-127452380D01*
X116191357Y-127452380D01*
X117477071Y-126785714D02*
X117477071Y-127452380D01*
X117238976Y-126404761D02*
X117000880Y-127119047D01*
X117619928Y-127119047D01*
X219289380Y-117649523D02*
X220003666Y-117649523D01*
X220146523Y-117697142D01*
X220241761Y-117792380D01*
X220289380Y-117935238D01*
X220289380Y-118030476D01*
X220289380Y-116649523D02*
X220289380Y-117220952D01*
X220289380Y-116935238D02*
X219289380Y-116935238D01*
X219432238Y-117030476D01*
X219527476Y-117125714D01*
X219575095Y-117220952D01*
X220289380Y-115697142D02*
X220289380Y-116268571D01*
X220289380Y-115982857D02*
X219289380Y-115982857D01*
X219432238Y-116078095D01*
X219527476Y-116173333D01*
X219575095Y-116268571D01*
X194246666Y-123848761D02*
X194389523Y-123896380D01*
X194627619Y-123896380D01*
X194722857Y-123848761D01*
X194770476Y-123801142D01*
X194818095Y-123705904D01*
X194818095Y-123610666D01*
X194770476Y-123515428D01*
X194722857Y-123467809D01*
X194627619Y-123420190D01*
X194437142Y-123372571D01*
X194341904Y-123324952D01*
X194294285Y-123277333D01*
X194246666Y-123182095D01*
X194246666Y-123086857D01*
X194294285Y-122991619D01*
X194341904Y-122944000D01*
X194437142Y-122896380D01*
X194675238Y-122896380D01*
X194818095Y-122944000D01*
X195151428Y-122896380D02*
X195389523Y-123896380D01*
X195580000Y-123182095D01*
X195770476Y-123896380D01*
X196008571Y-122896380D01*
X196341904Y-122991619D02*
X196389523Y-122944000D01*
X196484761Y-122896380D01*
X196722857Y-122896380D01*
X196818095Y-122944000D01*
X196865714Y-122991619D01*
X196913333Y-123086857D01*
X196913333Y-123182095D01*
X196865714Y-123324952D01*
X196294285Y-123896380D01*
X196913333Y-123896380D01*
X129272309Y-126452380D02*
X129272309Y-127166666D01*
X129224690Y-127309523D01*
X129129452Y-127404761D01*
X128986595Y-127452380D01*
X128891357Y-127452380D01*
X129653261Y-126452380D02*
X130272309Y-126452380D01*
X129938976Y-126833333D01*
X130081833Y-126833333D01*
X130177071Y-126880952D01*
X130224690Y-126928571D01*
X130272309Y-127023809D01*
X130272309Y-127261904D01*
X130224690Y-127357142D01*
X130177071Y-127404761D01*
X130081833Y-127452380D01*
X129796119Y-127452380D01*
X129700880Y-127404761D01*
X129653261Y-127357142D01*
X135982152Y-94551980D02*
X135410723Y-94551980D01*
X135696438Y-94551980D02*
X135696438Y-93551980D01*
X135601200Y-93694838D01*
X135505961Y-93790076D01*
X135410723Y-93837695D01*
X136363104Y-93647219D02*
X136410723Y-93599600D01*
X136505961Y-93551980D01*
X136744057Y-93551980D01*
X136839295Y-93599600D01*
X136886914Y-93647219D01*
X136934533Y-93742457D01*
X136934533Y-93837695D01*
X136886914Y-93980552D01*
X136315485Y-94551980D01*
X136934533Y-94551980D01*
X137220247Y-93551980D02*
X137553580Y-94551980D01*
X137886914Y-93551980D01*
X219289380Y-93519523D02*
X220003666Y-93519523D01*
X220146523Y-93567142D01*
X220241761Y-93662380D01*
X220289380Y-93805238D01*
X220289380Y-93900476D01*
X220289380Y-92519523D02*
X220289380Y-93090952D01*
X220289380Y-92805238D02*
X219289380Y-92805238D01*
X219432238Y-92900476D01*
X219527476Y-92995714D01*
X219575095Y-93090952D01*
X219289380Y-92186190D02*
X219289380Y-91567142D01*
X219670333Y-91900476D01*
X219670333Y-91757619D01*
X219717952Y-91662380D01*
X219765571Y-91614761D01*
X219860809Y-91567142D01*
X220098904Y-91567142D01*
X220194142Y-91614761D01*
X220241761Y-91662380D01*
X220289380Y-91757619D01*
X220289380Y-92043333D01*
X220241761Y-92138571D01*
X220194142Y-92186190D01*
X118618095Y-109307380D02*
X118618095Y-110116904D01*
X118665714Y-110212142D01*
X118713333Y-110259761D01*
X118808571Y-110307380D01*
X118999047Y-110307380D01*
X119094285Y-110259761D01*
X119141904Y-110212142D01*
X119189523Y-110116904D01*
X119189523Y-109307380D01*
X119618095Y-109402619D02*
X119665714Y-109355000D01*
X119760952Y-109307380D01*
X119999047Y-109307380D01*
X120094285Y-109355000D01*
X120141904Y-109402619D01*
X120189523Y-109497857D01*
X120189523Y-109593095D01*
X120141904Y-109735952D01*
X119570476Y-110307380D01*
X120189523Y-110307380D01*
X98726666Y-55542380D02*
X98726666Y-56256666D01*
X98679047Y-56399523D01*
X98583809Y-56494761D01*
X98440952Y-56542380D01*
X98345714Y-56542380D01*
X99155238Y-55637619D02*
X99202857Y-55590000D01*
X99298095Y-55542380D01*
X99536190Y-55542380D01*
X99631428Y-55590000D01*
X99679047Y-55637619D01*
X99726666Y-55732857D01*
X99726666Y-55828095D01*
X99679047Y-55970952D01*
X99107619Y-56542380D01*
X99726666Y-56542380D01*
X104743333Y-116530380D02*
X104171904Y-116530380D01*
X104457619Y-116530380D02*
X104457619Y-115530380D01*
X104362380Y-115673238D01*
X104267142Y-115768476D01*
X104171904Y-115816095D01*
X105124285Y-115625619D02*
X105171904Y-115578000D01*
X105267142Y-115530380D01*
X105505238Y-115530380D01*
X105600476Y-115578000D01*
X105648095Y-115625619D01*
X105695714Y-115720857D01*
X105695714Y-115816095D01*
X105648095Y-115958952D01*
X105076666Y-116530380D01*
X105695714Y-116530380D01*
X106314761Y-115530380D02*
X106410000Y-115530380D01*
X106505238Y-115578000D01*
X106552857Y-115625619D01*
X106600476Y-115720857D01*
X106648095Y-115911333D01*
X106648095Y-116149428D01*
X106600476Y-116339904D01*
X106552857Y-116435142D01*
X106505238Y-116482761D01*
X106410000Y-116530380D01*
X106314761Y-116530380D01*
X106219523Y-116482761D01*
X106171904Y-116435142D01*
X106124285Y-116339904D01*
X106076666Y-116149428D01*
X106076666Y-115911333D01*
X106124285Y-115720857D01*
X106171904Y-115625619D01*
X106219523Y-115578000D01*
X106314761Y-115530380D01*
X157146666Y-55281580D02*
X157146666Y-55995866D01*
X157099047Y-56138723D01*
X157003809Y-56233961D01*
X156860952Y-56281580D01*
X156765714Y-56281580D01*
X158146666Y-56281580D02*
X157575238Y-56281580D01*
X157860952Y-56281580D02*
X157860952Y-55281580D01*
X157765714Y-55424438D01*
X157670476Y-55519676D01*
X157575238Y-55567295D01*
X130118380Y-79843238D02*
X130118380Y-80414666D01*
X130118380Y-80128952D02*
X129118380Y-80128952D01*
X129261238Y-80224190D01*
X129356476Y-80319428D01*
X129404095Y-80414666D01*
X129118380Y-79224190D02*
X129118380Y-79128952D01*
X129166000Y-79033714D01*
X129213619Y-78986095D01*
X129308857Y-78938476D01*
X129499333Y-78890857D01*
X129737428Y-78890857D01*
X129927904Y-78938476D01*
X130023142Y-78986095D01*
X130070761Y-79033714D01*
X130118380Y-79128952D01*
X130118380Y-79224190D01*
X130070761Y-79319428D01*
X130023142Y-79367047D01*
X129927904Y-79414666D01*
X129737428Y-79462285D01*
X129499333Y-79462285D01*
X129308857Y-79414666D01*
X129213619Y-79367047D01*
X129166000Y-79319428D01*
X129118380Y-79224190D01*
X130118380Y-78462285D02*
X129118380Y-78462285D01*
X129737428Y-78367047D02*
X130118380Y-78081333D01*
X129451714Y-78081333D02*
X129832666Y-78462285D01*
X148645619Y-82129333D02*
X148645619Y-81653142D01*
X149645619Y-81653142D01*
X148645619Y-82986476D02*
X148645619Y-82415047D01*
X148645619Y-82700761D02*
X149645619Y-82700761D01*
X149502761Y-82605523D01*
X149407523Y-82510285D01*
X149359904Y-82415047D01*
X139485619Y-80557904D02*
X139485619Y-80367428D01*
X139438000Y-80272190D01*
X139390380Y-80224571D01*
X139247523Y-80129333D01*
X139057047Y-80081714D01*
X138676095Y-80081714D01*
X138580857Y-80129333D01*
X138533238Y-80176952D01*
X138485619Y-80272190D01*
X138485619Y-80462666D01*
X138533238Y-80557904D01*
X138580857Y-80605523D01*
X138676095Y-80653142D01*
X138914190Y-80653142D01*
X139009428Y-80605523D01*
X139057047Y-80557904D01*
X139104666Y-80462666D01*
X139104666Y-80272190D01*
X139057047Y-80176952D01*
X139009428Y-80129333D01*
X138914190Y-80081714D01*
X139057047Y-81224571D02*
X139104666Y-81129333D01*
X139152285Y-81081714D01*
X139247523Y-81034095D01*
X139295142Y-81034095D01*
X139390380Y-81081714D01*
X139438000Y-81129333D01*
X139485619Y-81224571D01*
X139485619Y-81415047D01*
X139438000Y-81510285D01*
X139390380Y-81557904D01*
X139295142Y-81605523D01*
X139247523Y-81605523D01*
X139152285Y-81557904D01*
X139104666Y-81510285D01*
X139057047Y-81415047D01*
X139057047Y-81224571D01*
X139009428Y-81129333D01*
X138961809Y-81081714D01*
X138866571Y-81034095D01*
X138676095Y-81034095D01*
X138580857Y-81081714D01*
X138533238Y-81129333D01*
X138485619Y-81224571D01*
X138485619Y-81415047D01*
X138533238Y-81510285D01*
X138580857Y-81557904D01*
X138676095Y-81605523D01*
X138866571Y-81605523D01*
X138961809Y-81557904D01*
X139009428Y-81510285D01*
X139057047Y-81415047D01*
X139485619Y-82224571D02*
X139485619Y-82319809D01*
X139438000Y-82415047D01*
X139390380Y-82462666D01*
X139295142Y-82510285D01*
X139104666Y-82557904D01*
X138866571Y-82557904D01*
X138676095Y-82510285D01*
X138580857Y-82462666D01*
X138533238Y-82415047D01*
X138485619Y-82319809D01*
X138485619Y-82224571D01*
X138533238Y-82129333D01*
X138580857Y-82081714D01*
X138676095Y-82034095D01*
X138866571Y-81986476D01*
X139104666Y-81986476D01*
X139295142Y-82034095D01*
X139390380Y-82081714D01*
X139438000Y-82129333D01*
X139485619Y-82224571D01*
X139152285Y-83415047D02*
X138485619Y-83415047D01*
X139152285Y-82986476D02*
X138628476Y-82986476D01*
X138533238Y-83034095D01*
X138485619Y-83129333D01*
X138485619Y-83272190D01*
X138533238Y-83367428D01*
X138580857Y-83415047D01*
X138485619Y-83891238D02*
X139485619Y-83891238D01*
X139009428Y-83891238D02*
X139009428Y-84462666D01*
X138485619Y-84462666D02*
X139485619Y-84462666D01*
X92936666Y-130553261D02*
X93079523Y-130600880D01*
X93317619Y-130600880D01*
X93412857Y-130553261D01*
X93460476Y-130505642D01*
X93508095Y-130410404D01*
X93508095Y-130315166D01*
X93460476Y-130219928D01*
X93412857Y-130172309D01*
X93317619Y-130124690D01*
X93127142Y-130077071D01*
X93031904Y-130029452D01*
X92984285Y-129981833D01*
X92936666Y-129886595D01*
X92936666Y-129791357D01*
X92984285Y-129696119D01*
X93031904Y-129648500D01*
X93127142Y-129600880D01*
X93365238Y-129600880D01*
X93508095Y-129648500D01*
X93841428Y-129600880D02*
X94079523Y-130600880D01*
X94270000Y-129886595D01*
X94460476Y-130600880D01*
X94698571Y-129600880D01*
X95603333Y-130600880D02*
X95031904Y-130600880D01*
X95317619Y-130600880D02*
X95317619Y-129600880D01*
X95222380Y-129743738D01*
X95127142Y-129838976D01*
X95031904Y-129886595D01*
X126082380Y-80187105D02*
X126082380Y-80758534D01*
X126082380Y-80472819D02*
X125082380Y-80472819D01*
X125225238Y-80568057D01*
X125320476Y-80663296D01*
X125368095Y-80758534D01*
X125082380Y-79568057D02*
X125082380Y-79472819D01*
X125130000Y-79377581D01*
X125177619Y-79329962D01*
X125272857Y-79282343D01*
X125463333Y-79234724D01*
X125701428Y-79234724D01*
X125891904Y-79282343D01*
X125987142Y-79329962D01*
X126034761Y-79377581D01*
X126082380Y-79472819D01*
X126082380Y-79568057D01*
X126034761Y-79663296D01*
X125987142Y-79710915D01*
X125891904Y-79758534D01*
X125701428Y-79806153D01*
X125463333Y-79806153D01*
X125272857Y-79758534D01*
X125177619Y-79710915D01*
X125130000Y-79663296D01*
X125082380Y-79568057D01*
X125415714Y-78377581D02*
X126082380Y-78377581D01*
X125415714Y-78806153D02*
X125939523Y-78806153D01*
X126034761Y-78758534D01*
X126082380Y-78663296D01*
X126082380Y-78520438D01*
X126034761Y-78425200D01*
X125987142Y-78377581D01*
X125558571Y-77568057D02*
X125558571Y-77901391D01*
X126082380Y-77901391D02*
X125082380Y-77901391D01*
X125082380Y-77425200D01*
X194248904Y-89165380D02*
X194248904Y-88165380D01*
X194820333Y-89165380D02*
X194391761Y-88593952D01*
X194820333Y-88165380D02*
X194248904Y-88736809D01*
X195772714Y-89165380D02*
X195201285Y-89165380D01*
X195487000Y-89165380D02*
X195487000Y-88165380D01*
X195391761Y-88308238D01*
X195296523Y-88403476D01*
X195201285Y-88451095D01*
X190881523Y-90654142D02*
X190833904Y-90701761D01*
X190691047Y-90749380D01*
X190595809Y-90749380D01*
X190452952Y-90701761D01*
X190357714Y-90606523D01*
X190310095Y-90511285D01*
X190262476Y-90320809D01*
X190262476Y-90177952D01*
X190310095Y-89987476D01*
X190357714Y-89892238D01*
X190452952Y-89797000D01*
X190595809Y-89749380D01*
X190691047Y-89749380D01*
X190833904Y-89797000D01*
X190881523Y-89844619D01*
X191310095Y-90749380D02*
X191310095Y-89749380D01*
X191738666Y-90749380D02*
X191738666Y-90225571D01*
X191691047Y-90130333D01*
X191595809Y-90082714D01*
X191452952Y-90082714D01*
X191357714Y-90130333D01*
X191310095Y-90177952D01*
X192643428Y-90749380D02*
X192643428Y-90225571D01*
X192595809Y-90130333D01*
X192500571Y-90082714D01*
X192310095Y-90082714D01*
X192214857Y-90130333D01*
X192643428Y-90701761D02*
X192548190Y-90749380D01*
X192310095Y-90749380D01*
X192214857Y-90701761D01*
X192167238Y-90606523D01*
X192167238Y-90511285D01*
X192214857Y-90416047D01*
X192310095Y-90368428D01*
X192548190Y-90368428D01*
X192643428Y-90320809D01*
X193119619Y-90749380D02*
X193119619Y-90082714D01*
X193119619Y-90273190D02*
X193167238Y-90177952D01*
X193214857Y-90130333D01*
X193310095Y-90082714D01*
X193405333Y-90082714D01*
X194167238Y-90082714D02*
X194167238Y-90892238D01*
X194119619Y-90987476D01*
X194072000Y-91035095D01*
X193976761Y-91082714D01*
X193833904Y-91082714D01*
X193738666Y-91035095D01*
X194167238Y-90701761D02*
X194072000Y-90749380D01*
X193881523Y-90749380D01*
X193786285Y-90701761D01*
X193738666Y-90654142D01*
X193691047Y-90558904D01*
X193691047Y-90273190D01*
X193738666Y-90177952D01*
X193786285Y-90130333D01*
X193881523Y-90082714D01*
X194072000Y-90082714D01*
X194167238Y-90130333D01*
X195024380Y-90701761D02*
X194929142Y-90749380D01*
X194738666Y-90749380D01*
X194643428Y-90701761D01*
X194595809Y-90606523D01*
X194595809Y-90225571D01*
X194643428Y-90130333D01*
X194738666Y-90082714D01*
X194929142Y-90082714D01*
X195024380Y-90130333D01*
X195072000Y-90225571D01*
X195072000Y-90320809D01*
X194595809Y-90416047D01*
X195262476Y-90844619D02*
X196024380Y-90844619D01*
X196833904Y-90749380D02*
X196500571Y-90273190D01*
X196262476Y-90749380D02*
X196262476Y-89749380D01*
X196643428Y-89749380D01*
X196738666Y-89797000D01*
X196786285Y-89844619D01*
X196833904Y-89939857D01*
X196833904Y-90082714D01*
X196786285Y-90177952D01*
X196738666Y-90225571D01*
X196643428Y-90273190D01*
X196262476Y-90273190D01*
X197643428Y-90701761D02*
X197548190Y-90749380D01*
X197357714Y-90749380D01*
X197262476Y-90701761D01*
X197214857Y-90606523D01*
X197214857Y-90225571D01*
X197262476Y-90130333D01*
X197357714Y-90082714D01*
X197548190Y-90082714D01*
X197643428Y-90130333D01*
X197691047Y-90225571D01*
X197691047Y-90320809D01*
X197214857Y-90416047D01*
X198262476Y-90749380D02*
X198167238Y-90701761D01*
X198119619Y-90606523D01*
X198119619Y-89749380D01*
X199072000Y-90749380D02*
X199072000Y-90225571D01*
X199024380Y-90130333D01*
X198929142Y-90082714D01*
X198738666Y-90082714D01*
X198643428Y-90130333D01*
X199072000Y-90701761D02*
X198976761Y-90749380D01*
X198738666Y-90749380D01*
X198643428Y-90701761D01*
X198595809Y-90606523D01*
X198595809Y-90511285D01*
X198643428Y-90416047D01*
X198738666Y-90368428D01*
X198976761Y-90368428D01*
X199072000Y-90320809D01*
X199452952Y-90082714D02*
X199691047Y-90749380D01*
X199929142Y-90082714D02*
X199691047Y-90749380D01*
X199595809Y-90987476D01*
X199548190Y-91035095D01*
X199452952Y-91082714D01*
X113292142Y-102550980D02*
X113387380Y-102550980D01*
X113482619Y-102598600D01*
X113530238Y-102646219D01*
X113577857Y-102741457D01*
X113625476Y-102931933D01*
X113625476Y-103170028D01*
X113577857Y-103360504D01*
X113530238Y-103455742D01*
X113482619Y-103503361D01*
X113387380Y-103550980D01*
X113292142Y-103550980D01*
X113196904Y-103503361D01*
X113149285Y-103455742D01*
X113101666Y-103360504D01*
X113054047Y-103170028D01*
X113054047Y-102931933D01*
X113101666Y-102741457D01*
X113149285Y-102646219D01*
X113196904Y-102598600D01*
X113292142Y-102550980D01*
X114054047Y-103455742D02*
X114101666Y-103503361D01*
X114054047Y-103550980D01*
X114006428Y-103503361D01*
X114054047Y-103455742D01*
X114054047Y-103550980D01*
X115054047Y-103550980D02*
X114482619Y-103550980D01*
X114768333Y-103550980D02*
X114768333Y-102550980D01*
X114673095Y-102693838D01*
X114577857Y-102789076D01*
X114482619Y-102836695D01*
X115911190Y-102884314D02*
X115911190Y-103550980D01*
X115482619Y-102884314D02*
X115482619Y-103408123D01*
X115530238Y-103503361D01*
X115625476Y-103550980D01*
X115768333Y-103550980D01*
X115863571Y-103503361D01*
X115911190Y-103455742D01*
X116720714Y-103027171D02*
X116387380Y-103027171D01*
X116387380Y-103550980D02*
X116387380Y-102550980D01*
X116863571Y-102550980D01*
X204216095Y-99274380D02*
X204882761Y-99274380D01*
X204454190Y-100274380D01*
X205216095Y-99988666D02*
X205692285Y-99988666D01*
X205120857Y-100274380D02*
X205454190Y-99274380D01*
X205787523Y-100274380D01*
X105608571Y-108058380D02*
X105037142Y-108058380D01*
X105322857Y-108058380D02*
X105322857Y-107058380D01*
X105227619Y-107201238D01*
X105132380Y-107296476D01*
X105037142Y-107344095D01*
X106465714Y-107058380D02*
X106275238Y-107058380D01*
X106180000Y-107106000D01*
X106132380Y-107153619D01*
X106037142Y-107296476D01*
X105989523Y-107486952D01*
X105989523Y-107867904D01*
X106037142Y-107963142D01*
X106084761Y-108010761D01*
X106180000Y-108058380D01*
X106370476Y-108058380D01*
X106465714Y-108010761D01*
X106513333Y-107963142D01*
X106560952Y-107867904D01*
X106560952Y-107629809D01*
X106513333Y-107534571D01*
X106465714Y-107486952D01*
X106370476Y-107439333D01*
X106180000Y-107439333D01*
X106084761Y-107486952D01*
X106037142Y-107534571D01*
X105989523Y-107629809D01*
X106989523Y-107391714D02*
X106989523Y-108391714D01*
X106989523Y-107439333D02*
X107084761Y-107391714D01*
X107275238Y-107391714D01*
X107370476Y-107439333D01*
X107418095Y-107486952D01*
X107465714Y-107582190D01*
X107465714Y-107867904D01*
X107418095Y-107963142D01*
X107370476Y-108010761D01*
X107275238Y-108058380D01*
X107084761Y-108058380D01*
X106989523Y-108010761D01*
X108227619Y-107534571D02*
X107894285Y-107534571D01*
X107894285Y-108058380D02*
X107894285Y-107058380D01*
X108370476Y-107058380D01*
D13*
X184275000Y-134250000D02*
X176405000Y-134250000D01*
X185275000Y-124130000D02*
X182850000Y-124130000D01*
X185275000Y-124130000D02*
X185275000Y-133250000D01*
X175405000Y-133250000D02*
X175405000Y-124130000D01*
X180830000Y-124130000D02*
X179491767Y-124130000D01*
X175405000Y-124130000D02*
X178188233Y-124130000D01*
X176405000Y-134250000D02*
X175405000Y-133250000D01*
X185275000Y-133250000D02*
X184275000Y-134250000D01*
X227620000Y-73720000D02*
X227620000Y-63440000D01*
X227680000Y-73960000D02*
X228420000Y-73960000D01*
X218259000Y-73720000D02*
X218259000Y-63440000D01*
X218259000Y-63440000D02*
X228180000Y-63440000D01*
X221219000Y-73720000D02*
X221219000Y-63440000D01*
X222245000Y-64970000D02*
X222281000Y-65005000D01*
X228420000Y-73960000D02*
X228420000Y-73460000D01*
X226120000Y-73720000D02*
X226120000Y-63440000D01*
X224543000Y-67267000D02*
X224589000Y-67314000D01*
X228180000Y-73720000D02*
X228180000Y-63440000D01*
X224759000Y-67074000D02*
X224794000Y-67109000D01*
X222451000Y-64765000D02*
X222497000Y-64812000D01*
X218259000Y-73720000D02*
X228180000Y-73720000D01*
X225055000Y-71804000D02*
G75*
G03*
X225200253Y-71091195I-1535001J683999D01*
G01*
X221985000Y-70436000D02*
G75*
G03*
X221984573Y-71803042I1534993J-684001D01*
G01*
X224204000Y-69584999D02*
G75*
G03*
X222836958Y-69584573I-684000J-1535001D01*
G01*
X225200000Y-71120000D02*
G75*
G03*
X225054756Y-70436682I-1680000J0D01*
G01*
X222836000Y-72655000D02*
G75*
G03*
X224203042Y-72655427I684001J1534993D01*
G01*
X225200000Y-66040000D02*
G75*
G03*
X225200000Y-66040000I-1680000J0D01*
G01*
X215755000Y-133250000D02*
X214755000Y-134250000D01*
X206885000Y-134250000D02*
X205885000Y-133250000D01*
X215755000Y-124130000D02*
X213330000Y-124130000D01*
X205885000Y-133250000D02*
X205885000Y-124130000D01*
X214755000Y-134250000D02*
X206885000Y-134250000D01*
X205885000Y-124130000D02*
X208668233Y-124130000D01*
X211310000Y-124130000D02*
X209971767Y-124130000D01*
X215755000Y-124130000D02*
X215755000Y-133250000D01*
X93970000Y-116840000D02*
X96640000Y-116840000D01*
X83680000Y-83950000D02*
X83680000Y-73530000D01*
X96640000Y-76070000D02*
X91560000Y-76070000D01*
X81270000Y-116840000D02*
X78600000Y-116840000D01*
X91560000Y-73530000D02*
X91560000Y-83950000D01*
X93970000Y-78740000D02*
X96640000Y-78740000D01*
X93970000Y-114300000D02*
X93970000Y-78740000D01*
X93970000Y-114300000D02*
X96640000Y-114300000D01*
X78600000Y-119510000D02*
X96640000Y-119510000D01*
X83680000Y-73530000D02*
X91560000Y-73530000D01*
X91560000Y-83950000D02*
X83680000Y-83950000D01*
X93970000Y-114300000D02*
X93970000Y-116840000D01*
X81270000Y-78740000D02*
X78600000Y-78740000D01*
X78600000Y-76070000D02*
X78600000Y-119510000D01*
X78600000Y-76070000D02*
X83680000Y-76070000D01*
X96640000Y-114300000D02*
X96640000Y-76070000D01*
X81270000Y-116840000D02*
X81270000Y-78740000D01*
X96640000Y-119510000D02*
X96640000Y-116840000D01*
X227680000Y-87935000D02*
X228420000Y-87935000D01*
X227620000Y-87695000D02*
X227620000Y-77415000D01*
X218259000Y-77415000D02*
X228180000Y-77415000D01*
X222245000Y-78945000D02*
X222281000Y-78980000D01*
X228420000Y-87935000D02*
X228420000Y-87435000D01*
X224759000Y-81049000D02*
X224794000Y-81084000D01*
X226120000Y-87695000D02*
X226120000Y-77415000D01*
X218259000Y-87695000D02*
X228180000Y-87695000D01*
X221219000Y-87695000D02*
X221219000Y-77415000D01*
X218259000Y-87695000D02*
X218259000Y-77415000D01*
X222451000Y-78740000D02*
X222497000Y-78787000D01*
X224543000Y-81242000D02*
X224589000Y-81289000D01*
X228180000Y-87695000D02*
X228180000Y-77415000D01*
X222836000Y-86630000D02*
G75*
G03*
X224203042Y-86630427I684001J1534993D01*
G01*
X225055000Y-85779000D02*
G75*
G03*
X225200253Y-85066195I-1535001J683999D01*
G01*
X224204000Y-83559999D02*
G75*
G03*
X222836958Y-83559573I-684000J-1535001D01*
G01*
X221985000Y-84411000D02*
G75*
G03*
X221984573Y-85778042I1534993J-684001D01*
G01*
X225200000Y-85095000D02*
G75*
G03*
X225054756Y-84411682I-1680000J0D01*
G01*
X225200000Y-80015000D02*
G75*
G03*
X225200000Y-80015000I-1680000J0D01*
G01*
X111232800Y-109340800D02*
X111232800Y-111740800D01*
X111232800Y-111740800D02*
X108832800Y-111740800D01*
X108832800Y-109340800D02*
X111232800Y-109340800D01*
X108832800Y-111740800D02*
X108832800Y-109340800D01*
X213290000Y-69920000D02*
X213290000Y-72320000D01*
X210890000Y-72320000D02*
X210890000Y-69920000D01*
X213290000Y-72320000D02*
X210890000Y-72320000D01*
X210890000Y-69920000D02*
X213290000Y-69920000D01*
X106941252Y-90197000D02*
X106418748Y-90197000D01*
X106941252Y-91667000D02*
X106418748Y-91667000D01*
X178082000Y-107610000D02*
X194282000Y-107610000D01*
X194282000Y-107610000D02*
X194282000Y-100670000D01*
X185432000Y-104140000D02*
X186932000Y-104140000D01*
X178082000Y-100670000D02*
X178082000Y-107610000D01*
X187782000Y-106140000D02*
X184582000Y-106140000D01*
X194282000Y-100670000D02*
X178082000Y-100670000D01*
X184582000Y-102140000D02*
X187782000Y-102140000D01*
X115520000Y-89610000D02*
X113705000Y-89610000D01*
X123240000Y-101135000D02*
X123240000Y-100890000D01*
X119380000Y-89365000D02*
X115520000Y-89365000D01*
X119380000Y-89365000D02*
X123240000Y-89365000D01*
X115520000Y-89365000D02*
X115520000Y-89610000D01*
X119380000Y-101135000D02*
X115520000Y-101135000D01*
X123240000Y-89365000D02*
X123240000Y-89610000D01*
X119380000Y-101135000D02*
X123240000Y-101135000D01*
X115520000Y-101135000D02*
X115520000Y-100890000D01*
X164930000Y-104653323D02*
X160748000Y-104653323D01*
X164930000Y-103453323D02*
X160276000Y-103453323D01*
X164930000Y-104973323D02*
X160925000Y-104973323D01*
X164930000Y-105293323D02*
X161127000Y-105293323D01*
X164930000Y-103333323D02*
X160244000Y-103333323D01*
X172694000Y-102012323D02*
X160046000Y-102012323D01*
X172391000Y-103693323D02*
X167810000Y-103693323D01*
X171443000Y-105533323D02*
X167810000Y-105533323D01*
X170010000Y-106933323D02*
X162730000Y-106933323D01*
X170174000Y-106813323D02*
X162566000Y-106813323D01*
X164930000Y-105013323D02*
X160949000Y-105013323D01*
X170226000Y-106773323D02*
X162514000Y-106773323D01*
X172378000Y-103733323D02*
X167810000Y-103733323D01*
X170518000Y-106533323D02*
X162222000Y-106533323D01*
X169709000Y-107133323D02*
X163031000Y-107133323D01*
X170564000Y-106493323D02*
X162176000Y-106493323D01*
X164930000Y-103533323D02*
X160299000Y-103533323D01*
X171666000Y-105213323D02*
X167810000Y-105213323D01*
X169645000Y-107173323D02*
X163095000Y-107173323D01*
X169510000Y-107253323D02*
X163230000Y-107253323D01*
X172571000Y-103013323D02*
X167810000Y-103013323D01*
X164930000Y-105133323D02*
X161023000Y-105133323D01*
X172032000Y-104573323D02*
X167810000Y-104573323D01*
X170975000Y-106093323D02*
X161765000Y-106093323D01*
X172247000Y-104093323D02*
X167810000Y-104093323D01*
X172012000Y-104613323D02*
X167810000Y-104613323D01*
X169051000Y-107493323D02*
X163689000Y-107493323D01*
X164930000Y-104213323D02*
X160542000Y-104213323D01*
X170570000Y-95540241D02*
X169320000Y-95540241D01*
X172586000Y-102933323D02*
X167810000Y-102933323D01*
X172441000Y-103533323D02*
X167810000Y-103533323D01*
X166687000Y-108093323D02*
X166053000Y-108093323D01*
X172091000Y-104453323D02*
X167810000Y-104453323D01*
X171320000Y-105693323D02*
X161420000Y-105693323D01*
X164930000Y-102853323D02*
X160139000Y-102853323D01*
X172337000Y-103853323D02*
X167810000Y-103853323D01*
X164930000Y-104573323D02*
X160708000Y-104573323D01*
X171884000Y-104853323D02*
X167810000Y-104853323D01*
X164930000Y-104813323D02*
X160834000Y-104813323D01*
X164930000Y-105493323D02*
X161268000Y-105493323D01*
X172700000Y-101772323D02*
X160040000Y-101772323D01*
X171717000Y-105133323D02*
X167810000Y-105133323D01*
X164930000Y-104333323D02*
X160594000Y-104333323D01*
X172365000Y-103773323D02*
X167810000Y-103773323D01*
X168964000Y-107533323D02*
X163776000Y-107533323D01*
X172698000Y-101892323D02*
X160042000Y-101892323D01*
X172215000Y-104173323D02*
X167810000Y-104173323D01*
X172634000Y-102653323D02*
X160106000Y-102653323D01*
X171815000Y-104973323D02*
X167810000Y-104973323D01*
X171613000Y-105293323D02*
X167810000Y-105293323D01*
X172685000Y-102172323D02*
X160055000Y-102172323D01*
X170937000Y-106133323D02*
X161803000Y-106133323D01*
X169291000Y-107373323D02*
X163449000Y-107373323D01*
X164930000Y-103653323D02*
X160336000Y-103653323D01*
X172672000Y-102332323D02*
X160068000Y-102332323D01*
X164930000Y-104613323D02*
X160728000Y-104613323D01*
X172404000Y-103653323D02*
X167810000Y-103653323D01*
X164930000Y-103613323D02*
X160323000Y-103613323D01*
X164930000Y-105613323D02*
X161358000Y-105613323D01*
X169439000Y-107293323D02*
X163301000Y-107293323D01*
X164930000Y-105453323D02*
X161239000Y-105453323D01*
X164930000Y-104093323D02*
X160493000Y-104093323D01*
X169214000Y-107413323D02*
X163526000Y-107413323D01*
X172417000Y-103613323D02*
X167810000Y-103613323D01*
X164930000Y-103973323D02*
X160446000Y-103973323D01*
X171288000Y-105733323D02*
X161452000Y-105733323D01*
X170327000Y-106693323D02*
X162413000Y-106693323D01*
X164930000Y-104453323D02*
X160649000Y-104453323D01*
X172526000Y-103213323D02*
X167810000Y-103213323D01*
X169134000Y-107453323D02*
X163606000Y-107453323D01*
X170737000Y-106333323D02*
X162003000Y-106333323D01*
X171971000Y-104693323D02*
X167810000Y-104693323D01*
X171742000Y-105093323D02*
X167810000Y-105093323D01*
X172278000Y-104013323D02*
X167810000Y-104013323D01*
X164930000Y-104293323D02*
X160577000Y-104293323D01*
X164930000Y-104173323D02*
X160525000Y-104173323D01*
X164930000Y-103053323D02*
X160178000Y-103053323D01*
X167611000Y-107973323D02*
X165129000Y-107973323D01*
X170819000Y-106253323D02*
X161921000Y-106253323D01*
X164930000Y-103693323D02*
X160349000Y-103693323D01*
X171413000Y-105573323D02*
X167810000Y-105573323D01*
X167398000Y-108013323D02*
X165342000Y-108013323D01*
X164930000Y-102893323D02*
X160146000Y-102893323D01*
X172072000Y-104493323D02*
X167810000Y-104493323D01*
X171255000Y-105773323D02*
X161485000Y-105773323D01*
X170377000Y-106653323D02*
X162363000Y-106653323D01*
X172696000Y-101972323D02*
X160044000Y-101972323D01*
X169953000Y-106973323D02*
X162787000Y-106973323D01*
X172351000Y-103813323D02*
X167810000Y-103813323D01*
X168874000Y-107573323D02*
X163866000Y-107573323D01*
X164930000Y-103173323D02*
X160204000Y-103173323D01*
X172594000Y-102893323D02*
X167810000Y-102893323D01*
X172682000Y-102212323D02*
X160058000Y-102212323D01*
X171222000Y-105813323D02*
X161518000Y-105813323D01*
X164930000Y-102813323D02*
X160132000Y-102813323D01*
X164930000Y-105653323D02*
X161388000Y-105653323D01*
X172198000Y-104213323D02*
X167810000Y-104213323D01*
X164930000Y-103013323D02*
X160169000Y-103013323D01*
X164930000Y-104533323D02*
X160688000Y-104533323D01*
X164930000Y-104413323D02*
X160631000Y-104413323D01*
X164930000Y-103733323D02*
X160362000Y-103733323D01*
X172700000Y-101812323D02*
X160040000Y-101812323D01*
X172545000Y-103133323D02*
X167810000Y-103133323D01*
X172323000Y-103893323D02*
X167810000Y-103893323D01*
X172052000Y-104533323D02*
X167810000Y-104533323D01*
X169366000Y-107333323D02*
X163374000Y-107333323D01*
X172496000Y-103333323D02*
X167810000Y-103333323D01*
X164930000Y-103373323D02*
X160254000Y-103373323D01*
X172562000Y-103053323D02*
X167810000Y-103053323D01*
X171530000Y-105413323D02*
X167810000Y-105413323D01*
X171120000Y-105933323D02*
X161620000Y-105933323D01*
X172655000Y-102493323D02*
X160085000Y-102493323D01*
X172453000Y-103493323D02*
X167810000Y-103493323D01*
X172660000Y-102453323D02*
X160080000Y-102453323D01*
X170472000Y-106573323D02*
X162268000Y-106573323D01*
X164930000Y-104013323D02*
X160462000Y-104013323D01*
X164930000Y-103413323D02*
X160265000Y-103413323D01*
X164930000Y-105213323D02*
X161074000Y-105213323D01*
X172664000Y-102412323D02*
X160076000Y-102412323D01*
X172163000Y-104293323D02*
X167810000Y-104293323D01*
X171767000Y-105053323D02*
X167810000Y-105053323D01*
X172475000Y-103413323D02*
X167810000Y-103413323D01*
X168470000Y-107733323D02*
X164270000Y-107733323D01*
X164930000Y-103493323D02*
X160287000Y-103493323D01*
X164930000Y-105093323D02*
X160998000Y-105093323D01*
X172700000Y-101732323D02*
X160040000Y-101732323D01*
X164930000Y-103933323D02*
X160431000Y-103933323D01*
X171791000Y-105013323D02*
X167810000Y-105013323D01*
X164930000Y-105573323D02*
X161327000Y-105573323D01*
X172486000Y-103373323D02*
X167810000Y-103373323D01*
X168098000Y-107853323D02*
X164642000Y-107853323D01*
X169772000Y-107093323D02*
X162968000Y-107093323D01*
X172128000Y-104373323D02*
X167810000Y-104373323D01*
X172668000Y-102372323D02*
X160072000Y-102372323D01*
X164930000Y-105053323D02*
X160973000Y-105053323D01*
X164930000Y-103213323D02*
X160214000Y-103213323D01*
X172146000Y-104333323D02*
X167810000Y-104333323D01*
X172650000Y-102533323D02*
X160090000Y-102533323D01*
X164930000Y-104493323D02*
X160668000Y-104493323D01*
X172601000Y-102853323D02*
X167810000Y-102853323D01*
X164930000Y-104693323D02*
X160769000Y-104693323D01*
X164930000Y-104773323D02*
X160812000Y-104773323D01*
X172690000Y-102092323D02*
X160050000Y-102092323D01*
X170066000Y-106893323D02*
X162674000Y-106893323D01*
X172645000Y-102573323D02*
X160095000Y-102573323D01*
X172608000Y-102813323D02*
X167810000Y-102813323D01*
X170695000Y-106373323D02*
X162045000Y-106373323D01*
X164930000Y-103573323D02*
X160311000Y-103573323D01*
X172507000Y-103293323D02*
X167810000Y-103293323D01*
X164930000Y-103093323D02*
X160186000Y-103093323D01*
X170859000Y-106213323D02*
X161881000Y-106213323D01*
X164930000Y-104893323D02*
X160879000Y-104893323D01*
X168682000Y-107653323D02*
X164058000Y-107653323D01*
X164930000Y-105413323D02*
X161210000Y-105413323D01*
X164930000Y-103813323D02*
X160389000Y-103813323D01*
X170608000Y-106453323D02*
X162132000Y-106453323D01*
X171472000Y-105493323D02*
X167810000Y-105493323D01*
X171155000Y-105893323D02*
X161585000Y-105893323D01*
X172464000Y-103453323D02*
X167810000Y-103453323D01*
X169834000Y-107053323D02*
X162906000Y-107053323D01*
X170652000Y-106413323D02*
X162088000Y-106413323D01*
X172699000Y-101852323D02*
X160041000Y-101852323D01*
X164930000Y-105333323D02*
X161154000Y-105333323D01*
X164930000Y-104733323D02*
X160790000Y-104733323D01*
X171558000Y-105373323D02*
X167810000Y-105373323D01*
X169945000Y-94915241D02*
X169945000Y-96165241D01*
X171906000Y-104813323D02*
X167810000Y-104813323D01*
X164930000Y-102933323D02*
X160154000Y-102933323D01*
X169578000Y-107213323D02*
X163162000Y-107213323D01*
X172231000Y-104133323D02*
X167810000Y-104133323D01*
X170778000Y-106293323D02*
X161962000Y-106293323D01*
X172579000Y-102973323D02*
X167810000Y-102973323D01*
X167792000Y-107933323D02*
X164948000Y-107933323D01*
X171992000Y-104653323D02*
X167810000Y-104653323D01*
X172554000Y-103093323D02*
X167810000Y-103093323D01*
X171048000Y-106013323D02*
X161692000Y-106013323D01*
X171501000Y-105453323D02*
X167810000Y-105453323D01*
X171189000Y-105853323D02*
X161551000Y-105853323D01*
X168231000Y-107813323D02*
X164509000Y-107813323D01*
X164930000Y-103773323D02*
X160375000Y-103773323D01*
X171861000Y-104893323D02*
X167810000Y-104893323D01*
X172263000Y-104053323D02*
X167810000Y-104053323D01*
X172697000Y-101932323D02*
X160043000Y-101932323D01*
X172294000Y-103973323D02*
X167810000Y-103973323D01*
X164930000Y-105173323D02*
X161048000Y-105173323D01*
X164930000Y-104133323D02*
X160509000Y-104133323D01*
X172109000Y-104413323D02*
X167810000Y-104413323D01*
X164930000Y-105373323D02*
X161182000Y-105373323D01*
X168579000Y-107693323D02*
X164161000Y-107693323D01*
X172692000Y-102052323D02*
X160048000Y-102052323D01*
X164930000Y-103293323D02*
X160233000Y-103293323D01*
X170898000Y-106173323D02*
X161842000Y-106173323D01*
X172309000Y-103933323D02*
X167810000Y-103933323D01*
X171692000Y-105173323D02*
X167810000Y-105173323D01*
X164930000Y-104253323D02*
X160559000Y-104253323D01*
X167127000Y-108053323D02*
X165613000Y-108053323D01*
X172676000Y-102292323D02*
X160064000Y-102292323D01*
X172516000Y-103253323D02*
X167810000Y-103253323D01*
X171950000Y-104733323D02*
X167810000Y-104733323D01*
X164930000Y-103133323D02*
X160195000Y-103133323D01*
X169894000Y-107013323D02*
X162846000Y-107013323D01*
X164930000Y-102973323D02*
X160161000Y-102973323D01*
X164930000Y-103853323D02*
X160403000Y-103853323D01*
X171586000Y-105333323D02*
X167810000Y-105333323D01*
X172429000Y-103573323D02*
X167810000Y-103573323D01*
X168354000Y-107773323D02*
X164386000Y-107773323D01*
X171928000Y-104773323D02*
X167810000Y-104773323D01*
X171084000Y-105973323D02*
X161656000Y-105973323D01*
X172688000Y-102132323D02*
X160052000Y-102132323D01*
X164930000Y-103893323D02*
X160417000Y-103893323D01*
X172181000Y-104253323D02*
X167810000Y-104253323D01*
X171838000Y-104933323D02*
X167810000Y-104933323D01*
X171012000Y-106053323D02*
X161728000Y-106053323D01*
X172615000Y-102773323D02*
X160125000Y-102773323D01*
X168780000Y-107613323D02*
X163960000Y-107613323D01*
X172628000Y-102693323D02*
X160112000Y-102693323D01*
X164930000Y-105533323D02*
X161297000Y-105533323D01*
X170120000Y-106853323D02*
X162620000Y-106853323D01*
X171382000Y-105613323D02*
X167810000Y-105613323D01*
X164930000Y-104853323D02*
X160856000Y-104853323D01*
X164930000Y-104053323D02*
X160477000Y-104053323D01*
X164930000Y-104933323D02*
X160902000Y-104933323D01*
X172536000Y-103173323D02*
X167810000Y-103173323D01*
X170277000Y-106733323D02*
X162463000Y-106733323D01*
X164930000Y-104373323D02*
X160612000Y-104373323D01*
X172639000Y-102613323D02*
X160101000Y-102613323D01*
X167953000Y-107893323D02*
X164787000Y-107893323D01*
X172622000Y-102733323D02*
X160118000Y-102733323D01*
X170425000Y-106613323D02*
X162315000Y-106613323D01*
X171640000Y-105253323D02*
X167810000Y-105253323D01*
X171352000Y-105653323D02*
X167810000Y-105653323D01*
X172679000Y-102252323D02*
X160061000Y-102252323D01*
X164930000Y-103253323D02*
X160224000Y-103253323D01*
X164930000Y-105253323D02*
X161100000Y-105253323D01*
X172740000Y-101732323D02*
G75*
G03*
X172740000Y-101732323I-6370000J0D01*
G01*
X172575000Y-133250000D02*
X171575000Y-134250000D01*
X172575000Y-124130000D02*
X170150000Y-124130000D01*
X162705000Y-124130000D02*
X165488233Y-124130000D01*
X171575000Y-134250000D02*
X163705000Y-134250000D01*
X172575000Y-124130000D02*
X172575000Y-133250000D01*
X162705000Y-133250000D02*
X162705000Y-124130000D01*
X163705000Y-134250000D02*
X162705000Y-133250000D01*
X168130000Y-124130000D02*
X166791767Y-124130000D01*
X123597936Y-105277500D02*
X124052064Y-105277500D01*
X123597936Y-103807500D02*
X124052064Y-103807500D01*
X147175000Y-133250000D02*
X146175000Y-134250000D01*
X137305000Y-133250000D02*
X137305000Y-124130000D01*
X147175000Y-124130000D02*
X144750000Y-124130000D01*
X142730000Y-124130000D02*
X141391767Y-124130000D01*
X146175000Y-134250000D02*
X138305000Y-134250000D01*
X147175000Y-124130000D02*
X147175000Y-133250000D01*
X137305000Y-124130000D02*
X140088233Y-124130000D01*
X138305000Y-134250000D02*
X137305000Y-133250000D01*
X188002000Y-73600000D02*
X188002000Y-68520000D01*
X185462000Y-74870000D02*
X186732000Y-74870000D01*
X186732000Y-67250000D02*
X185462000Y-67250000D01*
D14*
X185462000Y-72330000D02*
X188002000Y-71060000D01*
D13*
X209772000Y-64570000D02*
X180372000Y-64570000D01*
X180172000Y-76370000D02*
X180172000Y-77870000D01*
X188002000Y-68520000D02*
X185462000Y-68520000D01*
X180172000Y-77870000D02*
X181672000Y-77870000D01*
X186732000Y-73600000D02*
X188002000Y-73600000D01*
X185462000Y-68520000D02*
X185462000Y-73600000D01*
X180372000Y-77670000D02*
X209772000Y-77670000D01*
X185462000Y-73600000D02*
X186732000Y-73600000D01*
X186732000Y-74870000D02*
X186732000Y-73600000D01*
X186732000Y-68520000D02*
X186732000Y-67250000D01*
X180372000Y-64570000D02*
X180372000Y-77670000D01*
X209772000Y-77670000D02*
X209772000Y-64570000D01*
X218259000Y-108010000D02*
X218259000Y-97730000D01*
X228420000Y-108250000D02*
X228420000Y-107750000D01*
X218259000Y-108010000D02*
X228180000Y-108010000D01*
X224759000Y-101364000D02*
X224794000Y-101399000D01*
X227620000Y-108010000D02*
X227620000Y-97730000D01*
X218259000Y-97730000D02*
X228180000Y-97730000D01*
X222451000Y-99055000D02*
X222497000Y-99102000D01*
X228180000Y-108010000D02*
X228180000Y-97730000D01*
X226120000Y-108010000D02*
X226120000Y-97730000D01*
X227680000Y-108250000D02*
X228420000Y-108250000D01*
X224543000Y-101557000D02*
X224589000Y-101604000D01*
X222245000Y-99260000D02*
X222281000Y-99295000D01*
X221219000Y-108010000D02*
X221219000Y-97730000D01*
X224204000Y-103874999D02*
G75*
G03*
X222836958Y-103874573I-684000J-1535001D01*
G01*
X222836000Y-106945000D02*
G75*
G03*
X224203042Y-106945427I684001J1534993D01*
G01*
X221985000Y-104726000D02*
G75*
G03*
X221984573Y-106093042I1534993J-684001D01*
G01*
X225055000Y-106094000D02*
G75*
G03*
X225200253Y-105381195I-1535001J683999D01*
G01*
X225200000Y-105410000D02*
G75*
G03*
X225054756Y-104726682I-1680000J0D01*
G01*
X225200000Y-100330000D02*
G75*
G03*
X225200000Y-100330000I-1680000J0D01*
G01*
X110009000Y-79509252D02*
X110009000Y-78986748D01*
X111479000Y-79509252D02*
X111479000Y-78986748D01*
X150290000Y-94180000D02*
X150290000Y-91240000D01*
X145870000Y-91240000D02*
X145870000Y-91370000D01*
X150410000Y-94180000D02*
X150410000Y-91240000D01*
X151310000Y-94180000D02*
X145870000Y-94180000D01*
X151310000Y-91240000D02*
X145870000Y-91240000D01*
X150530000Y-94180000D02*
X150530000Y-91240000D01*
X151310000Y-91370000D02*
X151310000Y-91240000D01*
X145870000Y-94180000D02*
X145870000Y-94050000D01*
X151310000Y-94050000D02*
X151310000Y-94180000D01*
X103760000Y-125502929D02*
X103760000Y-125900000D01*
X107060000Y-134560000D02*
X106300000Y-134560000D01*
X102810000Y-125900000D02*
X102810000Y-128560000D01*
X107060000Y-128560000D02*
X107060000Y-134560000D01*
X106400000Y-128560000D02*
X106400000Y-134560000D01*
X105410000Y-125900000D02*
X105410000Y-128560000D01*
X107000000Y-128560000D02*
X107000000Y-134560000D01*
X106760000Y-128560000D02*
X106760000Y-134560000D01*
X108010000Y-128560000D02*
X108010000Y-125900000D01*
X107950000Y-123190000D02*
X107950000Y-124460000D01*
X104520000Y-128560000D02*
X104520000Y-134560000D01*
X102810000Y-128560000D02*
X108010000Y-128560000D01*
X104520000Y-125502929D02*
X104520000Y-125900000D01*
X106680000Y-123190000D02*
X107950000Y-123190000D01*
X104520000Y-134560000D02*
X103760000Y-134560000D01*
X106520000Y-128560000D02*
X106520000Y-134560000D01*
X106300000Y-134560000D02*
X106300000Y-128560000D01*
X108010000Y-125900000D02*
X102810000Y-125900000D01*
X106880000Y-128560000D02*
X106880000Y-134560000D01*
X107060000Y-125570000D02*
X107060000Y-125900000D01*
X106640000Y-128560000D02*
X106640000Y-134560000D01*
X103760000Y-134560000D02*
X103760000Y-128560000D01*
X106300000Y-125570000D02*
X106300000Y-125900000D01*
X159875000Y-133250000D02*
X158875000Y-134250000D01*
X155430000Y-124130000D02*
X154091767Y-124130000D01*
X150005000Y-124130000D02*
X152788233Y-124130000D01*
X151005000Y-134250000D02*
X150005000Y-133250000D01*
X159875000Y-124130000D02*
X157450000Y-124130000D01*
X158875000Y-134250000D02*
X151005000Y-134250000D01*
X150005000Y-133250000D02*
X150005000Y-124130000D01*
X159875000Y-124130000D02*
X159875000Y-133250000D01*
X104155000Y-95290000D02*
X104155000Y-101540000D01*
X109205000Y-95290000D02*
X109205000Y-101540000D01*
X109205000Y-95290000D02*
G75*
G03*
X104155000Y-95290000I-2525000J0D01*
G01*
X104155000Y-101540000D02*
G75*
G03*
X109205000Y-101540000I2525000J0D01*
G01*
X171730000Y-90450000D02*
X167880000Y-90450000D01*
X170665563Y-79730000D02*
X171730000Y-80794437D01*
X162074437Y-79730000D02*
X161010000Y-80794437D01*
X170665563Y-79730000D02*
X167880000Y-79730000D01*
X161010000Y-90450000D02*
X164860000Y-90450000D01*
X169130000Y-78240000D02*
X169130000Y-79490000D01*
X162074437Y-79730000D02*
X164860000Y-79730000D01*
X169755000Y-78865000D02*
X168505000Y-78865000D01*
X171730000Y-80794437D02*
X171730000Y-90450000D01*
X161010000Y-80794437D02*
X161010000Y-90450000D01*
D10*
X111560000Y-120205000D02*
X113080000Y-120205000D01*
X120600000Y-120205000D02*
X122120000Y-120205000D01*
X111560000Y-133925000D02*
X122120000Y-133925000D01*
X122120000Y-133925000D02*
X122120000Y-120205000D01*
X111560000Y-133925000D02*
X111560000Y-120205000D01*
D13*
X227620000Y-121980000D02*
X227620000Y-111700000D01*
X226120000Y-121980000D02*
X226120000Y-111700000D01*
X221219000Y-121980000D02*
X221219000Y-111700000D01*
X222245000Y-113230000D02*
X222281000Y-113265000D01*
X218259000Y-121980000D02*
X218259000Y-111700000D01*
X227680000Y-122220000D02*
X228420000Y-122220000D01*
X218259000Y-121980000D02*
X228180000Y-121980000D01*
X224759000Y-115334000D02*
X224794000Y-115369000D01*
X228420000Y-122220000D02*
X228420000Y-121720000D01*
X228180000Y-121980000D02*
X228180000Y-111700000D01*
X222451000Y-113025000D02*
X222497000Y-113072000D01*
X224543000Y-115527000D02*
X224589000Y-115574000D01*
X218259000Y-111700000D02*
X228180000Y-111700000D01*
X224204000Y-117844999D02*
G75*
G03*
X222836958Y-117844573I-684000J-1535001D01*
G01*
X225055000Y-120064000D02*
G75*
G03*
X225200253Y-119351195I-1535001J683999D01*
G01*
X221985000Y-118696000D02*
G75*
G03*
X221984573Y-120063042I1534993J-684001D01*
G01*
X222836000Y-120915000D02*
G75*
G03*
X224203042Y-120915427I684001J1534993D01*
G01*
X225200000Y-119380000D02*
G75*
G03*
X225054756Y-118696682I-1680000J0D01*
G01*
X225200000Y-114300000D02*
G75*
G03*
X225200000Y-114300000I-1680000J0D01*
G01*
X187960000Y-112903000D02*
X203200000Y-112903000D01*
X203200000Y-112903000D02*
X203200000Y-133477000D01*
X203200000Y-133477000D02*
X187960000Y-133477000D01*
X187960000Y-133477000D02*
X187960000Y-112903000D01*
D10*
X124260000Y-133925000D02*
X124260000Y-120205000D01*
X134820000Y-133925000D02*
X134820000Y-120205000D01*
X124260000Y-133925000D02*
X134820000Y-133925000D01*
X133300000Y-120205000D02*
X134820000Y-120205000D01*
X124260000Y-120205000D02*
X125780000Y-120205000D01*
D13*
X137801200Y-90849600D02*
X137801200Y-93249600D01*
X135401200Y-90849600D02*
X137801200Y-90849600D01*
X137801200Y-93249600D02*
X135401200Y-93249600D01*
X135401200Y-93249600D02*
X135401200Y-90849600D01*
X226120000Y-97850000D02*
X226120000Y-87570000D01*
X218259000Y-97850000D02*
X228180000Y-97850000D01*
X224759000Y-91204000D02*
X224794000Y-91239000D01*
X224543000Y-91397000D02*
X224589000Y-91444000D01*
X222245000Y-89100000D02*
X222281000Y-89135000D01*
X227680000Y-98090000D02*
X228420000Y-98090000D01*
X221219000Y-97850000D02*
X221219000Y-87570000D01*
X218259000Y-97850000D02*
X218259000Y-87570000D01*
X227620000Y-97850000D02*
X227620000Y-87570000D01*
X222451000Y-88895000D02*
X222497000Y-88942000D01*
X228180000Y-97850000D02*
X228180000Y-87570000D01*
X228420000Y-98090000D02*
X228420000Y-97590000D01*
X218259000Y-87570000D02*
X228180000Y-87570000D01*
X221985000Y-94566000D02*
G75*
G03*
X221984573Y-95933042I1534993J-684001D01*
G01*
X225055000Y-95934000D02*
G75*
G03*
X225200253Y-95221195I-1535001J683999D01*
G01*
X224204000Y-93714999D02*
G75*
G03*
X222836958Y-93714573I-684000J-1535001D01*
G01*
X225200000Y-95250000D02*
G75*
G03*
X225054756Y-94566682I-1680000J0D01*
G01*
X222836000Y-96785000D02*
G75*
G03*
X224203042Y-96785427I684001J1534993D01*
G01*
X225200000Y-90170000D02*
G75*
G03*
X225200000Y-90170000I-1680000J0D01*
G01*
X119380000Y-107295000D02*
X115930000Y-107295000D01*
X119380000Y-112415000D02*
X121330000Y-112415000D01*
X119380000Y-112415000D02*
X117430000Y-112415000D01*
X119380000Y-107295000D02*
X121330000Y-107295000D01*
X100390000Y-59690000D02*
X100390000Y-67370000D01*
X97730000Y-59690000D02*
X100390000Y-59690000D01*
X97730000Y-67370000D02*
X100390000Y-67370000D01*
X97730000Y-57090000D02*
X99060000Y-57090000D01*
X97730000Y-58420000D02*
X97730000Y-57090000D01*
X97730000Y-59690000D02*
X97730000Y-67370000D01*
X97155000Y-52705000D02*
X140970000Y-52705000D01*
X140970000Y-52705000D02*
X140970000Y-71755000D01*
X140970000Y-71755000D02*
X97155000Y-71755000D01*
X97155000Y-71755000D02*
X97155000Y-52705000D01*
X105182936Y-116994000D02*
X105637064Y-116994000D01*
X105182936Y-118464000D02*
X105637064Y-118464000D01*
X147640000Y-60690000D02*
X146420000Y-60690000D01*
X168540000Y-50970000D02*
X157480000Y-50970000D01*
X165480000Y-60990000D02*
X168840000Y-60990000D01*
X167320000Y-57690000D02*
X167320000Y-60690000D01*
X167320000Y-60690000D02*
X168540000Y-60690000D01*
X165480000Y-60740000D02*
X165480000Y-60990000D01*
X146420000Y-60690000D02*
X146420000Y-50970000D01*
X168540000Y-60690000D02*
X168540000Y-50970000D01*
X146420000Y-50970000D02*
X157480000Y-50970000D01*
X168840000Y-60990000D02*
X168840000Y-58490000D01*
X147640000Y-57690000D02*
X147640000Y-60690000D01*
X128751000Y-79475064D02*
X128751000Y-79020936D01*
X127281000Y-79475064D02*
X127281000Y-79020936D01*
X158115000Y-75819000D02*
X140081000Y-75819000D01*
X140081000Y-75819000D02*
X140081000Y-88773000D01*
X140081000Y-88773000D02*
X158115000Y-88773000D01*
X158115000Y-88773000D02*
X158115000Y-75819000D01*
X91470000Y-130858500D02*
X90930000Y-130858500D01*
X90930000Y-127518500D02*
X90410000Y-127518500D01*
X90930000Y-128028500D02*
X90930000Y-127518500D01*
X97610000Y-128028500D02*
X97610000Y-127518500D01*
X98130000Y-128028500D02*
X98130000Y-127518500D01*
X95970000Y-130858500D02*
X92570000Y-130858500D01*
X98130000Y-134528500D02*
X98130000Y-130628500D01*
X90410000Y-128028500D02*
X90410000Y-127518500D01*
X98130000Y-127518500D02*
X97610000Y-127518500D01*
X90930000Y-130858500D02*
X90930000Y-130628500D01*
X98130000Y-134528500D02*
X90410000Y-134528500D01*
X97610000Y-130858500D02*
X97070000Y-130858500D01*
X97610000Y-130858500D02*
X97610000Y-130628500D01*
X90410000Y-134528500D02*
X90410000Y-130628500D01*
X114626000Y-77314677D02*
X118139000Y-77314677D01*
X114356000Y-78354677D02*
X124404000Y-78354677D01*
X114940000Y-76634677D02*
X118139000Y-76634677D01*
X115819000Y-75474677D02*
X118139000Y-75474677D01*
X120621000Y-76834677D02*
X123925000Y-76834677D01*
X116224000Y-75114677D02*
X122536000Y-75114677D01*
X114462000Y-77834677D02*
X118139000Y-77834677D01*
X115159000Y-76274677D02*
X118139000Y-76274677D01*
X115488000Y-75834677D02*
X118139000Y-75834677D01*
X120621000Y-76234677D02*
X123574000Y-76234677D01*
X114706000Y-77114677D02*
X118139000Y-77114677D01*
X114312000Y-78755677D02*
X124448000Y-78755677D01*
X116870000Y-74674677D02*
X121890000Y-74674677D01*
X120621000Y-77394677D02*
X124163000Y-77394677D01*
X114741000Y-77034677D02*
X118139000Y-77034677D01*
X115082000Y-76394677D02*
X118139000Y-76394677D01*
X117343000Y-74434677D02*
X121417000Y-74434677D01*
X116610000Y-74834677D02*
X122150000Y-74834677D01*
X120621000Y-77834677D02*
X124298000Y-77834677D01*
X120621000Y-76274677D02*
X123601000Y-76274677D01*
X116274000Y-75074677D02*
X122486000Y-75074677D01*
X120621000Y-75714677D02*
X123169000Y-75714677D01*
X120621000Y-75754677D02*
X123204000Y-75754677D01*
X120621000Y-77154677D02*
X124070000Y-77154677D01*
X115214000Y-76194677D02*
X118139000Y-76194677D01*
X116079000Y-75234677D02*
X122681000Y-75234677D01*
X116941000Y-74634677D02*
X121819000Y-74634677D01*
X114340000Y-78475677D02*
X124420000Y-78475677D01*
X115107000Y-76354677D02*
X118139000Y-76354677D01*
X115701000Y-75594677D02*
X118139000Y-75594677D01*
X116174000Y-75154677D02*
X122586000Y-75154677D01*
X114300000Y-79075677D02*
X124460000Y-79075677D01*
X116380000Y-74994677D02*
X122380000Y-74994677D01*
X114315000Y-78715677D02*
X124445000Y-78715677D01*
X120621000Y-76154677D02*
X123518000Y-76154677D01*
X120621000Y-77234677D02*
X124103000Y-77234677D01*
X116005000Y-84095323D02*
X117005000Y-84095323D01*
X114362000Y-78314677D02*
X124398000Y-78314677D01*
X114835000Y-76834677D02*
X118139000Y-76834677D01*
X115330000Y-76034677D02*
X118139000Y-76034677D01*
X114369000Y-78274677D02*
X124391000Y-78274677D01*
X114690000Y-77154677D02*
X118139000Y-77154677D01*
X118781000Y-74034677D02*
X119979000Y-74034677D01*
X114897000Y-76714677D02*
X118139000Y-76714677D01*
X120621000Y-76594677D02*
X123797000Y-76594677D01*
X117255000Y-74474677D02*
X121505000Y-74474677D01*
X114452000Y-77874677D02*
X124308000Y-77874677D01*
X120621000Y-75794677D02*
X123238000Y-75794677D01*
X114424000Y-77994677D02*
X124336000Y-77994677D01*
X120621000Y-77474677D02*
X124191000Y-77474677D01*
X120621000Y-75914677D02*
X123337000Y-75914677D01*
X120621000Y-77354677D02*
X124148000Y-77354677D01*
X115627000Y-75674677D02*
X118139000Y-75674677D01*
X120621000Y-77434677D02*
X124177000Y-77434677D01*
X120621000Y-76674677D02*
X123842000Y-76674677D01*
X114326000Y-78595677D02*
X124434000Y-78595677D01*
X114495000Y-77714677D02*
X118139000Y-77714677D01*
X115988000Y-75314677D02*
X122772000Y-75314677D01*
X120621000Y-77674677D02*
X124254000Y-77674677D01*
X114855000Y-76794677D02*
X118139000Y-76794677D01*
X116033000Y-75274677D02*
X122727000Y-75274677D01*
X115186000Y-76234677D02*
X118139000Y-76234677D01*
X118150000Y-74154677D02*
X120610000Y-74154677D01*
X114673000Y-77194677D02*
X118139000Y-77194677D01*
X120621000Y-76914677D02*
X123964000Y-76914677D01*
X120621000Y-76634677D02*
X123820000Y-76634677D01*
X115270000Y-76114677D02*
X118139000Y-76114677D01*
X120621000Y-75554677D02*
X123020000Y-75554677D01*
X114330000Y-78555677D02*
X124430000Y-78555677D01*
X120621000Y-77314677D02*
X124134000Y-77314677D01*
X114556000Y-77514677D02*
X118139000Y-77514677D01*
X115740000Y-75554677D02*
X118139000Y-75554677D01*
X116126000Y-75194677D02*
X122634000Y-75194677D01*
X114473000Y-77794677D02*
X118139000Y-77794677D01*
X120621000Y-77274677D02*
X124118000Y-77274677D01*
X115360000Y-75994677D02*
X118139000Y-75994677D01*
X114543000Y-77554677D02*
X118139000Y-77554677D01*
X114723000Y-77074677D02*
X118139000Y-77074677D01*
X120621000Y-77034677D02*
X124019000Y-77034677D01*
X120621000Y-77754677D02*
X124277000Y-77754677D01*
X115391000Y-75954677D02*
X118139000Y-75954677D01*
X120621000Y-76514677D02*
X123751000Y-76514677D01*
X120621000Y-76434677D02*
X123703000Y-76434677D01*
X114777000Y-76954677D02*
X118139000Y-76954677D01*
X120621000Y-76034677D02*
X123430000Y-76034677D01*
X116550000Y-74874677D02*
X122210000Y-74874677D01*
X114318000Y-78675677D02*
X124442000Y-78675677D01*
X120621000Y-75394677D02*
X122858000Y-75394677D01*
X114376000Y-78234677D02*
X124384000Y-78234677D01*
X114506000Y-77674677D02*
X118139000Y-77674677D01*
X120621000Y-77594677D02*
X124230000Y-77594677D01*
X120621000Y-76354677D02*
X123653000Y-76354677D01*
X120621000Y-77794677D02*
X124287000Y-77794677D01*
X120621000Y-76994677D02*
X124001000Y-76994677D01*
X116435000Y-74954677D02*
X122325000Y-74954677D01*
X115522000Y-75794677D02*
X118139000Y-75794677D01*
X117171000Y-74514677D02*
X121589000Y-74514677D01*
X114398000Y-78114677D02*
X124362000Y-78114677D01*
X114406000Y-78074677D02*
X124354000Y-78074677D01*
X114383000Y-78194677D02*
X124377000Y-78194677D01*
X120621000Y-77514677D02*
X124204000Y-77514677D01*
X120621000Y-76474677D02*
X123727000Y-76474677D01*
X114322000Y-78635677D02*
X124438000Y-78635677D01*
X120621000Y-76194677D02*
X123546000Y-76194677D01*
X120621000Y-75874677D02*
X123305000Y-75874677D01*
X116801000Y-74714677D02*
X121959000Y-74714677D01*
X114796000Y-76914677D02*
X118139000Y-76914677D01*
X115591000Y-75714677D02*
X118139000Y-75714677D01*
X114302000Y-78955677D02*
X124458000Y-78955677D01*
X114307000Y-78835677D02*
X124453000Y-78835677D01*
X114918000Y-76674677D02*
X118139000Y-76674677D01*
X120621000Y-76394677D02*
X123678000Y-76394677D01*
X120621000Y-76114677D02*
X123490000Y-76114677D01*
X120621000Y-76794677D02*
X123905000Y-76794677D01*
X117436000Y-74394677D02*
X121324000Y-74394677D01*
X114433000Y-77954677D02*
X124327000Y-77954677D01*
X115902000Y-75394677D02*
X118139000Y-75394677D01*
X120621000Y-75994677D02*
X123400000Y-75994677D01*
X115057000Y-76434677D02*
X118139000Y-76434677D01*
X114350000Y-78394677D02*
X124410000Y-78394677D01*
X115860000Y-75434677D02*
X118139000Y-75434677D01*
X120621000Y-75954677D02*
X123369000Y-75954677D01*
X115300000Y-76074677D02*
X118139000Y-76074677D01*
X114305000Y-78875677D02*
X124455000Y-78875677D01*
X114300000Y-79115677D02*
X124460000Y-79115677D01*
X114657000Y-77234677D02*
X118139000Y-77234677D01*
X120621000Y-75674677D02*
X123133000Y-75674677D01*
X120621000Y-76754677D02*
X123884000Y-76754677D01*
X120621000Y-75834677D02*
X123272000Y-75834677D01*
X114518000Y-77634677D02*
X118139000Y-77634677D01*
X120621000Y-77074677D02*
X124037000Y-77074677D01*
X116505000Y-84595323D02*
X116505000Y-83595323D01*
X115455000Y-75874677D02*
X118139000Y-75874677D01*
X120621000Y-75434677D02*
X122900000Y-75434677D01*
X115242000Y-76154677D02*
X118139000Y-76154677D01*
X116491000Y-74914677D02*
X122269000Y-74914677D01*
X114569000Y-77474677D02*
X118139000Y-77474677D01*
X118002000Y-74194677D02*
X120758000Y-74194677D01*
X114759000Y-76994677D02*
X118139000Y-76994677D01*
X114301000Y-78995677D02*
X124459000Y-78995677D01*
X116671000Y-74794677D02*
X122089000Y-74794677D01*
X120621000Y-77714677D02*
X124265000Y-77714677D01*
X120621000Y-76874677D02*
X123944000Y-76874677D01*
X120621000Y-77194677D02*
X124087000Y-77194677D01*
X114415000Y-78034677D02*
X124345000Y-78034677D01*
X114612000Y-77354677D02*
X118139000Y-77354677D01*
X114390000Y-78154677D02*
X124370000Y-78154677D01*
X120621000Y-76074677D02*
X123460000Y-76074677D01*
X120621000Y-76714677D02*
X123863000Y-76714677D01*
X118518000Y-74074677D02*
X120242000Y-74074677D01*
X114442000Y-77914677D02*
X124318000Y-77914677D01*
X114335000Y-78515677D02*
X124425000Y-78515677D01*
X114310000Y-78795677D02*
X124450000Y-78795677D01*
X120621000Y-75594677D02*
X123059000Y-75594677D01*
X114345000Y-78435677D02*
X124415000Y-78435677D01*
X120621000Y-76954677D02*
X123983000Y-76954677D01*
X114985000Y-76554677D02*
X118139000Y-76554677D01*
X114530000Y-77594677D02*
X118139000Y-77594677D01*
X118318000Y-74114677D02*
X120442000Y-74114677D01*
X116326000Y-75034677D02*
X122434000Y-75034677D01*
X114303000Y-78915677D02*
X124457000Y-78915677D01*
X115423000Y-75914677D02*
X118139000Y-75914677D01*
X120621000Y-77114677D02*
X124054000Y-77114677D01*
X114963000Y-76594677D02*
X118139000Y-76594677D01*
X120621000Y-75474677D02*
X122941000Y-75474677D01*
X114583000Y-77434677D02*
X118139000Y-77434677D01*
X117015000Y-74594677D02*
X121745000Y-74594677D01*
X120621000Y-77554677D02*
X124217000Y-77554677D01*
X120621000Y-76554677D02*
X123775000Y-76554677D01*
X120621000Y-76314677D02*
X123627000Y-76314677D01*
X117870000Y-74234677D02*
X120890000Y-74234677D01*
X114300000Y-79035677D02*
X124460000Y-79035677D01*
X117638000Y-74314677D02*
X121122000Y-74314677D01*
X115664000Y-75634677D02*
X118139000Y-75634677D01*
X117091000Y-74554677D02*
X121669000Y-74554677D01*
X120621000Y-75514677D02*
X122981000Y-75514677D01*
X115944000Y-75354677D02*
X122816000Y-75354677D01*
X115033000Y-76474677D02*
X118139000Y-76474677D01*
X115779000Y-75514677D02*
X118139000Y-75514677D01*
X116735000Y-74754677D02*
X122025000Y-74754677D01*
X114483000Y-77754677D02*
X118139000Y-77754677D01*
X120621000Y-75634677D02*
X123096000Y-75634677D01*
X114642000Y-77274677D02*
X118139000Y-77274677D01*
X114816000Y-76874677D02*
X118139000Y-76874677D01*
X115556000Y-75754677D02*
X118139000Y-75754677D01*
X115133000Y-76314677D02*
X118139000Y-76314677D01*
X114876000Y-76754677D02*
X118139000Y-76754677D01*
X117534000Y-74354677D02*
X121226000Y-74354677D01*
X114597000Y-77394677D02*
X118139000Y-77394677D01*
X117750000Y-74274677D02*
X121010000Y-74274677D01*
X120621000Y-77634677D02*
X124242000Y-77634677D01*
X115009000Y-76514677D02*
X118139000Y-76514677D01*
X124500000Y-79115677D02*
G75*
G03*
X124500000Y-79115677I-5120000J0D01*
G01*
X185462000Y-92523000D02*
X186732000Y-92523000D01*
X209772000Y-95323000D02*
X209772000Y-82223000D01*
X186732000Y-91253000D02*
X188002000Y-91253000D01*
X186732000Y-84903000D02*
X185462000Y-84903000D01*
X180172000Y-94023000D02*
X180172000Y-95523000D01*
X186732000Y-92523000D02*
X186732000Y-91253000D01*
X180172000Y-95523000D02*
X181672000Y-95523000D01*
X188002000Y-91253000D02*
X188002000Y-86173000D01*
X186732000Y-86173000D02*
X186732000Y-84903000D01*
X180372000Y-95323000D02*
X209772000Y-95323000D01*
X185462000Y-91253000D02*
X186732000Y-91253000D01*
D14*
X185462000Y-89983000D02*
X188002000Y-88713000D01*
D13*
X209772000Y-82223000D02*
X180372000Y-82223000D01*
X185462000Y-86173000D02*
X185462000Y-91253000D01*
X188002000Y-86173000D02*
X185462000Y-86173000D01*
X180372000Y-82223000D02*
X180372000Y-95323000D01*
X115196252Y-104040000D02*
X114673748Y-104040000D01*
X115196252Y-105510000D02*
X114673748Y-105510000D01*
X196878000Y-100670000D02*
X196878000Y-107610000D01*
X213078000Y-107610000D02*
X213078000Y-100670000D01*
X213078000Y-100670000D02*
X196878000Y-100670000D01*
X206578000Y-106140000D02*
X203378000Y-106140000D01*
X204228000Y-104140000D02*
X205728000Y-104140000D01*
X196878000Y-107610000D02*
X213078000Y-107610000D01*
X203378000Y-102140000D02*
X206578000Y-102140000D01*
X106941252Y-106653000D02*
X106418748Y-106653000D01*
X106941252Y-105183000D02*
X106418748Y-105183000D01*
X153790000Y-103645000D02*
X153790000Y-102145000D01*
X152840000Y-102145000D02*
X152840000Y-97020000D01*
X153790000Y-102145000D02*
X152840000Y-102145000D01*
X143390000Y-102145000D02*
X144340000Y-102145000D01*
X144340000Y-102145000D02*
X144340000Y-101045000D01*
X143390000Y-103645000D02*
X143390000Y-102145000D01*
%LPC*%
G36*
X160329841Y-69877114D02*
G01*
X160368592Y-69891122D01*
X160372709Y-69900710D01*
X160368928Y-69927272D01*
X160358230Y-69992714D01*
X160341576Y-70091536D01*
X160319929Y-70218236D01*
X160294251Y-70367315D01*
X160265503Y-70533270D01*
X160234648Y-70710601D01*
X160202648Y-70893807D01*
X160170465Y-71077388D01*
X160139062Y-71255842D01*
X160109400Y-71423668D01*
X160082441Y-71575366D01*
X160059147Y-71705434D01*
X160040482Y-71808372D01*
X160027406Y-71878679D01*
X160021949Y-71906207D01*
X160008688Y-71967826D01*
X161240858Y-71979814D01*
X161203172Y-72216460D01*
X160461147Y-72216460D01*
X160283387Y-72215966D01*
X160120903Y-72214566D01*
X159978952Y-72212378D01*
X159862794Y-72209523D01*
X159777687Y-72206120D01*
X159728890Y-72202290D01*
X159719127Y-72199556D01*
X159722934Y-72174724D01*
X159733868Y-72109717D01*
X159751196Y-72008744D01*
X159774185Y-71876016D01*
X159802103Y-71715741D01*
X159834219Y-71532131D01*
X159869800Y-71329394D01*
X159908114Y-71111740D01*
X159921961Y-71033230D01*
X159961014Y-70811810D01*
X159997596Y-70604204D01*
X160030975Y-70414566D01*
X160060423Y-70247053D01*
X160085209Y-70105821D01*
X160104604Y-69995025D01*
X160117878Y-69918822D01*
X160124301Y-69881367D01*
X160124795Y-69878172D01*
X160145190Y-69875085D01*
X160197793Y-69873039D01*
X160248758Y-69872538D01*
X160329841Y-69877114D01*
G37*
G36*
X167652817Y-69856606D02*
G01*
X167848655Y-69910856D01*
X168028023Y-70000134D01*
X168141050Y-70084283D01*
X168189804Y-70135864D01*
X168241317Y-70204736D01*
X168289858Y-70280938D01*
X168329696Y-70354508D01*
X168355102Y-70415484D01*
X168360344Y-70453906D01*
X168357002Y-70459659D01*
X168329007Y-70471738D01*
X168274020Y-70489134D01*
X168208992Y-70507135D01*
X168150876Y-70521027D01*
X168117849Y-70526131D01*
X168101569Y-70508437D01*
X168071250Y-70463143D01*
X168049106Y-70426604D01*
X167945345Y-70292320D01*
X167812131Y-70189268D01*
X167653944Y-70119006D01*
X167475264Y-70083092D01*
X167280567Y-70083084D01*
X167130089Y-70106828D01*
X166926226Y-70174251D01*
X166743204Y-70278554D01*
X166584423Y-70415052D01*
X166453286Y-70579061D01*
X166353193Y-70765895D01*
X166287546Y-70970870D01*
X166259744Y-71189300D01*
X166261193Y-71303682D01*
X166291021Y-71493337D01*
X166355735Y-71654566D01*
X166454725Y-71786726D01*
X166587379Y-71889171D01*
X166753088Y-71961258D01*
X166919137Y-71998132D01*
X167114986Y-72005518D01*
X167317882Y-71975814D01*
X167516471Y-71912713D01*
X167699402Y-71819908D01*
X167855323Y-71701091D01*
X167867144Y-71689738D01*
X167929839Y-71625436D01*
X167967162Y-71575265D01*
X167987558Y-71523552D01*
X167999471Y-71454622D01*
X168001146Y-71441010D01*
X168011672Y-71364003D01*
X168022300Y-71303085D01*
X168028742Y-71277611D01*
X168025499Y-71265869D01*
X168001659Y-71257474D01*
X167951690Y-71251934D01*
X167870059Y-71248756D01*
X167751234Y-71247448D01*
X167688613Y-71247338D01*
X167568455Y-71246724D01*
X167465951Y-71245028D01*
X167388739Y-71242472D01*
X167344456Y-71239276D01*
X167336868Y-71237178D01*
X167341207Y-71211177D01*
X167352316Y-71155696D01*
X167361273Y-71113221D01*
X167385678Y-70999423D01*
X167845834Y-70999423D01*
X168009110Y-71000069D01*
X168131775Y-71002187D01*
X168218273Y-71006049D01*
X168273054Y-71011929D01*
X168300562Y-71020098D01*
X168305979Y-71027595D01*
X168302193Y-71056649D01*
X168291538Y-71123854D01*
X168275063Y-71222986D01*
X168253812Y-71347821D01*
X168228834Y-71492134D01*
X168204570Y-71630479D01*
X168177286Y-71785325D01*
X168152779Y-71924807D01*
X168132083Y-72043008D01*
X168116231Y-72134014D01*
X168106257Y-72191908D01*
X168103160Y-72210825D01*
X168082866Y-72214041D01*
X168030994Y-72216080D01*
X167990461Y-72216460D01*
X167926170Y-72213149D01*
X167885369Y-72204685D01*
X167877773Y-72198061D01*
X167881603Y-72167418D01*
X167891514Y-72107123D01*
X167901860Y-72049360D01*
X167913099Y-71977922D01*
X167917536Y-71926331D01*
X167915337Y-71908446D01*
X167892968Y-71914737D01*
X167845652Y-71941836D01*
X167795464Y-71975620D01*
X167577749Y-72105998D01*
X167349931Y-72195718D01*
X167116606Y-72243588D01*
X166882369Y-72248415D01*
X166786498Y-72237578D01*
X166626202Y-72196296D01*
X166464556Y-72125448D01*
X166320357Y-72034003D01*
X166267911Y-71990137D01*
X166149862Y-71851690D01*
X166064614Y-71687945D01*
X166012040Y-71504385D01*
X165992010Y-71306492D01*
X166004396Y-71099749D01*
X166049070Y-70889638D01*
X166125903Y-70681641D01*
X166234766Y-70481242D01*
X166305671Y-70379636D01*
X166455173Y-70214693D01*
X166628611Y-70078277D01*
X166820214Y-69971317D01*
X167024208Y-69894740D01*
X167234821Y-69849477D01*
X167446281Y-69836456D01*
X167652817Y-69856606D01*
G37*
G36*
X146971282Y-65192863D02*
G01*
X147086335Y-65199557D01*
X147244334Y-65210631D01*
X147445789Y-65226099D01*
X147691208Y-65245974D01*
X147905955Y-65263909D01*
X149517867Y-65406640D01*
X151160536Y-65565280D01*
X152822967Y-65738752D01*
X153419831Y-65804144D01*
X154610990Y-65939689D01*
X155766618Y-66078076D01*
X156886288Y-66219218D01*
X157969572Y-66363023D01*
X159016044Y-66509402D01*
X160025276Y-66658264D01*
X160996842Y-66809521D01*
X161930313Y-66963081D01*
X162825263Y-67118856D01*
X163681265Y-67276754D01*
X164497891Y-67436687D01*
X165274714Y-67598564D01*
X166011307Y-67762295D01*
X166707244Y-67927790D01*
X167362096Y-68094960D01*
X167975436Y-68263714D01*
X168546838Y-68433963D01*
X169075874Y-68605616D01*
X169562117Y-68778584D01*
X170005141Y-68952777D01*
X170404516Y-69128104D01*
X170759818Y-69304476D01*
X171070617Y-69481803D01*
X171161978Y-69539627D01*
X171400100Y-69714044D01*
X171594487Y-69899248D01*
X171745224Y-70095472D01*
X171852398Y-70302947D01*
X171916095Y-70521906D01*
X171936402Y-70752581D01*
X171913405Y-70995204D01*
X171847191Y-71250008D01*
X171823301Y-71317226D01*
X171733804Y-71510490D01*
X171607335Y-71715318D01*
X171448593Y-71926086D01*
X171262278Y-72137172D01*
X171053088Y-72342954D01*
X170825722Y-72537810D01*
X170760594Y-72588763D01*
X170665166Y-72660049D01*
X170564708Y-72731897D01*
X170463587Y-72801608D01*
X170366170Y-72866485D01*
X170276822Y-72923827D01*
X170199909Y-72970937D01*
X170139799Y-73005116D01*
X170100857Y-73023664D01*
X170087450Y-73023883D01*
X170103944Y-73003074D01*
X170133464Y-72976395D01*
X170175912Y-72941368D01*
X170243294Y-72887311D01*
X170324893Y-72822778D01*
X170379662Y-72779902D01*
X170526217Y-72657963D01*
X170684836Y-72512821D01*
X170844999Y-72355070D01*
X170996190Y-72195304D01*
X171127891Y-72044117D01*
X171197711Y-71955932D01*
X171328217Y-71766498D01*
X171444879Y-71566186D01*
X171540073Y-71369026D01*
X171595057Y-71224800D01*
X171648942Y-70992710D01*
X171658445Y-70764257D01*
X171624225Y-70541319D01*
X171546940Y-70325771D01*
X171427249Y-70119491D01*
X171265812Y-69924354D01*
X171078832Y-69754559D01*
X170885087Y-69611463D01*
X170671796Y-69477384D01*
X170436090Y-69351268D01*
X170175100Y-69232065D01*
X169885958Y-69118720D01*
X169565793Y-69010181D01*
X169211737Y-68905396D01*
X168820921Y-68803313D01*
X168390476Y-68702877D01*
X167967924Y-68613250D01*
X167348026Y-68493499D01*
X166760767Y-68393818D01*
X166198767Y-68313538D01*
X165654643Y-68251991D01*
X165121015Y-68208506D01*
X164590500Y-68182415D01*
X164055716Y-68173050D01*
X163509284Y-68179741D01*
X163268811Y-68187391D01*
X163017231Y-68195738D01*
X162752304Y-68202609D01*
X162479185Y-68208005D01*
X162203028Y-68211926D01*
X161928986Y-68214372D01*
X161662213Y-68215343D01*
X161407864Y-68214840D01*
X161171091Y-68212863D01*
X160957050Y-68209411D01*
X160770895Y-68204486D01*
X160617778Y-68198087D01*
X160502854Y-68190214D01*
X160474135Y-68187287D01*
X160322413Y-68169542D01*
X160188354Y-68152609D01*
X160066194Y-68135163D01*
X159950163Y-68115880D01*
X159834496Y-68093436D01*
X159713426Y-68066505D01*
X159581185Y-68033764D01*
X159432008Y-67993888D01*
X159260126Y-67945553D01*
X159059774Y-67887434D01*
X158825184Y-67818206D01*
X158682387Y-67775782D01*
X158105190Y-67604175D01*
X157569675Y-67445183D01*
X157074375Y-67298380D01*
X156617825Y-67163338D01*
X156198557Y-67039633D01*
X155815107Y-66926838D01*
X155466008Y-66824526D01*
X155149793Y-66732271D01*
X154864997Y-66649648D01*
X154610153Y-66576229D01*
X154383795Y-66511589D01*
X154184458Y-66455301D01*
X154010674Y-66406939D01*
X153860979Y-66366077D01*
X153733905Y-66332288D01*
X153627987Y-66305147D01*
X153600575Y-66298350D01*
X153346178Y-66239090D01*
X153048421Y-66175641D01*
X152708799Y-66108255D01*
X152328806Y-66037185D01*
X151909940Y-65962686D01*
X151453695Y-65885009D01*
X150961566Y-65804409D01*
X150435049Y-65721138D01*
X149875639Y-65635449D01*
X149284832Y-65547597D01*
X148664123Y-65457834D01*
X148495341Y-65433834D01*
X148274702Y-65402570D01*
X148052696Y-65371119D01*
X147836662Y-65340520D01*
X147633941Y-65311811D01*
X147451875Y-65286033D01*
X147297802Y-65264225D01*
X147179065Y-65247426D01*
X147154348Y-65243931D01*
X147022407Y-65224627D01*
X146930359Y-65209622D01*
X146878714Y-65198929D01*
X146867981Y-65192563D01*
X146898667Y-65190536D01*
X146971282Y-65192863D01*
G37*
G36*
X147285763Y-69849188D02*
G01*
X147468916Y-69891792D01*
X147615143Y-69958806D01*
X147726205Y-70051513D01*
X147803866Y-70171196D01*
X147832379Y-70246976D01*
X147854755Y-70327011D01*
X147859087Y-70375351D01*
X147841124Y-70403216D01*
X147796616Y-70421824D01*
X147762542Y-70431306D01*
X147676864Y-70451761D01*
X147625556Y-70456014D01*
X147600565Y-70443091D01*
X147593837Y-70412016D01*
X147593833Y-70410877D01*
X147573247Y-70324168D01*
X147516993Y-70237970D01*
X147433328Y-70162911D01*
X147374050Y-70127958D01*
X147244750Y-70084438D01*
X147098380Y-70067172D01*
X146947287Y-70074890D01*
X146803819Y-70106320D01*
X146680322Y-70160193D01*
X146617502Y-70205830D01*
X146553034Y-70287516D01*
X146509983Y-70389251D01*
X146490504Y-70498050D01*
X146496752Y-70600927D01*
X146530882Y-70684897D01*
X146536691Y-70692753D01*
X146585894Y-70742303D01*
X146653604Y-70785732D01*
X146746315Y-70825824D01*
X146870517Y-70865365D01*
X147032702Y-70907138D01*
X147041373Y-70909204D01*
X147226057Y-70957853D01*
X147371126Y-71007377D01*
X147482013Y-71060181D01*
X147564153Y-71118669D01*
X147601573Y-71157104D01*
X147667111Y-71268157D01*
X147698341Y-71397830D01*
X147697591Y-71538487D01*
X147667191Y-71682489D01*
X147609468Y-71822199D01*
X147526753Y-71949978D01*
X147421373Y-72058189D01*
X147303268Y-72135472D01*
X147142087Y-72196620D01*
X146954786Y-72235907D01*
X146755684Y-72251386D01*
X146559097Y-72241111D01*
X146542501Y-72238924D01*
X146357973Y-72197449D01*
X146208978Y-72128669D01*
X146094520Y-72031693D01*
X146013608Y-71905632D01*
X145965249Y-71749596D01*
X145959659Y-71716493D01*
X145943911Y-71610936D01*
X146042031Y-71585560D01*
X146111514Y-71567318D01*
X146167369Y-71552195D01*
X146179592Y-71548737D01*
X146206088Y-71548950D01*
X146217296Y-71577073D01*
X146219033Y-71618589D01*
X146240298Y-71733636D01*
X146299166Y-71838957D01*
X146388247Y-71922115D01*
X146405953Y-71933204D01*
X146530648Y-71984998D01*
X146680006Y-72014130D01*
X146839545Y-72020285D01*
X146994782Y-72003150D01*
X147131235Y-71962410D01*
X147158717Y-71949527D01*
X147266582Y-71875031D01*
X147351151Y-71778130D01*
X147408505Y-71667795D01*
X147434722Y-71552993D01*
X147425883Y-71442694D01*
X147404570Y-71387026D01*
X147366410Y-71327448D01*
X147315840Y-71278806D01*
X147246079Y-71237757D01*
X147150348Y-71200954D01*
X147021870Y-71165053D01*
X146895164Y-71135657D01*
X146685562Y-71081290D01*
X146518169Y-71018934D01*
X146390615Y-70947285D01*
X146300532Y-70865042D01*
X146249482Y-70780756D01*
X146225606Y-70682820D01*
X146220999Y-70561145D01*
X146235364Y-70432597D01*
X146257227Y-70345433D01*
X146326078Y-70202923D01*
X146431097Y-70079737D01*
X146566522Y-69978655D01*
X146726591Y-69902457D01*
X146905543Y-69853922D01*
X147097615Y-69835832D01*
X147285763Y-69849188D01*
G37*
G36*
X147193844Y-66763649D02*
G01*
X147268497Y-66767193D01*
X147313985Y-66772366D01*
X147323381Y-66776389D01*
X147319588Y-66801210D01*
X147308833Y-66865030D01*
X147292051Y-66962468D01*
X147270176Y-67088144D01*
X147244144Y-67236678D01*
X147214888Y-67402690D01*
X147197101Y-67503230D01*
X147157511Y-67730378D01*
X147126599Y-67918161D01*
X147104108Y-68071394D01*
X147089781Y-68194892D01*
X147083361Y-68293471D01*
X147084593Y-68371946D01*
X147093218Y-68435132D01*
X147108981Y-68487846D01*
X147131625Y-68534902D01*
X147141245Y-68551115D01*
X147216212Y-68631481D01*
X147321673Y-68687027D01*
X147449228Y-68715713D01*
X147590479Y-68715501D01*
X147716325Y-68690703D01*
X147853735Y-68627948D01*
X147969412Y-68528009D01*
X148058732Y-68395402D01*
X148088971Y-68326605D01*
X148105322Y-68271453D01*
X148127755Y-68178474D01*
X148154891Y-68054295D01*
X148185353Y-67905543D01*
X148217760Y-67738846D01*
X148250735Y-67560829D01*
X148265549Y-67477906D01*
X148391858Y-66762334D01*
X148612633Y-66762334D01*
X148706183Y-66763997D01*
X148780079Y-66768478D01*
X148824684Y-66775009D01*
X148833407Y-66779885D01*
X148829476Y-66811307D01*
X148818477Y-66880398D01*
X148801608Y-66980514D01*
X148780063Y-67105012D01*
X148755036Y-67247250D01*
X148727724Y-67400582D01*
X148699322Y-67558368D01*
X148671024Y-67713962D01*
X148644026Y-67860723D01*
X148619523Y-67992006D01*
X148598711Y-68101169D01*
X148582784Y-68181568D01*
X148573650Y-68223694D01*
X148500207Y-68443208D01*
X148394062Y-68639795D01*
X148258965Y-68809172D01*
X148098670Y-68947057D01*
X147916928Y-69049164D01*
X147818740Y-69085603D01*
X147693792Y-69114878D01*
X147549086Y-69133961D01*
X147402989Y-69141463D01*
X147273869Y-69135993D01*
X147231920Y-69130014D01*
X147056947Y-69079094D01*
X146905333Y-68996769D01*
X146782220Y-68887241D01*
X146692747Y-68754713D01*
X146655172Y-68658595D01*
X146635681Y-68575577D01*
X146624363Y-68484278D01*
X146621574Y-68379246D01*
X146627666Y-68255029D01*
X146642996Y-68106174D01*
X146667919Y-67927229D01*
X146702788Y-67712742D01*
X146725039Y-67584960D01*
X146754186Y-67420956D01*
X146782021Y-67265343D01*
X146807198Y-67125567D01*
X146828371Y-67009075D01*
X146844194Y-66923314D01*
X146852330Y-66880657D01*
X146875822Y-66762334D01*
X147099601Y-66762334D01*
X147193844Y-66763649D01*
G37*
G36*
X158789915Y-69878103D02*
G01*
X158804290Y-69891410D01*
X158802834Y-69917870D01*
X158802028Y-69922248D01*
X158796292Y-69954113D01*
X158783519Y-70025914D01*
X158764498Y-70133198D01*
X158740017Y-70271511D01*
X158710865Y-70436397D01*
X158677827Y-70623403D01*
X158641693Y-70828073D01*
X158603251Y-71045955D01*
X158595557Y-71089574D01*
X158398803Y-72205191D01*
X158270142Y-72211950D01*
X158200868Y-72213584D01*
X158154159Y-72210847D01*
X158141482Y-72206049D01*
X158145300Y-72180106D01*
X158156020Y-72116032D01*
X158172533Y-72020058D01*
X158193737Y-71898413D01*
X158218523Y-71757325D01*
X158245787Y-71603024D01*
X158274424Y-71441739D01*
X158303327Y-71279699D01*
X158331391Y-71123132D01*
X158357510Y-70978269D01*
X158380579Y-70851338D01*
X158399492Y-70748568D01*
X158411651Y-70683940D01*
X158430341Y-70583929D01*
X158445288Y-70499142D01*
X158454688Y-70440126D01*
X158457010Y-70419122D01*
X158446019Y-70391798D01*
X158416431Y-70399699D01*
X158373316Y-70439692D01*
X158328486Y-70498540D01*
X158295955Y-70544928D01*
X158240935Y-70621584D01*
X158167755Y-70722551D01*
X158080749Y-70841872D01*
X157984249Y-70973590D01*
X157882586Y-71111746D01*
X157882316Y-71112112D01*
X157772500Y-71260820D01*
X157685820Y-71377183D01*
X157618704Y-71465168D01*
X157567580Y-71528740D01*
X157528875Y-71571865D01*
X157499017Y-71598508D01*
X157474434Y-71612636D01*
X157451553Y-71618215D01*
X157426802Y-71619210D01*
X157342732Y-71619210D01*
X157200329Y-71258607D01*
X157143329Y-71112920D01*
X157082958Y-70956337D01*
X157025131Y-70804347D01*
X156975767Y-70672436D01*
X156959535Y-70628270D01*
X156921008Y-70526067D01*
X156886434Y-70440619D01*
X156859320Y-70380169D01*
X156843175Y-70352961D01*
X156842085Y-70352302D01*
X156834291Y-70372378D01*
X156819973Y-70432298D01*
X156800028Y-70527444D01*
X156775352Y-70653201D01*
X156746842Y-70804952D01*
X156715394Y-70978079D01*
X156681905Y-71167966D01*
X156667191Y-71253092D01*
X156633187Y-71450296D01*
X156601259Y-71634097D01*
X156572268Y-71799645D01*
X156547072Y-71942091D01*
X156526532Y-72056584D01*
X156511508Y-72138274D01*
X156502859Y-72182312D01*
X156501381Y-72188287D01*
X156477022Y-72202346D01*
X156425392Y-72212120D01*
X156361689Y-72216933D01*
X156301112Y-72216108D01*
X156258860Y-72208969D01*
X156248319Y-72199556D01*
X156252127Y-72174724D01*
X156263061Y-72109717D01*
X156280388Y-72008744D01*
X156303377Y-71876016D01*
X156331296Y-71715741D01*
X156363411Y-71532131D01*
X156398992Y-71329394D01*
X156437306Y-71111740D01*
X156451153Y-71033230D01*
X156490211Y-70811768D01*
X156526795Y-70604085D01*
X156560177Y-70414342D01*
X156589627Y-70246699D01*
X156614413Y-70105317D01*
X156633807Y-69994359D01*
X156647077Y-69917983D01*
X156653495Y-69880353D01*
X156653988Y-69877097D01*
X156674475Y-69874594D01*
X156727877Y-69874731D01*
X156793788Y-69877097D01*
X156933583Y-69883806D01*
X157196456Y-70571207D01*
X157274330Y-70772424D01*
X157341833Y-70941844D01*
X157398049Y-71077318D01*
X157442060Y-71176702D01*
X157472952Y-71237847D01*
X157489775Y-71258607D01*
X157509584Y-71241067D01*
X157552869Y-71191092D01*
X157616518Y-71112646D01*
X157697422Y-71009694D01*
X157792470Y-70886201D01*
X157898550Y-70746132D01*
X158012554Y-70593452D01*
X158029036Y-70571207D01*
X158537851Y-69883806D01*
X158674798Y-69877173D01*
X158749990Y-69874505D01*
X158789915Y-69878103D01*
G37*
G36*
X170524463Y-69979592D02*
G01*
X170513418Y-70046035D01*
X170503059Y-70092795D01*
X170499214Y-70103549D01*
X170475052Y-70107880D01*
X170411559Y-70111801D01*
X170314480Y-70115163D01*
X170189557Y-70117820D01*
X170042535Y-70119623D01*
X169879157Y-70120425D01*
X169842267Y-70120452D01*
X169195048Y-70120452D01*
X169133375Y-70475421D01*
X169112462Y-70596874D01*
X169094622Y-70702542D01*
X169081160Y-70784527D01*
X169073382Y-70834931D01*
X169071987Y-70846870D01*
X169093543Y-70851891D01*
X169153775Y-70856839D01*
X169246280Y-70861428D01*
X169364661Y-70865370D01*
X169502516Y-70868378D01*
X169573960Y-70869408D01*
X170075648Y-70875466D01*
X170038088Y-71111274D01*
X169528458Y-71117327D01*
X169018827Y-71123381D01*
X168944700Y-71540328D01*
X168921434Y-71671318D01*
X168901099Y-71786041D01*
X168884928Y-71877520D01*
X168874154Y-71938778D01*
X168870011Y-71962838D01*
X168870003Y-71962910D01*
X168891459Y-71964342D01*
X168952405Y-71965640D01*
X169047255Y-71966756D01*
X169170422Y-71967641D01*
X169316321Y-71968249D01*
X169479365Y-71968531D01*
X169525534Y-71968545D01*
X170181636Y-71968545D01*
X170166657Y-72053061D01*
X170160128Y-72096614D01*
X170154584Y-72131721D01*
X170145530Y-72159284D01*
X170128468Y-72180204D01*
X170098903Y-72195386D01*
X170052337Y-72205730D01*
X169984275Y-72212140D01*
X169890219Y-72215517D01*
X169765673Y-72216765D01*
X169606141Y-72216785D01*
X169407127Y-72216481D01*
X169352474Y-72216460D01*
X169170534Y-72215987D01*
X169003752Y-72214645D01*
X168857272Y-72212545D01*
X168736234Y-72209800D01*
X168645782Y-72206520D01*
X168591056Y-72202819D01*
X168576447Y-72199556D01*
X168580255Y-72174724D01*
X168591189Y-72109717D01*
X168608516Y-72008744D01*
X168631505Y-71876016D01*
X168659423Y-71715741D01*
X168691539Y-71532131D01*
X168727120Y-71329394D01*
X168765434Y-71111740D01*
X168779281Y-71033230D01*
X168818335Y-70811810D01*
X168854916Y-70604204D01*
X168888296Y-70414566D01*
X168917743Y-70247053D01*
X168942529Y-70105821D01*
X168961924Y-69995025D01*
X168975198Y-69918822D01*
X168981621Y-69881367D01*
X168982115Y-69878172D01*
X169003799Y-69876853D01*
X169065425Y-69875644D01*
X169161862Y-69874582D01*
X169287976Y-69873704D01*
X169438635Y-69873046D01*
X169608706Y-69872647D01*
X169761052Y-69872538D01*
X170539984Y-69872538D01*
X170524463Y-69979592D01*
G37*
G36*
X148965003Y-68447506D02*
G01*
X148997009Y-68264124D01*
X149030558Y-68072406D01*
X149064746Y-67877503D01*
X149098672Y-67684564D01*
X149098832Y-67683655D01*
X149559927Y-67683655D01*
X149576891Y-67716787D01*
X149616419Y-67731135D01*
X149682950Y-67733209D01*
X149780922Y-67729518D01*
X149819432Y-67728188D01*
X149942946Y-67723006D01*
X150031412Y-67715159D01*
X150094846Y-67703089D01*
X150143263Y-67685240D01*
X150163132Y-67674727D01*
X150238533Y-67611158D01*
X150296495Y-67524375D01*
X150329941Y-67428943D01*
X150331791Y-67339429D01*
X150329973Y-67331390D01*
X150306210Y-67265593D01*
X150268879Y-67217823D01*
X150211209Y-67185117D01*
X150126432Y-67164515D01*
X150007778Y-67153053D01*
X149913653Y-67149222D01*
X149809598Y-67147042D01*
X149724281Y-67146649D01*
X149666429Y-67147982D01*
X149644769Y-67150982D01*
X149644765Y-67151038D01*
X149640974Y-67175642D01*
X149630696Y-67235220D01*
X149615570Y-67320406D01*
X149600032Y-67406475D01*
X149575936Y-67535008D01*
X149561088Y-67625232D01*
X149559927Y-67683655D01*
X149098832Y-67683655D01*
X149131430Y-67498739D01*
X149162119Y-67325177D01*
X149189835Y-67169029D01*
X149213675Y-67035444D01*
X149232735Y-66929572D01*
X149246113Y-66856563D01*
X149252316Y-66824312D01*
X149265205Y-66762334D01*
X149764878Y-66762686D01*
X149969883Y-66764188D01*
X150135909Y-66768953D01*
X150268991Y-66777843D01*
X150375162Y-66791722D01*
X150460456Y-66811455D01*
X150530906Y-66837904D01*
X150592545Y-66871934D01*
X150610141Y-66883696D01*
X150711047Y-66979174D01*
X150776334Y-67097322D01*
X150804766Y-67231664D01*
X150795110Y-67375722D01*
X150746129Y-67523022D01*
X150735980Y-67543696D01*
X150650680Y-67669595D01*
X150530502Y-67778060D01*
X150442749Y-67835158D01*
X150419309Y-67852997D01*
X150425893Y-67869561D01*
X150467594Y-67893938D01*
X150478934Y-67899710D01*
X150602716Y-67978306D01*
X150686268Y-68071641D01*
X150733691Y-68186296D01*
X150749085Y-68328850D01*
X150749095Y-68333220D01*
X150728114Y-68507004D01*
X150667091Y-68664004D01*
X150568843Y-68801399D01*
X150436184Y-68916370D01*
X150271930Y-69006095D01*
X150078899Y-69067756D01*
X150000559Y-69082922D01*
X149934807Y-69090159D01*
X149839822Y-69096045D01*
X149722809Y-69100571D01*
X149590971Y-69103728D01*
X149451511Y-69105508D01*
X149311634Y-69105900D01*
X149178542Y-69104897D01*
X149059439Y-69102489D01*
X148961529Y-69098667D01*
X148892016Y-69093421D01*
X148858103Y-69086744D01*
X148855945Y-69084364D01*
X148859727Y-69059141D01*
X148870471Y-68994683D01*
X148887274Y-68896141D01*
X148909232Y-68768664D01*
X148923959Y-68683673D01*
X149375601Y-68683673D01*
X149378924Y-68699702D01*
X149394764Y-68710719D01*
X149430083Y-68717644D01*
X149491842Y-68721400D01*
X149587003Y-68722906D01*
X149673796Y-68723114D01*
X149799855Y-68722330D01*
X149890783Y-68719136D01*
X149956512Y-68712269D01*
X150006972Y-68700466D01*
X150052093Y-68682465D01*
X150072521Y-68672405D01*
X150175444Y-68602868D01*
X150242250Y-68513832D01*
X150277533Y-68411134D01*
X150282492Y-68299437D01*
X150247042Y-68201614D01*
X150174049Y-68124822D01*
X150158854Y-68114828D01*
X150123939Y-68096096D01*
X150085273Y-68083567D01*
X150033797Y-68076283D01*
X149960454Y-68073285D01*
X149856185Y-68073616D01*
X149781213Y-68074893D01*
X149478176Y-68080790D01*
X149427533Y-68362511D01*
X149408118Y-68472974D01*
X149391929Y-68569726D01*
X149380575Y-68642819D01*
X149375666Y-68682304D01*
X149375601Y-68683673D01*
X148923959Y-68683673D01*
X148935443Y-68617402D01*
X148965003Y-68447506D01*
G37*
G36*
X164126008Y-71027595D02*
G01*
X164820657Y-69872538D01*
X165100006Y-69872538D01*
X165686060Y-72216460D01*
X165406765Y-72216460D01*
X165333392Y-71900932D01*
X165260020Y-71585404D01*
X164056873Y-71585404D01*
X163684801Y-72216460D01*
X163548724Y-72216460D01*
X163479007Y-72213951D01*
X163433376Y-72207421D01*
X163422002Y-72199556D01*
X163435000Y-72177703D01*
X163469184Y-72120633D01*
X163522509Y-72031755D01*
X163592925Y-71914479D01*
X163678386Y-71772213D01*
X163776843Y-71608366D01*
X163886249Y-71426347D01*
X163939671Y-71337489D01*
X164205326Y-71337489D01*
X164700556Y-71337489D01*
X164844502Y-71336986D01*
X164971996Y-71335580D01*
X165076599Y-71333419D01*
X165151875Y-71330656D01*
X165191387Y-71327440D01*
X165195785Y-71325897D01*
X165190196Y-71288991D01*
X165174698Y-71218407D01*
X165151200Y-71121196D01*
X165121607Y-71004408D01*
X165087826Y-70875092D01*
X165051763Y-70740299D01*
X165015326Y-70607079D01*
X164980420Y-70482481D01*
X164948952Y-70373555D01*
X164922830Y-70287352D01*
X164903958Y-70230921D01*
X164894353Y-70211297D01*
X164875471Y-70230070D01*
X164838181Y-70281876D01*
X164786478Y-70360632D01*
X164724352Y-70460255D01*
X164655795Y-70574663D01*
X164654880Y-70576219D01*
X164576809Y-70708928D01*
X164496867Y-70844644D01*
X164421700Y-70972095D01*
X164357955Y-71080010D01*
X164323049Y-71138968D01*
X164205326Y-71337489D01*
X163939671Y-71337489D01*
X164004557Y-71229564D01*
X164126008Y-71027595D01*
G37*
G36*
X150153195Y-69874417D02*
G01*
X150197666Y-69879259D01*
X150208207Y-69883830D01*
X150204059Y-69920170D01*
X150192423Y-69994259D01*
X150174510Y-70099618D01*
X150151532Y-70229768D01*
X150124702Y-70378230D01*
X150095231Y-70538524D01*
X150064332Y-70704173D01*
X150033215Y-70868697D01*
X150003093Y-71025616D01*
X149975178Y-71168453D01*
X149950681Y-71290728D01*
X149930816Y-71385962D01*
X149916792Y-71447676D01*
X149913114Y-71461446D01*
X149830384Y-71674995D01*
X149718438Y-71857877D01*
X149579462Y-72007688D01*
X149415639Y-72122025D01*
X149248384Y-72192729D01*
X149108721Y-72225271D01*
X148951218Y-72244662D01*
X148795488Y-72249411D01*
X148661143Y-72238030D01*
X148658312Y-72237541D01*
X148521337Y-72204936D01*
X148411794Y-72156767D01*
X148312710Y-72085211D01*
X148296308Y-72070722D01*
X148211909Y-71980588D01*
X148153753Y-71881875D01*
X148117689Y-71764060D01*
X148099570Y-71616622D01*
X148097021Y-71565246D01*
X148095684Y-71498839D01*
X148097214Y-71431497D01*
X148102388Y-71357245D01*
X148111981Y-71270110D01*
X148126768Y-71164118D01*
X148147526Y-71033297D01*
X148175030Y-70871673D01*
X148210056Y-70673273D01*
X148220247Y-70616282D01*
X148351481Y-69883806D01*
X148479755Y-69877047D01*
X148562474Y-69876833D01*
X148603034Y-69887359D01*
X148608030Y-69896737D01*
X148604225Y-69924660D01*
X148593435Y-69991454D01*
X148576601Y-70091616D01*
X148554662Y-70219642D01*
X148528558Y-70370030D01*
X148499229Y-70537277D01*
X148481794Y-70635972D01*
X148439605Y-70879481D01*
X148406700Y-71083461D01*
X148382891Y-71252453D01*
X148367991Y-71390995D01*
X148361811Y-71503627D01*
X148364165Y-71594890D01*
X148374864Y-71669324D01*
X148393720Y-71731467D01*
X148420547Y-71785861D01*
X148433380Y-71806335D01*
X148518065Y-71895208D01*
X148634205Y-71959981D01*
X148773979Y-71998668D01*
X148929566Y-72009287D01*
X149093144Y-71989854D01*
X149126437Y-71982109D01*
X149297294Y-71917823D01*
X149439866Y-71818455D01*
X149554028Y-71684121D01*
X149639654Y-71514934D01*
X149642223Y-71508142D01*
X149657541Y-71455424D01*
X149678975Y-71364770D01*
X149705191Y-71242699D01*
X149734853Y-71095730D01*
X149766627Y-70930382D01*
X149799176Y-70753174D01*
X149814320Y-70667884D01*
X149845276Y-70492360D01*
X149874184Y-70329976D01*
X149900023Y-70186356D01*
X149921770Y-70067124D01*
X149938403Y-69977904D01*
X149948900Y-69924320D01*
X149951715Y-69911979D01*
X149968520Y-69888141D01*
X150007993Y-69876053D01*
X150080907Y-69872545D01*
X150085769Y-69872538D01*
X150153195Y-69874417D01*
G37*
G36*
X163537773Y-69979592D02*
G01*
X163526728Y-70046035D01*
X163516369Y-70092795D01*
X163512524Y-70103549D01*
X163488362Y-70107880D01*
X163424869Y-70111801D01*
X163327789Y-70115163D01*
X163202866Y-70117820D01*
X163055844Y-70119623D01*
X162892467Y-70120425D01*
X162855577Y-70120452D01*
X162208357Y-70120452D01*
X162146685Y-70475421D01*
X162125772Y-70596874D01*
X162107931Y-70702542D01*
X162094470Y-70784527D01*
X162086692Y-70834931D01*
X162085297Y-70846870D01*
X162106853Y-70851891D01*
X162167084Y-70856839D01*
X162259590Y-70861428D01*
X162377971Y-70865370D01*
X162515825Y-70868378D01*
X162587269Y-70869408D01*
X163088958Y-70875466D01*
X163051398Y-71111274D01*
X162541767Y-71117327D01*
X162032137Y-71123381D01*
X161958010Y-71540328D01*
X161934744Y-71671318D01*
X161914408Y-71786041D01*
X161898237Y-71877520D01*
X161887464Y-71938778D01*
X161883321Y-71962838D01*
X161883312Y-71962910D01*
X161904769Y-71964342D01*
X161965715Y-71965640D01*
X162060564Y-71966756D01*
X162183731Y-71967641D01*
X162329630Y-71968249D01*
X162492675Y-71968531D01*
X162538843Y-71968545D01*
X163194945Y-71968545D01*
X163179967Y-72053061D01*
X163173438Y-72096614D01*
X163167894Y-72131721D01*
X163158840Y-72159284D01*
X163141778Y-72180204D01*
X163112213Y-72195386D01*
X163065647Y-72205730D01*
X162997584Y-72212140D01*
X162903528Y-72215517D01*
X162778983Y-72216765D01*
X162619451Y-72216785D01*
X162420436Y-72216481D01*
X162365784Y-72216460D01*
X162183843Y-72215987D01*
X162017062Y-72214645D01*
X161870581Y-72212545D01*
X161749544Y-72209800D01*
X161659091Y-72206520D01*
X161604366Y-72202819D01*
X161589756Y-72199556D01*
X161593564Y-72174724D01*
X161604498Y-72109717D01*
X161621826Y-72008744D01*
X161644815Y-71876016D01*
X161672733Y-71715741D01*
X161704849Y-71532131D01*
X161740430Y-71329394D01*
X161778744Y-71111740D01*
X161792591Y-71033230D01*
X161831644Y-70811810D01*
X161868226Y-70604204D01*
X161901605Y-70414566D01*
X161931053Y-70247053D01*
X161955839Y-70105821D01*
X161975234Y-69995025D01*
X161988508Y-69918822D01*
X161994931Y-69881367D01*
X161995425Y-69878172D01*
X162017109Y-69876853D01*
X162078735Y-69875644D01*
X162175171Y-69874582D01*
X162301285Y-69873704D01*
X162451944Y-69873046D01*
X162622016Y-69872647D01*
X162774362Y-69872538D01*
X163553294Y-69872538D01*
X163537773Y-69979592D01*
G37*
G36*
X154484360Y-70811703D02*
G01*
X154520950Y-70603900D01*
X154554336Y-70413990D01*
X154583788Y-70246143D01*
X154608574Y-70104528D01*
X154627966Y-69993313D01*
X154641232Y-69916668D01*
X154647643Y-69878761D01*
X154648131Y-69875409D01*
X154669573Y-69873407D01*
X154729531Y-69872553D01*
X154821466Y-69872816D01*
X154938833Y-69874165D01*
X155075091Y-69876569D01*
X155127063Y-69877677D01*
X155290732Y-69881747D01*
X155416728Y-69886213D01*
X155512453Y-69891815D01*
X155585308Y-69899292D01*
X155642694Y-69909384D01*
X155692012Y-69922831D01*
X155735933Y-69938535D01*
X155883192Y-70011217D01*
X155990309Y-70101776D01*
X156059924Y-70213905D01*
X156094683Y-70351298D01*
X156099906Y-70447249D01*
X156089786Y-70604571D01*
X156057726Y-70736175D01*
X155999257Y-70857892D01*
X155971921Y-70900800D01*
X155854846Y-71036366D01*
X155710480Y-71139591D01*
X155583039Y-71194088D01*
X155516374Y-71218020D01*
X155471517Y-71239708D01*
X155459494Y-71251363D01*
X155467805Y-71276661D01*
X155491075Y-71337289D01*
X155526811Y-71427018D01*
X155572519Y-71539619D01*
X155625706Y-71668862D01*
X155651065Y-71729949D01*
X155706716Y-71864221D01*
X155756011Y-71984247D01*
X155796466Y-72083885D01*
X155825594Y-72156993D01*
X155840911Y-72197431D01*
X155842635Y-72203332D01*
X155822036Y-72209906D01*
X155767977Y-72214615D01*
X155692066Y-72216459D01*
X155690420Y-72216460D01*
X155538206Y-72216460D01*
X155357989Y-71754824D01*
X155177773Y-71293189D01*
X154916520Y-71292801D01*
X154655268Y-71292413D01*
X154582227Y-71714995D01*
X154558711Y-71849836D01*
X154537164Y-71971134D01*
X154518983Y-72071195D01*
X154505566Y-72142323D01*
X154498313Y-72176825D01*
X154498260Y-72177019D01*
X154482044Y-72200810D01*
X154443242Y-72212894D01*
X154371113Y-72216448D01*
X154364896Y-72216460D01*
X154297478Y-72213647D01*
X154253010Y-72206401D01*
X154242463Y-72199556D01*
X154246271Y-72174724D01*
X154257204Y-72109717D01*
X154274532Y-72008744D01*
X154297521Y-71876016D01*
X154325439Y-71715741D01*
X154357555Y-71532131D01*
X154393136Y-71329394D01*
X154431450Y-71111740D01*
X154443289Y-71044613D01*
X154698729Y-71044613D01*
X154706988Y-71055297D01*
X154731488Y-71062138D01*
X154778321Y-71065692D01*
X154853584Y-71066516D01*
X154963371Y-71065166D01*
X155068586Y-71063132D01*
X155211645Y-71059662D01*
X155317706Y-71055327D01*
X155394849Y-71049153D01*
X155451150Y-71040163D01*
X155494688Y-71027384D01*
X155533542Y-71009840D01*
X155540510Y-71006182D01*
X155664138Y-70915815D01*
X155757949Y-70795646D01*
X155807861Y-70680122D01*
X155835666Y-70561457D01*
X155838419Y-70465056D01*
X155815422Y-70375250D01*
X155791925Y-70323739D01*
X155753717Y-70259394D01*
X155709182Y-70210841D01*
X155651541Y-70175755D01*
X155574015Y-70151812D01*
X155469827Y-70136686D01*
X155332196Y-70128055D01*
X155211265Y-70124609D01*
X154861616Y-70117497D01*
X154786949Y-70552826D01*
X154763221Y-70689846D01*
X154741384Y-70813491D01*
X154722813Y-70916161D01*
X154708885Y-70990257D01*
X154700976Y-71028177D01*
X154700614Y-71029529D01*
X154698729Y-71044613D01*
X154443289Y-71044613D01*
X154445297Y-71033230D01*
X154484360Y-70811703D01*
G37*
G36*
X152633912Y-66738247D02*
G01*
X152637098Y-66738676D01*
X152811748Y-66777744D01*
X152977069Y-66843428D01*
X153121222Y-66929989D01*
X153225734Y-67023996D01*
X153287397Y-67102438D01*
X153341135Y-67185885D01*
X153381326Y-67263789D01*
X153402346Y-67325603D01*
X153402182Y-67354970D01*
X153377048Y-67372067D01*
X153317748Y-67395898D01*
X153233999Y-67422901D01*
X153164070Y-67442292D01*
X153062423Y-67468280D01*
X152996065Y-67483192D01*
X152956739Y-67487583D01*
X152936183Y-67482010D01*
X152926140Y-67467029D01*
X152923212Y-67458514D01*
X152880684Y-67382508D01*
X152805682Y-67304531D01*
X152709012Y-67235200D01*
X152678785Y-67218392D01*
X152614612Y-67188238D01*
X152554413Y-67170059D01*
X152482883Y-67160945D01*
X152384719Y-67157985D01*
X152360559Y-67157876D01*
X152252801Y-67159759D01*
X152173519Y-67167914D01*
X152106239Y-67185303D01*
X152034482Y-67214888D01*
X152028847Y-67217500D01*
X151857804Y-67320942D01*
X151716944Y-67456037D01*
X151608467Y-67619099D01*
X151534572Y-67806442D01*
X151497460Y-68014383D01*
X151493345Y-68114596D01*
X151512152Y-68288283D01*
X151566737Y-68436249D01*
X151654188Y-68555899D01*
X151771593Y-68644641D01*
X151916040Y-68699881D01*
X152084618Y-68719027D01*
X152167675Y-68715167D01*
X152335316Y-68680107D01*
X152501351Y-68610151D01*
X152650722Y-68512826D01*
X152740753Y-68428642D01*
X152842759Y-68315186D01*
X153029875Y-68365084D01*
X153116916Y-68389446D01*
X153186979Y-68411198D01*
X153228768Y-68426750D01*
X153234755Y-68430175D01*
X153230997Y-68454164D01*
X153204806Y-68503668D01*
X153161585Y-68568748D01*
X153153156Y-68580341D01*
X152997115Y-68755376D01*
X152811314Y-68901302D01*
X152602603Y-69015306D01*
X152377835Y-69094572D01*
X152143860Y-69136286D01*
X151907531Y-69137633D01*
X151821458Y-69127428D01*
X151634419Y-69078802D01*
X151461871Y-68995423D01*
X151311470Y-68882630D01*
X151190869Y-68745759D01*
X151132371Y-68646995D01*
X151061928Y-68468215D01*
X151026784Y-68286892D01*
X151025923Y-68093163D01*
X151054862Y-67893903D01*
X151124749Y-67655063D01*
X151230813Y-67436686D01*
X151368861Y-67241834D01*
X151534698Y-67073570D01*
X151724130Y-66934955D01*
X151932961Y-66829053D01*
X152156999Y-66758926D01*
X152392047Y-66727637D01*
X152633912Y-66738247D01*
G37*
G36*
X150540261Y-70811703D02*
G01*
X150576851Y-70603900D01*
X150610237Y-70413990D01*
X150639688Y-70246143D01*
X150664475Y-70104528D01*
X150683867Y-69993313D01*
X150697133Y-69916668D01*
X150703543Y-69878761D01*
X150704032Y-69875409D01*
X150725473Y-69873407D01*
X150785432Y-69872553D01*
X150877366Y-69872816D01*
X150994733Y-69874165D01*
X151130991Y-69876569D01*
X151182963Y-69877677D01*
X151379229Y-69883684D01*
X151537043Y-69892967D01*
X151662993Y-69906960D01*
X151763666Y-69927097D01*
X151845647Y-69954812D01*
X151915525Y-69991538D01*
X151979885Y-70038711D01*
X151999470Y-70055437D01*
X152080633Y-70155180D01*
X152130960Y-70279067D01*
X152151679Y-70419563D01*
X152144019Y-70569133D01*
X152109209Y-70720240D01*
X152048478Y-70865350D01*
X151963054Y-70996926D01*
X151854167Y-71107434D01*
X151824192Y-71130334D01*
X151734964Y-71189234D01*
X151647482Y-71233627D01*
X151552922Y-71265651D01*
X151442457Y-71287447D01*
X151307262Y-71301153D01*
X151138511Y-71308909D01*
X151081544Y-71310362D01*
X150956800Y-71313734D01*
X150849442Y-71317783D01*
X150766842Y-71322136D01*
X150716372Y-71326422D01*
X150704037Y-71329389D01*
X150700299Y-71354773D01*
X150690092Y-71415948D01*
X150674926Y-71504339D01*
X150656313Y-71611373D01*
X150635763Y-71728478D01*
X150614786Y-71847079D01*
X150594894Y-71958603D01*
X150577597Y-72054477D01*
X150564406Y-72126128D01*
X150556831Y-72164982D01*
X150556662Y-72165750D01*
X150545030Y-72195175D01*
X150519014Y-72210395D01*
X150466628Y-72215920D01*
X150421886Y-72216460D01*
X150354128Y-72213671D01*
X150309262Y-72206479D01*
X150298363Y-72199556D01*
X150302171Y-72174724D01*
X150313105Y-72109717D01*
X150330433Y-72008744D01*
X150353422Y-71876016D01*
X150381340Y-71715741D01*
X150413456Y-71532131D01*
X150449037Y-71329394D01*
X150487350Y-71111740D01*
X150491260Y-71089574D01*
X150744226Y-71089574D01*
X151058107Y-71089574D01*
X151228445Y-71086757D01*
X151359746Y-71077998D01*
X151457713Y-71062832D01*
X151490109Y-71054496D01*
X151620179Y-70995238D01*
X151729570Y-70905370D01*
X151814201Y-70792875D01*
X151869989Y-70665732D01*
X151892854Y-70531922D01*
X151878714Y-70399427D01*
X151856954Y-70337211D01*
X151821367Y-70270146D01*
X151777383Y-70224545D01*
X151709127Y-70185021D01*
X151691079Y-70176451D01*
X151640220Y-70154397D01*
X151592086Y-70139061D01*
X151536972Y-70129232D01*
X151465170Y-70123698D01*
X151366974Y-70121247D01*
X151244370Y-70120673D01*
X150917001Y-70120452D01*
X150842264Y-70554303D01*
X150818422Y-70691863D01*
X150796496Y-70816798D01*
X150777879Y-70921287D01*
X150763966Y-70997512D01*
X150756150Y-71037650D01*
X150755877Y-71038864D01*
X150744226Y-71089574D01*
X150491260Y-71089574D01*
X150501198Y-71033230D01*
X150540261Y-70811703D01*
G37*
G36*
X154184623Y-69979592D02*
G01*
X154173578Y-70046035D01*
X154163219Y-70092795D01*
X154159374Y-70103549D01*
X154135212Y-70107880D01*
X154071719Y-70111801D01*
X153974639Y-70115163D01*
X153849716Y-70117820D01*
X153702694Y-70119623D01*
X153539317Y-70120425D01*
X153502427Y-70120452D01*
X152855207Y-70120452D01*
X152793535Y-70475421D01*
X152772622Y-70596874D01*
X152754781Y-70702542D01*
X152741320Y-70784527D01*
X152733542Y-70834931D01*
X152732147Y-70846870D01*
X152753703Y-70851891D01*
X152813934Y-70856839D01*
X152906440Y-70861428D01*
X153024821Y-70865370D01*
X153162676Y-70868378D01*
X153234119Y-70869408D01*
X153735808Y-70875466D01*
X153698248Y-71111274D01*
X153188618Y-71117327D01*
X152678987Y-71123381D01*
X152604860Y-71540328D01*
X152581594Y-71671318D01*
X152561258Y-71786041D01*
X152545087Y-71877520D01*
X152534314Y-71938778D01*
X152530171Y-71962838D01*
X152530162Y-71962910D01*
X152551619Y-71964342D01*
X152612565Y-71965640D01*
X152707414Y-71966756D01*
X152830581Y-71967641D01*
X152976480Y-71968249D01*
X153139525Y-71968531D01*
X153185694Y-71968545D01*
X153841795Y-71968545D01*
X153826817Y-72053061D01*
X153820288Y-72096614D01*
X153814744Y-72131721D01*
X153805690Y-72159284D01*
X153788628Y-72180204D01*
X153759063Y-72195386D01*
X153712497Y-72205730D01*
X153644434Y-72212140D01*
X153550378Y-72215517D01*
X153425833Y-72216765D01*
X153266301Y-72216785D01*
X153067286Y-72216481D01*
X153012634Y-72216460D01*
X152830693Y-72215987D01*
X152663912Y-72214645D01*
X152517431Y-72212545D01*
X152396394Y-72209800D01*
X152305941Y-72206520D01*
X152251216Y-72202819D01*
X152236607Y-72199556D01*
X152240414Y-72174724D01*
X152251348Y-72109717D01*
X152268676Y-72008744D01*
X152291665Y-71876016D01*
X152319583Y-71715741D01*
X152351699Y-71532131D01*
X152387280Y-71329394D01*
X152425594Y-71111740D01*
X152439441Y-71033230D01*
X152478494Y-70811810D01*
X152515076Y-70604204D01*
X152548455Y-70414566D01*
X152577903Y-70247053D01*
X152602689Y-70105821D01*
X152622084Y-69995025D01*
X152635358Y-69918822D01*
X152641781Y-69881367D01*
X152642275Y-69878172D01*
X152663959Y-69876853D01*
X152725585Y-69875644D01*
X152822021Y-69874582D01*
X152948135Y-69873704D01*
X153098794Y-69873046D01*
X153268866Y-69872647D01*
X153421212Y-69872538D01*
X154200144Y-69872538D01*
X154184623Y-69979592D01*
G37*
G36*
X159541034Y-69877117D02*
G01*
X159579791Y-69891131D01*
X159583905Y-69900710D01*
X159580134Y-69927059D01*
X159569419Y-69992627D01*
X159552661Y-70092243D01*
X159530763Y-70220739D01*
X159504625Y-70372945D01*
X159475149Y-70543692D01*
X159443237Y-70727811D01*
X159409791Y-70920132D01*
X159375712Y-71115486D01*
X159341902Y-71308704D01*
X159309262Y-71494617D01*
X159278695Y-71668055D01*
X159251101Y-71823849D01*
X159227383Y-71956830D01*
X159208441Y-72061829D01*
X159195178Y-72133675D01*
X159188835Y-72165750D01*
X159177046Y-72195182D01*
X159150894Y-72210403D01*
X159098368Y-72215924D01*
X159053830Y-72216460D01*
X158986071Y-72213671D01*
X158941205Y-72206479D01*
X158930307Y-72199556D01*
X158934115Y-72174724D01*
X158945048Y-72109717D01*
X158962376Y-72008744D01*
X158985365Y-71876016D01*
X159013283Y-71715741D01*
X159045399Y-71532131D01*
X159080980Y-71329394D01*
X159119294Y-71111740D01*
X159133141Y-71033230D01*
X159172194Y-70811810D01*
X159208776Y-70604204D01*
X159242155Y-70414566D01*
X159271603Y-70247053D01*
X159296389Y-70105821D01*
X159315784Y-69995025D01*
X159329058Y-69918822D01*
X159335481Y-69881367D01*
X159335975Y-69878172D01*
X159356371Y-69875085D01*
X159408973Y-69873039D01*
X159459938Y-69872538D01*
X159541034Y-69877117D01*
G37*
D15*
X180340000Y-129540000D03*
D16*
X181840000Y-125220000D03*
D17*
X178840000Y-125220000D03*
D18*
X223520000Y-71120000D03*
D19*
X223520000Y-66040000D03*
D15*
X210820000Y-129540000D03*
D16*
X212320000Y-125220000D03*
D17*
X209320000Y-125220000D03*
D20*
X95240000Y-115570000D03*
D21*
X95240000Y-113030000D03*
X95240000Y-110490000D03*
X95240000Y-107950000D03*
X95240000Y-105410000D03*
X95240000Y-102870000D03*
X95240000Y-100330000D03*
X95240000Y-97790000D03*
X95240000Y-95250000D03*
X95240000Y-92710000D03*
X95240000Y-90170000D03*
X95240000Y-87630000D03*
X95240000Y-85090000D03*
X95240000Y-82550000D03*
X95240000Y-80010000D03*
X80000000Y-80010000D03*
X80000000Y-82550000D03*
X80000000Y-85090000D03*
X80000000Y-87630000D03*
X80000000Y-90170000D03*
X80000000Y-92710000D03*
X80000000Y-95250000D03*
X80000000Y-97790000D03*
X80000000Y-100330000D03*
X80000000Y-102870000D03*
X80000000Y-105410000D03*
X80000000Y-107950000D03*
X80000000Y-110490000D03*
X80000000Y-113030000D03*
X80000000Y-115570000D03*
D18*
X223520000Y-85095000D03*
D19*
X223520000Y-80015000D03*
D22*
X222250000Y-128268106D03*
D23*
X110032800Y-110540800D03*
X212090000Y-71120000D03*
D24*
X107717500Y-90932000D03*
X105642500Y-90932000D03*
D25*
X181222000Y-102440000D03*
X181222000Y-105840000D03*
X191142000Y-105840000D03*
X191142000Y-102440000D03*
D26*
X114730000Y-90170000D03*
X114730000Y-91440000D03*
X114730000Y-92710000D03*
X114730000Y-93980000D03*
X114730000Y-95250000D03*
X114730000Y-96520000D03*
X114730000Y-97790000D03*
X114730000Y-99060000D03*
X114730000Y-100330000D03*
X124030000Y-100330000D03*
X124030000Y-99060000D03*
X124030000Y-97790000D03*
X124030000Y-96520000D03*
X124030000Y-95250000D03*
X124030000Y-93980000D03*
X124030000Y-92710000D03*
X124030000Y-91440000D03*
X124030000Y-90170000D03*
D27*
X166370000Y-99232323D03*
D28*
X166370000Y-104232323D03*
D15*
X167640000Y-129540000D03*
D16*
X169140000Y-125220000D03*
D17*
X166140000Y-125220000D03*
D29*
X122825000Y-104542500D03*
X124825000Y-104542500D03*
D15*
X142240000Y-129540000D03*
D16*
X143740000Y-125220000D03*
D17*
X140740000Y-125220000D03*
D30*
X208262000Y-74870000D03*
X208262000Y-67370000D03*
X198182000Y-67370000D03*
X198182000Y-74870000D03*
D31*
X182922000Y-74870000D03*
D32*
X182922000Y-67370000D03*
D30*
X203222000Y-74870000D03*
X203222000Y-67370000D03*
D18*
X223520000Y-105410000D03*
D19*
X223520000Y-100330000D03*
D33*
X110744000Y-80285500D03*
X110744000Y-78210500D03*
D34*
X152400000Y-92710000D03*
D35*
X144780000Y-92710000D03*
D36*
X106680000Y-124460000D03*
D37*
X104140000Y-124460000D03*
D15*
X154940000Y-129540000D03*
D16*
X156440000Y-125220000D03*
D17*
X153440000Y-125220000D03*
D38*
X106680000Y-95975000D03*
X106680000Y-100855000D03*
D39*
X166370000Y-80890000D03*
X166370000Y-89290000D03*
D40*
X120650000Y-129545000D03*
X113030000Y-129545000D03*
D41*
X119380000Y-120905000D03*
D42*
X116840000Y-120905000D03*
X114300000Y-120905000D03*
D18*
X223520000Y-119380000D03*
D19*
X223520000Y-114300000D03*
D43*
X193040000Y-131953000D03*
X198120000Y-131953000D03*
X200279000Y-119253000D03*
X195580000Y-119253000D03*
X190881000Y-119253000D03*
X200279000Y-115443000D03*
X195580000Y-115443000D03*
X190881000Y-115443000D03*
D40*
X125730000Y-129545000D03*
X133350000Y-129545000D03*
D41*
X132080000Y-120905000D03*
D42*
X129540000Y-120905000D03*
X127000000Y-120905000D03*
D23*
X136601200Y-92049600D03*
D18*
X223520000Y-95250000D03*
D19*
X223520000Y-90170000D03*
D44*
X116905000Y-107950000D03*
X116905000Y-109220000D03*
X116905000Y-110490000D03*
X116905000Y-111760000D03*
X121855000Y-111760000D03*
X121855000Y-110490000D03*
X121855000Y-109220000D03*
X121855000Y-107950000D03*
D36*
X99060000Y-58420000D03*
D37*
X99060000Y-60960000D03*
X99060000Y-63500000D03*
X99060000Y-66040000D03*
D29*
X104410000Y-117729000D03*
X106410000Y-117729000D03*
D45*
X166480000Y-60080000D03*
D46*
X166480000Y-58080000D03*
X164480000Y-60080000D03*
X164480000Y-58080000D03*
X162480000Y-60080000D03*
X162480000Y-58080000D03*
X160480000Y-60080000D03*
X160480000Y-58080000D03*
X158480000Y-60080000D03*
X158480000Y-58080000D03*
X156480000Y-60080000D03*
X156480000Y-58080000D03*
X154480000Y-60080000D03*
X154480000Y-58080000D03*
X152480000Y-60080000D03*
X152480000Y-58080000D03*
X150480000Y-60080000D03*
X150480000Y-58080000D03*
X148480000Y-60080000D03*
X148480000Y-58080000D03*
D47*
X128016000Y-80248000D03*
X128016000Y-78248000D03*
D48*
X156718000Y-87376000D03*
X141478000Y-77216000D03*
D49*
X90760000Y-129338500D03*
X97770000Y-129338500D03*
D50*
X96520000Y-131828500D03*
X92020000Y-131828500D03*
D22*
X222250000Y-57118674D03*
X82533637Y-57118674D03*
D23*
X119380000Y-81615677D03*
D51*
X119380000Y-76615677D03*
D30*
X208262000Y-85023000D03*
X208262000Y-92523000D03*
X198182000Y-92523000D03*
X198182000Y-85023000D03*
D31*
X182922000Y-92523000D03*
D32*
X182922000Y-85023000D03*
D30*
X203222000Y-85023000D03*
X203222000Y-92523000D03*
D24*
X115972500Y-104775000D03*
X113897500Y-104775000D03*
D22*
X82550000Y-128270000D03*
D25*
X200018000Y-105840000D03*
X200018000Y-102440000D03*
X209938000Y-102440000D03*
X209938000Y-105840000D03*
D24*
X107717500Y-105918000D03*
X105642500Y-105918000D03*
D52*
X151990000Y-99320000D03*
X150290000Y-99320000D03*
D53*
X148590000Y-108470000D03*
D52*
X148590000Y-99320000D03*
X146890000Y-99320000D03*
X145190000Y-99320000D03*
M02*
