M48
; DRILL file {KiCad (6.0.8-1)-1} date Friday, December 30, 2022 at 12:26:25 pm
; FORMAT={-:-/ absolute / metric / decimal}
; #@! TF.CreationDate,2022-12-30T12:26:25-08:00
; #@! TF.GenerationSoftware,Kicad,Pcbnew,(6.0.8-1)-1
; #@! TF.FileFunction,Plated,1,2,PTH
FMAT,2
METRIC
; #@! TA.AperFunction,Plated,PTH,ViaDrill
T1C0.400
; #@! TA.AperFunction,Plated,PTH,ComponentDrill
T2C0.750
; #@! TA.AperFunction,Plated,PTH,ComponentDrill
T3C0.800
; #@! TA.AperFunction,Plated,PTH,ComponentDrill
T4C0.990
; #@! TA.AperFunction,Plated,PTH,ComponentDrill
T5C1.000
; #@! TA.AperFunction,Plated,PTH,ComponentDrill
T6C1.020
; #@! TA.AperFunction,Plated,PTH,ComponentDrill
T7C1.090
; #@! TA.AperFunction,Plated,PTH,ComponentDrill
T8C1.100
; #@! TA.AperFunction,Plated,PTH,ComponentDrill
T9C1.140
; #@! TA.AperFunction,Plated,PTH,ComponentDrill
T10C1.200
; #@! TA.AperFunction,Plated,PTH,ComponentDrill
T11C1.300
; #@! TA.AperFunction,Plated,PTH,ComponentDrill
T12C1.780
; #@! TA.AperFunction,Plated,PTH,ComponentDrill
T13C1.854
%
G90
G05
T1
X104.648Y-78.486
X104.648Y-81.534
X104.648Y-95.504
X104.902Y-101.346
X108.458Y-95.504
X108.458Y-101.346
X112.725Y-73.508
X112.725Y-107.188
X112.725Y-110.541
X118.364Y-96.469
X118.364Y-99.365
X212.852Y-67.056
X212.852Y-75.184
X213.97Y-68.072
X213.97Y-74.168
X215.494Y-68.072
X215.494Y-74.168
X216.611Y-67.056
X216.611Y-75.184
T2
X148.48Y-58.08
X148.48Y-60.08
X150.48Y-58.08
X150.48Y-60.08
X152.48Y-58.08
X152.48Y-60.08
X154.48Y-58.08
X154.48Y-60.08
X156.48Y-58.08
X156.48Y-60.08
X158.48Y-58.08
X158.48Y-60.08
X160.48Y-58.08
X160.48Y-60.08
X162.48Y-58.08
X162.48Y-60.08
X164.48Y-58.08
X164.48Y-60.08
X166.48Y-58.08
X166.48Y-60.08
T3
X106.68Y-95.975
X106.68Y-100.855
T4
X92.02Y-131.828
X96.52Y-131.828
T5
X80.0Y-80.01
X80.0Y-82.55
X80.0Y-85.09
X80.0Y-87.63
X80.0Y-90.17
X80.0Y-92.71
X80.0Y-95.25
X80.0Y-97.79
X80.0Y-100.33
X80.0Y-102.87
X80.0Y-105.41
X80.0Y-107.95
X80.0Y-110.49
X80.0Y-113.03
X80.0Y-115.57
X95.24Y-80.01
X95.24Y-82.55
X95.24Y-85.09
X95.24Y-87.63
X95.24Y-90.17
X95.24Y-92.71
X95.24Y-95.25
X95.24Y-97.79
X95.24Y-100.33
X95.24Y-102.87
X95.24Y-105.41
X95.24Y-107.95
X95.24Y-110.49
X95.24Y-113.03
X95.24Y-115.57
X99.06Y-58.42
X99.06Y-60.96
X99.06Y-63.5
X99.06Y-66.04
X104.14Y-124.46
X106.68Y-124.46
X119.38Y-76.616
X119.38Y-81.616
T6
X140.74Y-125.22
X143.74Y-125.22
X153.44Y-125.22
X156.44Y-125.22
X166.14Y-125.22
X169.14Y-125.22
X178.84Y-125.22
X181.84Y-125.22
X209.32Y-125.22
X212.32Y-125.22
T7
X114.3Y-120.905
X116.84Y-120.905
X119.38Y-120.905
X127.0Y-120.905
X129.54Y-120.905
X132.08Y-120.905
T8
X144.78Y-92.71
X152.4Y-92.71
T9
X141.478Y-77.216
X156.718Y-87.376
T10
X166.37Y-99.232
X166.37Y-104.232
T11
X90.76Y-129.338
X97.77Y-129.338
X182.922Y-67.37
X182.922Y-74.87
X182.922Y-85.023
X182.922Y-92.523
X198.182Y-67.37
X198.182Y-74.87
X198.182Y-85.023
X198.182Y-92.523
X203.222Y-67.37
X203.222Y-74.87
X203.222Y-85.023
X203.222Y-92.523
X208.262Y-67.37
X208.262Y-74.87
X208.262Y-85.023
X208.262Y-92.523
X223.52Y-66.04
X223.52Y-71.12
X223.52Y-80.015
X223.52Y-85.095
X223.52Y-90.17
X223.52Y-95.25
X223.52Y-100.33
X223.52Y-105.41
X223.52Y-114.3
X223.52Y-119.38
T12
X181.222Y-102.44
X181.222Y-105.84
X191.142Y-102.44
X191.142Y-105.84
X200.018Y-102.44
X200.018Y-105.84
X209.938Y-102.44
X209.938Y-105.84
T13
X190.881Y-115.443
X190.881Y-119.253
X193.04Y-131.953
X195.58Y-115.443
X195.58Y-119.253
X198.12Y-131.953
X200.279Y-115.443
X200.279Y-119.253
T0
M30
