G04 #@! TF.GenerationSoftware,KiCad,Pcbnew,(6.0.8-1)-1*
G04 #@! TF.CreationDate,2022-12-30T12:25:55-08:00*
G04 #@! TF.ProjectId,Urban Battery - BMS_complement,55726261-6e20-4426-9174-74657279202d,rev?*
G04 #@! TF.SameCoordinates,Original*
G04 #@! TF.FileFunction,Soldermask,Top*
G04 #@! TF.FilePolarity,Negative*
%FSLAX46Y46*%
G04 Gerber Fmt 4.6, Leading zero omitted, Abs format (unit mm)*
G04 Created by KiCad (PCBNEW (6.0.8-1)-1) date 2022-12-30 12:25:55*
%MOMM*%
%LPD*%
G01*
G04 APERTURE LIST*
G04 Aperture macros list*
%AMRoundRect*
0 Rectangle with rounded corners*
0 $1 Rounding radius*
0 $2 $3 $4 $5 $6 $7 $8 $9 X,Y pos of 4 corners*
0 Add a 4 corners polygon primitive as box body*
4,1,4,$2,$3,$4,$5,$6,$7,$8,$9,$2,$3,0*
0 Add four circle primitives for the rounded corners*
1,1,$1+$1,$2,$3*
1,1,$1+$1,$4,$5*
1,1,$1+$1,$6,$7*
1,1,$1+$1,$8,$9*
0 Add four rect primitives between the rounded corners*
20,1,$1+$1,$2,$3,$4,$5,0*
20,1,$1+$1,$4,$5,$6,$7,0*
20,1,$1+$1,$6,$7,$8,$9,0*
20,1,$1+$1,$8,$9,$2,$3,0*%
G04 Aperture macros list end*
%ADD10C,3.000000*%
%ADD11RoundRect,0.250001X0.499999X0.759999X-0.499999X0.759999X-0.499999X-0.759999X0.499999X-0.759999X0*%
%ADD12O,1.500000X2.020000*%
%ADD13R,2.600000X2.600000*%
%ADD14C,2.600000*%
%ADD15R,1.600000X1.600000*%
%ADD16O,1.600000X1.600000*%
%ADD17C,3.200000*%
%ADD18R,2.000000X2.000000*%
%ADD19RoundRect,0.250000X0.337500X0.475000X-0.337500X0.475000X-0.337500X-0.475000X0.337500X-0.475000X0*%
%ADD20C,2.780000*%
%ADD21RoundRect,0.150000X-0.875000X-0.150000X0.875000X-0.150000X0.875000X0.150000X-0.875000X0.150000X0*%
%ADD22R,2.400000X2.400000*%
%ADD23C,2.400000*%
%ADD24RoundRect,0.250000X-0.350000X-0.450000X0.350000X-0.450000X0.350000X0.450000X-0.350000X0.450000X0*%
%ADD25O,2.000000X3.000000*%
%ADD26R,3.000000X2.000000*%
%ADD27O,3.000000X2.000000*%
%ADD28RoundRect,0.250000X0.475000X-0.337500X0.475000X0.337500X-0.475000X0.337500X-0.475000X-0.337500X0*%
%ADD29R,2.200000X2.200000*%
%ADD30O,2.200000X2.200000*%
%ADD31R,1.700000X1.700000*%
%ADD32O,1.700000X1.700000*%
%ADD33C,1.500000*%
%ADD34RoundRect,0.250000X-1.000000X1.950000X-1.000000X-1.950000X1.000000X-1.950000X1.000000X1.950000X0*%
%ADD35C,3.400000*%
%ADD36R,1.690000X1.690000*%
%ADD37C,1.690000*%
%ADD38C,2.616200*%
%ADD39RoundRect,0.150000X-0.825000X-0.150000X0.825000X-0.150000X0.825000X0.150000X-0.825000X0.150000X0*%
%ADD40RoundRect,0.250000X0.350000X0.350000X-0.350000X0.350000X-0.350000X-0.350000X0.350000X-0.350000X0*%
%ADD41C,1.200000*%
%ADD42RoundRect,0.250000X0.450000X-0.350000X0.450000X0.350000X-0.450000X0.350000X-0.450000X-0.350000X0*%
%ADD43C,1.900000*%
%ADD44C,2.100000*%
%ADD45C,1.750000*%
%ADD46C,2.000000*%
%ADD47R,1.100000X4.600000*%
%ADD48R,10.800000X9.400000*%
G04 APERTURE END LIST*
G36*
X160329841Y-69877114D02*
G01*
X160368592Y-69891122D01*
X160372709Y-69900710D01*
X160368928Y-69927272D01*
X160358230Y-69992714D01*
X160341576Y-70091536D01*
X160319929Y-70218236D01*
X160294251Y-70367315D01*
X160265503Y-70533270D01*
X160234648Y-70710601D01*
X160202648Y-70893807D01*
X160170465Y-71077388D01*
X160139062Y-71255842D01*
X160109400Y-71423668D01*
X160082441Y-71575366D01*
X160059147Y-71705434D01*
X160040482Y-71808372D01*
X160027406Y-71878679D01*
X160021949Y-71906207D01*
X160008688Y-71967826D01*
X161240858Y-71979814D01*
X161203172Y-72216460D01*
X160461147Y-72216460D01*
X160283387Y-72215966D01*
X160120903Y-72214566D01*
X159978952Y-72212378D01*
X159862794Y-72209523D01*
X159777687Y-72206120D01*
X159728890Y-72202290D01*
X159719127Y-72199556D01*
X159722934Y-72174724D01*
X159733868Y-72109717D01*
X159751196Y-72008744D01*
X159774185Y-71876016D01*
X159802103Y-71715741D01*
X159834219Y-71532131D01*
X159869800Y-71329394D01*
X159908114Y-71111740D01*
X159921961Y-71033230D01*
X159961014Y-70811810D01*
X159997596Y-70604204D01*
X160030975Y-70414566D01*
X160060423Y-70247053D01*
X160085209Y-70105821D01*
X160104604Y-69995025D01*
X160117878Y-69918822D01*
X160124301Y-69881367D01*
X160124795Y-69878172D01*
X160145190Y-69875085D01*
X160197793Y-69873039D01*
X160248758Y-69872538D01*
X160329841Y-69877114D01*
G37*
G36*
X167652817Y-69856606D02*
G01*
X167848655Y-69910856D01*
X168028023Y-70000134D01*
X168141050Y-70084283D01*
X168189804Y-70135864D01*
X168241317Y-70204736D01*
X168289858Y-70280938D01*
X168329696Y-70354508D01*
X168355102Y-70415484D01*
X168360344Y-70453906D01*
X168357002Y-70459659D01*
X168329007Y-70471738D01*
X168274020Y-70489134D01*
X168208992Y-70507135D01*
X168150876Y-70521027D01*
X168117849Y-70526131D01*
X168101569Y-70508437D01*
X168071250Y-70463143D01*
X168049106Y-70426604D01*
X167945345Y-70292320D01*
X167812131Y-70189268D01*
X167653944Y-70119006D01*
X167475264Y-70083092D01*
X167280567Y-70083084D01*
X167130089Y-70106828D01*
X166926226Y-70174251D01*
X166743204Y-70278554D01*
X166584423Y-70415052D01*
X166453286Y-70579061D01*
X166353193Y-70765895D01*
X166287546Y-70970870D01*
X166259744Y-71189300D01*
X166261193Y-71303682D01*
X166291021Y-71493337D01*
X166355735Y-71654566D01*
X166454725Y-71786726D01*
X166587379Y-71889171D01*
X166753088Y-71961258D01*
X166919137Y-71998132D01*
X167114986Y-72005518D01*
X167317882Y-71975814D01*
X167516471Y-71912713D01*
X167699402Y-71819908D01*
X167855323Y-71701091D01*
X167867144Y-71689738D01*
X167929839Y-71625436D01*
X167967162Y-71575265D01*
X167987558Y-71523552D01*
X167999471Y-71454622D01*
X168001146Y-71441010D01*
X168011672Y-71364003D01*
X168022300Y-71303085D01*
X168028742Y-71277611D01*
X168025499Y-71265869D01*
X168001659Y-71257474D01*
X167951690Y-71251934D01*
X167870059Y-71248756D01*
X167751234Y-71247448D01*
X167688613Y-71247338D01*
X167568455Y-71246724D01*
X167465951Y-71245028D01*
X167388739Y-71242472D01*
X167344456Y-71239276D01*
X167336868Y-71237178D01*
X167341207Y-71211177D01*
X167352316Y-71155696D01*
X167361273Y-71113221D01*
X167385678Y-70999423D01*
X167845834Y-70999423D01*
X168009110Y-71000069D01*
X168131775Y-71002187D01*
X168218273Y-71006049D01*
X168273054Y-71011929D01*
X168300562Y-71020098D01*
X168305979Y-71027595D01*
X168302193Y-71056649D01*
X168291538Y-71123854D01*
X168275063Y-71222986D01*
X168253812Y-71347821D01*
X168228834Y-71492134D01*
X168204570Y-71630479D01*
X168177286Y-71785325D01*
X168152779Y-71924807D01*
X168132083Y-72043008D01*
X168116231Y-72134014D01*
X168106257Y-72191908D01*
X168103160Y-72210825D01*
X168082866Y-72214041D01*
X168030994Y-72216080D01*
X167990461Y-72216460D01*
X167926170Y-72213149D01*
X167885369Y-72204685D01*
X167877773Y-72198061D01*
X167881603Y-72167418D01*
X167891514Y-72107123D01*
X167901860Y-72049360D01*
X167913099Y-71977922D01*
X167917536Y-71926331D01*
X167915337Y-71908446D01*
X167892968Y-71914737D01*
X167845652Y-71941836D01*
X167795464Y-71975620D01*
X167577749Y-72105998D01*
X167349931Y-72195718D01*
X167116606Y-72243588D01*
X166882369Y-72248415D01*
X166786498Y-72237578D01*
X166626202Y-72196296D01*
X166464556Y-72125448D01*
X166320357Y-72034003D01*
X166267911Y-71990137D01*
X166149862Y-71851690D01*
X166064614Y-71687945D01*
X166012040Y-71504385D01*
X165992010Y-71306492D01*
X166004396Y-71099749D01*
X166049070Y-70889638D01*
X166125903Y-70681641D01*
X166234766Y-70481242D01*
X166305671Y-70379636D01*
X166455173Y-70214693D01*
X166628611Y-70078277D01*
X166820214Y-69971317D01*
X167024208Y-69894740D01*
X167234821Y-69849477D01*
X167446281Y-69836456D01*
X167652817Y-69856606D01*
G37*
G36*
X146971282Y-65192863D02*
G01*
X147086335Y-65199557D01*
X147244334Y-65210631D01*
X147445789Y-65226099D01*
X147691208Y-65245974D01*
X147905955Y-65263909D01*
X149517867Y-65406640D01*
X151160536Y-65565280D01*
X152822967Y-65738752D01*
X153419831Y-65804144D01*
X154610990Y-65939689D01*
X155766618Y-66078076D01*
X156886288Y-66219218D01*
X157969572Y-66363023D01*
X159016044Y-66509402D01*
X160025276Y-66658264D01*
X160996842Y-66809521D01*
X161930313Y-66963081D01*
X162825263Y-67118856D01*
X163681265Y-67276754D01*
X164497891Y-67436687D01*
X165274714Y-67598564D01*
X166011307Y-67762295D01*
X166707244Y-67927790D01*
X167362096Y-68094960D01*
X167975436Y-68263714D01*
X168546838Y-68433963D01*
X169075874Y-68605616D01*
X169562117Y-68778584D01*
X170005141Y-68952777D01*
X170404516Y-69128104D01*
X170759818Y-69304476D01*
X171070617Y-69481803D01*
X171161978Y-69539627D01*
X171400100Y-69714044D01*
X171594487Y-69899248D01*
X171745224Y-70095472D01*
X171852398Y-70302947D01*
X171916095Y-70521906D01*
X171936402Y-70752581D01*
X171913405Y-70995204D01*
X171847191Y-71250008D01*
X171823301Y-71317226D01*
X171733804Y-71510490D01*
X171607335Y-71715318D01*
X171448593Y-71926086D01*
X171262278Y-72137172D01*
X171053088Y-72342954D01*
X170825722Y-72537810D01*
X170760594Y-72588763D01*
X170665166Y-72660049D01*
X170564708Y-72731897D01*
X170463587Y-72801608D01*
X170366170Y-72866485D01*
X170276822Y-72923827D01*
X170199909Y-72970937D01*
X170139799Y-73005116D01*
X170100857Y-73023664D01*
X170087450Y-73023883D01*
X170103944Y-73003074D01*
X170133464Y-72976395D01*
X170175912Y-72941368D01*
X170243294Y-72887311D01*
X170324893Y-72822778D01*
X170379662Y-72779902D01*
X170526217Y-72657963D01*
X170684836Y-72512821D01*
X170844999Y-72355070D01*
X170996190Y-72195304D01*
X171127891Y-72044117D01*
X171197711Y-71955932D01*
X171328217Y-71766498D01*
X171444879Y-71566186D01*
X171540073Y-71369026D01*
X171595057Y-71224800D01*
X171648942Y-70992710D01*
X171658445Y-70764257D01*
X171624225Y-70541319D01*
X171546940Y-70325771D01*
X171427249Y-70119491D01*
X171265812Y-69924354D01*
X171078832Y-69754559D01*
X170885087Y-69611463D01*
X170671796Y-69477384D01*
X170436090Y-69351268D01*
X170175100Y-69232065D01*
X169885958Y-69118720D01*
X169565793Y-69010181D01*
X169211737Y-68905396D01*
X168820921Y-68803313D01*
X168390476Y-68702877D01*
X167967924Y-68613250D01*
X167348026Y-68493499D01*
X166760767Y-68393818D01*
X166198767Y-68313538D01*
X165654643Y-68251991D01*
X165121015Y-68208506D01*
X164590500Y-68182415D01*
X164055716Y-68173050D01*
X163509284Y-68179741D01*
X163268811Y-68187391D01*
X163017231Y-68195738D01*
X162752304Y-68202609D01*
X162479185Y-68208005D01*
X162203028Y-68211926D01*
X161928986Y-68214372D01*
X161662213Y-68215343D01*
X161407864Y-68214840D01*
X161171091Y-68212863D01*
X160957050Y-68209411D01*
X160770895Y-68204486D01*
X160617778Y-68198087D01*
X160502854Y-68190214D01*
X160474135Y-68187287D01*
X160322413Y-68169542D01*
X160188354Y-68152609D01*
X160066194Y-68135163D01*
X159950163Y-68115880D01*
X159834496Y-68093436D01*
X159713426Y-68066505D01*
X159581185Y-68033764D01*
X159432008Y-67993888D01*
X159260126Y-67945553D01*
X159059774Y-67887434D01*
X158825184Y-67818206D01*
X158682387Y-67775782D01*
X158105190Y-67604175D01*
X157569675Y-67445183D01*
X157074375Y-67298380D01*
X156617825Y-67163338D01*
X156198557Y-67039633D01*
X155815107Y-66926838D01*
X155466008Y-66824526D01*
X155149793Y-66732271D01*
X154864997Y-66649648D01*
X154610153Y-66576229D01*
X154383795Y-66511589D01*
X154184458Y-66455301D01*
X154010674Y-66406939D01*
X153860979Y-66366077D01*
X153733905Y-66332288D01*
X153627987Y-66305147D01*
X153600575Y-66298350D01*
X153346178Y-66239090D01*
X153048421Y-66175641D01*
X152708799Y-66108255D01*
X152328806Y-66037185D01*
X151909940Y-65962686D01*
X151453695Y-65885009D01*
X150961566Y-65804409D01*
X150435049Y-65721138D01*
X149875639Y-65635449D01*
X149284832Y-65547597D01*
X148664123Y-65457834D01*
X148495341Y-65433834D01*
X148274702Y-65402570D01*
X148052696Y-65371119D01*
X147836662Y-65340520D01*
X147633941Y-65311811D01*
X147451875Y-65286033D01*
X147297802Y-65264225D01*
X147179065Y-65247426D01*
X147154348Y-65243931D01*
X147022407Y-65224627D01*
X146930359Y-65209622D01*
X146878714Y-65198929D01*
X146867981Y-65192563D01*
X146898667Y-65190536D01*
X146971282Y-65192863D01*
G37*
G36*
X147285763Y-69849188D02*
G01*
X147468916Y-69891792D01*
X147615143Y-69958806D01*
X147726205Y-70051513D01*
X147803866Y-70171196D01*
X147832379Y-70246976D01*
X147854755Y-70327011D01*
X147859087Y-70375351D01*
X147841124Y-70403216D01*
X147796616Y-70421824D01*
X147762542Y-70431306D01*
X147676864Y-70451761D01*
X147625556Y-70456014D01*
X147600565Y-70443091D01*
X147593837Y-70412016D01*
X147593833Y-70410877D01*
X147573247Y-70324168D01*
X147516993Y-70237970D01*
X147433328Y-70162911D01*
X147374050Y-70127958D01*
X147244750Y-70084438D01*
X147098380Y-70067172D01*
X146947287Y-70074890D01*
X146803819Y-70106320D01*
X146680322Y-70160193D01*
X146617502Y-70205830D01*
X146553034Y-70287516D01*
X146509983Y-70389251D01*
X146490504Y-70498050D01*
X146496752Y-70600927D01*
X146530882Y-70684897D01*
X146536691Y-70692753D01*
X146585894Y-70742303D01*
X146653604Y-70785732D01*
X146746315Y-70825824D01*
X146870517Y-70865365D01*
X147032702Y-70907138D01*
X147041373Y-70909204D01*
X147226057Y-70957853D01*
X147371126Y-71007377D01*
X147482013Y-71060181D01*
X147564153Y-71118669D01*
X147601573Y-71157104D01*
X147667111Y-71268157D01*
X147698341Y-71397830D01*
X147697591Y-71538487D01*
X147667191Y-71682489D01*
X147609468Y-71822199D01*
X147526753Y-71949978D01*
X147421373Y-72058189D01*
X147303268Y-72135472D01*
X147142087Y-72196620D01*
X146954786Y-72235907D01*
X146755684Y-72251386D01*
X146559097Y-72241111D01*
X146542501Y-72238924D01*
X146357973Y-72197449D01*
X146208978Y-72128669D01*
X146094520Y-72031693D01*
X146013608Y-71905632D01*
X145965249Y-71749596D01*
X145959659Y-71716493D01*
X145943911Y-71610936D01*
X146042031Y-71585560D01*
X146111514Y-71567318D01*
X146167369Y-71552195D01*
X146179592Y-71548737D01*
X146206088Y-71548950D01*
X146217296Y-71577073D01*
X146219033Y-71618589D01*
X146240298Y-71733636D01*
X146299166Y-71838957D01*
X146388247Y-71922115D01*
X146405953Y-71933204D01*
X146530648Y-71984998D01*
X146680006Y-72014130D01*
X146839545Y-72020285D01*
X146994782Y-72003150D01*
X147131235Y-71962410D01*
X147158717Y-71949527D01*
X147266582Y-71875031D01*
X147351151Y-71778130D01*
X147408505Y-71667795D01*
X147434722Y-71552993D01*
X147425883Y-71442694D01*
X147404570Y-71387026D01*
X147366410Y-71327448D01*
X147315840Y-71278806D01*
X147246079Y-71237757D01*
X147150348Y-71200954D01*
X147021870Y-71165053D01*
X146895164Y-71135657D01*
X146685562Y-71081290D01*
X146518169Y-71018934D01*
X146390615Y-70947285D01*
X146300532Y-70865042D01*
X146249482Y-70780756D01*
X146225606Y-70682820D01*
X146220999Y-70561145D01*
X146235364Y-70432597D01*
X146257227Y-70345433D01*
X146326078Y-70202923D01*
X146431097Y-70079737D01*
X146566522Y-69978655D01*
X146726591Y-69902457D01*
X146905543Y-69853922D01*
X147097615Y-69835832D01*
X147285763Y-69849188D01*
G37*
G36*
X147193844Y-66763649D02*
G01*
X147268497Y-66767193D01*
X147313985Y-66772366D01*
X147323381Y-66776389D01*
X147319588Y-66801210D01*
X147308833Y-66865030D01*
X147292051Y-66962468D01*
X147270176Y-67088144D01*
X147244144Y-67236678D01*
X147214888Y-67402690D01*
X147197101Y-67503230D01*
X147157511Y-67730378D01*
X147126599Y-67918161D01*
X147104108Y-68071394D01*
X147089781Y-68194892D01*
X147083361Y-68293471D01*
X147084593Y-68371946D01*
X147093218Y-68435132D01*
X147108981Y-68487846D01*
X147131625Y-68534902D01*
X147141245Y-68551115D01*
X147216212Y-68631481D01*
X147321673Y-68687027D01*
X147449228Y-68715713D01*
X147590479Y-68715501D01*
X147716325Y-68690703D01*
X147853735Y-68627948D01*
X147969412Y-68528009D01*
X148058732Y-68395402D01*
X148088971Y-68326605D01*
X148105322Y-68271453D01*
X148127755Y-68178474D01*
X148154891Y-68054295D01*
X148185353Y-67905543D01*
X148217760Y-67738846D01*
X148250735Y-67560829D01*
X148265549Y-67477906D01*
X148391858Y-66762334D01*
X148612633Y-66762334D01*
X148706183Y-66763997D01*
X148780079Y-66768478D01*
X148824684Y-66775009D01*
X148833407Y-66779885D01*
X148829476Y-66811307D01*
X148818477Y-66880398D01*
X148801608Y-66980514D01*
X148780063Y-67105012D01*
X148755036Y-67247250D01*
X148727724Y-67400582D01*
X148699322Y-67558368D01*
X148671024Y-67713962D01*
X148644026Y-67860723D01*
X148619523Y-67992006D01*
X148598711Y-68101169D01*
X148582784Y-68181568D01*
X148573650Y-68223694D01*
X148500207Y-68443208D01*
X148394062Y-68639795D01*
X148258965Y-68809172D01*
X148098670Y-68947057D01*
X147916928Y-69049164D01*
X147818740Y-69085603D01*
X147693792Y-69114878D01*
X147549086Y-69133961D01*
X147402989Y-69141463D01*
X147273869Y-69135993D01*
X147231920Y-69130014D01*
X147056947Y-69079094D01*
X146905333Y-68996769D01*
X146782220Y-68887241D01*
X146692747Y-68754713D01*
X146655172Y-68658595D01*
X146635681Y-68575577D01*
X146624363Y-68484278D01*
X146621574Y-68379246D01*
X146627666Y-68255029D01*
X146642996Y-68106174D01*
X146667919Y-67927229D01*
X146702788Y-67712742D01*
X146725039Y-67584960D01*
X146754186Y-67420956D01*
X146782021Y-67265343D01*
X146807198Y-67125567D01*
X146828371Y-67009075D01*
X146844194Y-66923314D01*
X146852330Y-66880657D01*
X146875822Y-66762334D01*
X147099601Y-66762334D01*
X147193844Y-66763649D01*
G37*
G36*
X158789915Y-69878103D02*
G01*
X158804290Y-69891410D01*
X158802834Y-69917870D01*
X158802028Y-69922248D01*
X158796292Y-69954113D01*
X158783519Y-70025914D01*
X158764498Y-70133198D01*
X158740017Y-70271511D01*
X158710865Y-70436397D01*
X158677827Y-70623403D01*
X158641693Y-70828073D01*
X158603251Y-71045955D01*
X158595557Y-71089574D01*
X158398803Y-72205191D01*
X158270142Y-72211950D01*
X158200868Y-72213584D01*
X158154159Y-72210847D01*
X158141482Y-72206049D01*
X158145300Y-72180106D01*
X158156020Y-72116032D01*
X158172533Y-72020058D01*
X158193737Y-71898413D01*
X158218523Y-71757325D01*
X158245787Y-71603024D01*
X158274424Y-71441739D01*
X158303327Y-71279699D01*
X158331391Y-71123132D01*
X158357510Y-70978269D01*
X158380579Y-70851338D01*
X158399492Y-70748568D01*
X158411651Y-70683940D01*
X158430341Y-70583929D01*
X158445288Y-70499142D01*
X158454688Y-70440126D01*
X158457010Y-70419122D01*
X158446019Y-70391798D01*
X158416431Y-70399699D01*
X158373316Y-70439692D01*
X158328486Y-70498540D01*
X158295955Y-70544928D01*
X158240935Y-70621584D01*
X158167755Y-70722551D01*
X158080749Y-70841872D01*
X157984249Y-70973590D01*
X157882586Y-71111746D01*
X157882316Y-71112112D01*
X157772500Y-71260820D01*
X157685820Y-71377183D01*
X157618704Y-71465168D01*
X157567580Y-71528740D01*
X157528875Y-71571865D01*
X157499017Y-71598508D01*
X157474434Y-71612636D01*
X157451553Y-71618215D01*
X157426802Y-71619210D01*
X157342732Y-71619210D01*
X157200329Y-71258607D01*
X157143329Y-71112920D01*
X157082958Y-70956337D01*
X157025131Y-70804347D01*
X156975767Y-70672436D01*
X156959535Y-70628270D01*
X156921008Y-70526067D01*
X156886434Y-70440619D01*
X156859320Y-70380169D01*
X156843175Y-70352961D01*
X156842085Y-70352302D01*
X156834291Y-70372378D01*
X156819973Y-70432298D01*
X156800028Y-70527444D01*
X156775352Y-70653201D01*
X156746842Y-70804952D01*
X156715394Y-70978079D01*
X156681905Y-71167966D01*
X156667191Y-71253092D01*
X156633187Y-71450296D01*
X156601259Y-71634097D01*
X156572268Y-71799645D01*
X156547072Y-71942091D01*
X156526532Y-72056584D01*
X156511508Y-72138274D01*
X156502859Y-72182312D01*
X156501381Y-72188287D01*
X156477022Y-72202346D01*
X156425392Y-72212120D01*
X156361689Y-72216933D01*
X156301112Y-72216108D01*
X156258860Y-72208969D01*
X156248319Y-72199556D01*
X156252127Y-72174724D01*
X156263061Y-72109717D01*
X156280388Y-72008744D01*
X156303377Y-71876016D01*
X156331296Y-71715741D01*
X156363411Y-71532131D01*
X156398992Y-71329394D01*
X156437306Y-71111740D01*
X156451153Y-71033230D01*
X156490211Y-70811768D01*
X156526795Y-70604085D01*
X156560177Y-70414342D01*
X156589627Y-70246699D01*
X156614413Y-70105317D01*
X156633807Y-69994359D01*
X156647077Y-69917983D01*
X156653495Y-69880353D01*
X156653988Y-69877097D01*
X156674475Y-69874594D01*
X156727877Y-69874731D01*
X156793788Y-69877097D01*
X156933583Y-69883806D01*
X157196456Y-70571207D01*
X157274330Y-70772424D01*
X157341833Y-70941844D01*
X157398049Y-71077318D01*
X157442060Y-71176702D01*
X157472952Y-71237847D01*
X157489775Y-71258607D01*
X157509584Y-71241067D01*
X157552869Y-71191092D01*
X157616518Y-71112646D01*
X157697422Y-71009694D01*
X157792470Y-70886201D01*
X157898550Y-70746132D01*
X158012554Y-70593452D01*
X158029036Y-70571207D01*
X158537851Y-69883806D01*
X158674798Y-69877173D01*
X158749990Y-69874505D01*
X158789915Y-69878103D01*
G37*
G36*
X170524463Y-69979592D02*
G01*
X170513418Y-70046035D01*
X170503059Y-70092795D01*
X170499214Y-70103549D01*
X170475052Y-70107880D01*
X170411559Y-70111801D01*
X170314480Y-70115163D01*
X170189557Y-70117820D01*
X170042535Y-70119623D01*
X169879157Y-70120425D01*
X169842267Y-70120452D01*
X169195048Y-70120452D01*
X169133375Y-70475421D01*
X169112462Y-70596874D01*
X169094622Y-70702542D01*
X169081160Y-70784527D01*
X169073382Y-70834931D01*
X169071987Y-70846870D01*
X169093543Y-70851891D01*
X169153775Y-70856839D01*
X169246280Y-70861428D01*
X169364661Y-70865370D01*
X169502516Y-70868378D01*
X169573960Y-70869408D01*
X170075648Y-70875466D01*
X170038088Y-71111274D01*
X169528458Y-71117327D01*
X169018827Y-71123381D01*
X168944700Y-71540328D01*
X168921434Y-71671318D01*
X168901099Y-71786041D01*
X168884928Y-71877520D01*
X168874154Y-71938778D01*
X168870011Y-71962838D01*
X168870003Y-71962910D01*
X168891459Y-71964342D01*
X168952405Y-71965640D01*
X169047255Y-71966756D01*
X169170422Y-71967641D01*
X169316321Y-71968249D01*
X169479365Y-71968531D01*
X169525534Y-71968545D01*
X170181636Y-71968545D01*
X170166657Y-72053061D01*
X170160128Y-72096614D01*
X170154584Y-72131721D01*
X170145530Y-72159284D01*
X170128468Y-72180204D01*
X170098903Y-72195386D01*
X170052337Y-72205730D01*
X169984275Y-72212140D01*
X169890219Y-72215517D01*
X169765673Y-72216765D01*
X169606141Y-72216785D01*
X169407127Y-72216481D01*
X169352474Y-72216460D01*
X169170534Y-72215987D01*
X169003752Y-72214645D01*
X168857272Y-72212545D01*
X168736234Y-72209800D01*
X168645782Y-72206520D01*
X168591056Y-72202819D01*
X168576447Y-72199556D01*
X168580255Y-72174724D01*
X168591189Y-72109717D01*
X168608516Y-72008744D01*
X168631505Y-71876016D01*
X168659423Y-71715741D01*
X168691539Y-71532131D01*
X168727120Y-71329394D01*
X168765434Y-71111740D01*
X168779281Y-71033230D01*
X168818335Y-70811810D01*
X168854916Y-70604204D01*
X168888296Y-70414566D01*
X168917743Y-70247053D01*
X168942529Y-70105821D01*
X168961924Y-69995025D01*
X168975198Y-69918822D01*
X168981621Y-69881367D01*
X168982115Y-69878172D01*
X169003799Y-69876853D01*
X169065425Y-69875644D01*
X169161862Y-69874582D01*
X169287976Y-69873704D01*
X169438635Y-69873046D01*
X169608706Y-69872647D01*
X169761052Y-69872538D01*
X170539984Y-69872538D01*
X170524463Y-69979592D01*
G37*
G36*
X148965003Y-68447506D02*
G01*
X148997009Y-68264124D01*
X149030558Y-68072406D01*
X149064746Y-67877503D01*
X149098672Y-67684564D01*
X149098832Y-67683655D01*
X149559927Y-67683655D01*
X149576891Y-67716787D01*
X149616419Y-67731135D01*
X149682950Y-67733209D01*
X149780922Y-67729518D01*
X149819432Y-67728188D01*
X149942946Y-67723006D01*
X150031412Y-67715159D01*
X150094846Y-67703089D01*
X150143263Y-67685240D01*
X150163132Y-67674727D01*
X150238533Y-67611158D01*
X150296495Y-67524375D01*
X150329941Y-67428943D01*
X150331791Y-67339429D01*
X150329973Y-67331390D01*
X150306210Y-67265593D01*
X150268879Y-67217823D01*
X150211209Y-67185117D01*
X150126432Y-67164515D01*
X150007778Y-67153053D01*
X149913653Y-67149222D01*
X149809598Y-67147042D01*
X149724281Y-67146649D01*
X149666429Y-67147982D01*
X149644769Y-67150982D01*
X149644765Y-67151038D01*
X149640974Y-67175642D01*
X149630696Y-67235220D01*
X149615570Y-67320406D01*
X149600032Y-67406475D01*
X149575936Y-67535008D01*
X149561088Y-67625232D01*
X149559927Y-67683655D01*
X149098832Y-67683655D01*
X149131430Y-67498739D01*
X149162119Y-67325177D01*
X149189835Y-67169029D01*
X149213675Y-67035444D01*
X149232735Y-66929572D01*
X149246113Y-66856563D01*
X149252316Y-66824312D01*
X149265205Y-66762334D01*
X149764878Y-66762686D01*
X149969883Y-66764188D01*
X150135909Y-66768953D01*
X150268991Y-66777843D01*
X150375162Y-66791722D01*
X150460456Y-66811455D01*
X150530906Y-66837904D01*
X150592545Y-66871934D01*
X150610141Y-66883696D01*
X150711047Y-66979174D01*
X150776334Y-67097322D01*
X150804766Y-67231664D01*
X150795110Y-67375722D01*
X150746129Y-67523022D01*
X150735980Y-67543696D01*
X150650680Y-67669595D01*
X150530502Y-67778060D01*
X150442749Y-67835158D01*
X150419309Y-67852997D01*
X150425893Y-67869561D01*
X150467594Y-67893938D01*
X150478934Y-67899710D01*
X150602716Y-67978306D01*
X150686268Y-68071641D01*
X150733691Y-68186296D01*
X150749085Y-68328850D01*
X150749095Y-68333220D01*
X150728114Y-68507004D01*
X150667091Y-68664004D01*
X150568843Y-68801399D01*
X150436184Y-68916370D01*
X150271930Y-69006095D01*
X150078899Y-69067756D01*
X150000559Y-69082922D01*
X149934807Y-69090159D01*
X149839822Y-69096045D01*
X149722809Y-69100571D01*
X149590971Y-69103728D01*
X149451511Y-69105508D01*
X149311634Y-69105900D01*
X149178542Y-69104897D01*
X149059439Y-69102489D01*
X148961529Y-69098667D01*
X148892016Y-69093421D01*
X148858103Y-69086744D01*
X148855945Y-69084364D01*
X148859727Y-69059141D01*
X148870471Y-68994683D01*
X148887274Y-68896141D01*
X148909232Y-68768664D01*
X148923959Y-68683673D01*
X149375601Y-68683673D01*
X149378924Y-68699702D01*
X149394764Y-68710719D01*
X149430083Y-68717644D01*
X149491842Y-68721400D01*
X149587003Y-68722906D01*
X149673796Y-68723114D01*
X149799855Y-68722330D01*
X149890783Y-68719136D01*
X149956512Y-68712269D01*
X150006972Y-68700466D01*
X150052093Y-68682465D01*
X150072521Y-68672405D01*
X150175444Y-68602868D01*
X150242250Y-68513832D01*
X150277533Y-68411134D01*
X150282492Y-68299437D01*
X150247042Y-68201614D01*
X150174049Y-68124822D01*
X150158854Y-68114828D01*
X150123939Y-68096096D01*
X150085273Y-68083567D01*
X150033797Y-68076283D01*
X149960454Y-68073285D01*
X149856185Y-68073616D01*
X149781213Y-68074893D01*
X149478176Y-68080790D01*
X149427533Y-68362511D01*
X149408118Y-68472974D01*
X149391929Y-68569726D01*
X149380575Y-68642819D01*
X149375666Y-68682304D01*
X149375601Y-68683673D01*
X148923959Y-68683673D01*
X148935443Y-68617402D01*
X148965003Y-68447506D01*
G37*
G36*
X164126008Y-71027595D02*
G01*
X164820657Y-69872538D01*
X165100006Y-69872538D01*
X165686060Y-72216460D01*
X165406765Y-72216460D01*
X165333392Y-71900932D01*
X165260020Y-71585404D01*
X164056873Y-71585404D01*
X163684801Y-72216460D01*
X163548724Y-72216460D01*
X163479007Y-72213951D01*
X163433376Y-72207421D01*
X163422002Y-72199556D01*
X163435000Y-72177703D01*
X163469184Y-72120633D01*
X163522509Y-72031755D01*
X163592925Y-71914479D01*
X163678386Y-71772213D01*
X163776843Y-71608366D01*
X163886249Y-71426347D01*
X163939671Y-71337489D01*
X164205326Y-71337489D01*
X164700556Y-71337489D01*
X164844502Y-71336986D01*
X164971996Y-71335580D01*
X165076599Y-71333419D01*
X165151875Y-71330656D01*
X165191387Y-71327440D01*
X165195785Y-71325897D01*
X165190196Y-71288991D01*
X165174698Y-71218407D01*
X165151200Y-71121196D01*
X165121607Y-71004408D01*
X165087826Y-70875092D01*
X165051763Y-70740299D01*
X165015326Y-70607079D01*
X164980420Y-70482481D01*
X164948952Y-70373555D01*
X164922830Y-70287352D01*
X164903958Y-70230921D01*
X164894353Y-70211297D01*
X164875471Y-70230070D01*
X164838181Y-70281876D01*
X164786478Y-70360632D01*
X164724352Y-70460255D01*
X164655795Y-70574663D01*
X164654880Y-70576219D01*
X164576809Y-70708928D01*
X164496867Y-70844644D01*
X164421700Y-70972095D01*
X164357955Y-71080010D01*
X164323049Y-71138968D01*
X164205326Y-71337489D01*
X163939671Y-71337489D01*
X164004557Y-71229564D01*
X164126008Y-71027595D01*
G37*
G36*
X150153195Y-69874417D02*
G01*
X150197666Y-69879259D01*
X150208207Y-69883830D01*
X150204059Y-69920170D01*
X150192423Y-69994259D01*
X150174510Y-70099618D01*
X150151532Y-70229768D01*
X150124702Y-70378230D01*
X150095231Y-70538524D01*
X150064332Y-70704173D01*
X150033215Y-70868697D01*
X150003093Y-71025616D01*
X149975178Y-71168453D01*
X149950681Y-71290728D01*
X149930816Y-71385962D01*
X149916792Y-71447676D01*
X149913114Y-71461446D01*
X149830384Y-71674995D01*
X149718438Y-71857877D01*
X149579462Y-72007688D01*
X149415639Y-72122025D01*
X149248384Y-72192729D01*
X149108721Y-72225271D01*
X148951218Y-72244662D01*
X148795488Y-72249411D01*
X148661143Y-72238030D01*
X148658312Y-72237541D01*
X148521337Y-72204936D01*
X148411794Y-72156767D01*
X148312710Y-72085211D01*
X148296308Y-72070722D01*
X148211909Y-71980588D01*
X148153753Y-71881875D01*
X148117689Y-71764060D01*
X148099570Y-71616622D01*
X148097021Y-71565246D01*
X148095684Y-71498839D01*
X148097214Y-71431497D01*
X148102388Y-71357245D01*
X148111981Y-71270110D01*
X148126768Y-71164118D01*
X148147526Y-71033297D01*
X148175030Y-70871673D01*
X148210056Y-70673273D01*
X148220247Y-70616282D01*
X148351481Y-69883806D01*
X148479755Y-69877047D01*
X148562474Y-69876833D01*
X148603034Y-69887359D01*
X148608030Y-69896737D01*
X148604225Y-69924660D01*
X148593435Y-69991454D01*
X148576601Y-70091616D01*
X148554662Y-70219642D01*
X148528558Y-70370030D01*
X148499229Y-70537277D01*
X148481794Y-70635972D01*
X148439605Y-70879481D01*
X148406700Y-71083461D01*
X148382891Y-71252453D01*
X148367991Y-71390995D01*
X148361811Y-71503627D01*
X148364165Y-71594890D01*
X148374864Y-71669324D01*
X148393720Y-71731467D01*
X148420547Y-71785861D01*
X148433380Y-71806335D01*
X148518065Y-71895208D01*
X148634205Y-71959981D01*
X148773979Y-71998668D01*
X148929566Y-72009287D01*
X149093144Y-71989854D01*
X149126437Y-71982109D01*
X149297294Y-71917823D01*
X149439866Y-71818455D01*
X149554028Y-71684121D01*
X149639654Y-71514934D01*
X149642223Y-71508142D01*
X149657541Y-71455424D01*
X149678975Y-71364770D01*
X149705191Y-71242699D01*
X149734853Y-71095730D01*
X149766627Y-70930382D01*
X149799176Y-70753174D01*
X149814320Y-70667884D01*
X149845276Y-70492360D01*
X149874184Y-70329976D01*
X149900023Y-70186356D01*
X149921770Y-70067124D01*
X149938403Y-69977904D01*
X149948900Y-69924320D01*
X149951715Y-69911979D01*
X149968520Y-69888141D01*
X150007993Y-69876053D01*
X150080907Y-69872545D01*
X150085769Y-69872538D01*
X150153195Y-69874417D01*
G37*
G36*
X163537773Y-69979592D02*
G01*
X163526728Y-70046035D01*
X163516369Y-70092795D01*
X163512524Y-70103549D01*
X163488362Y-70107880D01*
X163424869Y-70111801D01*
X163327789Y-70115163D01*
X163202866Y-70117820D01*
X163055844Y-70119623D01*
X162892467Y-70120425D01*
X162855577Y-70120452D01*
X162208357Y-70120452D01*
X162146685Y-70475421D01*
X162125772Y-70596874D01*
X162107931Y-70702542D01*
X162094470Y-70784527D01*
X162086692Y-70834931D01*
X162085297Y-70846870D01*
X162106853Y-70851891D01*
X162167084Y-70856839D01*
X162259590Y-70861428D01*
X162377971Y-70865370D01*
X162515825Y-70868378D01*
X162587269Y-70869408D01*
X163088958Y-70875466D01*
X163051398Y-71111274D01*
X162541767Y-71117327D01*
X162032137Y-71123381D01*
X161958010Y-71540328D01*
X161934744Y-71671318D01*
X161914408Y-71786041D01*
X161898237Y-71877520D01*
X161887464Y-71938778D01*
X161883321Y-71962838D01*
X161883312Y-71962910D01*
X161904769Y-71964342D01*
X161965715Y-71965640D01*
X162060564Y-71966756D01*
X162183731Y-71967641D01*
X162329630Y-71968249D01*
X162492675Y-71968531D01*
X162538843Y-71968545D01*
X163194945Y-71968545D01*
X163179967Y-72053061D01*
X163173438Y-72096614D01*
X163167894Y-72131721D01*
X163158840Y-72159284D01*
X163141778Y-72180204D01*
X163112213Y-72195386D01*
X163065647Y-72205730D01*
X162997584Y-72212140D01*
X162903528Y-72215517D01*
X162778983Y-72216765D01*
X162619451Y-72216785D01*
X162420436Y-72216481D01*
X162365784Y-72216460D01*
X162183843Y-72215987D01*
X162017062Y-72214645D01*
X161870581Y-72212545D01*
X161749544Y-72209800D01*
X161659091Y-72206520D01*
X161604366Y-72202819D01*
X161589756Y-72199556D01*
X161593564Y-72174724D01*
X161604498Y-72109717D01*
X161621826Y-72008744D01*
X161644815Y-71876016D01*
X161672733Y-71715741D01*
X161704849Y-71532131D01*
X161740430Y-71329394D01*
X161778744Y-71111740D01*
X161792591Y-71033230D01*
X161831644Y-70811810D01*
X161868226Y-70604204D01*
X161901605Y-70414566D01*
X161931053Y-70247053D01*
X161955839Y-70105821D01*
X161975234Y-69995025D01*
X161988508Y-69918822D01*
X161994931Y-69881367D01*
X161995425Y-69878172D01*
X162017109Y-69876853D01*
X162078735Y-69875644D01*
X162175171Y-69874582D01*
X162301285Y-69873704D01*
X162451944Y-69873046D01*
X162622016Y-69872647D01*
X162774362Y-69872538D01*
X163553294Y-69872538D01*
X163537773Y-69979592D01*
G37*
G36*
X154484360Y-70811703D02*
G01*
X154520950Y-70603900D01*
X154554336Y-70413990D01*
X154583788Y-70246143D01*
X154608574Y-70104528D01*
X154627966Y-69993313D01*
X154641232Y-69916668D01*
X154647643Y-69878761D01*
X154648131Y-69875409D01*
X154669573Y-69873407D01*
X154729531Y-69872553D01*
X154821466Y-69872816D01*
X154938833Y-69874165D01*
X155075091Y-69876569D01*
X155127063Y-69877677D01*
X155290732Y-69881747D01*
X155416728Y-69886213D01*
X155512453Y-69891815D01*
X155585308Y-69899292D01*
X155642694Y-69909384D01*
X155692012Y-69922831D01*
X155735933Y-69938535D01*
X155883192Y-70011217D01*
X155990309Y-70101776D01*
X156059924Y-70213905D01*
X156094683Y-70351298D01*
X156099906Y-70447249D01*
X156089786Y-70604571D01*
X156057726Y-70736175D01*
X155999257Y-70857892D01*
X155971921Y-70900800D01*
X155854846Y-71036366D01*
X155710480Y-71139591D01*
X155583039Y-71194088D01*
X155516374Y-71218020D01*
X155471517Y-71239708D01*
X155459494Y-71251363D01*
X155467805Y-71276661D01*
X155491075Y-71337289D01*
X155526811Y-71427018D01*
X155572519Y-71539619D01*
X155625706Y-71668862D01*
X155651065Y-71729949D01*
X155706716Y-71864221D01*
X155756011Y-71984247D01*
X155796466Y-72083885D01*
X155825594Y-72156993D01*
X155840911Y-72197431D01*
X155842635Y-72203332D01*
X155822036Y-72209906D01*
X155767977Y-72214615D01*
X155692066Y-72216459D01*
X155690420Y-72216460D01*
X155538206Y-72216460D01*
X155357989Y-71754824D01*
X155177773Y-71293189D01*
X154916520Y-71292801D01*
X154655268Y-71292413D01*
X154582227Y-71714995D01*
X154558711Y-71849836D01*
X154537164Y-71971134D01*
X154518983Y-72071195D01*
X154505566Y-72142323D01*
X154498313Y-72176825D01*
X154498260Y-72177019D01*
X154482044Y-72200810D01*
X154443242Y-72212894D01*
X154371113Y-72216448D01*
X154364896Y-72216460D01*
X154297478Y-72213647D01*
X154253010Y-72206401D01*
X154242463Y-72199556D01*
X154246271Y-72174724D01*
X154257204Y-72109717D01*
X154274532Y-72008744D01*
X154297521Y-71876016D01*
X154325439Y-71715741D01*
X154357555Y-71532131D01*
X154393136Y-71329394D01*
X154431450Y-71111740D01*
X154443289Y-71044613D01*
X154698729Y-71044613D01*
X154706988Y-71055297D01*
X154731488Y-71062138D01*
X154778321Y-71065692D01*
X154853584Y-71066516D01*
X154963371Y-71065166D01*
X155068586Y-71063132D01*
X155211645Y-71059662D01*
X155317706Y-71055327D01*
X155394849Y-71049153D01*
X155451150Y-71040163D01*
X155494688Y-71027384D01*
X155533542Y-71009840D01*
X155540510Y-71006182D01*
X155664138Y-70915815D01*
X155757949Y-70795646D01*
X155807861Y-70680122D01*
X155835666Y-70561457D01*
X155838419Y-70465056D01*
X155815422Y-70375250D01*
X155791925Y-70323739D01*
X155753717Y-70259394D01*
X155709182Y-70210841D01*
X155651541Y-70175755D01*
X155574015Y-70151812D01*
X155469827Y-70136686D01*
X155332196Y-70128055D01*
X155211265Y-70124609D01*
X154861616Y-70117497D01*
X154786949Y-70552826D01*
X154763221Y-70689846D01*
X154741384Y-70813491D01*
X154722813Y-70916161D01*
X154708885Y-70990257D01*
X154700976Y-71028177D01*
X154700614Y-71029529D01*
X154698729Y-71044613D01*
X154443289Y-71044613D01*
X154445297Y-71033230D01*
X154484360Y-70811703D01*
G37*
G36*
X152633912Y-66738247D02*
G01*
X152637098Y-66738676D01*
X152811748Y-66777744D01*
X152977069Y-66843428D01*
X153121222Y-66929989D01*
X153225734Y-67023996D01*
X153287397Y-67102438D01*
X153341135Y-67185885D01*
X153381326Y-67263789D01*
X153402346Y-67325603D01*
X153402182Y-67354970D01*
X153377048Y-67372067D01*
X153317748Y-67395898D01*
X153233999Y-67422901D01*
X153164070Y-67442292D01*
X153062423Y-67468280D01*
X152996065Y-67483192D01*
X152956739Y-67487583D01*
X152936183Y-67482010D01*
X152926140Y-67467029D01*
X152923212Y-67458514D01*
X152880684Y-67382508D01*
X152805682Y-67304531D01*
X152709012Y-67235200D01*
X152678785Y-67218392D01*
X152614612Y-67188238D01*
X152554413Y-67170059D01*
X152482883Y-67160945D01*
X152384719Y-67157985D01*
X152360559Y-67157876D01*
X152252801Y-67159759D01*
X152173519Y-67167914D01*
X152106239Y-67185303D01*
X152034482Y-67214888D01*
X152028847Y-67217500D01*
X151857804Y-67320942D01*
X151716944Y-67456037D01*
X151608467Y-67619099D01*
X151534572Y-67806442D01*
X151497460Y-68014383D01*
X151493345Y-68114596D01*
X151512152Y-68288283D01*
X151566737Y-68436249D01*
X151654188Y-68555899D01*
X151771593Y-68644641D01*
X151916040Y-68699881D01*
X152084618Y-68719027D01*
X152167675Y-68715167D01*
X152335316Y-68680107D01*
X152501351Y-68610151D01*
X152650722Y-68512826D01*
X152740753Y-68428642D01*
X152842759Y-68315186D01*
X153029875Y-68365084D01*
X153116916Y-68389446D01*
X153186979Y-68411198D01*
X153228768Y-68426750D01*
X153234755Y-68430175D01*
X153230997Y-68454164D01*
X153204806Y-68503668D01*
X153161585Y-68568748D01*
X153153156Y-68580341D01*
X152997115Y-68755376D01*
X152811314Y-68901302D01*
X152602603Y-69015306D01*
X152377835Y-69094572D01*
X152143860Y-69136286D01*
X151907531Y-69137633D01*
X151821458Y-69127428D01*
X151634419Y-69078802D01*
X151461871Y-68995423D01*
X151311470Y-68882630D01*
X151190869Y-68745759D01*
X151132371Y-68646995D01*
X151061928Y-68468215D01*
X151026784Y-68286892D01*
X151025923Y-68093163D01*
X151054862Y-67893903D01*
X151124749Y-67655063D01*
X151230813Y-67436686D01*
X151368861Y-67241834D01*
X151534698Y-67073570D01*
X151724130Y-66934955D01*
X151932961Y-66829053D01*
X152156999Y-66758926D01*
X152392047Y-66727637D01*
X152633912Y-66738247D01*
G37*
G36*
X150540261Y-70811703D02*
G01*
X150576851Y-70603900D01*
X150610237Y-70413990D01*
X150639688Y-70246143D01*
X150664475Y-70104528D01*
X150683867Y-69993313D01*
X150697133Y-69916668D01*
X150703543Y-69878761D01*
X150704032Y-69875409D01*
X150725473Y-69873407D01*
X150785432Y-69872553D01*
X150877366Y-69872816D01*
X150994733Y-69874165D01*
X151130991Y-69876569D01*
X151182963Y-69877677D01*
X151379229Y-69883684D01*
X151537043Y-69892967D01*
X151662993Y-69906960D01*
X151763666Y-69927097D01*
X151845647Y-69954812D01*
X151915525Y-69991538D01*
X151979885Y-70038711D01*
X151999470Y-70055437D01*
X152080633Y-70155180D01*
X152130960Y-70279067D01*
X152151679Y-70419563D01*
X152144019Y-70569133D01*
X152109209Y-70720240D01*
X152048478Y-70865350D01*
X151963054Y-70996926D01*
X151854167Y-71107434D01*
X151824192Y-71130334D01*
X151734964Y-71189234D01*
X151647482Y-71233627D01*
X151552922Y-71265651D01*
X151442457Y-71287447D01*
X151307262Y-71301153D01*
X151138511Y-71308909D01*
X151081544Y-71310362D01*
X150956800Y-71313734D01*
X150849442Y-71317783D01*
X150766842Y-71322136D01*
X150716372Y-71326422D01*
X150704037Y-71329389D01*
X150700299Y-71354773D01*
X150690092Y-71415948D01*
X150674926Y-71504339D01*
X150656313Y-71611373D01*
X150635763Y-71728478D01*
X150614786Y-71847079D01*
X150594894Y-71958603D01*
X150577597Y-72054477D01*
X150564406Y-72126128D01*
X150556831Y-72164982D01*
X150556662Y-72165750D01*
X150545030Y-72195175D01*
X150519014Y-72210395D01*
X150466628Y-72215920D01*
X150421886Y-72216460D01*
X150354128Y-72213671D01*
X150309262Y-72206479D01*
X150298363Y-72199556D01*
X150302171Y-72174724D01*
X150313105Y-72109717D01*
X150330433Y-72008744D01*
X150353422Y-71876016D01*
X150381340Y-71715741D01*
X150413456Y-71532131D01*
X150449037Y-71329394D01*
X150487350Y-71111740D01*
X150491260Y-71089574D01*
X150744226Y-71089574D01*
X151058107Y-71089574D01*
X151228445Y-71086757D01*
X151359746Y-71077998D01*
X151457713Y-71062832D01*
X151490109Y-71054496D01*
X151620179Y-70995238D01*
X151729570Y-70905370D01*
X151814201Y-70792875D01*
X151869989Y-70665732D01*
X151892854Y-70531922D01*
X151878714Y-70399427D01*
X151856954Y-70337211D01*
X151821367Y-70270146D01*
X151777383Y-70224545D01*
X151709127Y-70185021D01*
X151691079Y-70176451D01*
X151640220Y-70154397D01*
X151592086Y-70139061D01*
X151536972Y-70129232D01*
X151465170Y-70123698D01*
X151366974Y-70121247D01*
X151244370Y-70120673D01*
X150917001Y-70120452D01*
X150842264Y-70554303D01*
X150818422Y-70691863D01*
X150796496Y-70816798D01*
X150777879Y-70921287D01*
X150763966Y-70997512D01*
X150756150Y-71037650D01*
X150755877Y-71038864D01*
X150744226Y-71089574D01*
X150491260Y-71089574D01*
X150501198Y-71033230D01*
X150540261Y-70811703D01*
G37*
G36*
X154184623Y-69979592D02*
G01*
X154173578Y-70046035D01*
X154163219Y-70092795D01*
X154159374Y-70103549D01*
X154135212Y-70107880D01*
X154071719Y-70111801D01*
X153974639Y-70115163D01*
X153849716Y-70117820D01*
X153702694Y-70119623D01*
X153539317Y-70120425D01*
X153502427Y-70120452D01*
X152855207Y-70120452D01*
X152793535Y-70475421D01*
X152772622Y-70596874D01*
X152754781Y-70702542D01*
X152741320Y-70784527D01*
X152733542Y-70834931D01*
X152732147Y-70846870D01*
X152753703Y-70851891D01*
X152813934Y-70856839D01*
X152906440Y-70861428D01*
X153024821Y-70865370D01*
X153162676Y-70868378D01*
X153234119Y-70869408D01*
X153735808Y-70875466D01*
X153698248Y-71111274D01*
X153188618Y-71117327D01*
X152678987Y-71123381D01*
X152604860Y-71540328D01*
X152581594Y-71671318D01*
X152561258Y-71786041D01*
X152545087Y-71877520D01*
X152534314Y-71938778D01*
X152530171Y-71962838D01*
X152530162Y-71962910D01*
X152551619Y-71964342D01*
X152612565Y-71965640D01*
X152707414Y-71966756D01*
X152830581Y-71967641D01*
X152976480Y-71968249D01*
X153139525Y-71968531D01*
X153185694Y-71968545D01*
X153841795Y-71968545D01*
X153826817Y-72053061D01*
X153820288Y-72096614D01*
X153814744Y-72131721D01*
X153805690Y-72159284D01*
X153788628Y-72180204D01*
X153759063Y-72195386D01*
X153712497Y-72205730D01*
X153644434Y-72212140D01*
X153550378Y-72215517D01*
X153425833Y-72216765D01*
X153266301Y-72216785D01*
X153067286Y-72216481D01*
X153012634Y-72216460D01*
X152830693Y-72215987D01*
X152663912Y-72214645D01*
X152517431Y-72212545D01*
X152396394Y-72209800D01*
X152305941Y-72206520D01*
X152251216Y-72202819D01*
X152236607Y-72199556D01*
X152240414Y-72174724D01*
X152251348Y-72109717D01*
X152268676Y-72008744D01*
X152291665Y-71876016D01*
X152319583Y-71715741D01*
X152351699Y-71532131D01*
X152387280Y-71329394D01*
X152425594Y-71111740D01*
X152439441Y-71033230D01*
X152478494Y-70811810D01*
X152515076Y-70604204D01*
X152548455Y-70414566D01*
X152577903Y-70247053D01*
X152602689Y-70105821D01*
X152622084Y-69995025D01*
X152635358Y-69918822D01*
X152641781Y-69881367D01*
X152642275Y-69878172D01*
X152663959Y-69876853D01*
X152725585Y-69875644D01*
X152822021Y-69874582D01*
X152948135Y-69873704D01*
X153098794Y-69873046D01*
X153268866Y-69872647D01*
X153421212Y-69872538D01*
X154200144Y-69872538D01*
X154184623Y-69979592D01*
G37*
G36*
X159541034Y-69877117D02*
G01*
X159579791Y-69891131D01*
X159583905Y-69900710D01*
X159580134Y-69927059D01*
X159569419Y-69992627D01*
X159552661Y-70092243D01*
X159530763Y-70220739D01*
X159504625Y-70372945D01*
X159475149Y-70543692D01*
X159443237Y-70727811D01*
X159409791Y-70920132D01*
X159375712Y-71115486D01*
X159341902Y-71308704D01*
X159309262Y-71494617D01*
X159278695Y-71668055D01*
X159251101Y-71823849D01*
X159227383Y-71956830D01*
X159208441Y-72061829D01*
X159195178Y-72133675D01*
X159188835Y-72165750D01*
X159177046Y-72195182D01*
X159150894Y-72210403D01*
X159098368Y-72215924D01*
X159053830Y-72216460D01*
X158986071Y-72213671D01*
X158941205Y-72206479D01*
X158930307Y-72199556D01*
X158934115Y-72174724D01*
X158945048Y-72109717D01*
X158962376Y-72008744D01*
X158985365Y-71876016D01*
X159013283Y-71715741D01*
X159045399Y-71532131D01*
X159080980Y-71329394D01*
X159119294Y-71111740D01*
X159133141Y-71033230D01*
X159172194Y-70811810D01*
X159208776Y-70604204D01*
X159242155Y-70414566D01*
X159271603Y-70247053D01*
X159296389Y-70105821D01*
X159315784Y-69995025D01*
X159329058Y-69918822D01*
X159335481Y-69881367D01*
X159335975Y-69878172D01*
X159356371Y-69875085D01*
X159408973Y-69873039D01*
X159459938Y-69872538D01*
X159541034Y-69877117D01*
G37*
D10*
X180340000Y-129540000D03*
D11*
X181840000Y-125220000D03*
D12*
X178840000Y-125220000D03*
D13*
X223520000Y-71120000D03*
D14*
X223520000Y-66040000D03*
D10*
X210820000Y-129540000D03*
D11*
X212320000Y-125220000D03*
D12*
X209320000Y-125220000D03*
D15*
X95240000Y-115570000D03*
D16*
X95240000Y-113030000D03*
X95240000Y-110490000D03*
X95240000Y-107950000D03*
X95240000Y-105410000D03*
X95240000Y-102870000D03*
X95240000Y-100330000D03*
X95240000Y-97790000D03*
X95240000Y-95250000D03*
X95240000Y-92710000D03*
X95240000Y-90170000D03*
X95240000Y-87630000D03*
X95240000Y-85090000D03*
X95240000Y-82550000D03*
X95240000Y-80010000D03*
X80000000Y-80010000D03*
X80000000Y-82550000D03*
X80000000Y-85090000D03*
X80000000Y-87630000D03*
X80000000Y-90170000D03*
X80000000Y-92710000D03*
X80000000Y-95250000D03*
X80000000Y-97790000D03*
X80000000Y-100330000D03*
X80000000Y-102870000D03*
X80000000Y-105410000D03*
X80000000Y-107950000D03*
X80000000Y-110490000D03*
X80000000Y-113030000D03*
X80000000Y-115570000D03*
D13*
X223520000Y-85095000D03*
D14*
X223520000Y-80015000D03*
D17*
X222250000Y-128268106D03*
D18*
X110032800Y-110540800D03*
X212090000Y-71120000D03*
D19*
X107717500Y-90932000D03*
X105642500Y-90932000D03*
D20*
X181222000Y-102440000D03*
X181222000Y-105840000D03*
X191142000Y-105840000D03*
X191142000Y-102440000D03*
D21*
X114730000Y-90170000D03*
X114730000Y-91440000D03*
X114730000Y-92710000D03*
X114730000Y-93980000D03*
X114730000Y-95250000D03*
X114730000Y-96520000D03*
X114730000Y-97790000D03*
X114730000Y-99060000D03*
X114730000Y-100330000D03*
X124030000Y-100330000D03*
X124030000Y-99060000D03*
X124030000Y-97790000D03*
X124030000Y-96520000D03*
X124030000Y-95250000D03*
X124030000Y-93980000D03*
X124030000Y-92710000D03*
X124030000Y-91440000D03*
X124030000Y-90170000D03*
D22*
X166370000Y-99232323D03*
D23*
X166370000Y-104232323D03*
D10*
X167640000Y-129540000D03*
D11*
X169140000Y-125220000D03*
D12*
X166140000Y-125220000D03*
D24*
X122825000Y-104542500D03*
X124825000Y-104542500D03*
D10*
X142240000Y-129540000D03*
D11*
X143740000Y-125220000D03*
D12*
X140740000Y-125220000D03*
D25*
X208262000Y-74870000D03*
X208262000Y-67370000D03*
X198182000Y-67370000D03*
X198182000Y-74870000D03*
D26*
X182922000Y-74870000D03*
D27*
X182922000Y-67370000D03*
D25*
X203222000Y-74870000D03*
X203222000Y-67370000D03*
D13*
X223520000Y-105410000D03*
D14*
X223520000Y-100330000D03*
D28*
X110744000Y-80285500D03*
X110744000Y-78210500D03*
D29*
X152400000Y-92710000D03*
D30*
X144780000Y-92710000D03*
D31*
X106680000Y-124460000D03*
D32*
X104140000Y-124460000D03*
D10*
X154940000Y-129540000D03*
D11*
X156440000Y-125220000D03*
D12*
X153440000Y-125220000D03*
D33*
X106680000Y-95975000D03*
X106680000Y-100855000D03*
D34*
X166370000Y-80890000D03*
X166370000Y-89290000D03*
D35*
X120650000Y-129545000D03*
X113030000Y-129545000D03*
D36*
X119380000Y-120905000D03*
D37*
X116840000Y-120905000D03*
X114300000Y-120905000D03*
D13*
X223520000Y-119380000D03*
D14*
X223520000Y-114300000D03*
D38*
X193040000Y-131953000D03*
X198120000Y-131953000D03*
X200279000Y-119253000D03*
X195580000Y-119253000D03*
X190881000Y-119253000D03*
X200279000Y-115443000D03*
X195580000Y-115443000D03*
X190881000Y-115443000D03*
D35*
X125730000Y-129545000D03*
X133350000Y-129545000D03*
D36*
X132080000Y-120905000D03*
D37*
X129540000Y-120905000D03*
X127000000Y-120905000D03*
D18*
X136601200Y-92049600D03*
D13*
X223520000Y-95250000D03*
D14*
X223520000Y-90170000D03*
D39*
X116905000Y-107950000D03*
X116905000Y-109220000D03*
X116905000Y-110490000D03*
X116905000Y-111760000D03*
X121855000Y-111760000D03*
X121855000Y-110490000D03*
X121855000Y-109220000D03*
X121855000Y-107950000D03*
D31*
X99060000Y-58420000D03*
D32*
X99060000Y-60960000D03*
X99060000Y-63500000D03*
X99060000Y-66040000D03*
D24*
X104410000Y-117729000D03*
X106410000Y-117729000D03*
D40*
X166480000Y-60080000D03*
D41*
X166480000Y-58080000D03*
X164480000Y-60080000D03*
X164480000Y-58080000D03*
X162480000Y-60080000D03*
X162480000Y-58080000D03*
X160480000Y-60080000D03*
X160480000Y-58080000D03*
X158480000Y-60080000D03*
X158480000Y-58080000D03*
X156480000Y-60080000D03*
X156480000Y-58080000D03*
X154480000Y-60080000D03*
X154480000Y-58080000D03*
X152480000Y-60080000D03*
X152480000Y-58080000D03*
X150480000Y-60080000D03*
X150480000Y-58080000D03*
X148480000Y-60080000D03*
X148480000Y-58080000D03*
D42*
X128016000Y-80248000D03*
X128016000Y-78248000D03*
D43*
X156718000Y-87376000D03*
X141478000Y-77216000D03*
D44*
X90760000Y-129338500D03*
X97770000Y-129338500D03*
D45*
X96520000Y-131828500D03*
X92020000Y-131828500D03*
D17*
X222250000Y-57118674D03*
X82533637Y-57118674D03*
D18*
X119380000Y-81615677D03*
D46*
X119380000Y-76615677D03*
D25*
X208262000Y-85023000D03*
X208262000Y-92523000D03*
X198182000Y-92523000D03*
X198182000Y-85023000D03*
D26*
X182922000Y-92523000D03*
D27*
X182922000Y-85023000D03*
D25*
X203222000Y-85023000D03*
X203222000Y-92523000D03*
D19*
X115972500Y-104775000D03*
X113897500Y-104775000D03*
D17*
X82550000Y-128270000D03*
D20*
X200018000Y-105840000D03*
X200018000Y-102440000D03*
X209938000Y-102440000D03*
X209938000Y-105840000D03*
D19*
X107717500Y-105918000D03*
X105642500Y-105918000D03*
D47*
X151990000Y-99320000D03*
X150290000Y-99320000D03*
D48*
X148590000Y-108470000D03*
D47*
X148590000Y-99320000D03*
X146890000Y-99320000D03*
X145190000Y-99320000D03*
M02*
