%TF.GenerationSoftware,KiCad,Pcbnew,(6.0.8-1)-1*%
%TF.CreationDate,2022-12-30T12:26:32-08:00*%
%TF.ProjectId,Urban Battery - BMS_complement,55726261-6e20-4426-9174-74657279202d,rev?*%
%TF.SameCoordinates,Original*%
%TF.FileFunction,Drillmap*%
%TF.FilePolarity,Positive*%
%FSLAX45Y45*%
G04 Gerber Fmt 4.5, Leading zero omitted, Abs format (unit mm)*
G04 Created by KiCad (PCBNEW (6.0.8-1)-1) date 2022-12-30 12:26:32*
%MOMM*%
%LPD*%
G01*
G04 APERTURE LIST*
%ADD10C,0.100000*%
%ADD11C,0.200000*%
%ADD12C,0.040000*%
%ADD13C,0.075000*%
%ADD14C,0.080000*%
%ADD15C,0.099000*%
%ADD16C,0.102000*%
%ADD17C,0.109000*%
%ADD18C,0.110000*%
%ADD19C,0.114000*%
%ADD20C,0.120000*%
%ADD21C,0.130000*%
%ADD22C,0.178000*%
%ADD23C,0.185420*%
G04 APERTURE END LIST*
D10*
X7620000Y-5715000D02*
X7620000Y-12827000D01*
X8255000Y-5080000D02*
G75*
G03*
X7620000Y-5715000I0J-635000D01*
G01*
X22225000Y-13462000D02*
G75*
G03*
X22860000Y-12827000I0J635000D01*
G01*
X22225000Y-5080000D02*
X8255000Y-5080000D01*
X22860000Y-5715000D02*
G75*
G03*
X22225000Y-5080000I-635000J0D01*
G01*
X8255000Y-13462000D02*
X22225000Y-13462000D01*
X7620000Y-12827000D02*
G75*
G03*
X8255000Y-13462000I635000J0D01*
G01*
X22860000Y-12827000D02*
X22860000Y-5715000D01*
D11*
D12*
X10444800Y-7828600D02*
X10484800Y-7868600D01*
X10484800Y-7828600D02*
X10444800Y-7868600D01*
X10444800Y-8133400D02*
X10484800Y-8173400D01*
X10484800Y-8133400D02*
X10444800Y-8173400D01*
X10444800Y-9530400D02*
X10484800Y-9570400D01*
X10484800Y-9530400D02*
X10444800Y-9570400D01*
X10470200Y-10114600D02*
X10510200Y-10154600D01*
X10510200Y-10114600D02*
X10470200Y-10154600D01*
X10825800Y-9530400D02*
X10865800Y-9570400D01*
X10865800Y-9530400D02*
X10825800Y-9570400D01*
X10825800Y-10114600D02*
X10865800Y-10154600D01*
X10865800Y-10114600D02*
X10825800Y-10154600D01*
X11252520Y-7330760D02*
X11292520Y-7370760D01*
X11292520Y-7330760D02*
X11252520Y-7370760D01*
X11252520Y-10698800D02*
X11292520Y-10738800D01*
X11292520Y-10698800D02*
X11252520Y-10738800D01*
X11252520Y-11034080D02*
X11292520Y-11074080D01*
X11292520Y-11034080D02*
X11252520Y-11074080D01*
X11816400Y-9626920D02*
X11856400Y-9666920D01*
X11856400Y-9626920D02*
X11816400Y-9666920D01*
X11816400Y-9916480D02*
X11856400Y-9956480D01*
X11856400Y-9916480D02*
X11816400Y-9956480D01*
X21265200Y-6685600D02*
X21305200Y-6725600D01*
X21305200Y-6685600D02*
X21265200Y-6725600D01*
X21265200Y-7498400D02*
X21305200Y-7538400D01*
X21305200Y-7498400D02*
X21265200Y-7538400D01*
X21376960Y-6787200D02*
X21416960Y-6827200D01*
X21416960Y-6787200D02*
X21376960Y-6827200D01*
X21376960Y-7396800D02*
X21416960Y-7436800D01*
X21416960Y-7396800D02*
X21376960Y-7436800D01*
X21529360Y-6787200D02*
X21569360Y-6827200D01*
X21569360Y-6787200D02*
X21529360Y-6827200D01*
X21529360Y-7396800D02*
X21569360Y-7436800D01*
X21569360Y-7396800D02*
X21529360Y-7436800D01*
X21641120Y-6685600D02*
X21681120Y-6725600D01*
X21681120Y-6685600D02*
X21641120Y-6725600D01*
X21641120Y-7498400D02*
X21681120Y-7538400D01*
X21681120Y-7498400D02*
X21641120Y-7538400D01*
D13*
X14885500Y-5808000D02*
G75*
G03*
X14885500Y-5808000I-37500J0D01*
G01*
X14885500Y-6008000D02*
G75*
G03*
X14885500Y-6008000I-37500J0D01*
G01*
X15085500Y-5808000D02*
G75*
G03*
X15085500Y-5808000I-37500J0D01*
G01*
X15085500Y-6008000D02*
G75*
G03*
X15085500Y-6008000I-37500J0D01*
G01*
X15285500Y-5808000D02*
G75*
G03*
X15285500Y-5808000I-37500J0D01*
G01*
X15285500Y-6008000D02*
G75*
G03*
X15285500Y-6008000I-37500J0D01*
G01*
X15485500Y-5808000D02*
G75*
G03*
X15485500Y-5808000I-37500J0D01*
G01*
X15485500Y-6008000D02*
G75*
G03*
X15485500Y-6008000I-37500J0D01*
G01*
X15685500Y-5808000D02*
G75*
G03*
X15685500Y-5808000I-37500J0D01*
G01*
X15685500Y-6008000D02*
G75*
G03*
X15685500Y-6008000I-37500J0D01*
G01*
X15885500Y-5808000D02*
G75*
G03*
X15885500Y-5808000I-37500J0D01*
G01*
X15885500Y-6008000D02*
G75*
G03*
X15885500Y-6008000I-37500J0D01*
G01*
X16085500Y-5808000D02*
G75*
G03*
X16085500Y-5808000I-37500J0D01*
G01*
X16085500Y-6008000D02*
G75*
G03*
X16085500Y-6008000I-37500J0D01*
G01*
X16285500Y-5808000D02*
G75*
G03*
X16285500Y-5808000I-37500J0D01*
G01*
X16285500Y-6008000D02*
G75*
G03*
X16285500Y-6008000I-37500J0D01*
G01*
X16485500Y-5808000D02*
G75*
G03*
X16485500Y-5808000I-37500J0D01*
G01*
X16485500Y-6008000D02*
G75*
G03*
X16485500Y-6008000I-37500J0D01*
G01*
X16685500Y-5808000D02*
G75*
G03*
X16685500Y-5808000I-37500J0D01*
G01*
X16685500Y-6008000D02*
G75*
G03*
X16685500Y-6008000I-37500J0D01*
G01*
D14*
X10668000Y-9557500D02*
X10668000Y-9637500D01*
X10628000Y-9597500D02*
X10708000Y-9597500D01*
X10668000Y-10045500D02*
X10668000Y-10125500D01*
X10628000Y-10085500D02*
X10708000Y-10085500D01*
D15*
X9237002Y-13217852D02*
X9237002Y-13147848D01*
X9166998Y-13147848D01*
X9166998Y-13217852D01*
X9237002Y-13217852D01*
X9687002Y-13217852D02*
X9687002Y-13147848D01*
X9616998Y-13147848D01*
X9616998Y-13217852D01*
X9687002Y-13217852D01*
D10*
X8000000Y-8051000D02*
X8050000Y-8001000D01*
X8000000Y-7951000D01*
X7950000Y-8001000D01*
X8000000Y-8051000D01*
X8000000Y-8305000D02*
X8050000Y-8255000D01*
X8000000Y-8205000D01*
X7950000Y-8255000D01*
X8000000Y-8305000D01*
X8000000Y-8559000D02*
X8050000Y-8509000D01*
X8000000Y-8459000D01*
X7950000Y-8509000D01*
X8000000Y-8559000D01*
X8000000Y-8813000D02*
X8050000Y-8763000D01*
X8000000Y-8713000D01*
X7950000Y-8763000D01*
X8000000Y-8813000D01*
X8000000Y-9067000D02*
X8050000Y-9017000D01*
X8000000Y-8967000D01*
X7950000Y-9017000D01*
X8000000Y-9067000D01*
X8000000Y-9321000D02*
X8050000Y-9271000D01*
X8000000Y-9221000D01*
X7950000Y-9271000D01*
X8000000Y-9321000D01*
X8000000Y-9575000D02*
X8050000Y-9525000D01*
X8000000Y-9475000D01*
X7950000Y-9525000D01*
X8000000Y-9575000D01*
X8000000Y-9829000D02*
X8050000Y-9779000D01*
X8000000Y-9729000D01*
X7950000Y-9779000D01*
X8000000Y-9829000D01*
X8000000Y-10083000D02*
X8050000Y-10033000D01*
X8000000Y-9983000D01*
X7950000Y-10033000D01*
X8000000Y-10083000D01*
X8000000Y-10337000D02*
X8050000Y-10287000D01*
X8000000Y-10237000D01*
X7950000Y-10287000D01*
X8000000Y-10337000D01*
X8000000Y-10591000D02*
X8050000Y-10541000D01*
X8000000Y-10491000D01*
X7950000Y-10541000D01*
X8000000Y-10591000D01*
X8000000Y-10845000D02*
X8050000Y-10795000D01*
X8000000Y-10745000D01*
X7950000Y-10795000D01*
X8000000Y-10845000D01*
X8000000Y-11099000D02*
X8050000Y-11049000D01*
X8000000Y-10999000D01*
X7950000Y-11049000D01*
X8000000Y-11099000D01*
X8000000Y-11353000D02*
X8050000Y-11303000D01*
X8000000Y-11253000D01*
X7950000Y-11303000D01*
X8000000Y-11353000D01*
X8000000Y-11607000D02*
X8050000Y-11557000D01*
X8000000Y-11507000D01*
X7950000Y-11557000D01*
X8000000Y-11607000D01*
X9524000Y-8051000D02*
X9574000Y-8001000D01*
X9524000Y-7951000D01*
X9474000Y-8001000D01*
X9524000Y-8051000D01*
X9524000Y-8305000D02*
X9574000Y-8255000D01*
X9524000Y-8205000D01*
X9474000Y-8255000D01*
X9524000Y-8305000D01*
X9524000Y-8559000D02*
X9574000Y-8509000D01*
X9524000Y-8459000D01*
X9474000Y-8509000D01*
X9524000Y-8559000D01*
X9524000Y-8813000D02*
X9574000Y-8763000D01*
X9524000Y-8713000D01*
X9474000Y-8763000D01*
X9524000Y-8813000D01*
X9524000Y-9067000D02*
X9574000Y-9017000D01*
X9524000Y-8967000D01*
X9474000Y-9017000D01*
X9524000Y-9067000D01*
X9524000Y-9321000D02*
X9574000Y-9271000D01*
X9524000Y-9221000D01*
X9474000Y-9271000D01*
X9524000Y-9321000D01*
X9524000Y-9575000D02*
X9574000Y-9525000D01*
X9524000Y-9475000D01*
X9474000Y-9525000D01*
X9524000Y-9575000D01*
X9524000Y-9829000D02*
X9574000Y-9779000D01*
X9524000Y-9729000D01*
X9474000Y-9779000D01*
X9524000Y-9829000D01*
X9524000Y-10083000D02*
X9574000Y-10033000D01*
X9524000Y-9983000D01*
X9474000Y-10033000D01*
X9524000Y-10083000D01*
X9524000Y-10337000D02*
X9574000Y-10287000D01*
X9524000Y-10237000D01*
X9474000Y-10287000D01*
X9524000Y-10337000D01*
X9524000Y-10591000D02*
X9574000Y-10541000D01*
X9524000Y-10491000D01*
X9474000Y-10541000D01*
X9524000Y-10591000D01*
X9524000Y-10845000D02*
X9574000Y-10795000D01*
X9524000Y-10745000D01*
X9474000Y-10795000D01*
X9524000Y-10845000D01*
X9524000Y-11099000D02*
X9574000Y-11049000D01*
X9524000Y-10999000D01*
X9474000Y-11049000D01*
X9524000Y-11099000D01*
X9524000Y-11353000D02*
X9574000Y-11303000D01*
X9524000Y-11253000D01*
X9474000Y-11303000D01*
X9524000Y-11353000D01*
X9524000Y-11607000D02*
X9574000Y-11557000D01*
X9524000Y-11507000D01*
X9474000Y-11557000D01*
X9524000Y-11607000D01*
X9906000Y-5892000D02*
X9956000Y-5842000D01*
X9906000Y-5792000D01*
X9856000Y-5842000D01*
X9906000Y-5892000D01*
X9906000Y-6146000D02*
X9956000Y-6096000D01*
X9906000Y-6046000D01*
X9856000Y-6096000D01*
X9906000Y-6146000D01*
X9906000Y-6400000D02*
X9956000Y-6350000D01*
X9906000Y-6300000D01*
X9856000Y-6350000D01*
X9906000Y-6400000D01*
X9906000Y-6654000D02*
X9956000Y-6604000D01*
X9906000Y-6554000D01*
X9856000Y-6604000D01*
X9906000Y-6654000D01*
X10414000Y-12496000D02*
X10464000Y-12446000D01*
X10414000Y-12396000D01*
X10364000Y-12446000D01*
X10414000Y-12496000D01*
X10668000Y-12496000D02*
X10718000Y-12446000D01*
X10668000Y-12396000D01*
X10618000Y-12446000D01*
X10668000Y-12496000D01*
X11938000Y-7711568D02*
X11988000Y-7661568D01*
X11938000Y-7611568D01*
X11888000Y-7661568D01*
X11938000Y-7711568D01*
X11938000Y-8211568D02*
X11988000Y-8161568D01*
X11938000Y-8111568D01*
X11888000Y-8161568D01*
X11938000Y-8211568D01*
D16*
X14023000Y-12471000D02*
X14125000Y-12573000D01*
X14125000Y-12471000D02*
X14023000Y-12573000D01*
X14125000Y-12522000D02*
G75*
G03*
X14125000Y-12522000I-51000J0D01*
G01*
X14323000Y-12471000D02*
X14425000Y-12573000D01*
X14425000Y-12471000D02*
X14323000Y-12573000D01*
X14425000Y-12522000D02*
G75*
G03*
X14425000Y-12522000I-51000J0D01*
G01*
X15293000Y-12471000D02*
X15395000Y-12573000D01*
X15395000Y-12471000D02*
X15293000Y-12573000D01*
X15395000Y-12522000D02*
G75*
G03*
X15395000Y-12522000I-51000J0D01*
G01*
X15593000Y-12471000D02*
X15695000Y-12573000D01*
X15695000Y-12471000D02*
X15593000Y-12573000D01*
X15695000Y-12522000D02*
G75*
G03*
X15695000Y-12522000I-51000J0D01*
G01*
X16563000Y-12471000D02*
X16665000Y-12573000D01*
X16665000Y-12471000D02*
X16563000Y-12573000D01*
X16665000Y-12522000D02*
G75*
G03*
X16665000Y-12522000I-51000J0D01*
G01*
X16863000Y-12471000D02*
X16965000Y-12573000D01*
X16965000Y-12471000D02*
X16863000Y-12573000D01*
X16965000Y-12522000D02*
G75*
G03*
X16965000Y-12522000I-51000J0D01*
G01*
X17833000Y-12471000D02*
X17935000Y-12573000D01*
X17935000Y-12471000D02*
X17833000Y-12573000D01*
X17935000Y-12522000D02*
G75*
G03*
X17935000Y-12522000I-51000J0D01*
G01*
X18133000Y-12471000D02*
X18235000Y-12573000D01*
X18235000Y-12471000D02*
X18133000Y-12573000D01*
X18235000Y-12522000D02*
G75*
G03*
X18235000Y-12522000I-51000J0D01*
G01*
X20881000Y-12471000D02*
X20983000Y-12573000D01*
X20983000Y-12471000D02*
X20881000Y-12573000D01*
X20983000Y-12522000D02*
G75*
G03*
X20983000Y-12522000I-51000J0D01*
G01*
X21181000Y-12471000D02*
X21283000Y-12573000D01*
X21283000Y-12471000D02*
X21181000Y-12573000D01*
X21283000Y-12522000D02*
G75*
G03*
X21283000Y-12522000I-51000J0D01*
G01*
D17*
X11375500Y-12036000D02*
X11484500Y-12145000D01*
X11484500Y-12036000D02*
X11375500Y-12145000D01*
X11430000Y-12036000D02*
X11430000Y-12145000D01*
X11375500Y-12090500D02*
X11484500Y-12090500D01*
X11629500Y-12036000D02*
X11738500Y-12145000D01*
X11738500Y-12036000D02*
X11629500Y-12145000D01*
X11684000Y-12036000D02*
X11684000Y-12145000D01*
X11629500Y-12090500D02*
X11738500Y-12090500D01*
X11883500Y-12036000D02*
X11992500Y-12145000D01*
X11992500Y-12036000D02*
X11883500Y-12145000D01*
X11938000Y-12036000D02*
X11938000Y-12145000D01*
X11883500Y-12090500D02*
X11992500Y-12090500D01*
X12645500Y-12036000D02*
X12754500Y-12145000D01*
X12754500Y-12036000D02*
X12645500Y-12145000D01*
X12700000Y-12036000D02*
X12700000Y-12145000D01*
X12645500Y-12090500D02*
X12754500Y-12090500D01*
X12899500Y-12036000D02*
X13008500Y-12145000D01*
X13008500Y-12036000D02*
X12899500Y-12145000D01*
X12954000Y-12036000D02*
X12954000Y-12145000D01*
X12899500Y-12090500D02*
X13008500Y-12090500D01*
X13153500Y-12036000D02*
X13262500Y-12145000D01*
X13262500Y-12036000D02*
X13153500Y-12145000D01*
X13208000Y-12036000D02*
X13208000Y-12145000D01*
X13153500Y-12090500D02*
X13262500Y-12090500D01*
D18*
X14423000Y-9216000D02*
X14533000Y-9326000D01*
X14533000Y-9216000D02*
X14423000Y-9326000D01*
X14516891Y-9309891D02*
X14516891Y-9232109D01*
X14439109Y-9232109D01*
X14439109Y-9309891D01*
X14516891Y-9309891D01*
X15185000Y-9216000D02*
X15295000Y-9326000D01*
X15295000Y-9216000D02*
X15185000Y-9326000D01*
X15278891Y-9309891D02*
X15278891Y-9232109D01*
X15201109Y-9232109D01*
X15201109Y-9309891D01*
X15278891Y-9309891D01*
D19*
X14090800Y-7664600D02*
X14204800Y-7778600D01*
X14204800Y-7664600D02*
X14090800Y-7778600D01*
X14147800Y-7778600D02*
X14204800Y-7721600D01*
X14147800Y-7664600D01*
X14090800Y-7721600D01*
X14147800Y-7778600D01*
X15614800Y-8680600D02*
X15728800Y-8794600D01*
X15728800Y-8680600D02*
X15614800Y-8794600D01*
X15671800Y-8794600D02*
X15728800Y-8737600D01*
X15671800Y-8680600D01*
X15614800Y-8737600D01*
X15671800Y-8794600D01*
D20*
X16637000Y-9863232D02*
X16637000Y-9983232D01*
X16577000Y-9923232D02*
X16697000Y-9923232D01*
X16697000Y-9923232D02*
G75*
G03*
X16697000Y-9923232I-60000J0D01*
G01*
X16637000Y-10363232D02*
X16637000Y-10483232D01*
X16577000Y-10423232D02*
X16697000Y-10423232D01*
X16697000Y-10423232D02*
G75*
G03*
X16697000Y-10423232I-60000J0D01*
G01*
D21*
X9121962Y-12979812D02*
X9121962Y-12887888D01*
X9030038Y-12887888D01*
X9030038Y-12979812D01*
X9121962Y-12979812D01*
X9141000Y-12933850D02*
G75*
G03*
X9141000Y-12933850I-65000J0D01*
G01*
X9822962Y-12979812D02*
X9822962Y-12887888D01*
X9731038Y-12887888D01*
X9731038Y-12979812D01*
X9822962Y-12979812D01*
X9842000Y-12933850D02*
G75*
G03*
X9842000Y-12933850I-65000J0D01*
G01*
X18338162Y-6782962D02*
X18338162Y-6691038D01*
X18246238Y-6691038D01*
X18246238Y-6782962D01*
X18338162Y-6782962D01*
X18357200Y-6737000D02*
G75*
G03*
X18357200Y-6737000I-65000J0D01*
G01*
X18338162Y-7532962D02*
X18338162Y-7441038D01*
X18246238Y-7441038D01*
X18246238Y-7532962D01*
X18338162Y-7532962D01*
X18357200Y-7487000D02*
G75*
G03*
X18357200Y-7487000I-65000J0D01*
G01*
X18338162Y-8548262D02*
X18338162Y-8456338D01*
X18246238Y-8456338D01*
X18246238Y-8548262D01*
X18338162Y-8548262D01*
X18357200Y-8502300D02*
G75*
G03*
X18357200Y-8502300I-65000J0D01*
G01*
X18338162Y-9298262D02*
X18338162Y-9206338D01*
X18246238Y-9206338D01*
X18246238Y-9298262D01*
X18338162Y-9298262D01*
X18357200Y-9252300D02*
G75*
G03*
X18357200Y-9252300I-65000J0D01*
G01*
X19864162Y-6782962D02*
X19864162Y-6691038D01*
X19772238Y-6691038D01*
X19772238Y-6782962D01*
X19864162Y-6782962D01*
X19883200Y-6737000D02*
G75*
G03*
X19883200Y-6737000I-65000J0D01*
G01*
X19864162Y-7532962D02*
X19864162Y-7441038D01*
X19772238Y-7441038D01*
X19772238Y-7532962D01*
X19864162Y-7532962D01*
X19883200Y-7487000D02*
G75*
G03*
X19883200Y-7487000I-65000J0D01*
G01*
X19864162Y-8548262D02*
X19864162Y-8456338D01*
X19772238Y-8456338D01*
X19772238Y-8548262D01*
X19864162Y-8548262D01*
X19883200Y-8502300D02*
G75*
G03*
X19883200Y-8502300I-65000J0D01*
G01*
X19864162Y-9298262D02*
X19864162Y-9206338D01*
X19772238Y-9206338D01*
X19772238Y-9298262D01*
X19864162Y-9298262D01*
X19883200Y-9252300D02*
G75*
G03*
X19883200Y-9252300I-65000J0D01*
G01*
X20368162Y-6782962D02*
X20368162Y-6691038D01*
X20276238Y-6691038D01*
X20276238Y-6782962D01*
X20368162Y-6782962D01*
X20387200Y-6737000D02*
G75*
G03*
X20387200Y-6737000I-65000J0D01*
G01*
X20368162Y-7532962D02*
X20368162Y-7441038D01*
X20276238Y-7441038D01*
X20276238Y-7532962D01*
X20368162Y-7532962D01*
X20387200Y-7487000D02*
G75*
G03*
X20387200Y-7487000I-65000J0D01*
G01*
X20368162Y-8548262D02*
X20368162Y-8456338D01*
X20276238Y-8456338D01*
X20276238Y-8548262D01*
X20368162Y-8548262D01*
X20387200Y-8502300D02*
G75*
G03*
X20387200Y-8502300I-65000J0D01*
G01*
X20368162Y-9298262D02*
X20368162Y-9206338D01*
X20276238Y-9206338D01*
X20276238Y-9298262D01*
X20368162Y-9298262D01*
X20387200Y-9252300D02*
G75*
G03*
X20387200Y-9252300I-65000J0D01*
G01*
X20872162Y-6782962D02*
X20872162Y-6691038D01*
X20780238Y-6691038D01*
X20780238Y-6782962D01*
X20872162Y-6782962D01*
X20891200Y-6737000D02*
G75*
G03*
X20891200Y-6737000I-65000J0D01*
G01*
X20872162Y-7532962D02*
X20872162Y-7441038D01*
X20780238Y-7441038D01*
X20780238Y-7532962D01*
X20872162Y-7532962D01*
X20891200Y-7487000D02*
G75*
G03*
X20891200Y-7487000I-65000J0D01*
G01*
X20872162Y-8548262D02*
X20872162Y-8456338D01*
X20780238Y-8456338D01*
X20780238Y-8548262D01*
X20872162Y-8548262D01*
X20891200Y-8502300D02*
G75*
G03*
X20891200Y-8502300I-65000J0D01*
G01*
X20872162Y-9298262D02*
X20872162Y-9206338D01*
X20780238Y-9206338D01*
X20780238Y-9298262D01*
X20872162Y-9298262D01*
X20891200Y-9252300D02*
G75*
G03*
X20891200Y-9252300I-65000J0D01*
G01*
X22397962Y-6649962D02*
X22397962Y-6558038D01*
X22306038Y-6558038D01*
X22306038Y-6649962D01*
X22397962Y-6649962D01*
X22417000Y-6604000D02*
G75*
G03*
X22417000Y-6604000I-65000J0D01*
G01*
X22397962Y-7157962D02*
X22397962Y-7066038D01*
X22306038Y-7066038D01*
X22306038Y-7157962D01*
X22397962Y-7157962D01*
X22417000Y-7112000D02*
G75*
G03*
X22417000Y-7112000I-65000J0D01*
G01*
X22397962Y-8047462D02*
X22397962Y-7955538D01*
X22306038Y-7955538D01*
X22306038Y-8047462D01*
X22397962Y-8047462D01*
X22417000Y-8001500D02*
G75*
G03*
X22417000Y-8001500I-65000J0D01*
G01*
X22397962Y-8555462D02*
X22397962Y-8463538D01*
X22306038Y-8463538D01*
X22306038Y-8555462D01*
X22397962Y-8555462D01*
X22417000Y-8509500D02*
G75*
G03*
X22417000Y-8509500I-65000J0D01*
G01*
X22397962Y-9062962D02*
X22397962Y-8971038D01*
X22306038Y-8971038D01*
X22306038Y-9062962D01*
X22397962Y-9062962D01*
X22417000Y-9017000D02*
G75*
G03*
X22417000Y-9017000I-65000J0D01*
G01*
X22397962Y-9570962D02*
X22397962Y-9479038D01*
X22306038Y-9479038D01*
X22306038Y-9570962D01*
X22397962Y-9570962D01*
X22417000Y-9525000D02*
G75*
G03*
X22417000Y-9525000I-65000J0D01*
G01*
X22397962Y-10078962D02*
X22397962Y-9987038D01*
X22306038Y-9987038D01*
X22306038Y-10078962D01*
X22397962Y-10078962D01*
X22417000Y-10033000D02*
G75*
G03*
X22417000Y-10033000I-65000J0D01*
G01*
X22397962Y-10586962D02*
X22397962Y-10495038D01*
X22306038Y-10495038D01*
X22306038Y-10586962D01*
X22397962Y-10586962D01*
X22417000Y-10541000D02*
G75*
G03*
X22417000Y-10541000I-65000J0D01*
G01*
X22397962Y-11475962D02*
X22397962Y-11384038D01*
X22306038Y-11384038D01*
X22306038Y-11475962D01*
X22397962Y-11475962D01*
X22417000Y-11430000D02*
G75*
G03*
X22417000Y-11430000I-65000J0D01*
G01*
X22397962Y-11983962D02*
X22397962Y-11892038D01*
X22306038Y-11892038D01*
X22306038Y-11983962D01*
X22397962Y-11983962D01*
X22417000Y-11938000D02*
G75*
G03*
X22417000Y-11938000I-65000J0D01*
G01*
D22*
X18122200Y-10333000D02*
X18211200Y-10244000D01*
X18122200Y-10155000D01*
X18033200Y-10244000D01*
X18122200Y-10333000D01*
X18211200Y-10244000D02*
G75*
G03*
X18211200Y-10244000I-89000J0D01*
G01*
X18122200Y-10673000D02*
X18211200Y-10584000D01*
X18122200Y-10495000D01*
X18033200Y-10584000D01*
X18122200Y-10673000D01*
X18211200Y-10584000D02*
G75*
G03*
X18211200Y-10584000I-89000J0D01*
G01*
X19114200Y-10333000D02*
X19203200Y-10244000D01*
X19114200Y-10155000D01*
X19025200Y-10244000D01*
X19114200Y-10333000D01*
X19203200Y-10244000D02*
G75*
G03*
X19203200Y-10244000I-89000J0D01*
G01*
X19114200Y-10673000D02*
X19203200Y-10584000D01*
X19114200Y-10495000D01*
X19025200Y-10584000D01*
X19114200Y-10673000D01*
X19203200Y-10584000D02*
G75*
G03*
X19203200Y-10584000I-89000J0D01*
G01*
X20001800Y-10333000D02*
X20090800Y-10244000D01*
X20001800Y-10155000D01*
X19912800Y-10244000D01*
X20001800Y-10333000D01*
X20090800Y-10244000D02*
G75*
G03*
X20090800Y-10244000I-89000J0D01*
G01*
X20001800Y-10673000D02*
X20090800Y-10584000D01*
X20001800Y-10495000D01*
X19912800Y-10584000D01*
X20001800Y-10673000D01*
X20090800Y-10584000D02*
G75*
G03*
X20090800Y-10584000I-89000J0D01*
G01*
X20993800Y-10333000D02*
X21082800Y-10244000D01*
X20993800Y-10155000D01*
X20904800Y-10244000D01*
X20993800Y-10333000D01*
X21082800Y-10244000D02*
G75*
G03*
X21082800Y-10244000I-89000J0D01*
G01*
X20993800Y-10673000D02*
X21082800Y-10584000D01*
X20993800Y-10495000D01*
X20904800Y-10584000D01*
X20993800Y-10673000D01*
X21082800Y-10584000D02*
G75*
G03*
X21082800Y-10584000I-89000J0D01*
G01*
D23*
X19088100Y-11451590D02*
X19088100Y-11637010D01*
X18995390Y-11544300D02*
X19180810Y-11544300D01*
X19153657Y-11609856D02*
X19153657Y-11478743D01*
X19022544Y-11478743D01*
X19022544Y-11609856D01*
X19153657Y-11609856D01*
X19088100Y-11832590D02*
X19088100Y-12018010D01*
X18995390Y-11925300D02*
X19180810Y-11925300D01*
X19153657Y-11990856D02*
X19153657Y-11859743D01*
X19022544Y-11859743D01*
X19022544Y-11990856D01*
X19153657Y-11990856D01*
X19304000Y-13102590D02*
X19304000Y-13288010D01*
X19211290Y-13195300D02*
X19396710Y-13195300D01*
X19369557Y-13260856D02*
X19369557Y-13129743D01*
X19238444Y-13129743D01*
X19238444Y-13260856D01*
X19369557Y-13260856D01*
X19558000Y-11451590D02*
X19558000Y-11637010D01*
X19465290Y-11544300D02*
X19650710Y-11544300D01*
X19623557Y-11609856D02*
X19623557Y-11478743D01*
X19492444Y-11478743D01*
X19492444Y-11609856D01*
X19623557Y-11609856D01*
X19558000Y-11832590D02*
X19558000Y-12018010D01*
X19465290Y-11925300D02*
X19650710Y-11925300D01*
X19623557Y-11990856D02*
X19623557Y-11859743D01*
X19492444Y-11859743D01*
X19492444Y-11990856D01*
X19623557Y-11990856D01*
X19812000Y-13102590D02*
X19812000Y-13288010D01*
X19719290Y-13195300D02*
X19904710Y-13195300D01*
X19877557Y-13260856D02*
X19877557Y-13129743D01*
X19746444Y-13129743D01*
X19746444Y-13260856D01*
X19877557Y-13260856D01*
X20027900Y-11451590D02*
X20027900Y-11637010D01*
X19935190Y-11544300D02*
X20120610Y-11544300D01*
X20093457Y-11609856D02*
X20093457Y-11478743D01*
X19962344Y-11478743D01*
X19962344Y-11609856D01*
X20093457Y-11609856D01*
X20027900Y-11832590D02*
X20027900Y-12018010D01*
X19935190Y-11925300D02*
X20120610Y-11925300D01*
X20093457Y-11990856D02*
X20093457Y-11859743D01*
X19962344Y-11859743D01*
X19962344Y-11990856D01*
X20093457Y-11990856D01*
D11*
X7872619Y-13777476D02*
X7872619Y-13577476D01*
X7920238Y-13577476D01*
X7948809Y-13587000D01*
X7967857Y-13606048D01*
X7977381Y-13625095D01*
X7986905Y-13663190D01*
X7986905Y-13691762D01*
X7977381Y-13729857D01*
X7967857Y-13748905D01*
X7948809Y-13767952D01*
X7920238Y-13777476D01*
X7872619Y-13777476D01*
X8072619Y-13777476D02*
X8072619Y-13644143D01*
X8072619Y-13682238D02*
X8082143Y-13663190D01*
X8091667Y-13653667D01*
X8110714Y-13644143D01*
X8129762Y-13644143D01*
X8196428Y-13777476D02*
X8196428Y-13644143D01*
X8196428Y-13577476D02*
X8186905Y-13587000D01*
X8196428Y-13596524D01*
X8205952Y-13587000D01*
X8196428Y-13577476D01*
X8196428Y-13596524D01*
X8320238Y-13777476D02*
X8301190Y-13767952D01*
X8291667Y-13748905D01*
X8291667Y-13577476D01*
X8425000Y-13777476D02*
X8405952Y-13767952D01*
X8396429Y-13748905D01*
X8396429Y-13577476D01*
X8653571Y-13777476D02*
X8653571Y-13577476D01*
X8720238Y-13720333D01*
X8786905Y-13577476D01*
X8786905Y-13777476D01*
X8967857Y-13777476D02*
X8967857Y-13672714D01*
X8958333Y-13653667D01*
X8939286Y-13644143D01*
X8901190Y-13644143D01*
X8882143Y-13653667D01*
X8967857Y-13767952D02*
X8948810Y-13777476D01*
X8901190Y-13777476D01*
X8882143Y-13767952D01*
X8872619Y-13748905D01*
X8872619Y-13729857D01*
X8882143Y-13710809D01*
X8901190Y-13701286D01*
X8948810Y-13701286D01*
X8967857Y-13691762D01*
X9063095Y-13644143D02*
X9063095Y-13844143D01*
X9063095Y-13653667D02*
X9082143Y-13644143D01*
X9120238Y-13644143D01*
X9139286Y-13653667D01*
X9148810Y-13663190D01*
X9158333Y-13682238D01*
X9158333Y-13739381D01*
X9148810Y-13758428D01*
X9139286Y-13767952D01*
X9120238Y-13777476D01*
X9082143Y-13777476D01*
X9063095Y-13767952D01*
X9244048Y-13758428D02*
X9253571Y-13767952D01*
X9244048Y-13777476D01*
X9234524Y-13767952D01*
X9244048Y-13758428D01*
X9244048Y-13777476D01*
X9244048Y-13653667D02*
X9253571Y-13663190D01*
X9244048Y-13672714D01*
X9234524Y-13663190D01*
X9244048Y-13653667D01*
X9244048Y-13672714D01*
D12*
X7575000Y-14087000D02*
X7615000Y-14127000D01*
X7615000Y-14087000D02*
X7575000Y-14127000D01*
D11*
X7910714Y-13997476D02*
X7929762Y-13997476D01*
X7948809Y-14007000D01*
X7958333Y-14016524D01*
X7967857Y-14035571D01*
X7977381Y-14073667D01*
X7977381Y-14121286D01*
X7967857Y-14159381D01*
X7958333Y-14178428D01*
X7948809Y-14187952D01*
X7929762Y-14197476D01*
X7910714Y-14197476D01*
X7891667Y-14187952D01*
X7882143Y-14178428D01*
X7872619Y-14159381D01*
X7863095Y-14121286D01*
X7863095Y-14073667D01*
X7872619Y-14035571D01*
X7882143Y-14016524D01*
X7891667Y-14007000D01*
X7910714Y-13997476D01*
X8063095Y-14178428D02*
X8072619Y-14187952D01*
X8063095Y-14197476D01*
X8053571Y-14187952D01*
X8063095Y-14178428D01*
X8063095Y-14197476D01*
X8244048Y-14064143D02*
X8244048Y-14197476D01*
X8196428Y-13987952D02*
X8148809Y-14130809D01*
X8272619Y-14130809D01*
X8386905Y-13997476D02*
X8405952Y-13997476D01*
X8425000Y-14007000D01*
X8434524Y-14016524D01*
X8444048Y-14035571D01*
X8453571Y-14073667D01*
X8453571Y-14121286D01*
X8444048Y-14159381D01*
X8434524Y-14178428D01*
X8425000Y-14187952D01*
X8405952Y-14197476D01*
X8386905Y-14197476D01*
X8367857Y-14187952D01*
X8358333Y-14178428D01*
X8348809Y-14159381D01*
X8339286Y-14121286D01*
X8339286Y-14073667D01*
X8348809Y-14035571D01*
X8358333Y-14016524D01*
X8367857Y-14007000D01*
X8386905Y-13997476D01*
X8577381Y-13997476D02*
X8596429Y-13997476D01*
X8615476Y-14007000D01*
X8625000Y-14016524D01*
X8634524Y-14035571D01*
X8644048Y-14073667D01*
X8644048Y-14121286D01*
X8634524Y-14159381D01*
X8625000Y-14178428D01*
X8615476Y-14187952D01*
X8596429Y-14197476D01*
X8577381Y-14197476D01*
X8558333Y-14187952D01*
X8548810Y-14178428D01*
X8539286Y-14159381D01*
X8529762Y-14121286D01*
X8529762Y-14073667D01*
X8539286Y-14035571D01*
X8548810Y-14016524D01*
X8558333Y-14007000D01*
X8577381Y-13997476D01*
X8729762Y-14197476D02*
X8729762Y-14064143D01*
X8729762Y-14083190D02*
X8739286Y-14073667D01*
X8758333Y-14064143D01*
X8786905Y-14064143D01*
X8805952Y-14073667D01*
X8815476Y-14092714D01*
X8815476Y-14197476D01*
X8815476Y-14092714D02*
X8825000Y-14073667D01*
X8844048Y-14064143D01*
X8872619Y-14064143D01*
X8891667Y-14073667D01*
X8901190Y-14092714D01*
X8901190Y-14197476D01*
X8996429Y-14197476D02*
X8996429Y-14064143D01*
X8996429Y-14083190D02*
X9005952Y-14073667D01*
X9025000Y-14064143D01*
X9053571Y-14064143D01*
X9072619Y-14073667D01*
X9082143Y-14092714D01*
X9082143Y-14197476D01*
X9082143Y-14092714D02*
X9091667Y-14073667D01*
X9110714Y-14064143D01*
X9139286Y-14064143D01*
X9158333Y-14073667D01*
X9167857Y-14092714D01*
X9167857Y-14197476D01*
X9558333Y-13987952D02*
X9386905Y-14245095D01*
X9815476Y-13997476D02*
X9834524Y-13997476D01*
X9853571Y-14007000D01*
X9863095Y-14016524D01*
X9872619Y-14035571D01*
X9882143Y-14073667D01*
X9882143Y-14121286D01*
X9872619Y-14159381D01*
X9863095Y-14178428D01*
X9853571Y-14187952D01*
X9834524Y-14197476D01*
X9815476Y-14197476D01*
X9796429Y-14187952D01*
X9786905Y-14178428D01*
X9777381Y-14159381D01*
X9767857Y-14121286D01*
X9767857Y-14073667D01*
X9777381Y-14035571D01*
X9786905Y-14016524D01*
X9796429Y-14007000D01*
X9815476Y-13997476D01*
X9967857Y-14178428D02*
X9977381Y-14187952D01*
X9967857Y-14197476D01*
X9958333Y-14187952D01*
X9967857Y-14178428D01*
X9967857Y-14197476D01*
X10101190Y-13997476D02*
X10120238Y-13997476D01*
X10139286Y-14007000D01*
X10148810Y-14016524D01*
X10158333Y-14035571D01*
X10167857Y-14073667D01*
X10167857Y-14121286D01*
X10158333Y-14159381D01*
X10148810Y-14178428D01*
X10139286Y-14187952D01*
X10120238Y-14197476D01*
X10101190Y-14197476D01*
X10082143Y-14187952D01*
X10072619Y-14178428D01*
X10063095Y-14159381D01*
X10053571Y-14121286D01*
X10053571Y-14073667D01*
X10063095Y-14035571D01*
X10072619Y-14016524D01*
X10082143Y-14007000D01*
X10101190Y-13997476D01*
X10358333Y-14197476D02*
X10244048Y-14197476D01*
X10301190Y-14197476D02*
X10301190Y-13997476D01*
X10282143Y-14026048D01*
X10263095Y-14045095D01*
X10244048Y-14054619D01*
X10539286Y-13997476D02*
X10444048Y-13997476D01*
X10434524Y-14092714D01*
X10444048Y-14083190D01*
X10463095Y-14073667D01*
X10510714Y-14073667D01*
X10529762Y-14083190D01*
X10539286Y-14092714D01*
X10548810Y-14111762D01*
X10548810Y-14159381D01*
X10539286Y-14178428D01*
X10529762Y-14187952D01*
X10510714Y-14197476D01*
X10463095Y-14197476D01*
X10444048Y-14187952D01*
X10434524Y-14178428D01*
X10615476Y-13997476D02*
X10748810Y-13997476D01*
X10663095Y-14197476D01*
X10815476Y-13997476D02*
X10815476Y-14035571D01*
X10891667Y-13997476D02*
X10891667Y-14035571D01*
X11186905Y-14273667D02*
X11177381Y-14264143D01*
X11158333Y-14235571D01*
X11148810Y-14216524D01*
X11139286Y-14187952D01*
X11129762Y-14140333D01*
X11129762Y-14102238D01*
X11139286Y-14054619D01*
X11148810Y-14026048D01*
X11158333Y-14007000D01*
X11177381Y-13978428D01*
X11186905Y-13968905D01*
X11367857Y-14197476D02*
X11253571Y-14197476D01*
X11310714Y-14197476D02*
X11310714Y-13997476D01*
X11291667Y-14026048D01*
X11272619Y-14045095D01*
X11253571Y-14054619D01*
X11463095Y-14197476D02*
X11501190Y-14197476D01*
X11520238Y-14187952D01*
X11529762Y-14178428D01*
X11548809Y-14149857D01*
X11558333Y-14111762D01*
X11558333Y-14035571D01*
X11548809Y-14016524D01*
X11539286Y-14007000D01*
X11520238Y-13997476D01*
X11482143Y-13997476D01*
X11463095Y-14007000D01*
X11453571Y-14016524D01*
X11444048Y-14035571D01*
X11444048Y-14083190D01*
X11453571Y-14102238D01*
X11463095Y-14111762D01*
X11482143Y-14121286D01*
X11520238Y-14121286D01*
X11539286Y-14111762D01*
X11548809Y-14102238D01*
X11558333Y-14083190D01*
X11796428Y-14197476D02*
X11796428Y-13997476D01*
X11882143Y-14197476D02*
X11882143Y-14092714D01*
X11872619Y-14073667D01*
X11853571Y-14064143D01*
X11825000Y-14064143D01*
X11805952Y-14073667D01*
X11796428Y-14083190D01*
X12005952Y-14197476D02*
X11986905Y-14187952D01*
X11977381Y-14178428D01*
X11967857Y-14159381D01*
X11967857Y-14102238D01*
X11977381Y-14083190D01*
X11986905Y-14073667D01*
X12005952Y-14064143D01*
X12034524Y-14064143D01*
X12053571Y-14073667D01*
X12063095Y-14083190D01*
X12072619Y-14102238D01*
X12072619Y-14159381D01*
X12063095Y-14178428D01*
X12053571Y-14187952D01*
X12034524Y-14197476D01*
X12005952Y-14197476D01*
X12186905Y-14197476D02*
X12167857Y-14187952D01*
X12158333Y-14168905D01*
X12158333Y-13997476D01*
X12339286Y-14187952D02*
X12320238Y-14197476D01*
X12282143Y-14197476D01*
X12263095Y-14187952D01*
X12253571Y-14168905D01*
X12253571Y-14092714D01*
X12263095Y-14073667D01*
X12282143Y-14064143D01*
X12320238Y-14064143D01*
X12339286Y-14073667D01*
X12348809Y-14092714D01*
X12348809Y-14111762D01*
X12253571Y-14130809D01*
X12425000Y-14187952D02*
X12444048Y-14197476D01*
X12482143Y-14197476D01*
X12501190Y-14187952D01*
X12510714Y-14168905D01*
X12510714Y-14159381D01*
X12501190Y-14140333D01*
X12482143Y-14130809D01*
X12453571Y-14130809D01*
X12434524Y-14121286D01*
X12425000Y-14102238D01*
X12425000Y-14092714D01*
X12434524Y-14073667D01*
X12453571Y-14064143D01*
X12482143Y-14064143D01*
X12501190Y-14073667D01*
X12577381Y-14273667D02*
X12586905Y-14264143D01*
X12605952Y-14235571D01*
X12615476Y-14216524D01*
X12625000Y-14187952D01*
X12634524Y-14140333D01*
X12634524Y-14102238D01*
X12625000Y-14054619D01*
X12615476Y-14026048D01*
X12605952Y-14007000D01*
X12586905Y-13978428D01*
X12577381Y-13968905D01*
D13*
X7615000Y-14371000D02*
G75*
G03*
X7615000Y-14371000I-37500J0D01*
G01*
D11*
X7910714Y-14261476D02*
X7929762Y-14261476D01*
X7948809Y-14271000D01*
X7958333Y-14280524D01*
X7967857Y-14299571D01*
X7977381Y-14337667D01*
X7977381Y-14385286D01*
X7967857Y-14423381D01*
X7958333Y-14442428D01*
X7948809Y-14451952D01*
X7929762Y-14461476D01*
X7910714Y-14461476D01*
X7891667Y-14451952D01*
X7882143Y-14442428D01*
X7872619Y-14423381D01*
X7863095Y-14385286D01*
X7863095Y-14337667D01*
X7872619Y-14299571D01*
X7882143Y-14280524D01*
X7891667Y-14271000D01*
X7910714Y-14261476D01*
X8063095Y-14442428D02*
X8072619Y-14451952D01*
X8063095Y-14461476D01*
X8053571Y-14451952D01*
X8063095Y-14442428D01*
X8063095Y-14461476D01*
X8139286Y-14261476D02*
X8272619Y-14261476D01*
X8186905Y-14461476D01*
X8444048Y-14261476D02*
X8348809Y-14261476D01*
X8339286Y-14356714D01*
X8348809Y-14347190D01*
X8367857Y-14337667D01*
X8415476Y-14337667D01*
X8434524Y-14347190D01*
X8444048Y-14356714D01*
X8453571Y-14375762D01*
X8453571Y-14423381D01*
X8444048Y-14442428D01*
X8434524Y-14451952D01*
X8415476Y-14461476D01*
X8367857Y-14461476D01*
X8348809Y-14451952D01*
X8339286Y-14442428D01*
X8577381Y-14261476D02*
X8596429Y-14261476D01*
X8615476Y-14271000D01*
X8625000Y-14280524D01*
X8634524Y-14299571D01*
X8644048Y-14337667D01*
X8644048Y-14385286D01*
X8634524Y-14423381D01*
X8625000Y-14442428D01*
X8615476Y-14451952D01*
X8596429Y-14461476D01*
X8577381Y-14461476D01*
X8558333Y-14451952D01*
X8548810Y-14442428D01*
X8539286Y-14423381D01*
X8529762Y-14385286D01*
X8529762Y-14337667D01*
X8539286Y-14299571D01*
X8548810Y-14280524D01*
X8558333Y-14271000D01*
X8577381Y-14261476D01*
X8729762Y-14461476D02*
X8729762Y-14328143D01*
X8729762Y-14347190D02*
X8739286Y-14337667D01*
X8758333Y-14328143D01*
X8786905Y-14328143D01*
X8805952Y-14337667D01*
X8815476Y-14356714D01*
X8815476Y-14461476D01*
X8815476Y-14356714D02*
X8825000Y-14337667D01*
X8844048Y-14328143D01*
X8872619Y-14328143D01*
X8891667Y-14337667D01*
X8901190Y-14356714D01*
X8901190Y-14461476D01*
X8996429Y-14461476D02*
X8996429Y-14328143D01*
X8996429Y-14347190D02*
X9005952Y-14337667D01*
X9025000Y-14328143D01*
X9053571Y-14328143D01*
X9072619Y-14337667D01*
X9082143Y-14356714D01*
X9082143Y-14461476D01*
X9082143Y-14356714D02*
X9091667Y-14337667D01*
X9110714Y-14328143D01*
X9139286Y-14328143D01*
X9158333Y-14337667D01*
X9167857Y-14356714D01*
X9167857Y-14461476D01*
X9558333Y-14251952D02*
X9386905Y-14509095D01*
X9815476Y-14261476D02*
X9834524Y-14261476D01*
X9853571Y-14271000D01*
X9863095Y-14280524D01*
X9872619Y-14299571D01*
X9882143Y-14337667D01*
X9882143Y-14385286D01*
X9872619Y-14423381D01*
X9863095Y-14442428D01*
X9853571Y-14451952D01*
X9834524Y-14461476D01*
X9815476Y-14461476D01*
X9796429Y-14451952D01*
X9786905Y-14442428D01*
X9777381Y-14423381D01*
X9767857Y-14385286D01*
X9767857Y-14337667D01*
X9777381Y-14299571D01*
X9786905Y-14280524D01*
X9796429Y-14271000D01*
X9815476Y-14261476D01*
X9967857Y-14442428D02*
X9977381Y-14451952D01*
X9967857Y-14461476D01*
X9958333Y-14451952D01*
X9967857Y-14442428D01*
X9967857Y-14461476D01*
X10101190Y-14261476D02*
X10120238Y-14261476D01*
X10139286Y-14271000D01*
X10148810Y-14280524D01*
X10158333Y-14299571D01*
X10167857Y-14337667D01*
X10167857Y-14385286D01*
X10158333Y-14423381D01*
X10148810Y-14442428D01*
X10139286Y-14451952D01*
X10120238Y-14461476D01*
X10101190Y-14461476D01*
X10082143Y-14451952D01*
X10072619Y-14442428D01*
X10063095Y-14423381D01*
X10053571Y-14385286D01*
X10053571Y-14337667D01*
X10063095Y-14299571D01*
X10072619Y-14280524D01*
X10082143Y-14271000D01*
X10101190Y-14261476D01*
X10244048Y-14280524D02*
X10253571Y-14271000D01*
X10272619Y-14261476D01*
X10320238Y-14261476D01*
X10339286Y-14271000D01*
X10348810Y-14280524D01*
X10358333Y-14299571D01*
X10358333Y-14318619D01*
X10348810Y-14347190D01*
X10234524Y-14461476D01*
X10358333Y-14461476D01*
X10453571Y-14461476D02*
X10491667Y-14461476D01*
X10510714Y-14451952D01*
X10520238Y-14442428D01*
X10539286Y-14413857D01*
X10548810Y-14375762D01*
X10548810Y-14299571D01*
X10539286Y-14280524D01*
X10529762Y-14271000D01*
X10510714Y-14261476D01*
X10472619Y-14261476D01*
X10453571Y-14271000D01*
X10444048Y-14280524D01*
X10434524Y-14299571D01*
X10434524Y-14347190D01*
X10444048Y-14366238D01*
X10453571Y-14375762D01*
X10472619Y-14385286D01*
X10510714Y-14385286D01*
X10529762Y-14375762D01*
X10539286Y-14366238D01*
X10548810Y-14347190D01*
X10729762Y-14261476D02*
X10634524Y-14261476D01*
X10625000Y-14356714D01*
X10634524Y-14347190D01*
X10653571Y-14337667D01*
X10701190Y-14337667D01*
X10720238Y-14347190D01*
X10729762Y-14356714D01*
X10739286Y-14375762D01*
X10739286Y-14423381D01*
X10729762Y-14442428D01*
X10720238Y-14451952D01*
X10701190Y-14461476D01*
X10653571Y-14461476D01*
X10634524Y-14451952D01*
X10625000Y-14442428D01*
X10815476Y-14261476D02*
X10815476Y-14299571D01*
X10891667Y-14261476D02*
X10891667Y-14299571D01*
X11186905Y-14537667D02*
X11177381Y-14528143D01*
X11158333Y-14499571D01*
X11148810Y-14480524D01*
X11139286Y-14451952D01*
X11129762Y-14404333D01*
X11129762Y-14366238D01*
X11139286Y-14318619D01*
X11148810Y-14290048D01*
X11158333Y-14271000D01*
X11177381Y-14242428D01*
X11186905Y-14232905D01*
X11253571Y-14280524D02*
X11263095Y-14271000D01*
X11282143Y-14261476D01*
X11329762Y-14261476D01*
X11348809Y-14271000D01*
X11358333Y-14280524D01*
X11367857Y-14299571D01*
X11367857Y-14318619D01*
X11358333Y-14347190D01*
X11244048Y-14461476D01*
X11367857Y-14461476D01*
X11491667Y-14261476D02*
X11510714Y-14261476D01*
X11529762Y-14271000D01*
X11539286Y-14280524D01*
X11548809Y-14299571D01*
X11558333Y-14337667D01*
X11558333Y-14385286D01*
X11548809Y-14423381D01*
X11539286Y-14442428D01*
X11529762Y-14451952D01*
X11510714Y-14461476D01*
X11491667Y-14461476D01*
X11472619Y-14451952D01*
X11463095Y-14442428D01*
X11453571Y-14423381D01*
X11444048Y-14385286D01*
X11444048Y-14337667D01*
X11453571Y-14299571D01*
X11463095Y-14280524D01*
X11472619Y-14271000D01*
X11491667Y-14261476D01*
X11796428Y-14461476D02*
X11796428Y-14261476D01*
X11882143Y-14461476D02*
X11882143Y-14356714D01*
X11872619Y-14337667D01*
X11853571Y-14328143D01*
X11825000Y-14328143D01*
X11805952Y-14337667D01*
X11796428Y-14347190D01*
X12005952Y-14461476D02*
X11986905Y-14451952D01*
X11977381Y-14442428D01*
X11967857Y-14423381D01*
X11967857Y-14366238D01*
X11977381Y-14347190D01*
X11986905Y-14337667D01*
X12005952Y-14328143D01*
X12034524Y-14328143D01*
X12053571Y-14337667D01*
X12063095Y-14347190D01*
X12072619Y-14366238D01*
X12072619Y-14423381D01*
X12063095Y-14442428D01*
X12053571Y-14451952D01*
X12034524Y-14461476D01*
X12005952Y-14461476D01*
X12186905Y-14461476D02*
X12167857Y-14451952D01*
X12158333Y-14432905D01*
X12158333Y-14261476D01*
X12339286Y-14451952D02*
X12320238Y-14461476D01*
X12282143Y-14461476D01*
X12263095Y-14451952D01*
X12253571Y-14432905D01*
X12253571Y-14356714D01*
X12263095Y-14337667D01*
X12282143Y-14328143D01*
X12320238Y-14328143D01*
X12339286Y-14337667D01*
X12348809Y-14356714D01*
X12348809Y-14375762D01*
X12253571Y-14394809D01*
X12425000Y-14451952D02*
X12444048Y-14461476D01*
X12482143Y-14461476D01*
X12501190Y-14451952D01*
X12510714Y-14432905D01*
X12510714Y-14423381D01*
X12501190Y-14404333D01*
X12482143Y-14394809D01*
X12453571Y-14394809D01*
X12434524Y-14385286D01*
X12425000Y-14366238D01*
X12425000Y-14356714D01*
X12434524Y-14337667D01*
X12453571Y-14328143D01*
X12482143Y-14328143D01*
X12501190Y-14337667D01*
X12577381Y-14537667D02*
X12586905Y-14528143D01*
X12605952Y-14499571D01*
X12615476Y-14480524D01*
X12625000Y-14451952D01*
X12634524Y-14404333D01*
X12634524Y-14366238D01*
X12625000Y-14318619D01*
X12615476Y-14290048D01*
X12605952Y-14271000D01*
X12586905Y-14242428D01*
X12577381Y-14232905D01*
D14*
X7575000Y-14595000D02*
X7575000Y-14675000D01*
X7535000Y-14635000D02*
X7615000Y-14635000D01*
D11*
X7910714Y-14525476D02*
X7929762Y-14525476D01*
X7948809Y-14535000D01*
X7958333Y-14544524D01*
X7967857Y-14563571D01*
X7977381Y-14601667D01*
X7977381Y-14649286D01*
X7967857Y-14687381D01*
X7958333Y-14706428D01*
X7948809Y-14715952D01*
X7929762Y-14725476D01*
X7910714Y-14725476D01*
X7891667Y-14715952D01*
X7882143Y-14706428D01*
X7872619Y-14687381D01*
X7863095Y-14649286D01*
X7863095Y-14601667D01*
X7872619Y-14563571D01*
X7882143Y-14544524D01*
X7891667Y-14535000D01*
X7910714Y-14525476D01*
X8063095Y-14706428D02*
X8072619Y-14715952D01*
X8063095Y-14725476D01*
X8053571Y-14715952D01*
X8063095Y-14706428D01*
X8063095Y-14725476D01*
X8186905Y-14611190D02*
X8167857Y-14601667D01*
X8158333Y-14592143D01*
X8148809Y-14573095D01*
X8148809Y-14563571D01*
X8158333Y-14544524D01*
X8167857Y-14535000D01*
X8186905Y-14525476D01*
X8225000Y-14525476D01*
X8244048Y-14535000D01*
X8253571Y-14544524D01*
X8263095Y-14563571D01*
X8263095Y-14573095D01*
X8253571Y-14592143D01*
X8244048Y-14601667D01*
X8225000Y-14611190D01*
X8186905Y-14611190D01*
X8167857Y-14620714D01*
X8158333Y-14630238D01*
X8148809Y-14649286D01*
X8148809Y-14687381D01*
X8158333Y-14706428D01*
X8167857Y-14715952D01*
X8186905Y-14725476D01*
X8225000Y-14725476D01*
X8244048Y-14715952D01*
X8253571Y-14706428D01*
X8263095Y-14687381D01*
X8263095Y-14649286D01*
X8253571Y-14630238D01*
X8244048Y-14620714D01*
X8225000Y-14611190D01*
X8386905Y-14525476D02*
X8405952Y-14525476D01*
X8425000Y-14535000D01*
X8434524Y-14544524D01*
X8444048Y-14563571D01*
X8453571Y-14601667D01*
X8453571Y-14649286D01*
X8444048Y-14687381D01*
X8434524Y-14706428D01*
X8425000Y-14715952D01*
X8405952Y-14725476D01*
X8386905Y-14725476D01*
X8367857Y-14715952D01*
X8358333Y-14706428D01*
X8348809Y-14687381D01*
X8339286Y-14649286D01*
X8339286Y-14601667D01*
X8348809Y-14563571D01*
X8358333Y-14544524D01*
X8367857Y-14535000D01*
X8386905Y-14525476D01*
X8577381Y-14525476D02*
X8596429Y-14525476D01*
X8615476Y-14535000D01*
X8625000Y-14544524D01*
X8634524Y-14563571D01*
X8644048Y-14601667D01*
X8644048Y-14649286D01*
X8634524Y-14687381D01*
X8625000Y-14706428D01*
X8615476Y-14715952D01*
X8596429Y-14725476D01*
X8577381Y-14725476D01*
X8558333Y-14715952D01*
X8548810Y-14706428D01*
X8539286Y-14687381D01*
X8529762Y-14649286D01*
X8529762Y-14601667D01*
X8539286Y-14563571D01*
X8548810Y-14544524D01*
X8558333Y-14535000D01*
X8577381Y-14525476D01*
X8729762Y-14725476D02*
X8729762Y-14592143D01*
X8729762Y-14611190D02*
X8739286Y-14601667D01*
X8758333Y-14592143D01*
X8786905Y-14592143D01*
X8805952Y-14601667D01*
X8815476Y-14620714D01*
X8815476Y-14725476D01*
X8815476Y-14620714D02*
X8825000Y-14601667D01*
X8844048Y-14592143D01*
X8872619Y-14592143D01*
X8891667Y-14601667D01*
X8901190Y-14620714D01*
X8901190Y-14725476D01*
X8996429Y-14725476D02*
X8996429Y-14592143D01*
X8996429Y-14611190D02*
X9005952Y-14601667D01*
X9025000Y-14592143D01*
X9053571Y-14592143D01*
X9072619Y-14601667D01*
X9082143Y-14620714D01*
X9082143Y-14725476D01*
X9082143Y-14620714D02*
X9091667Y-14601667D01*
X9110714Y-14592143D01*
X9139286Y-14592143D01*
X9158333Y-14601667D01*
X9167857Y-14620714D01*
X9167857Y-14725476D01*
X9558333Y-14515952D02*
X9386905Y-14773095D01*
X9815476Y-14525476D02*
X9834524Y-14525476D01*
X9853571Y-14535000D01*
X9863095Y-14544524D01*
X9872619Y-14563571D01*
X9882143Y-14601667D01*
X9882143Y-14649286D01*
X9872619Y-14687381D01*
X9863095Y-14706428D01*
X9853571Y-14715952D01*
X9834524Y-14725476D01*
X9815476Y-14725476D01*
X9796429Y-14715952D01*
X9786905Y-14706428D01*
X9777381Y-14687381D01*
X9767857Y-14649286D01*
X9767857Y-14601667D01*
X9777381Y-14563571D01*
X9786905Y-14544524D01*
X9796429Y-14535000D01*
X9815476Y-14525476D01*
X9967857Y-14706428D02*
X9977381Y-14715952D01*
X9967857Y-14725476D01*
X9958333Y-14715952D01*
X9967857Y-14706428D01*
X9967857Y-14725476D01*
X10101190Y-14525476D02*
X10120238Y-14525476D01*
X10139286Y-14535000D01*
X10148810Y-14544524D01*
X10158333Y-14563571D01*
X10167857Y-14601667D01*
X10167857Y-14649286D01*
X10158333Y-14687381D01*
X10148810Y-14706428D01*
X10139286Y-14715952D01*
X10120238Y-14725476D01*
X10101190Y-14725476D01*
X10082143Y-14715952D01*
X10072619Y-14706428D01*
X10063095Y-14687381D01*
X10053571Y-14649286D01*
X10053571Y-14601667D01*
X10063095Y-14563571D01*
X10072619Y-14544524D01*
X10082143Y-14535000D01*
X10101190Y-14525476D01*
X10234524Y-14525476D02*
X10358333Y-14525476D01*
X10291667Y-14601667D01*
X10320238Y-14601667D01*
X10339286Y-14611190D01*
X10348810Y-14620714D01*
X10358333Y-14639762D01*
X10358333Y-14687381D01*
X10348810Y-14706428D01*
X10339286Y-14715952D01*
X10320238Y-14725476D01*
X10263095Y-14725476D01*
X10244048Y-14715952D01*
X10234524Y-14706428D01*
X10548810Y-14725476D02*
X10434524Y-14725476D01*
X10491667Y-14725476D02*
X10491667Y-14525476D01*
X10472619Y-14554048D01*
X10453571Y-14573095D01*
X10434524Y-14582619D01*
X10729762Y-14525476D02*
X10634524Y-14525476D01*
X10625000Y-14620714D01*
X10634524Y-14611190D01*
X10653571Y-14601667D01*
X10701190Y-14601667D01*
X10720238Y-14611190D01*
X10729762Y-14620714D01*
X10739286Y-14639762D01*
X10739286Y-14687381D01*
X10729762Y-14706428D01*
X10720238Y-14715952D01*
X10701190Y-14725476D01*
X10653571Y-14725476D01*
X10634524Y-14715952D01*
X10625000Y-14706428D01*
X10815476Y-14525476D02*
X10815476Y-14563571D01*
X10891667Y-14525476D02*
X10891667Y-14563571D01*
X11186905Y-14801667D02*
X11177381Y-14792143D01*
X11158333Y-14763571D01*
X11148810Y-14744524D01*
X11139286Y-14715952D01*
X11129762Y-14668333D01*
X11129762Y-14630238D01*
X11139286Y-14582619D01*
X11148810Y-14554048D01*
X11158333Y-14535000D01*
X11177381Y-14506428D01*
X11186905Y-14496905D01*
X11253571Y-14544524D02*
X11263095Y-14535000D01*
X11282143Y-14525476D01*
X11329762Y-14525476D01*
X11348809Y-14535000D01*
X11358333Y-14544524D01*
X11367857Y-14563571D01*
X11367857Y-14582619D01*
X11358333Y-14611190D01*
X11244048Y-14725476D01*
X11367857Y-14725476D01*
X11605952Y-14725476D02*
X11605952Y-14525476D01*
X11691667Y-14725476D02*
X11691667Y-14620714D01*
X11682143Y-14601667D01*
X11663095Y-14592143D01*
X11634524Y-14592143D01*
X11615476Y-14601667D01*
X11605952Y-14611190D01*
X11815476Y-14725476D02*
X11796428Y-14715952D01*
X11786905Y-14706428D01*
X11777381Y-14687381D01*
X11777381Y-14630238D01*
X11786905Y-14611190D01*
X11796428Y-14601667D01*
X11815476Y-14592143D01*
X11844048Y-14592143D01*
X11863095Y-14601667D01*
X11872619Y-14611190D01*
X11882143Y-14630238D01*
X11882143Y-14687381D01*
X11872619Y-14706428D01*
X11863095Y-14715952D01*
X11844048Y-14725476D01*
X11815476Y-14725476D01*
X11996428Y-14725476D02*
X11977381Y-14715952D01*
X11967857Y-14696905D01*
X11967857Y-14525476D01*
X12148809Y-14715952D02*
X12129762Y-14725476D01*
X12091667Y-14725476D01*
X12072619Y-14715952D01*
X12063095Y-14696905D01*
X12063095Y-14620714D01*
X12072619Y-14601667D01*
X12091667Y-14592143D01*
X12129762Y-14592143D01*
X12148809Y-14601667D01*
X12158333Y-14620714D01*
X12158333Y-14639762D01*
X12063095Y-14658809D01*
X12234524Y-14715952D02*
X12253571Y-14725476D01*
X12291667Y-14725476D01*
X12310714Y-14715952D01*
X12320238Y-14696905D01*
X12320238Y-14687381D01*
X12310714Y-14668333D01*
X12291667Y-14658809D01*
X12263095Y-14658809D01*
X12244048Y-14649286D01*
X12234524Y-14630238D01*
X12234524Y-14620714D01*
X12244048Y-14601667D01*
X12263095Y-14592143D01*
X12291667Y-14592143D01*
X12310714Y-14601667D01*
X12386905Y-14801667D02*
X12396428Y-14792143D01*
X12415476Y-14763571D01*
X12425000Y-14744524D01*
X12434524Y-14715952D01*
X12444048Y-14668333D01*
X12444048Y-14630238D01*
X12434524Y-14582619D01*
X12425000Y-14554048D01*
X12415476Y-14535000D01*
X12396428Y-14506428D01*
X12386905Y-14496905D01*
D15*
X7600502Y-14934002D02*
X7600502Y-14863998D01*
X7530498Y-14863998D01*
X7530498Y-14934002D01*
X7600502Y-14934002D01*
D11*
X7910714Y-14789476D02*
X7929762Y-14789476D01*
X7948809Y-14799000D01*
X7958333Y-14808524D01*
X7967857Y-14827571D01*
X7977381Y-14865667D01*
X7977381Y-14913286D01*
X7967857Y-14951381D01*
X7958333Y-14970428D01*
X7948809Y-14979952D01*
X7929762Y-14989476D01*
X7910714Y-14989476D01*
X7891667Y-14979952D01*
X7882143Y-14970428D01*
X7872619Y-14951381D01*
X7863095Y-14913286D01*
X7863095Y-14865667D01*
X7872619Y-14827571D01*
X7882143Y-14808524D01*
X7891667Y-14799000D01*
X7910714Y-14789476D01*
X8063095Y-14970428D02*
X8072619Y-14979952D01*
X8063095Y-14989476D01*
X8053571Y-14979952D01*
X8063095Y-14970428D01*
X8063095Y-14989476D01*
X8167857Y-14989476D02*
X8205952Y-14989476D01*
X8225000Y-14979952D01*
X8234524Y-14970428D01*
X8253571Y-14941857D01*
X8263095Y-14903762D01*
X8263095Y-14827571D01*
X8253571Y-14808524D01*
X8244048Y-14799000D01*
X8225000Y-14789476D01*
X8186905Y-14789476D01*
X8167857Y-14799000D01*
X8158333Y-14808524D01*
X8148809Y-14827571D01*
X8148809Y-14875190D01*
X8158333Y-14894238D01*
X8167857Y-14903762D01*
X8186905Y-14913286D01*
X8225000Y-14913286D01*
X8244048Y-14903762D01*
X8253571Y-14894238D01*
X8263095Y-14875190D01*
X8358333Y-14989476D02*
X8396429Y-14989476D01*
X8415476Y-14979952D01*
X8425000Y-14970428D01*
X8444048Y-14941857D01*
X8453571Y-14903762D01*
X8453571Y-14827571D01*
X8444048Y-14808524D01*
X8434524Y-14799000D01*
X8415476Y-14789476D01*
X8377381Y-14789476D01*
X8358333Y-14799000D01*
X8348809Y-14808524D01*
X8339286Y-14827571D01*
X8339286Y-14875190D01*
X8348809Y-14894238D01*
X8358333Y-14903762D01*
X8377381Y-14913286D01*
X8415476Y-14913286D01*
X8434524Y-14903762D01*
X8444048Y-14894238D01*
X8453571Y-14875190D01*
X8577381Y-14789476D02*
X8596429Y-14789476D01*
X8615476Y-14799000D01*
X8625000Y-14808524D01*
X8634524Y-14827571D01*
X8644048Y-14865667D01*
X8644048Y-14913286D01*
X8634524Y-14951381D01*
X8625000Y-14970428D01*
X8615476Y-14979952D01*
X8596429Y-14989476D01*
X8577381Y-14989476D01*
X8558333Y-14979952D01*
X8548810Y-14970428D01*
X8539286Y-14951381D01*
X8529762Y-14913286D01*
X8529762Y-14865667D01*
X8539286Y-14827571D01*
X8548810Y-14808524D01*
X8558333Y-14799000D01*
X8577381Y-14789476D01*
X8729762Y-14989476D02*
X8729762Y-14856143D01*
X8729762Y-14875190D02*
X8739286Y-14865667D01*
X8758333Y-14856143D01*
X8786905Y-14856143D01*
X8805952Y-14865667D01*
X8815476Y-14884714D01*
X8815476Y-14989476D01*
X8815476Y-14884714D02*
X8825000Y-14865667D01*
X8844048Y-14856143D01*
X8872619Y-14856143D01*
X8891667Y-14865667D01*
X8901190Y-14884714D01*
X8901190Y-14989476D01*
X8996429Y-14989476D02*
X8996429Y-14856143D01*
X8996429Y-14875190D02*
X9005952Y-14865667D01*
X9025000Y-14856143D01*
X9053571Y-14856143D01*
X9072619Y-14865667D01*
X9082143Y-14884714D01*
X9082143Y-14989476D01*
X9082143Y-14884714D02*
X9091667Y-14865667D01*
X9110714Y-14856143D01*
X9139286Y-14856143D01*
X9158333Y-14865667D01*
X9167857Y-14884714D01*
X9167857Y-14989476D01*
X9558333Y-14779952D02*
X9386905Y-15037095D01*
X9815476Y-14789476D02*
X9834524Y-14789476D01*
X9853571Y-14799000D01*
X9863095Y-14808524D01*
X9872619Y-14827571D01*
X9882143Y-14865667D01*
X9882143Y-14913286D01*
X9872619Y-14951381D01*
X9863095Y-14970428D01*
X9853571Y-14979952D01*
X9834524Y-14989476D01*
X9815476Y-14989476D01*
X9796429Y-14979952D01*
X9786905Y-14970428D01*
X9777381Y-14951381D01*
X9767857Y-14913286D01*
X9767857Y-14865667D01*
X9777381Y-14827571D01*
X9786905Y-14808524D01*
X9796429Y-14799000D01*
X9815476Y-14789476D01*
X9967857Y-14970428D02*
X9977381Y-14979952D01*
X9967857Y-14989476D01*
X9958333Y-14979952D01*
X9967857Y-14970428D01*
X9967857Y-14989476D01*
X10101190Y-14789476D02*
X10120238Y-14789476D01*
X10139286Y-14799000D01*
X10148810Y-14808524D01*
X10158333Y-14827571D01*
X10167857Y-14865667D01*
X10167857Y-14913286D01*
X10158333Y-14951381D01*
X10148810Y-14970428D01*
X10139286Y-14979952D01*
X10120238Y-14989476D01*
X10101190Y-14989476D01*
X10082143Y-14979952D01*
X10072619Y-14970428D01*
X10063095Y-14951381D01*
X10053571Y-14913286D01*
X10053571Y-14865667D01*
X10063095Y-14827571D01*
X10072619Y-14808524D01*
X10082143Y-14799000D01*
X10101190Y-14789476D01*
X10234524Y-14789476D02*
X10358333Y-14789476D01*
X10291667Y-14865667D01*
X10320238Y-14865667D01*
X10339286Y-14875190D01*
X10348810Y-14884714D01*
X10358333Y-14903762D01*
X10358333Y-14951381D01*
X10348810Y-14970428D01*
X10339286Y-14979952D01*
X10320238Y-14989476D01*
X10263095Y-14989476D01*
X10244048Y-14979952D01*
X10234524Y-14970428D01*
X10453571Y-14989476D02*
X10491667Y-14989476D01*
X10510714Y-14979952D01*
X10520238Y-14970428D01*
X10539286Y-14941857D01*
X10548810Y-14903762D01*
X10548810Y-14827571D01*
X10539286Y-14808524D01*
X10529762Y-14799000D01*
X10510714Y-14789476D01*
X10472619Y-14789476D01*
X10453571Y-14799000D01*
X10444048Y-14808524D01*
X10434524Y-14827571D01*
X10434524Y-14875190D01*
X10444048Y-14894238D01*
X10453571Y-14903762D01*
X10472619Y-14913286D01*
X10510714Y-14913286D01*
X10529762Y-14903762D01*
X10539286Y-14894238D01*
X10548810Y-14875190D01*
X10672619Y-14789476D02*
X10691667Y-14789476D01*
X10710714Y-14799000D01*
X10720238Y-14808524D01*
X10729762Y-14827571D01*
X10739286Y-14865667D01*
X10739286Y-14913286D01*
X10729762Y-14951381D01*
X10720238Y-14970428D01*
X10710714Y-14979952D01*
X10691667Y-14989476D01*
X10672619Y-14989476D01*
X10653571Y-14979952D01*
X10644048Y-14970428D01*
X10634524Y-14951381D01*
X10625000Y-14913286D01*
X10625000Y-14865667D01*
X10634524Y-14827571D01*
X10644048Y-14808524D01*
X10653571Y-14799000D01*
X10672619Y-14789476D01*
X10815476Y-14789476D02*
X10815476Y-14827571D01*
X10891667Y-14789476D02*
X10891667Y-14827571D01*
X11186905Y-15065667D02*
X11177381Y-15056143D01*
X11158333Y-15027571D01*
X11148810Y-15008524D01*
X11139286Y-14979952D01*
X11129762Y-14932333D01*
X11129762Y-14894238D01*
X11139286Y-14846619D01*
X11148810Y-14818048D01*
X11158333Y-14799000D01*
X11177381Y-14770428D01*
X11186905Y-14760905D01*
X11253571Y-14808524D02*
X11263095Y-14799000D01*
X11282143Y-14789476D01*
X11329762Y-14789476D01*
X11348809Y-14799000D01*
X11358333Y-14808524D01*
X11367857Y-14827571D01*
X11367857Y-14846619D01*
X11358333Y-14875190D01*
X11244048Y-14989476D01*
X11367857Y-14989476D01*
X11605952Y-14989476D02*
X11605952Y-14789476D01*
X11691667Y-14989476D02*
X11691667Y-14884714D01*
X11682143Y-14865667D01*
X11663095Y-14856143D01*
X11634524Y-14856143D01*
X11615476Y-14865667D01*
X11605952Y-14875190D01*
X11815476Y-14989476D02*
X11796428Y-14979952D01*
X11786905Y-14970428D01*
X11777381Y-14951381D01*
X11777381Y-14894238D01*
X11786905Y-14875190D01*
X11796428Y-14865667D01*
X11815476Y-14856143D01*
X11844048Y-14856143D01*
X11863095Y-14865667D01*
X11872619Y-14875190D01*
X11882143Y-14894238D01*
X11882143Y-14951381D01*
X11872619Y-14970428D01*
X11863095Y-14979952D01*
X11844048Y-14989476D01*
X11815476Y-14989476D01*
X11996428Y-14989476D02*
X11977381Y-14979952D01*
X11967857Y-14960905D01*
X11967857Y-14789476D01*
X12148809Y-14979952D02*
X12129762Y-14989476D01*
X12091667Y-14989476D01*
X12072619Y-14979952D01*
X12063095Y-14960905D01*
X12063095Y-14884714D01*
X12072619Y-14865667D01*
X12091667Y-14856143D01*
X12129762Y-14856143D01*
X12148809Y-14865667D01*
X12158333Y-14884714D01*
X12158333Y-14903762D01*
X12063095Y-14922809D01*
X12234524Y-14979952D02*
X12253571Y-14989476D01*
X12291667Y-14989476D01*
X12310714Y-14979952D01*
X12320238Y-14960905D01*
X12320238Y-14951381D01*
X12310714Y-14932333D01*
X12291667Y-14922809D01*
X12263095Y-14922809D01*
X12244048Y-14913286D01*
X12234524Y-14894238D01*
X12234524Y-14884714D01*
X12244048Y-14865667D01*
X12263095Y-14856143D01*
X12291667Y-14856143D01*
X12310714Y-14865667D01*
X12386905Y-15065667D02*
X12396428Y-15056143D01*
X12415476Y-15027571D01*
X12425000Y-15008524D01*
X12434524Y-14979952D01*
X12444048Y-14932333D01*
X12444048Y-14894238D01*
X12434524Y-14846619D01*
X12425000Y-14818048D01*
X12415476Y-14799000D01*
X12396428Y-14770428D01*
X12386905Y-14760905D01*
D10*
X7565000Y-15213000D02*
X7615000Y-15163000D01*
X7565000Y-15113000D01*
X7515000Y-15163000D01*
X7565000Y-15213000D01*
D11*
X7977381Y-15253476D02*
X7863095Y-15253476D01*
X7920238Y-15253476D02*
X7920238Y-15053476D01*
X7901190Y-15082048D01*
X7882143Y-15101095D01*
X7863095Y-15110619D01*
X8063095Y-15234428D02*
X8072619Y-15243952D01*
X8063095Y-15253476D01*
X8053571Y-15243952D01*
X8063095Y-15234428D01*
X8063095Y-15253476D01*
X8196428Y-15053476D02*
X8215476Y-15053476D01*
X8234524Y-15063000D01*
X8244048Y-15072524D01*
X8253571Y-15091571D01*
X8263095Y-15129667D01*
X8263095Y-15177286D01*
X8253571Y-15215381D01*
X8244048Y-15234428D01*
X8234524Y-15243952D01*
X8215476Y-15253476D01*
X8196428Y-15253476D01*
X8177381Y-15243952D01*
X8167857Y-15234428D01*
X8158333Y-15215381D01*
X8148809Y-15177286D01*
X8148809Y-15129667D01*
X8158333Y-15091571D01*
X8167857Y-15072524D01*
X8177381Y-15063000D01*
X8196428Y-15053476D01*
X8386905Y-15053476D02*
X8405952Y-15053476D01*
X8425000Y-15063000D01*
X8434524Y-15072524D01*
X8444048Y-15091571D01*
X8453571Y-15129667D01*
X8453571Y-15177286D01*
X8444048Y-15215381D01*
X8434524Y-15234428D01*
X8425000Y-15243952D01*
X8405952Y-15253476D01*
X8386905Y-15253476D01*
X8367857Y-15243952D01*
X8358333Y-15234428D01*
X8348809Y-15215381D01*
X8339286Y-15177286D01*
X8339286Y-15129667D01*
X8348809Y-15091571D01*
X8358333Y-15072524D01*
X8367857Y-15063000D01*
X8386905Y-15053476D01*
X8577381Y-15053476D02*
X8596429Y-15053476D01*
X8615476Y-15063000D01*
X8625000Y-15072524D01*
X8634524Y-15091571D01*
X8644048Y-15129667D01*
X8644048Y-15177286D01*
X8634524Y-15215381D01*
X8625000Y-15234428D01*
X8615476Y-15243952D01*
X8596429Y-15253476D01*
X8577381Y-15253476D01*
X8558333Y-15243952D01*
X8548810Y-15234428D01*
X8539286Y-15215381D01*
X8529762Y-15177286D01*
X8529762Y-15129667D01*
X8539286Y-15091571D01*
X8548810Y-15072524D01*
X8558333Y-15063000D01*
X8577381Y-15053476D01*
X8729762Y-15253476D02*
X8729762Y-15120143D01*
X8729762Y-15139190D02*
X8739286Y-15129667D01*
X8758333Y-15120143D01*
X8786905Y-15120143D01*
X8805952Y-15129667D01*
X8815476Y-15148714D01*
X8815476Y-15253476D01*
X8815476Y-15148714D02*
X8825000Y-15129667D01*
X8844048Y-15120143D01*
X8872619Y-15120143D01*
X8891667Y-15129667D01*
X8901190Y-15148714D01*
X8901190Y-15253476D01*
X8996429Y-15253476D02*
X8996429Y-15120143D01*
X8996429Y-15139190D02*
X9005952Y-15129667D01*
X9025000Y-15120143D01*
X9053571Y-15120143D01*
X9072619Y-15129667D01*
X9082143Y-15148714D01*
X9082143Y-15253476D01*
X9082143Y-15148714D02*
X9091667Y-15129667D01*
X9110714Y-15120143D01*
X9139286Y-15120143D01*
X9158333Y-15129667D01*
X9167857Y-15148714D01*
X9167857Y-15253476D01*
X9558333Y-15043952D02*
X9386905Y-15301095D01*
X9815476Y-15053476D02*
X9834524Y-15053476D01*
X9853571Y-15063000D01*
X9863095Y-15072524D01*
X9872619Y-15091571D01*
X9882143Y-15129667D01*
X9882143Y-15177286D01*
X9872619Y-15215381D01*
X9863095Y-15234428D01*
X9853571Y-15243952D01*
X9834524Y-15253476D01*
X9815476Y-15253476D01*
X9796429Y-15243952D01*
X9786905Y-15234428D01*
X9777381Y-15215381D01*
X9767857Y-15177286D01*
X9767857Y-15129667D01*
X9777381Y-15091571D01*
X9786905Y-15072524D01*
X9796429Y-15063000D01*
X9815476Y-15053476D01*
X9967857Y-15234428D02*
X9977381Y-15243952D01*
X9967857Y-15253476D01*
X9958333Y-15243952D01*
X9967857Y-15234428D01*
X9967857Y-15253476D01*
X10101190Y-15053476D02*
X10120238Y-15053476D01*
X10139286Y-15063000D01*
X10148810Y-15072524D01*
X10158333Y-15091571D01*
X10167857Y-15129667D01*
X10167857Y-15177286D01*
X10158333Y-15215381D01*
X10148810Y-15234428D01*
X10139286Y-15243952D01*
X10120238Y-15253476D01*
X10101190Y-15253476D01*
X10082143Y-15243952D01*
X10072619Y-15234428D01*
X10063095Y-15215381D01*
X10053571Y-15177286D01*
X10053571Y-15129667D01*
X10063095Y-15091571D01*
X10072619Y-15072524D01*
X10082143Y-15063000D01*
X10101190Y-15053476D01*
X10234524Y-15053476D02*
X10358333Y-15053476D01*
X10291667Y-15129667D01*
X10320238Y-15129667D01*
X10339286Y-15139190D01*
X10348810Y-15148714D01*
X10358333Y-15167762D01*
X10358333Y-15215381D01*
X10348810Y-15234428D01*
X10339286Y-15243952D01*
X10320238Y-15253476D01*
X10263095Y-15253476D01*
X10244048Y-15243952D01*
X10234524Y-15234428D01*
X10453571Y-15253476D02*
X10491667Y-15253476D01*
X10510714Y-15243952D01*
X10520238Y-15234428D01*
X10539286Y-15205857D01*
X10548810Y-15167762D01*
X10548810Y-15091571D01*
X10539286Y-15072524D01*
X10529762Y-15063000D01*
X10510714Y-15053476D01*
X10472619Y-15053476D01*
X10453571Y-15063000D01*
X10444048Y-15072524D01*
X10434524Y-15091571D01*
X10434524Y-15139190D01*
X10444048Y-15158238D01*
X10453571Y-15167762D01*
X10472619Y-15177286D01*
X10510714Y-15177286D01*
X10529762Y-15167762D01*
X10539286Y-15158238D01*
X10548810Y-15139190D01*
X10720238Y-15120143D02*
X10720238Y-15253476D01*
X10672619Y-15043952D02*
X10625000Y-15186809D01*
X10748810Y-15186809D01*
X10815476Y-15053476D02*
X10815476Y-15091571D01*
X10891667Y-15053476D02*
X10891667Y-15091571D01*
X11186905Y-15329667D02*
X11177381Y-15320143D01*
X11158333Y-15291571D01*
X11148810Y-15272524D01*
X11139286Y-15243952D01*
X11129762Y-15196333D01*
X11129762Y-15158238D01*
X11139286Y-15110619D01*
X11148810Y-15082048D01*
X11158333Y-15063000D01*
X11177381Y-15034428D01*
X11186905Y-15024905D01*
X11244048Y-15053476D02*
X11367857Y-15053476D01*
X11301190Y-15129667D01*
X11329762Y-15129667D01*
X11348809Y-15139190D01*
X11358333Y-15148714D01*
X11367857Y-15167762D01*
X11367857Y-15215381D01*
X11358333Y-15234428D01*
X11348809Y-15243952D01*
X11329762Y-15253476D01*
X11272619Y-15253476D01*
X11253571Y-15243952D01*
X11244048Y-15234428D01*
X11482143Y-15139190D02*
X11463095Y-15129667D01*
X11453571Y-15120143D01*
X11444048Y-15101095D01*
X11444048Y-15091571D01*
X11453571Y-15072524D01*
X11463095Y-15063000D01*
X11482143Y-15053476D01*
X11520238Y-15053476D01*
X11539286Y-15063000D01*
X11548809Y-15072524D01*
X11558333Y-15091571D01*
X11558333Y-15101095D01*
X11548809Y-15120143D01*
X11539286Y-15129667D01*
X11520238Y-15139190D01*
X11482143Y-15139190D01*
X11463095Y-15148714D01*
X11453571Y-15158238D01*
X11444048Y-15177286D01*
X11444048Y-15215381D01*
X11453571Y-15234428D01*
X11463095Y-15243952D01*
X11482143Y-15253476D01*
X11520238Y-15253476D01*
X11539286Y-15243952D01*
X11548809Y-15234428D01*
X11558333Y-15215381D01*
X11558333Y-15177286D01*
X11548809Y-15158238D01*
X11539286Y-15148714D01*
X11520238Y-15139190D01*
X11796428Y-15253476D02*
X11796428Y-15053476D01*
X11882143Y-15253476D02*
X11882143Y-15148714D01*
X11872619Y-15129667D01*
X11853571Y-15120143D01*
X11825000Y-15120143D01*
X11805952Y-15129667D01*
X11796428Y-15139190D01*
X12005952Y-15253476D02*
X11986905Y-15243952D01*
X11977381Y-15234428D01*
X11967857Y-15215381D01*
X11967857Y-15158238D01*
X11977381Y-15139190D01*
X11986905Y-15129667D01*
X12005952Y-15120143D01*
X12034524Y-15120143D01*
X12053571Y-15129667D01*
X12063095Y-15139190D01*
X12072619Y-15158238D01*
X12072619Y-15215381D01*
X12063095Y-15234428D01*
X12053571Y-15243952D01*
X12034524Y-15253476D01*
X12005952Y-15253476D01*
X12186905Y-15253476D02*
X12167857Y-15243952D01*
X12158333Y-15224905D01*
X12158333Y-15053476D01*
X12339286Y-15243952D02*
X12320238Y-15253476D01*
X12282143Y-15253476D01*
X12263095Y-15243952D01*
X12253571Y-15224905D01*
X12253571Y-15148714D01*
X12263095Y-15129667D01*
X12282143Y-15120143D01*
X12320238Y-15120143D01*
X12339286Y-15129667D01*
X12348809Y-15148714D01*
X12348809Y-15167762D01*
X12253571Y-15186809D01*
X12425000Y-15243952D02*
X12444048Y-15253476D01*
X12482143Y-15253476D01*
X12501190Y-15243952D01*
X12510714Y-15224905D01*
X12510714Y-15215381D01*
X12501190Y-15196333D01*
X12482143Y-15186809D01*
X12453571Y-15186809D01*
X12434524Y-15177286D01*
X12425000Y-15158238D01*
X12425000Y-15148714D01*
X12434524Y-15129667D01*
X12453571Y-15120143D01*
X12482143Y-15120143D01*
X12501190Y-15129667D01*
X12577381Y-15329667D02*
X12586905Y-15320143D01*
X12605952Y-15291571D01*
X12615476Y-15272524D01*
X12625000Y-15243952D01*
X12634524Y-15196333D01*
X12634524Y-15158238D01*
X12625000Y-15110619D01*
X12615476Y-15082048D01*
X12605952Y-15063000D01*
X12586905Y-15034428D01*
X12577381Y-15024905D01*
D16*
X7513000Y-15376000D02*
X7615000Y-15478000D01*
X7615000Y-15376000D02*
X7513000Y-15478000D01*
X7615000Y-15427000D02*
G75*
G03*
X7615000Y-15427000I-51000J0D01*
G01*
D11*
X7977381Y-15517476D02*
X7863095Y-15517476D01*
X7920238Y-15517476D02*
X7920238Y-15317476D01*
X7901190Y-15346048D01*
X7882143Y-15365095D01*
X7863095Y-15374619D01*
X8063095Y-15498428D02*
X8072619Y-15507952D01*
X8063095Y-15517476D01*
X8053571Y-15507952D01*
X8063095Y-15498428D01*
X8063095Y-15517476D01*
X8196428Y-15317476D02*
X8215476Y-15317476D01*
X8234524Y-15327000D01*
X8244048Y-15336524D01*
X8253571Y-15355571D01*
X8263095Y-15393667D01*
X8263095Y-15441286D01*
X8253571Y-15479381D01*
X8244048Y-15498428D01*
X8234524Y-15507952D01*
X8215476Y-15517476D01*
X8196428Y-15517476D01*
X8177381Y-15507952D01*
X8167857Y-15498428D01*
X8158333Y-15479381D01*
X8148809Y-15441286D01*
X8148809Y-15393667D01*
X8158333Y-15355571D01*
X8167857Y-15336524D01*
X8177381Y-15327000D01*
X8196428Y-15317476D01*
X8339286Y-15336524D02*
X8348809Y-15327000D01*
X8367857Y-15317476D01*
X8415476Y-15317476D01*
X8434524Y-15327000D01*
X8444048Y-15336524D01*
X8453571Y-15355571D01*
X8453571Y-15374619D01*
X8444048Y-15403190D01*
X8329762Y-15517476D01*
X8453571Y-15517476D01*
X8577381Y-15317476D02*
X8596429Y-15317476D01*
X8615476Y-15327000D01*
X8625000Y-15336524D01*
X8634524Y-15355571D01*
X8644048Y-15393667D01*
X8644048Y-15441286D01*
X8634524Y-15479381D01*
X8625000Y-15498428D01*
X8615476Y-15507952D01*
X8596429Y-15517476D01*
X8577381Y-15517476D01*
X8558333Y-15507952D01*
X8548810Y-15498428D01*
X8539286Y-15479381D01*
X8529762Y-15441286D01*
X8529762Y-15393667D01*
X8539286Y-15355571D01*
X8548810Y-15336524D01*
X8558333Y-15327000D01*
X8577381Y-15317476D01*
X8729762Y-15517476D02*
X8729762Y-15384143D01*
X8729762Y-15403190D02*
X8739286Y-15393667D01*
X8758333Y-15384143D01*
X8786905Y-15384143D01*
X8805952Y-15393667D01*
X8815476Y-15412714D01*
X8815476Y-15517476D01*
X8815476Y-15412714D02*
X8825000Y-15393667D01*
X8844048Y-15384143D01*
X8872619Y-15384143D01*
X8891667Y-15393667D01*
X8901190Y-15412714D01*
X8901190Y-15517476D01*
X8996429Y-15517476D02*
X8996429Y-15384143D01*
X8996429Y-15403190D02*
X9005952Y-15393667D01*
X9025000Y-15384143D01*
X9053571Y-15384143D01*
X9072619Y-15393667D01*
X9082143Y-15412714D01*
X9082143Y-15517476D01*
X9082143Y-15412714D02*
X9091667Y-15393667D01*
X9110714Y-15384143D01*
X9139286Y-15384143D01*
X9158333Y-15393667D01*
X9167857Y-15412714D01*
X9167857Y-15517476D01*
X9558333Y-15307952D02*
X9386905Y-15565095D01*
X9815476Y-15317476D02*
X9834524Y-15317476D01*
X9853571Y-15327000D01*
X9863095Y-15336524D01*
X9872619Y-15355571D01*
X9882143Y-15393667D01*
X9882143Y-15441286D01*
X9872619Y-15479381D01*
X9863095Y-15498428D01*
X9853571Y-15507952D01*
X9834524Y-15517476D01*
X9815476Y-15517476D01*
X9796429Y-15507952D01*
X9786905Y-15498428D01*
X9777381Y-15479381D01*
X9767857Y-15441286D01*
X9767857Y-15393667D01*
X9777381Y-15355571D01*
X9786905Y-15336524D01*
X9796429Y-15327000D01*
X9815476Y-15317476D01*
X9967857Y-15498428D02*
X9977381Y-15507952D01*
X9967857Y-15517476D01*
X9958333Y-15507952D01*
X9967857Y-15498428D01*
X9967857Y-15517476D01*
X10101190Y-15317476D02*
X10120238Y-15317476D01*
X10139286Y-15327000D01*
X10148810Y-15336524D01*
X10158333Y-15355571D01*
X10167857Y-15393667D01*
X10167857Y-15441286D01*
X10158333Y-15479381D01*
X10148810Y-15498428D01*
X10139286Y-15507952D01*
X10120238Y-15517476D01*
X10101190Y-15517476D01*
X10082143Y-15507952D01*
X10072619Y-15498428D01*
X10063095Y-15479381D01*
X10053571Y-15441286D01*
X10053571Y-15393667D01*
X10063095Y-15355571D01*
X10072619Y-15336524D01*
X10082143Y-15327000D01*
X10101190Y-15317476D01*
X10339286Y-15384143D02*
X10339286Y-15517476D01*
X10291667Y-15307952D02*
X10244048Y-15450809D01*
X10367857Y-15450809D01*
X10482143Y-15317476D02*
X10501190Y-15317476D01*
X10520238Y-15327000D01*
X10529762Y-15336524D01*
X10539286Y-15355571D01*
X10548810Y-15393667D01*
X10548810Y-15441286D01*
X10539286Y-15479381D01*
X10529762Y-15498428D01*
X10520238Y-15507952D01*
X10501190Y-15517476D01*
X10482143Y-15517476D01*
X10463095Y-15507952D01*
X10453571Y-15498428D01*
X10444048Y-15479381D01*
X10434524Y-15441286D01*
X10434524Y-15393667D01*
X10444048Y-15355571D01*
X10453571Y-15336524D01*
X10463095Y-15327000D01*
X10482143Y-15317476D01*
X10625000Y-15336524D02*
X10634524Y-15327000D01*
X10653571Y-15317476D01*
X10701190Y-15317476D01*
X10720238Y-15327000D01*
X10729762Y-15336524D01*
X10739286Y-15355571D01*
X10739286Y-15374619D01*
X10729762Y-15403190D01*
X10615476Y-15517476D01*
X10739286Y-15517476D01*
X10815476Y-15317476D02*
X10815476Y-15355571D01*
X10891667Y-15317476D02*
X10891667Y-15355571D01*
X11186905Y-15593667D02*
X11177381Y-15584143D01*
X11158333Y-15555571D01*
X11148810Y-15536524D01*
X11139286Y-15507952D01*
X11129762Y-15460333D01*
X11129762Y-15422238D01*
X11139286Y-15374619D01*
X11148810Y-15346048D01*
X11158333Y-15327000D01*
X11177381Y-15298428D01*
X11186905Y-15288905D01*
X11367857Y-15517476D02*
X11253571Y-15517476D01*
X11310714Y-15517476D02*
X11310714Y-15317476D01*
X11291667Y-15346048D01*
X11272619Y-15365095D01*
X11253571Y-15374619D01*
X11491667Y-15317476D02*
X11510714Y-15317476D01*
X11529762Y-15327000D01*
X11539286Y-15336524D01*
X11548809Y-15355571D01*
X11558333Y-15393667D01*
X11558333Y-15441286D01*
X11548809Y-15479381D01*
X11539286Y-15498428D01*
X11529762Y-15507952D01*
X11510714Y-15517476D01*
X11491667Y-15517476D01*
X11472619Y-15507952D01*
X11463095Y-15498428D01*
X11453571Y-15479381D01*
X11444048Y-15441286D01*
X11444048Y-15393667D01*
X11453571Y-15355571D01*
X11463095Y-15336524D01*
X11472619Y-15327000D01*
X11491667Y-15317476D01*
X11796428Y-15517476D02*
X11796428Y-15317476D01*
X11882143Y-15517476D02*
X11882143Y-15412714D01*
X11872619Y-15393667D01*
X11853571Y-15384143D01*
X11825000Y-15384143D01*
X11805952Y-15393667D01*
X11796428Y-15403190D01*
X12005952Y-15517476D02*
X11986905Y-15507952D01*
X11977381Y-15498428D01*
X11967857Y-15479381D01*
X11967857Y-15422238D01*
X11977381Y-15403190D01*
X11986905Y-15393667D01*
X12005952Y-15384143D01*
X12034524Y-15384143D01*
X12053571Y-15393667D01*
X12063095Y-15403190D01*
X12072619Y-15422238D01*
X12072619Y-15479381D01*
X12063095Y-15498428D01*
X12053571Y-15507952D01*
X12034524Y-15517476D01*
X12005952Y-15517476D01*
X12186905Y-15517476D02*
X12167857Y-15507952D01*
X12158333Y-15488905D01*
X12158333Y-15317476D01*
X12339286Y-15507952D02*
X12320238Y-15517476D01*
X12282143Y-15517476D01*
X12263095Y-15507952D01*
X12253571Y-15488905D01*
X12253571Y-15412714D01*
X12263095Y-15393667D01*
X12282143Y-15384143D01*
X12320238Y-15384143D01*
X12339286Y-15393667D01*
X12348809Y-15412714D01*
X12348809Y-15431762D01*
X12253571Y-15450809D01*
X12425000Y-15507952D02*
X12444048Y-15517476D01*
X12482143Y-15517476D01*
X12501190Y-15507952D01*
X12510714Y-15488905D01*
X12510714Y-15479381D01*
X12501190Y-15460333D01*
X12482143Y-15450809D01*
X12453571Y-15450809D01*
X12434524Y-15441286D01*
X12425000Y-15422238D01*
X12425000Y-15412714D01*
X12434524Y-15393667D01*
X12453571Y-15384143D01*
X12482143Y-15384143D01*
X12501190Y-15393667D01*
X12577381Y-15593667D02*
X12586905Y-15584143D01*
X12605952Y-15555571D01*
X12615476Y-15536524D01*
X12625000Y-15507952D01*
X12634524Y-15460333D01*
X12634524Y-15422238D01*
X12625000Y-15374619D01*
X12615476Y-15346048D01*
X12605952Y-15327000D01*
X12586905Y-15298428D01*
X12577381Y-15288905D01*
D17*
X7506000Y-15636500D02*
X7615000Y-15745500D01*
X7615000Y-15636500D02*
X7506000Y-15745500D01*
X7560500Y-15636500D02*
X7560500Y-15745500D01*
X7506000Y-15691000D02*
X7615000Y-15691000D01*
D11*
X7977381Y-15781476D02*
X7863095Y-15781476D01*
X7920238Y-15781476D02*
X7920238Y-15581476D01*
X7901190Y-15610048D01*
X7882143Y-15629095D01*
X7863095Y-15638619D01*
X8063095Y-15762428D02*
X8072619Y-15771952D01*
X8063095Y-15781476D01*
X8053571Y-15771952D01*
X8063095Y-15762428D01*
X8063095Y-15781476D01*
X8196428Y-15581476D02*
X8215476Y-15581476D01*
X8234524Y-15591000D01*
X8244048Y-15600524D01*
X8253571Y-15619571D01*
X8263095Y-15657667D01*
X8263095Y-15705286D01*
X8253571Y-15743381D01*
X8244048Y-15762428D01*
X8234524Y-15771952D01*
X8215476Y-15781476D01*
X8196428Y-15781476D01*
X8177381Y-15771952D01*
X8167857Y-15762428D01*
X8158333Y-15743381D01*
X8148809Y-15705286D01*
X8148809Y-15657667D01*
X8158333Y-15619571D01*
X8167857Y-15600524D01*
X8177381Y-15591000D01*
X8196428Y-15581476D01*
X8358333Y-15781476D02*
X8396429Y-15781476D01*
X8415476Y-15771952D01*
X8425000Y-15762428D01*
X8444048Y-15733857D01*
X8453571Y-15695762D01*
X8453571Y-15619571D01*
X8444048Y-15600524D01*
X8434524Y-15591000D01*
X8415476Y-15581476D01*
X8377381Y-15581476D01*
X8358333Y-15591000D01*
X8348809Y-15600524D01*
X8339286Y-15619571D01*
X8339286Y-15667190D01*
X8348809Y-15686238D01*
X8358333Y-15695762D01*
X8377381Y-15705286D01*
X8415476Y-15705286D01*
X8434524Y-15695762D01*
X8444048Y-15686238D01*
X8453571Y-15667190D01*
X8577381Y-15581476D02*
X8596429Y-15581476D01*
X8615476Y-15591000D01*
X8625000Y-15600524D01*
X8634524Y-15619571D01*
X8644048Y-15657667D01*
X8644048Y-15705286D01*
X8634524Y-15743381D01*
X8625000Y-15762428D01*
X8615476Y-15771952D01*
X8596429Y-15781476D01*
X8577381Y-15781476D01*
X8558333Y-15771952D01*
X8548810Y-15762428D01*
X8539286Y-15743381D01*
X8529762Y-15705286D01*
X8529762Y-15657667D01*
X8539286Y-15619571D01*
X8548810Y-15600524D01*
X8558333Y-15591000D01*
X8577381Y-15581476D01*
X8729762Y-15781476D02*
X8729762Y-15648143D01*
X8729762Y-15667190D02*
X8739286Y-15657667D01*
X8758333Y-15648143D01*
X8786905Y-15648143D01*
X8805952Y-15657667D01*
X8815476Y-15676714D01*
X8815476Y-15781476D01*
X8815476Y-15676714D02*
X8825000Y-15657667D01*
X8844048Y-15648143D01*
X8872619Y-15648143D01*
X8891667Y-15657667D01*
X8901190Y-15676714D01*
X8901190Y-15781476D01*
X8996429Y-15781476D02*
X8996429Y-15648143D01*
X8996429Y-15667190D02*
X9005952Y-15657667D01*
X9025000Y-15648143D01*
X9053571Y-15648143D01*
X9072619Y-15657667D01*
X9082143Y-15676714D01*
X9082143Y-15781476D01*
X9082143Y-15676714D02*
X9091667Y-15657667D01*
X9110714Y-15648143D01*
X9139286Y-15648143D01*
X9158333Y-15657667D01*
X9167857Y-15676714D01*
X9167857Y-15781476D01*
X9558333Y-15571952D02*
X9386905Y-15829095D01*
X9815476Y-15581476D02*
X9834524Y-15581476D01*
X9853571Y-15591000D01*
X9863095Y-15600524D01*
X9872619Y-15619571D01*
X9882143Y-15657667D01*
X9882143Y-15705286D01*
X9872619Y-15743381D01*
X9863095Y-15762428D01*
X9853571Y-15771952D01*
X9834524Y-15781476D01*
X9815476Y-15781476D01*
X9796429Y-15771952D01*
X9786905Y-15762428D01*
X9777381Y-15743381D01*
X9767857Y-15705286D01*
X9767857Y-15657667D01*
X9777381Y-15619571D01*
X9786905Y-15600524D01*
X9796429Y-15591000D01*
X9815476Y-15581476D01*
X9967857Y-15762428D02*
X9977381Y-15771952D01*
X9967857Y-15781476D01*
X9958333Y-15771952D01*
X9967857Y-15762428D01*
X9967857Y-15781476D01*
X10101190Y-15581476D02*
X10120238Y-15581476D01*
X10139286Y-15591000D01*
X10148810Y-15600524D01*
X10158333Y-15619571D01*
X10167857Y-15657667D01*
X10167857Y-15705286D01*
X10158333Y-15743381D01*
X10148810Y-15762428D01*
X10139286Y-15771952D01*
X10120238Y-15781476D01*
X10101190Y-15781476D01*
X10082143Y-15771952D01*
X10072619Y-15762428D01*
X10063095Y-15743381D01*
X10053571Y-15705286D01*
X10053571Y-15657667D01*
X10063095Y-15619571D01*
X10072619Y-15600524D01*
X10082143Y-15591000D01*
X10101190Y-15581476D01*
X10339286Y-15648143D02*
X10339286Y-15781476D01*
X10291667Y-15571952D02*
X10244048Y-15714809D01*
X10367857Y-15714809D01*
X10434524Y-15600524D02*
X10444048Y-15591000D01*
X10463095Y-15581476D01*
X10510714Y-15581476D01*
X10529762Y-15591000D01*
X10539286Y-15600524D01*
X10548810Y-15619571D01*
X10548810Y-15638619D01*
X10539286Y-15667190D01*
X10425000Y-15781476D01*
X10548810Y-15781476D01*
X10644048Y-15781476D02*
X10682143Y-15781476D01*
X10701190Y-15771952D01*
X10710714Y-15762428D01*
X10729762Y-15733857D01*
X10739286Y-15695762D01*
X10739286Y-15619571D01*
X10729762Y-15600524D01*
X10720238Y-15591000D01*
X10701190Y-15581476D01*
X10663095Y-15581476D01*
X10644048Y-15591000D01*
X10634524Y-15600524D01*
X10625000Y-15619571D01*
X10625000Y-15667190D01*
X10634524Y-15686238D01*
X10644048Y-15695762D01*
X10663095Y-15705286D01*
X10701190Y-15705286D01*
X10720238Y-15695762D01*
X10729762Y-15686238D01*
X10739286Y-15667190D01*
X10815476Y-15581476D02*
X10815476Y-15619571D01*
X10891667Y-15581476D02*
X10891667Y-15619571D01*
X11186905Y-15857667D02*
X11177381Y-15848143D01*
X11158333Y-15819571D01*
X11148810Y-15800524D01*
X11139286Y-15771952D01*
X11129762Y-15724333D01*
X11129762Y-15686238D01*
X11139286Y-15638619D01*
X11148810Y-15610048D01*
X11158333Y-15591000D01*
X11177381Y-15562428D01*
X11186905Y-15552905D01*
X11348809Y-15581476D02*
X11310714Y-15581476D01*
X11291667Y-15591000D01*
X11282143Y-15600524D01*
X11263095Y-15629095D01*
X11253571Y-15667190D01*
X11253571Y-15743381D01*
X11263095Y-15762428D01*
X11272619Y-15771952D01*
X11291667Y-15781476D01*
X11329762Y-15781476D01*
X11348809Y-15771952D01*
X11358333Y-15762428D01*
X11367857Y-15743381D01*
X11367857Y-15695762D01*
X11358333Y-15676714D01*
X11348809Y-15667190D01*
X11329762Y-15657667D01*
X11291667Y-15657667D01*
X11272619Y-15667190D01*
X11263095Y-15676714D01*
X11253571Y-15695762D01*
X11605952Y-15781476D02*
X11605952Y-15581476D01*
X11691667Y-15781476D02*
X11691667Y-15676714D01*
X11682143Y-15657667D01*
X11663095Y-15648143D01*
X11634524Y-15648143D01*
X11615476Y-15657667D01*
X11605952Y-15667190D01*
X11815476Y-15781476D02*
X11796428Y-15771952D01*
X11786905Y-15762428D01*
X11777381Y-15743381D01*
X11777381Y-15686238D01*
X11786905Y-15667190D01*
X11796428Y-15657667D01*
X11815476Y-15648143D01*
X11844048Y-15648143D01*
X11863095Y-15657667D01*
X11872619Y-15667190D01*
X11882143Y-15686238D01*
X11882143Y-15743381D01*
X11872619Y-15762428D01*
X11863095Y-15771952D01*
X11844048Y-15781476D01*
X11815476Y-15781476D01*
X11996428Y-15781476D02*
X11977381Y-15771952D01*
X11967857Y-15752905D01*
X11967857Y-15581476D01*
X12148809Y-15771952D02*
X12129762Y-15781476D01*
X12091667Y-15781476D01*
X12072619Y-15771952D01*
X12063095Y-15752905D01*
X12063095Y-15676714D01*
X12072619Y-15657667D01*
X12091667Y-15648143D01*
X12129762Y-15648143D01*
X12148809Y-15657667D01*
X12158333Y-15676714D01*
X12158333Y-15695762D01*
X12063095Y-15714809D01*
X12234524Y-15771952D02*
X12253571Y-15781476D01*
X12291667Y-15781476D01*
X12310714Y-15771952D01*
X12320238Y-15752905D01*
X12320238Y-15743381D01*
X12310714Y-15724333D01*
X12291667Y-15714809D01*
X12263095Y-15714809D01*
X12244048Y-15705286D01*
X12234524Y-15686238D01*
X12234524Y-15676714D01*
X12244048Y-15657667D01*
X12263095Y-15648143D01*
X12291667Y-15648143D01*
X12310714Y-15657667D01*
X12386905Y-15857667D02*
X12396428Y-15848143D01*
X12415476Y-15819571D01*
X12425000Y-15800524D01*
X12434524Y-15771952D01*
X12444048Y-15724333D01*
X12444048Y-15686238D01*
X12434524Y-15638619D01*
X12425000Y-15610048D01*
X12415476Y-15591000D01*
X12396428Y-15562428D01*
X12386905Y-15552905D01*
D18*
X7505000Y-15900000D02*
X7615000Y-16010000D01*
X7615000Y-15900000D02*
X7505000Y-16010000D01*
X7598891Y-15993891D02*
X7598891Y-15916109D01*
X7521109Y-15916109D01*
X7521109Y-15993891D01*
X7598891Y-15993891D01*
D11*
X7977381Y-16045476D02*
X7863095Y-16045476D01*
X7920238Y-16045476D02*
X7920238Y-15845476D01*
X7901190Y-15874048D01*
X7882143Y-15893095D01*
X7863095Y-15902619D01*
X8063095Y-16026428D02*
X8072619Y-16035952D01*
X8063095Y-16045476D01*
X8053571Y-16035952D01*
X8063095Y-16026428D01*
X8063095Y-16045476D01*
X8263095Y-16045476D02*
X8148809Y-16045476D01*
X8205952Y-16045476D02*
X8205952Y-15845476D01*
X8186905Y-15874048D01*
X8167857Y-15893095D01*
X8148809Y-15902619D01*
X8386905Y-15845476D02*
X8405952Y-15845476D01*
X8425000Y-15855000D01*
X8434524Y-15864524D01*
X8444048Y-15883571D01*
X8453571Y-15921667D01*
X8453571Y-15969286D01*
X8444048Y-16007381D01*
X8434524Y-16026428D01*
X8425000Y-16035952D01*
X8405952Y-16045476D01*
X8386905Y-16045476D01*
X8367857Y-16035952D01*
X8358333Y-16026428D01*
X8348809Y-16007381D01*
X8339286Y-15969286D01*
X8339286Y-15921667D01*
X8348809Y-15883571D01*
X8358333Y-15864524D01*
X8367857Y-15855000D01*
X8386905Y-15845476D01*
X8577381Y-15845476D02*
X8596429Y-15845476D01*
X8615476Y-15855000D01*
X8625000Y-15864524D01*
X8634524Y-15883571D01*
X8644048Y-15921667D01*
X8644048Y-15969286D01*
X8634524Y-16007381D01*
X8625000Y-16026428D01*
X8615476Y-16035952D01*
X8596429Y-16045476D01*
X8577381Y-16045476D01*
X8558333Y-16035952D01*
X8548810Y-16026428D01*
X8539286Y-16007381D01*
X8529762Y-15969286D01*
X8529762Y-15921667D01*
X8539286Y-15883571D01*
X8548810Y-15864524D01*
X8558333Y-15855000D01*
X8577381Y-15845476D01*
X8729762Y-16045476D02*
X8729762Y-15912143D01*
X8729762Y-15931190D02*
X8739286Y-15921667D01*
X8758333Y-15912143D01*
X8786905Y-15912143D01*
X8805952Y-15921667D01*
X8815476Y-15940714D01*
X8815476Y-16045476D01*
X8815476Y-15940714D02*
X8825000Y-15921667D01*
X8844048Y-15912143D01*
X8872619Y-15912143D01*
X8891667Y-15921667D01*
X8901190Y-15940714D01*
X8901190Y-16045476D01*
X8996429Y-16045476D02*
X8996429Y-15912143D01*
X8996429Y-15931190D02*
X9005952Y-15921667D01*
X9025000Y-15912143D01*
X9053571Y-15912143D01*
X9072619Y-15921667D01*
X9082143Y-15940714D01*
X9082143Y-16045476D01*
X9082143Y-15940714D02*
X9091667Y-15921667D01*
X9110714Y-15912143D01*
X9139286Y-15912143D01*
X9158333Y-15921667D01*
X9167857Y-15940714D01*
X9167857Y-16045476D01*
X9558333Y-15835952D02*
X9386905Y-16093095D01*
X9815476Y-15845476D02*
X9834524Y-15845476D01*
X9853571Y-15855000D01*
X9863095Y-15864524D01*
X9872619Y-15883571D01*
X9882143Y-15921667D01*
X9882143Y-15969286D01*
X9872619Y-16007381D01*
X9863095Y-16026428D01*
X9853571Y-16035952D01*
X9834524Y-16045476D01*
X9815476Y-16045476D01*
X9796429Y-16035952D01*
X9786905Y-16026428D01*
X9777381Y-16007381D01*
X9767857Y-15969286D01*
X9767857Y-15921667D01*
X9777381Y-15883571D01*
X9786905Y-15864524D01*
X9796429Y-15855000D01*
X9815476Y-15845476D01*
X9967857Y-16026428D02*
X9977381Y-16035952D01*
X9967857Y-16045476D01*
X9958333Y-16035952D01*
X9967857Y-16026428D01*
X9967857Y-16045476D01*
X10101190Y-15845476D02*
X10120238Y-15845476D01*
X10139286Y-15855000D01*
X10148810Y-15864524D01*
X10158333Y-15883571D01*
X10167857Y-15921667D01*
X10167857Y-15969286D01*
X10158333Y-16007381D01*
X10148810Y-16026428D01*
X10139286Y-16035952D01*
X10120238Y-16045476D01*
X10101190Y-16045476D01*
X10082143Y-16035952D01*
X10072619Y-16026428D01*
X10063095Y-16007381D01*
X10053571Y-15969286D01*
X10053571Y-15921667D01*
X10063095Y-15883571D01*
X10072619Y-15864524D01*
X10082143Y-15855000D01*
X10101190Y-15845476D01*
X10339286Y-15912143D02*
X10339286Y-16045476D01*
X10291667Y-15835952D02*
X10244048Y-15978809D01*
X10367857Y-15978809D01*
X10425000Y-15845476D02*
X10548810Y-15845476D01*
X10482143Y-15921667D01*
X10510714Y-15921667D01*
X10529762Y-15931190D01*
X10539286Y-15940714D01*
X10548810Y-15959762D01*
X10548810Y-16007381D01*
X10539286Y-16026428D01*
X10529762Y-16035952D01*
X10510714Y-16045476D01*
X10453571Y-16045476D01*
X10434524Y-16035952D01*
X10425000Y-16026428D01*
X10615476Y-15845476D02*
X10739286Y-15845476D01*
X10672619Y-15921667D01*
X10701190Y-15921667D01*
X10720238Y-15931190D01*
X10729762Y-15940714D01*
X10739286Y-15959762D01*
X10739286Y-16007381D01*
X10729762Y-16026428D01*
X10720238Y-16035952D01*
X10701190Y-16045476D01*
X10644048Y-16045476D01*
X10625000Y-16035952D01*
X10615476Y-16026428D01*
X10815476Y-15845476D02*
X10815476Y-15883571D01*
X10891667Y-15845476D02*
X10891667Y-15883571D01*
X11186905Y-16121667D02*
X11177381Y-16112143D01*
X11158333Y-16083571D01*
X11148810Y-16064524D01*
X11139286Y-16035952D01*
X11129762Y-15988333D01*
X11129762Y-15950238D01*
X11139286Y-15902619D01*
X11148810Y-15874048D01*
X11158333Y-15855000D01*
X11177381Y-15826428D01*
X11186905Y-15816905D01*
X11253571Y-15864524D02*
X11263095Y-15855000D01*
X11282143Y-15845476D01*
X11329762Y-15845476D01*
X11348809Y-15855000D01*
X11358333Y-15864524D01*
X11367857Y-15883571D01*
X11367857Y-15902619D01*
X11358333Y-15931190D01*
X11244048Y-16045476D01*
X11367857Y-16045476D01*
X11605952Y-16045476D02*
X11605952Y-15845476D01*
X11691667Y-16045476D02*
X11691667Y-15940714D01*
X11682143Y-15921667D01*
X11663095Y-15912143D01*
X11634524Y-15912143D01*
X11615476Y-15921667D01*
X11605952Y-15931190D01*
X11815476Y-16045476D02*
X11796428Y-16035952D01*
X11786905Y-16026428D01*
X11777381Y-16007381D01*
X11777381Y-15950238D01*
X11786905Y-15931190D01*
X11796428Y-15921667D01*
X11815476Y-15912143D01*
X11844048Y-15912143D01*
X11863095Y-15921667D01*
X11872619Y-15931190D01*
X11882143Y-15950238D01*
X11882143Y-16007381D01*
X11872619Y-16026428D01*
X11863095Y-16035952D01*
X11844048Y-16045476D01*
X11815476Y-16045476D01*
X11996428Y-16045476D02*
X11977381Y-16035952D01*
X11967857Y-16016905D01*
X11967857Y-15845476D01*
X12148809Y-16035952D02*
X12129762Y-16045476D01*
X12091667Y-16045476D01*
X12072619Y-16035952D01*
X12063095Y-16016905D01*
X12063095Y-15940714D01*
X12072619Y-15921667D01*
X12091667Y-15912143D01*
X12129762Y-15912143D01*
X12148809Y-15921667D01*
X12158333Y-15940714D01*
X12158333Y-15959762D01*
X12063095Y-15978809D01*
X12234524Y-16035952D02*
X12253571Y-16045476D01*
X12291667Y-16045476D01*
X12310714Y-16035952D01*
X12320238Y-16016905D01*
X12320238Y-16007381D01*
X12310714Y-15988333D01*
X12291667Y-15978809D01*
X12263095Y-15978809D01*
X12244048Y-15969286D01*
X12234524Y-15950238D01*
X12234524Y-15940714D01*
X12244048Y-15921667D01*
X12263095Y-15912143D01*
X12291667Y-15912143D01*
X12310714Y-15921667D01*
X12386905Y-16121667D02*
X12396428Y-16112143D01*
X12415476Y-16083571D01*
X12425000Y-16064524D01*
X12434524Y-16035952D01*
X12444048Y-15988333D01*
X12444048Y-15950238D01*
X12434524Y-15902619D01*
X12425000Y-15874048D01*
X12415476Y-15855000D01*
X12396428Y-15826428D01*
X12386905Y-15816905D01*
D19*
X7501000Y-16162000D02*
X7615000Y-16276000D01*
X7615000Y-16162000D02*
X7501000Y-16276000D01*
X7558000Y-16276000D02*
X7615000Y-16219000D01*
X7558000Y-16162000D01*
X7501000Y-16219000D01*
X7558000Y-16276000D01*
D11*
X7977381Y-16309476D02*
X7863095Y-16309476D01*
X7920238Y-16309476D02*
X7920238Y-16109476D01*
X7901190Y-16138048D01*
X7882143Y-16157095D01*
X7863095Y-16166619D01*
X8063095Y-16290428D02*
X8072619Y-16299952D01*
X8063095Y-16309476D01*
X8053571Y-16299952D01*
X8063095Y-16290428D01*
X8063095Y-16309476D01*
X8263095Y-16309476D02*
X8148809Y-16309476D01*
X8205952Y-16309476D02*
X8205952Y-16109476D01*
X8186905Y-16138048D01*
X8167857Y-16157095D01*
X8148809Y-16166619D01*
X8434524Y-16176143D02*
X8434524Y-16309476D01*
X8386905Y-16099952D02*
X8339286Y-16242809D01*
X8463095Y-16242809D01*
X8577381Y-16109476D02*
X8596429Y-16109476D01*
X8615476Y-16119000D01*
X8625000Y-16128524D01*
X8634524Y-16147571D01*
X8644048Y-16185667D01*
X8644048Y-16233286D01*
X8634524Y-16271381D01*
X8625000Y-16290428D01*
X8615476Y-16299952D01*
X8596429Y-16309476D01*
X8577381Y-16309476D01*
X8558333Y-16299952D01*
X8548810Y-16290428D01*
X8539286Y-16271381D01*
X8529762Y-16233286D01*
X8529762Y-16185667D01*
X8539286Y-16147571D01*
X8548810Y-16128524D01*
X8558333Y-16119000D01*
X8577381Y-16109476D01*
X8729762Y-16309476D02*
X8729762Y-16176143D01*
X8729762Y-16195190D02*
X8739286Y-16185667D01*
X8758333Y-16176143D01*
X8786905Y-16176143D01*
X8805952Y-16185667D01*
X8815476Y-16204714D01*
X8815476Y-16309476D01*
X8815476Y-16204714D02*
X8825000Y-16185667D01*
X8844048Y-16176143D01*
X8872619Y-16176143D01*
X8891667Y-16185667D01*
X8901190Y-16204714D01*
X8901190Y-16309476D01*
X8996429Y-16309476D02*
X8996429Y-16176143D01*
X8996429Y-16195190D02*
X9005952Y-16185667D01*
X9025000Y-16176143D01*
X9053571Y-16176143D01*
X9072619Y-16185667D01*
X9082143Y-16204714D01*
X9082143Y-16309476D01*
X9082143Y-16204714D02*
X9091667Y-16185667D01*
X9110714Y-16176143D01*
X9139286Y-16176143D01*
X9158333Y-16185667D01*
X9167857Y-16204714D01*
X9167857Y-16309476D01*
X9558333Y-16099952D02*
X9386905Y-16357095D01*
X9815476Y-16109476D02*
X9834524Y-16109476D01*
X9853571Y-16119000D01*
X9863095Y-16128524D01*
X9872619Y-16147571D01*
X9882143Y-16185667D01*
X9882143Y-16233286D01*
X9872619Y-16271381D01*
X9863095Y-16290428D01*
X9853571Y-16299952D01*
X9834524Y-16309476D01*
X9815476Y-16309476D01*
X9796429Y-16299952D01*
X9786905Y-16290428D01*
X9777381Y-16271381D01*
X9767857Y-16233286D01*
X9767857Y-16185667D01*
X9777381Y-16147571D01*
X9786905Y-16128524D01*
X9796429Y-16119000D01*
X9815476Y-16109476D01*
X9967857Y-16290428D02*
X9977381Y-16299952D01*
X9967857Y-16309476D01*
X9958333Y-16299952D01*
X9967857Y-16290428D01*
X9967857Y-16309476D01*
X10101190Y-16109476D02*
X10120238Y-16109476D01*
X10139286Y-16119000D01*
X10148810Y-16128524D01*
X10158333Y-16147571D01*
X10167857Y-16185667D01*
X10167857Y-16233286D01*
X10158333Y-16271381D01*
X10148810Y-16290428D01*
X10139286Y-16299952D01*
X10120238Y-16309476D01*
X10101190Y-16309476D01*
X10082143Y-16299952D01*
X10072619Y-16290428D01*
X10063095Y-16271381D01*
X10053571Y-16233286D01*
X10053571Y-16185667D01*
X10063095Y-16147571D01*
X10072619Y-16128524D01*
X10082143Y-16119000D01*
X10101190Y-16109476D01*
X10339286Y-16176143D02*
X10339286Y-16309476D01*
X10291667Y-16099952D02*
X10244048Y-16242809D01*
X10367857Y-16242809D01*
X10529762Y-16176143D02*
X10529762Y-16309476D01*
X10482143Y-16099952D02*
X10434524Y-16242809D01*
X10558333Y-16242809D01*
X10644048Y-16309476D02*
X10682143Y-16309476D01*
X10701190Y-16299952D01*
X10710714Y-16290428D01*
X10729762Y-16261857D01*
X10739286Y-16223762D01*
X10739286Y-16147571D01*
X10729762Y-16128524D01*
X10720238Y-16119000D01*
X10701190Y-16109476D01*
X10663095Y-16109476D01*
X10644048Y-16119000D01*
X10634524Y-16128524D01*
X10625000Y-16147571D01*
X10625000Y-16195190D01*
X10634524Y-16214238D01*
X10644048Y-16223762D01*
X10663095Y-16233286D01*
X10701190Y-16233286D01*
X10720238Y-16223762D01*
X10729762Y-16214238D01*
X10739286Y-16195190D01*
X10815476Y-16109476D02*
X10815476Y-16147571D01*
X10891667Y-16109476D02*
X10891667Y-16147571D01*
X11186905Y-16385667D02*
X11177381Y-16376143D01*
X11158333Y-16347571D01*
X11148810Y-16328524D01*
X11139286Y-16299952D01*
X11129762Y-16252333D01*
X11129762Y-16214238D01*
X11139286Y-16166619D01*
X11148810Y-16138048D01*
X11158333Y-16119000D01*
X11177381Y-16090428D01*
X11186905Y-16080905D01*
X11253571Y-16128524D02*
X11263095Y-16119000D01*
X11282143Y-16109476D01*
X11329762Y-16109476D01*
X11348809Y-16119000D01*
X11358333Y-16128524D01*
X11367857Y-16147571D01*
X11367857Y-16166619D01*
X11358333Y-16195190D01*
X11244048Y-16309476D01*
X11367857Y-16309476D01*
X11605952Y-16309476D02*
X11605952Y-16109476D01*
X11691667Y-16309476D02*
X11691667Y-16204714D01*
X11682143Y-16185667D01*
X11663095Y-16176143D01*
X11634524Y-16176143D01*
X11615476Y-16185667D01*
X11605952Y-16195190D01*
X11815476Y-16309476D02*
X11796428Y-16299952D01*
X11786905Y-16290428D01*
X11777381Y-16271381D01*
X11777381Y-16214238D01*
X11786905Y-16195190D01*
X11796428Y-16185667D01*
X11815476Y-16176143D01*
X11844048Y-16176143D01*
X11863095Y-16185667D01*
X11872619Y-16195190D01*
X11882143Y-16214238D01*
X11882143Y-16271381D01*
X11872619Y-16290428D01*
X11863095Y-16299952D01*
X11844048Y-16309476D01*
X11815476Y-16309476D01*
X11996428Y-16309476D02*
X11977381Y-16299952D01*
X11967857Y-16280905D01*
X11967857Y-16109476D01*
X12148809Y-16299952D02*
X12129762Y-16309476D01*
X12091667Y-16309476D01*
X12072619Y-16299952D01*
X12063095Y-16280905D01*
X12063095Y-16204714D01*
X12072619Y-16185667D01*
X12091667Y-16176143D01*
X12129762Y-16176143D01*
X12148809Y-16185667D01*
X12158333Y-16204714D01*
X12158333Y-16223762D01*
X12063095Y-16242809D01*
X12234524Y-16299952D02*
X12253571Y-16309476D01*
X12291667Y-16309476D01*
X12310714Y-16299952D01*
X12320238Y-16280905D01*
X12320238Y-16271381D01*
X12310714Y-16252333D01*
X12291667Y-16242809D01*
X12263095Y-16242809D01*
X12244048Y-16233286D01*
X12234524Y-16214238D01*
X12234524Y-16204714D01*
X12244048Y-16185667D01*
X12263095Y-16176143D01*
X12291667Y-16176143D01*
X12310714Y-16185667D01*
X12386905Y-16385667D02*
X12396428Y-16376143D01*
X12415476Y-16347571D01*
X12425000Y-16328524D01*
X12434524Y-16299952D01*
X12444048Y-16252333D01*
X12444048Y-16214238D01*
X12434524Y-16166619D01*
X12425000Y-16138048D01*
X12415476Y-16119000D01*
X12396428Y-16090428D01*
X12386905Y-16080905D01*
D20*
X7555000Y-16423000D02*
X7555000Y-16543000D01*
X7495000Y-16483000D02*
X7615000Y-16483000D01*
X7615000Y-16483000D02*
G75*
G03*
X7615000Y-16483000I-60000J0D01*
G01*
D11*
X7977381Y-16573476D02*
X7863095Y-16573476D01*
X7920238Y-16573476D02*
X7920238Y-16373476D01*
X7901190Y-16402048D01*
X7882143Y-16421095D01*
X7863095Y-16430619D01*
X8063095Y-16554428D02*
X8072619Y-16563952D01*
X8063095Y-16573476D01*
X8053571Y-16563952D01*
X8063095Y-16554428D01*
X8063095Y-16573476D01*
X8148809Y-16392524D02*
X8158333Y-16383000D01*
X8177381Y-16373476D01*
X8225000Y-16373476D01*
X8244048Y-16383000D01*
X8253571Y-16392524D01*
X8263095Y-16411571D01*
X8263095Y-16430619D01*
X8253571Y-16459190D01*
X8139286Y-16573476D01*
X8263095Y-16573476D01*
X8386905Y-16373476D02*
X8405952Y-16373476D01*
X8425000Y-16383000D01*
X8434524Y-16392524D01*
X8444048Y-16411571D01*
X8453571Y-16449667D01*
X8453571Y-16497286D01*
X8444048Y-16535381D01*
X8434524Y-16554428D01*
X8425000Y-16563952D01*
X8405952Y-16573476D01*
X8386905Y-16573476D01*
X8367857Y-16563952D01*
X8358333Y-16554428D01*
X8348809Y-16535381D01*
X8339286Y-16497286D01*
X8339286Y-16449667D01*
X8348809Y-16411571D01*
X8358333Y-16392524D01*
X8367857Y-16383000D01*
X8386905Y-16373476D01*
X8577381Y-16373476D02*
X8596429Y-16373476D01*
X8615476Y-16383000D01*
X8625000Y-16392524D01*
X8634524Y-16411571D01*
X8644048Y-16449667D01*
X8644048Y-16497286D01*
X8634524Y-16535381D01*
X8625000Y-16554428D01*
X8615476Y-16563952D01*
X8596429Y-16573476D01*
X8577381Y-16573476D01*
X8558333Y-16563952D01*
X8548810Y-16554428D01*
X8539286Y-16535381D01*
X8529762Y-16497286D01*
X8529762Y-16449667D01*
X8539286Y-16411571D01*
X8548810Y-16392524D01*
X8558333Y-16383000D01*
X8577381Y-16373476D01*
X8729762Y-16573476D02*
X8729762Y-16440143D01*
X8729762Y-16459190D02*
X8739286Y-16449667D01*
X8758333Y-16440143D01*
X8786905Y-16440143D01*
X8805952Y-16449667D01*
X8815476Y-16468714D01*
X8815476Y-16573476D01*
X8815476Y-16468714D02*
X8825000Y-16449667D01*
X8844048Y-16440143D01*
X8872619Y-16440143D01*
X8891667Y-16449667D01*
X8901190Y-16468714D01*
X8901190Y-16573476D01*
X8996429Y-16573476D02*
X8996429Y-16440143D01*
X8996429Y-16459190D02*
X9005952Y-16449667D01*
X9025000Y-16440143D01*
X9053571Y-16440143D01*
X9072619Y-16449667D01*
X9082143Y-16468714D01*
X9082143Y-16573476D01*
X9082143Y-16468714D02*
X9091667Y-16449667D01*
X9110714Y-16440143D01*
X9139286Y-16440143D01*
X9158333Y-16449667D01*
X9167857Y-16468714D01*
X9167857Y-16573476D01*
X9558333Y-16363952D02*
X9386905Y-16621095D01*
X9815476Y-16373476D02*
X9834524Y-16373476D01*
X9853571Y-16383000D01*
X9863095Y-16392524D01*
X9872619Y-16411571D01*
X9882143Y-16449667D01*
X9882143Y-16497286D01*
X9872619Y-16535381D01*
X9863095Y-16554428D01*
X9853571Y-16563952D01*
X9834524Y-16573476D01*
X9815476Y-16573476D01*
X9796429Y-16563952D01*
X9786905Y-16554428D01*
X9777381Y-16535381D01*
X9767857Y-16497286D01*
X9767857Y-16449667D01*
X9777381Y-16411571D01*
X9786905Y-16392524D01*
X9796429Y-16383000D01*
X9815476Y-16373476D01*
X9967857Y-16554428D02*
X9977381Y-16563952D01*
X9967857Y-16573476D01*
X9958333Y-16563952D01*
X9967857Y-16554428D01*
X9967857Y-16573476D01*
X10101190Y-16373476D02*
X10120238Y-16373476D01*
X10139286Y-16383000D01*
X10148810Y-16392524D01*
X10158333Y-16411571D01*
X10167857Y-16449667D01*
X10167857Y-16497286D01*
X10158333Y-16535381D01*
X10148810Y-16554428D01*
X10139286Y-16563952D01*
X10120238Y-16573476D01*
X10101190Y-16573476D01*
X10082143Y-16563952D01*
X10072619Y-16554428D01*
X10063095Y-16535381D01*
X10053571Y-16497286D01*
X10053571Y-16449667D01*
X10063095Y-16411571D01*
X10072619Y-16392524D01*
X10082143Y-16383000D01*
X10101190Y-16373476D01*
X10339286Y-16440143D02*
X10339286Y-16573476D01*
X10291667Y-16363952D02*
X10244048Y-16506809D01*
X10367857Y-16506809D01*
X10425000Y-16373476D02*
X10558333Y-16373476D01*
X10472619Y-16573476D01*
X10625000Y-16392524D02*
X10634524Y-16383000D01*
X10653571Y-16373476D01*
X10701190Y-16373476D01*
X10720238Y-16383000D01*
X10729762Y-16392524D01*
X10739286Y-16411571D01*
X10739286Y-16430619D01*
X10729762Y-16459190D01*
X10615476Y-16573476D01*
X10739286Y-16573476D01*
X10815476Y-16373476D02*
X10815476Y-16411571D01*
X10891667Y-16373476D02*
X10891667Y-16411571D01*
X11186905Y-16649667D02*
X11177381Y-16640143D01*
X11158333Y-16611571D01*
X11148810Y-16592524D01*
X11139286Y-16563952D01*
X11129762Y-16516333D01*
X11129762Y-16478238D01*
X11139286Y-16430619D01*
X11148810Y-16402048D01*
X11158333Y-16383000D01*
X11177381Y-16354428D01*
X11186905Y-16344905D01*
X11253571Y-16392524D02*
X11263095Y-16383000D01*
X11282143Y-16373476D01*
X11329762Y-16373476D01*
X11348809Y-16383000D01*
X11358333Y-16392524D01*
X11367857Y-16411571D01*
X11367857Y-16430619D01*
X11358333Y-16459190D01*
X11244048Y-16573476D01*
X11367857Y-16573476D01*
X11605952Y-16573476D02*
X11605952Y-16373476D01*
X11691667Y-16573476D02*
X11691667Y-16468714D01*
X11682143Y-16449667D01*
X11663095Y-16440143D01*
X11634524Y-16440143D01*
X11615476Y-16449667D01*
X11605952Y-16459190D01*
X11815476Y-16573476D02*
X11796428Y-16563952D01*
X11786905Y-16554428D01*
X11777381Y-16535381D01*
X11777381Y-16478238D01*
X11786905Y-16459190D01*
X11796428Y-16449667D01*
X11815476Y-16440143D01*
X11844048Y-16440143D01*
X11863095Y-16449667D01*
X11872619Y-16459190D01*
X11882143Y-16478238D01*
X11882143Y-16535381D01*
X11872619Y-16554428D01*
X11863095Y-16563952D01*
X11844048Y-16573476D01*
X11815476Y-16573476D01*
X11996428Y-16573476D02*
X11977381Y-16563952D01*
X11967857Y-16544905D01*
X11967857Y-16373476D01*
X12148809Y-16563952D02*
X12129762Y-16573476D01*
X12091667Y-16573476D01*
X12072619Y-16563952D01*
X12063095Y-16544905D01*
X12063095Y-16468714D01*
X12072619Y-16449667D01*
X12091667Y-16440143D01*
X12129762Y-16440143D01*
X12148809Y-16449667D01*
X12158333Y-16468714D01*
X12158333Y-16487762D01*
X12063095Y-16506809D01*
X12234524Y-16563952D02*
X12253571Y-16573476D01*
X12291667Y-16573476D01*
X12310714Y-16563952D01*
X12320238Y-16544905D01*
X12320238Y-16535381D01*
X12310714Y-16516333D01*
X12291667Y-16506809D01*
X12263095Y-16506809D01*
X12244048Y-16497286D01*
X12234524Y-16478238D01*
X12234524Y-16468714D01*
X12244048Y-16449667D01*
X12263095Y-16440143D01*
X12291667Y-16440143D01*
X12310714Y-16449667D01*
X12386905Y-16649667D02*
X12396428Y-16640143D01*
X12415476Y-16611571D01*
X12425000Y-16592524D01*
X12434524Y-16563952D01*
X12444048Y-16516333D01*
X12444048Y-16478238D01*
X12434524Y-16430619D01*
X12425000Y-16402048D01*
X12415476Y-16383000D01*
X12396428Y-16354428D01*
X12386905Y-16344905D01*
D21*
X7595962Y-16792962D02*
X7595962Y-16701038D01*
X7504038Y-16701038D01*
X7504038Y-16792962D01*
X7595962Y-16792962D01*
X7615000Y-16747000D02*
G75*
G03*
X7615000Y-16747000I-65000J0D01*
G01*
D11*
X7977381Y-16837476D02*
X7863095Y-16837476D01*
X7920238Y-16837476D02*
X7920238Y-16637476D01*
X7901190Y-16666048D01*
X7882143Y-16685095D01*
X7863095Y-16694619D01*
X8063095Y-16818429D02*
X8072619Y-16827952D01*
X8063095Y-16837476D01*
X8053571Y-16827952D01*
X8063095Y-16818429D01*
X8063095Y-16837476D01*
X8139286Y-16637476D02*
X8263095Y-16637476D01*
X8196428Y-16713667D01*
X8225000Y-16713667D01*
X8244048Y-16723190D01*
X8253571Y-16732714D01*
X8263095Y-16751762D01*
X8263095Y-16799381D01*
X8253571Y-16818429D01*
X8244048Y-16827952D01*
X8225000Y-16837476D01*
X8167857Y-16837476D01*
X8148809Y-16827952D01*
X8139286Y-16818429D01*
X8386905Y-16637476D02*
X8405952Y-16637476D01*
X8425000Y-16647000D01*
X8434524Y-16656524D01*
X8444048Y-16675571D01*
X8453571Y-16713667D01*
X8453571Y-16761286D01*
X8444048Y-16799381D01*
X8434524Y-16818429D01*
X8425000Y-16827952D01*
X8405952Y-16837476D01*
X8386905Y-16837476D01*
X8367857Y-16827952D01*
X8358333Y-16818429D01*
X8348809Y-16799381D01*
X8339286Y-16761286D01*
X8339286Y-16713667D01*
X8348809Y-16675571D01*
X8358333Y-16656524D01*
X8367857Y-16647000D01*
X8386905Y-16637476D01*
X8577381Y-16637476D02*
X8596429Y-16637476D01*
X8615476Y-16647000D01*
X8625000Y-16656524D01*
X8634524Y-16675571D01*
X8644048Y-16713667D01*
X8644048Y-16761286D01*
X8634524Y-16799381D01*
X8625000Y-16818429D01*
X8615476Y-16827952D01*
X8596429Y-16837476D01*
X8577381Y-16837476D01*
X8558333Y-16827952D01*
X8548810Y-16818429D01*
X8539286Y-16799381D01*
X8529762Y-16761286D01*
X8529762Y-16713667D01*
X8539286Y-16675571D01*
X8548810Y-16656524D01*
X8558333Y-16647000D01*
X8577381Y-16637476D01*
X8729762Y-16837476D02*
X8729762Y-16704143D01*
X8729762Y-16723190D02*
X8739286Y-16713667D01*
X8758333Y-16704143D01*
X8786905Y-16704143D01*
X8805952Y-16713667D01*
X8815476Y-16732714D01*
X8815476Y-16837476D01*
X8815476Y-16732714D02*
X8825000Y-16713667D01*
X8844048Y-16704143D01*
X8872619Y-16704143D01*
X8891667Y-16713667D01*
X8901190Y-16732714D01*
X8901190Y-16837476D01*
X8996429Y-16837476D02*
X8996429Y-16704143D01*
X8996429Y-16723190D02*
X9005952Y-16713667D01*
X9025000Y-16704143D01*
X9053571Y-16704143D01*
X9072619Y-16713667D01*
X9082143Y-16732714D01*
X9082143Y-16837476D01*
X9082143Y-16732714D02*
X9091667Y-16713667D01*
X9110714Y-16704143D01*
X9139286Y-16704143D01*
X9158333Y-16713667D01*
X9167857Y-16732714D01*
X9167857Y-16837476D01*
X9558333Y-16627952D02*
X9386905Y-16885095D01*
X9815476Y-16637476D02*
X9834524Y-16637476D01*
X9853571Y-16647000D01*
X9863095Y-16656524D01*
X9872619Y-16675571D01*
X9882143Y-16713667D01*
X9882143Y-16761286D01*
X9872619Y-16799381D01*
X9863095Y-16818429D01*
X9853571Y-16827952D01*
X9834524Y-16837476D01*
X9815476Y-16837476D01*
X9796429Y-16827952D01*
X9786905Y-16818429D01*
X9777381Y-16799381D01*
X9767857Y-16761286D01*
X9767857Y-16713667D01*
X9777381Y-16675571D01*
X9786905Y-16656524D01*
X9796429Y-16647000D01*
X9815476Y-16637476D01*
X9967857Y-16818429D02*
X9977381Y-16827952D01*
X9967857Y-16837476D01*
X9958333Y-16827952D01*
X9967857Y-16818429D01*
X9967857Y-16837476D01*
X10101190Y-16637476D02*
X10120238Y-16637476D01*
X10139286Y-16647000D01*
X10148810Y-16656524D01*
X10158333Y-16675571D01*
X10167857Y-16713667D01*
X10167857Y-16761286D01*
X10158333Y-16799381D01*
X10148810Y-16818429D01*
X10139286Y-16827952D01*
X10120238Y-16837476D01*
X10101190Y-16837476D01*
X10082143Y-16827952D01*
X10072619Y-16818429D01*
X10063095Y-16799381D01*
X10053571Y-16761286D01*
X10053571Y-16713667D01*
X10063095Y-16675571D01*
X10072619Y-16656524D01*
X10082143Y-16647000D01*
X10101190Y-16637476D01*
X10348810Y-16637476D02*
X10253571Y-16637476D01*
X10244048Y-16732714D01*
X10253571Y-16723190D01*
X10272619Y-16713667D01*
X10320238Y-16713667D01*
X10339286Y-16723190D01*
X10348810Y-16732714D01*
X10358333Y-16751762D01*
X10358333Y-16799381D01*
X10348810Y-16818429D01*
X10339286Y-16827952D01*
X10320238Y-16837476D01*
X10272619Y-16837476D01*
X10253571Y-16827952D01*
X10244048Y-16818429D01*
X10548810Y-16837476D02*
X10434524Y-16837476D01*
X10491667Y-16837476D02*
X10491667Y-16637476D01*
X10472619Y-16666048D01*
X10453571Y-16685095D01*
X10434524Y-16694619D01*
X10625000Y-16656524D02*
X10634524Y-16647000D01*
X10653571Y-16637476D01*
X10701190Y-16637476D01*
X10720238Y-16647000D01*
X10729762Y-16656524D01*
X10739286Y-16675571D01*
X10739286Y-16694619D01*
X10729762Y-16723190D01*
X10615476Y-16837476D01*
X10739286Y-16837476D01*
X10815476Y-16637476D02*
X10815476Y-16675571D01*
X10891667Y-16637476D02*
X10891667Y-16675571D01*
X11186905Y-16913667D02*
X11177381Y-16904143D01*
X11158333Y-16875571D01*
X11148810Y-16856524D01*
X11139286Y-16827952D01*
X11129762Y-16780333D01*
X11129762Y-16742238D01*
X11139286Y-16694619D01*
X11148810Y-16666048D01*
X11158333Y-16647000D01*
X11177381Y-16618428D01*
X11186905Y-16608905D01*
X11253571Y-16656524D02*
X11263095Y-16647000D01*
X11282143Y-16637476D01*
X11329762Y-16637476D01*
X11348809Y-16647000D01*
X11358333Y-16656524D01*
X11367857Y-16675571D01*
X11367857Y-16694619D01*
X11358333Y-16723190D01*
X11244048Y-16837476D01*
X11367857Y-16837476D01*
X11482143Y-16723190D02*
X11463095Y-16713667D01*
X11453571Y-16704143D01*
X11444048Y-16685095D01*
X11444048Y-16675571D01*
X11453571Y-16656524D01*
X11463095Y-16647000D01*
X11482143Y-16637476D01*
X11520238Y-16637476D01*
X11539286Y-16647000D01*
X11548809Y-16656524D01*
X11558333Y-16675571D01*
X11558333Y-16685095D01*
X11548809Y-16704143D01*
X11539286Y-16713667D01*
X11520238Y-16723190D01*
X11482143Y-16723190D01*
X11463095Y-16732714D01*
X11453571Y-16742238D01*
X11444048Y-16761286D01*
X11444048Y-16799381D01*
X11453571Y-16818429D01*
X11463095Y-16827952D01*
X11482143Y-16837476D01*
X11520238Y-16837476D01*
X11539286Y-16827952D01*
X11548809Y-16818429D01*
X11558333Y-16799381D01*
X11558333Y-16761286D01*
X11548809Y-16742238D01*
X11539286Y-16732714D01*
X11520238Y-16723190D01*
X11796428Y-16837476D02*
X11796428Y-16637476D01*
X11882143Y-16837476D02*
X11882143Y-16732714D01*
X11872619Y-16713667D01*
X11853571Y-16704143D01*
X11825000Y-16704143D01*
X11805952Y-16713667D01*
X11796428Y-16723190D01*
X12005952Y-16837476D02*
X11986905Y-16827952D01*
X11977381Y-16818429D01*
X11967857Y-16799381D01*
X11967857Y-16742238D01*
X11977381Y-16723190D01*
X11986905Y-16713667D01*
X12005952Y-16704143D01*
X12034524Y-16704143D01*
X12053571Y-16713667D01*
X12063095Y-16723190D01*
X12072619Y-16742238D01*
X12072619Y-16799381D01*
X12063095Y-16818429D01*
X12053571Y-16827952D01*
X12034524Y-16837476D01*
X12005952Y-16837476D01*
X12186905Y-16837476D02*
X12167857Y-16827952D01*
X12158333Y-16808905D01*
X12158333Y-16637476D01*
X12339286Y-16827952D02*
X12320238Y-16837476D01*
X12282143Y-16837476D01*
X12263095Y-16827952D01*
X12253571Y-16808905D01*
X12253571Y-16732714D01*
X12263095Y-16713667D01*
X12282143Y-16704143D01*
X12320238Y-16704143D01*
X12339286Y-16713667D01*
X12348809Y-16732714D01*
X12348809Y-16751762D01*
X12253571Y-16770809D01*
X12425000Y-16827952D02*
X12444048Y-16837476D01*
X12482143Y-16837476D01*
X12501190Y-16827952D01*
X12510714Y-16808905D01*
X12510714Y-16799381D01*
X12501190Y-16780333D01*
X12482143Y-16770809D01*
X12453571Y-16770809D01*
X12434524Y-16761286D01*
X12425000Y-16742238D01*
X12425000Y-16732714D01*
X12434524Y-16713667D01*
X12453571Y-16704143D01*
X12482143Y-16704143D01*
X12501190Y-16713667D01*
X12577381Y-16913667D02*
X12586905Y-16904143D01*
X12605952Y-16875571D01*
X12615476Y-16856524D01*
X12625000Y-16827952D01*
X12634524Y-16780333D01*
X12634524Y-16742238D01*
X12625000Y-16694619D01*
X12615476Y-16666048D01*
X12605952Y-16647000D01*
X12586905Y-16618428D01*
X12577381Y-16608905D01*
D22*
X7526000Y-17100000D02*
X7615000Y-17011000D01*
X7526000Y-16922000D01*
X7437000Y-17011000D01*
X7526000Y-17100000D01*
X7615000Y-17011000D02*
G75*
G03*
X7615000Y-17011000I-89000J0D01*
G01*
D11*
X7977381Y-17101476D02*
X7863095Y-17101476D01*
X7920238Y-17101476D02*
X7920238Y-16901476D01*
X7901190Y-16930048D01*
X7882143Y-16949095D01*
X7863095Y-16958619D01*
X8063095Y-17082429D02*
X8072619Y-17091952D01*
X8063095Y-17101476D01*
X8053571Y-17091952D01*
X8063095Y-17082429D01*
X8063095Y-17101476D01*
X8139286Y-16901476D02*
X8272619Y-16901476D01*
X8186905Y-17101476D01*
X8377381Y-16987190D02*
X8358333Y-16977667D01*
X8348809Y-16968143D01*
X8339286Y-16949095D01*
X8339286Y-16939571D01*
X8348809Y-16920524D01*
X8358333Y-16911000D01*
X8377381Y-16901476D01*
X8415476Y-16901476D01*
X8434524Y-16911000D01*
X8444048Y-16920524D01*
X8453571Y-16939571D01*
X8453571Y-16949095D01*
X8444048Y-16968143D01*
X8434524Y-16977667D01*
X8415476Y-16987190D01*
X8377381Y-16987190D01*
X8358333Y-16996714D01*
X8348809Y-17006238D01*
X8339286Y-17025286D01*
X8339286Y-17063381D01*
X8348809Y-17082429D01*
X8358333Y-17091952D01*
X8377381Y-17101476D01*
X8415476Y-17101476D01*
X8434524Y-17091952D01*
X8444048Y-17082429D01*
X8453571Y-17063381D01*
X8453571Y-17025286D01*
X8444048Y-17006238D01*
X8434524Y-16996714D01*
X8415476Y-16987190D01*
X8577381Y-16901476D02*
X8596429Y-16901476D01*
X8615476Y-16911000D01*
X8625000Y-16920524D01*
X8634524Y-16939571D01*
X8644048Y-16977667D01*
X8644048Y-17025286D01*
X8634524Y-17063381D01*
X8625000Y-17082429D01*
X8615476Y-17091952D01*
X8596429Y-17101476D01*
X8577381Y-17101476D01*
X8558333Y-17091952D01*
X8548810Y-17082429D01*
X8539286Y-17063381D01*
X8529762Y-17025286D01*
X8529762Y-16977667D01*
X8539286Y-16939571D01*
X8548810Y-16920524D01*
X8558333Y-16911000D01*
X8577381Y-16901476D01*
X8729762Y-17101476D02*
X8729762Y-16968143D01*
X8729762Y-16987190D02*
X8739286Y-16977667D01*
X8758333Y-16968143D01*
X8786905Y-16968143D01*
X8805952Y-16977667D01*
X8815476Y-16996714D01*
X8815476Y-17101476D01*
X8815476Y-16996714D02*
X8825000Y-16977667D01*
X8844048Y-16968143D01*
X8872619Y-16968143D01*
X8891667Y-16977667D01*
X8901190Y-16996714D01*
X8901190Y-17101476D01*
X8996429Y-17101476D02*
X8996429Y-16968143D01*
X8996429Y-16987190D02*
X9005952Y-16977667D01*
X9025000Y-16968143D01*
X9053571Y-16968143D01*
X9072619Y-16977667D01*
X9082143Y-16996714D01*
X9082143Y-17101476D01*
X9082143Y-16996714D02*
X9091667Y-16977667D01*
X9110714Y-16968143D01*
X9139286Y-16968143D01*
X9158333Y-16977667D01*
X9167857Y-16996714D01*
X9167857Y-17101476D01*
X9558333Y-16891952D02*
X9386905Y-17149095D01*
X9815476Y-16901476D02*
X9834524Y-16901476D01*
X9853571Y-16911000D01*
X9863095Y-16920524D01*
X9872619Y-16939571D01*
X9882143Y-16977667D01*
X9882143Y-17025286D01*
X9872619Y-17063381D01*
X9863095Y-17082429D01*
X9853571Y-17091952D01*
X9834524Y-17101476D01*
X9815476Y-17101476D01*
X9796429Y-17091952D01*
X9786905Y-17082429D01*
X9777381Y-17063381D01*
X9767857Y-17025286D01*
X9767857Y-16977667D01*
X9777381Y-16939571D01*
X9786905Y-16920524D01*
X9796429Y-16911000D01*
X9815476Y-16901476D01*
X9967857Y-17082429D02*
X9977381Y-17091952D01*
X9967857Y-17101476D01*
X9958333Y-17091952D01*
X9967857Y-17082429D01*
X9967857Y-17101476D01*
X10101190Y-16901476D02*
X10120238Y-16901476D01*
X10139286Y-16911000D01*
X10148810Y-16920524D01*
X10158333Y-16939571D01*
X10167857Y-16977667D01*
X10167857Y-17025286D01*
X10158333Y-17063381D01*
X10148810Y-17082429D01*
X10139286Y-17091952D01*
X10120238Y-17101476D01*
X10101190Y-17101476D01*
X10082143Y-17091952D01*
X10072619Y-17082429D01*
X10063095Y-17063381D01*
X10053571Y-17025286D01*
X10053571Y-16977667D01*
X10063095Y-16939571D01*
X10072619Y-16920524D01*
X10082143Y-16911000D01*
X10101190Y-16901476D01*
X10234524Y-16901476D02*
X10367857Y-16901476D01*
X10282143Y-17101476D01*
X10482143Y-16901476D02*
X10501190Y-16901476D01*
X10520238Y-16911000D01*
X10529762Y-16920524D01*
X10539286Y-16939571D01*
X10548810Y-16977667D01*
X10548810Y-17025286D01*
X10539286Y-17063381D01*
X10529762Y-17082429D01*
X10520238Y-17091952D01*
X10501190Y-17101476D01*
X10482143Y-17101476D01*
X10463095Y-17091952D01*
X10453571Y-17082429D01*
X10444048Y-17063381D01*
X10434524Y-17025286D01*
X10434524Y-16977667D01*
X10444048Y-16939571D01*
X10453571Y-16920524D01*
X10463095Y-16911000D01*
X10482143Y-16901476D01*
X10739286Y-17101476D02*
X10625000Y-17101476D01*
X10682143Y-17101476D02*
X10682143Y-16901476D01*
X10663095Y-16930048D01*
X10644048Y-16949095D01*
X10625000Y-16958619D01*
X10815476Y-16901476D02*
X10815476Y-16939571D01*
X10891667Y-16901476D02*
X10891667Y-16939571D01*
X11186905Y-17177667D02*
X11177381Y-17168143D01*
X11158333Y-17139571D01*
X11148810Y-17120524D01*
X11139286Y-17091952D01*
X11129762Y-17044333D01*
X11129762Y-17006238D01*
X11139286Y-16958619D01*
X11148810Y-16930048D01*
X11158333Y-16911000D01*
X11177381Y-16882429D01*
X11186905Y-16872905D01*
X11291667Y-16987190D02*
X11272619Y-16977667D01*
X11263095Y-16968143D01*
X11253571Y-16949095D01*
X11253571Y-16939571D01*
X11263095Y-16920524D01*
X11272619Y-16911000D01*
X11291667Y-16901476D01*
X11329762Y-16901476D01*
X11348809Y-16911000D01*
X11358333Y-16920524D01*
X11367857Y-16939571D01*
X11367857Y-16949095D01*
X11358333Y-16968143D01*
X11348809Y-16977667D01*
X11329762Y-16987190D01*
X11291667Y-16987190D01*
X11272619Y-16996714D01*
X11263095Y-17006238D01*
X11253571Y-17025286D01*
X11253571Y-17063381D01*
X11263095Y-17082429D01*
X11272619Y-17091952D01*
X11291667Y-17101476D01*
X11329762Y-17101476D01*
X11348809Y-17091952D01*
X11358333Y-17082429D01*
X11367857Y-17063381D01*
X11367857Y-17025286D01*
X11358333Y-17006238D01*
X11348809Y-16996714D01*
X11329762Y-16987190D01*
X11605952Y-17101476D02*
X11605952Y-16901476D01*
X11691667Y-17101476D02*
X11691667Y-16996714D01*
X11682143Y-16977667D01*
X11663095Y-16968143D01*
X11634524Y-16968143D01*
X11615476Y-16977667D01*
X11605952Y-16987190D01*
X11815476Y-17101476D02*
X11796428Y-17091952D01*
X11786905Y-17082429D01*
X11777381Y-17063381D01*
X11777381Y-17006238D01*
X11786905Y-16987190D01*
X11796428Y-16977667D01*
X11815476Y-16968143D01*
X11844048Y-16968143D01*
X11863095Y-16977667D01*
X11872619Y-16987190D01*
X11882143Y-17006238D01*
X11882143Y-17063381D01*
X11872619Y-17082429D01*
X11863095Y-17091952D01*
X11844048Y-17101476D01*
X11815476Y-17101476D01*
X11996428Y-17101476D02*
X11977381Y-17091952D01*
X11967857Y-17072905D01*
X11967857Y-16901476D01*
X12148809Y-17091952D02*
X12129762Y-17101476D01*
X12091667Y-17101476D01*
X12072619Y-17091952D01*
X12063095Y-17072905D01*
X12063095Y-16996714D01*
X12072619Y-16977667D01*
X12091667Y-16968143D01*
X12129762Y-16968143D01*
X12148809Y-16977667D01*
X12158333Y-16996714D01*
X12158333Y-17015762D01*
X12063095Y-17034810D01*
X12234524Y-17091952D02*
X12253571Y-17101476D01*
X12291667Y-17101476D01*
X12310714Y-17091952D01*
X12320238Y-17072905D01*
X12320238Y-17063381D01*
X12310714Y-17044333D01*
X12291667Y-17034810D01*
X12263095Y-17034810D01*
X12244048Y-17025286D01*
X12234524Y-17006238D01*
X12234524Y-16996714D01*
X12244048Y-16977667D01*
X12263095Y-16968143D01*
X12291667Y-16968143D01*
X12310714Y-16977667D01*
X12386905Y-17177667D02*
X12396428Y-17168143D01*
X12415476Y-17139571D01*
X12425000Y-17120524D01*
X12434524Y-17091952D01*
X12444048Y-17044333D01*
X12444048Y-17006238D01*
X12434524Y-16958619D01*
X12425000Y-16930048D01*
X12415476Y-16911000D01*
X12396428Y-16882429D01*
X12386905Y-16872905D01*
D23*
X7522290Y-17216290D02*
X7522290Y-17401710D01*
X7429580Y-17309000D02*
X7615000Y-17309000D01*
X7587846Y-17374557D02*
X7587846Y-17243444D01*
X7456733Y-17243444D01*
X7456733Y-17374557D01*
X7587846Y-17374557D01*
D11*
X7977381Y-17399476D02*
X7863095Y-17399476D01*
X7920238Y-17399476D02*
X7920238Y-17199476D01*
X7901190Y-17228048D01*
X7882143Y-17247095D01*
X7863095Y-17256619D01*
X8063095Y-17380429D02*
X8072619Y-17389952D01*
X8063095Y-17399476D01*
X8053571Y-17389952D01*
X8063095Y-17380429D01*
X8063095Y-17399476D01*
X8186905Y-17285190D02*
X8167857Y-17275667D01*
X8158333Y-17266143D01*
X8148809Y-17247095D01*
X8148809Y-17237571D01*
X8158333Y-17218524D01*
X8167857Y-17209000D01*
X8186905Y-17199476D01*
X8225000Y-17199476D01*
X8244048Y-17209000D01*
X8253571Y-17218524D01*
X8263095Y-17237571D01*
X8263095Y-17247095D01*
X8253571Y-17266143D01*
X8244048Y-17275667D01*
X8225000Y-17285190D01*
X8186905Y-17285190D01*
X8167857Y-17294714D01*
X8158333Y-17304238D01*
X8148809Y-17323286D01*
X8148809Y-17361381D01*
X8158333Y-17380429D01*
X8167857Y-17389952D01*
X8186905Y-17399476D01*
X8225000Y-17399476D01*
X8244048Y-17389952D01*
X8253571Y-17380429D01*
X8263095Y-17361381D01*
X8263095Y-17323286D01*
X8253571Y-17304238D01*
X8244048Y-17294714D01*
X8225000Y-17285190D01*
X8444048Y-17199476D02*
X8348809Y-17199476D01*
X8339286Y-17294714D01*
X8348809Y-17285190D01*
X8367857Y-17275667D01*
X8415476Y-17275667D01*
X8434524Y-17285190D01*
X8444048Y-17294714D01*
X8453571Y-17313762D01*
X8453571Y-17361381D01*
X8444048Y-17380429D01*
X8434524Y-17389952D01*
X8415476Y-17399476D01*
X8367857Y-17399476D01*
X8348809Y-17389952D01*
X8339286Y-17380429D01*
X8625000Y-17266143D02*
X8625000Y-17399476D01*
X8577381Y-17189952D02*
X8529762Y-17332810D01*
X8653571Y-17332810D01*
X8729762Y-17399476D02*
X8729762Y-17266143D01*
X8729762Y-17285190D02*
X8739286Y-17275667D01*
X8758333Y-17266143D01*
X8786905Y-17266143D01*
X8805952Y-17275667D01*
X8815476Y-17294714D01*
X8815476Y-17399476D01*
X8815476Y-17294714D02*
X8825000Y-17275667D01*
X8844048Y-17266143D01*
X8872619Y-17266143D01*
X8891667Y-17275667D01*
X8901190Y-17294714D01*
X8901190Y-17399476D01*
X8996429Y-17399476D02*
X8996429Y-17266143D01*
X8996429Y-17285190D02*
X9005952Y-17275667D01*
X9025000Y-17266143D01*
X9053571Y-17266143D01*
X9072619Y-17275667D01*
X9082143Y-17294714D01*
X9082143Y-17399476D01*
X9082143Y-17294714D02*
X9091667Y-17275667D01*
X9110714Y-17266143D01*
X9139286Y-17266143D01*
X9158333Y-17275667D01*
X9167857Y-17294714D01*
X9167857Y-17399476D01*
X9558333Y-17189952D02*
X9386905Y-17447095D01*
X9815476Y-17199476D02*
X9834524Y-17199476D01*
X9853571Y-17209000D01*
X9863095Y-17218524D01*
X9872619Y-17237571D01*
X9882143Y-17275667D01*
X9882143Y-17323286D01*
X9872619Y-17361381D01*
X9863095Y-17380429D01*
X9853571Y-17389952D01*
X9834524Y-17399476D01*
X9815476Y-17399476D01*
X9796429Y-17389952D01*
X9786905Y-17380429D01*
X9777381Y-17361381D01*
X9767857Y-17323286D01*
X9767857Y-17275667D01*
X9777381Y-17237571D01*
X9786905Y-17218524D01*
X9796429Y-17209000D01*
X9815476Y-17199476D01*
X9967857Y-17380429D02*
X9977381Y-17389952D01*
X9967857Y-17399476D01*
X9958333Y-17389952D01*
X9967857Y-17380429D01*
X9967857Y-17399476D01*
X10101190Y-17199476D02*
X10120238Y-17199476D01*
X10139286Y-17209000D01*
X10148810Y-17218524D01*
X10158333Y-17237571D01*
X10167857Y-17275667D01*
X10167857Y-17323286D01*
X10158333Y-17361381D01*
X10148810Y-17380429D01*
X10139286Y-17389952D01*
X10120238Y-17399476D01*
X10101190Y-17399476D01*
X10082143Y-17389952D01*
X10072619Y-17380429D01*
X10063095Y-17361381D01*
X10053571Y-17323286D01*
X10053571Y-17275667D01*
X10063095Y-17237571D01*
X10072619Y-17218524D01*
X10082143Y-17209000D01*
X10101190Y-17199476D01*
X10234524Y-17199476D02*
X10367857Y-17199476D01*
X10282143Y-17399476D01*
X10425000Y-17199476D02*
X10548810Y-17199476D01*
X10482143Y-17275667D01*
X10510714Y-17275667D01*
X10529762Y-17285190D01*
X10539286Y-17294714D01*
X10548810Y-17313762D01*
X10548810Y-17361381D01*
X10539286Y-17380429D01*
X10529762Y-17389952D01*
X10510714Y-17399476D01*
X10453571Y-17399476D01*
X10434524Y-17389952D01*
X10425000Y-17380429D01*
X10672619Y-17199476D02*
X10691667Y-17199476D01*
X10710714Y-17209000D01*
X10720238Y-17218524D01*
X10729762Y-17237571D01*
X10739286Y-17275667D01*
X10739286Y-17323286D01*
X10729762Y-17361381D01*
X10720238Y-17380429D01*
X10710714Y-17389952D01*
X10691667Y-17399476D01*
X10672619Y-17399476D01*
X10653571Y-17389952D01*
X10644048Y-17380429D01*
X10634524Y-17361381D01*
X10625000Y-17323286D01*
X10625000Y-17275667D01*
X10634524Y-17237571D01*
X10644048Y-17218524D01*
X10653571Y-17209000D01*
X10672619Y-17199476D01*
X10815476Y-17199476D02*
X10815476Y-17237571D01*
X10891667Y-17199476D02*
X10891667Y-17237571D01*
X11186905Y-17475667D02*
X11177381Y-17466143D01*
X11158333Y-17437571D01*
X11148810Y-17418524D01*
X11139286Y-17389952D01*
X11129762Y-17342333D01*
X11129762Y-17304238D01*
X11139286Y-17256619D01*
X11148810Y-17228048D01*
X11158333Y-17209000D01*
X11177381Y-17180429D01*
X11186905Y-17170905D01*
X11291667Y-17285190D02*
X11272619Y-17275667D01*
X11263095Y-17266143D01*
X11253571Y-17247095D01*
X11253571Y-17237571D01*
X11263095Y-17218524D01*
X11272619Y-17209000D01*
X11291667Y-17199476D01*
X11329762Y-17199476D01*
X11348809Y-17209000D01*
X11358333Y-17218524D01*
X11367857Y-17237571D01*
X11367857Y-17247095D01*
X11358333Y-17266143D01*
X11348809Y-17275667D01*
X11329762Y-17285190D01*
X11291667Y-17285190D01*
X11272619Y-17294714D01*
X11263095Y-17304238D01*
X11253571Y-17323286D01*
X11253571Y-17361381D01*
X11263095Y-17380429D01*
X11272619Y-17389952D01*
X11291667Y-17399476D01*
X11329762Y-17399476D01*
X11348809Y-17389952D01*
X11358333Y-17380429D01*
X11367857Y-17361381D01*
X11367857Y-17323286D01*
X11358333Y-17304238D01*
X11348809Y-17294714D01*
X11329762Y-17285190D01*
X11605952Y-17399476D02*
X11605952Y-17199476D01*
X11691667Y-17399476D02*
X11691667Y-17294714D01*
X11682143Y-17275667D01*
X11663095Y-17266143D01*
X11634524Y-17266143D01*
X11615476Y-17275667D01*
X11605952Y-17285190D01*
X11815476Y-17399476D02*
X11796428Y-17389952D01*
X11786905Y-17380429D01*
X11777381Y-17361381D01*
X11777381Y-17304238D01*
X11786905Y-17285190D01*
X11796428Y-17275667D01*
X11815476Y-17266143D01*
X11844048Y-17266143D01*
X11863095Y-17275667D01*
X11872619Y-17285190D01*
X11882143Y-17304238D01*
X11882143Y-17361381D01*
X11872619Y-17380429D01*
X11863095Y-17389952D01*
X11844048Y-17399476D01*
X11815476Y-17399476D01*
X11996428Y-17399476D02*
X11977381Y-17389952D01*
X11967857Y-17370905D01*
X11967857Y-17199476D01*
X12148809Y-17389952D02*
X12129762Y-17399476D01*
X12091667Y-17399476D01*
X12072619Y-17389952D01*
X12063095Y-17370905D01*
X12063095Y-17294714D01*
X12072619Y-17275667D01*
X12091667Y-17266143D01*
X12129762Y-17266143D01*
X12148809Y-17275667D01*
X12158333Y-17294714D01*
X12158333Y-17313762D01*
X12063095Y-17332810D01*
X12234524Y-17389952D02*
X12253571Y-17399476D01*
X12291667Y-17399476D01*
X12310714Y-17389952D01*
X12320238Y-17370905D01*
X12320238Y-17361381D01*
X12310714Y-17342333D01*
X12291667Y-17332810D01*
X12263095Y-17332810D01*
X12244048Y-17323286D01*
X12234524Y-17304238D01*
X12234524Y-17294714D01*
X12244048Y-17275667D01*
X12263095Y-17266143D01*
X12291667Y-17266143D01*
X12310714Y-17275667D01*
X12386905Y-17475667D02*
X12396428Y-17466143D01*
X12415476Y-17437571D01*
X12425000Y-17418524D01*
X12434524Y-17389952D01*
X12444048Y-17342333D01*
X12444048Y-17304238D01*
X12434524Y-17256619D01*
X12425000Y-17228048D01*
X12415476Y-17209000D01*
X12396428Y-17180429D01*
X12386905Y-17170905D01*
M02*
